%TF.GenerationSoftware,KiCad,Pcbnew,8.0.3*%
%TF.CreationDate,2025-03-02T20:24:55+02:00*%
%TF.ProjectId,SHT-31_module,5348542d-3331-45f6-9d6f-64756c652e6b,rev?*%
%TF.SameCoordinates,Original*%
%TF.FileFunction,Legend,Bot*%
%TF.FilePolarity,Positive*%
%FSLAX46Y46*%
G04 Gerber Fmt 4.6, Leading zero omitted, Abs format (unit mm)*
G04 Created by KiCad (PCBNEW 8.0.3) date 2025-03-02 20:24:55*
%MOMM*%
%LPD*%
G01*
G04 APERTURE LIST*
%ADD10C,0.200000*%
%ADD11C,0.100000*%
G04 APERTURE END LIST*
D10*
X170585149Y-74414400D02*
X170756578Y-74357257D01*
X170756578Y-74357257D02*
X171042292Y-74357257D01*
X171042292Y-74357257D02*
X171156578Y-74414400D01*
X171156578Y-74414400D02*
X171213720Y-74471542D01*
X171213720Y-74471542D02*
X171270863Y-74585828D01*
X171270863Y-74585828D02*
X171270863Y-74700114D01*
X171270863Y-74700114D02*
X171213720Y-74814400D01*
X171213720Y-74814400D02*
X171156578Y-74871542D01*
X171156578Y-74871542D02*
X171042292Y-74928685D01*
X171042292Y-74928685D02*
X170813720Y-74985828D01*
X170813720Y-74985828D02*
X170699435Y-75042971D01*
X170699435Y-75042971D02*
X170642292Y-75100114D01*
X170642292Y-75100114D02*
X170585149Y-75214400D01*
X170585149Y-75214400D02*
X170585149Y-75328685D01*
X170585149Y-75328685D02*
X170642292Y-75442971D01*
X170642292Y-75442971D02*
X170699435Y-75500114D01*
X170699435Y-75500114D02*
X170813720Y-75557257D01*
X170813720Y-75557257D02*
X171099435Y-75557257D01*
X171099435Y-75557257D02*
X171270863Y-75500114D01*
X171785149Y-74357257D02*
X171785149Y-75557257D01*
X171785149Y-74985828D02*
X172470863Y-74985828D01*
X172470863Y-74357257D02*
X172470863Y-75557257D01*
X172870863Y-75557257D02*
X173556578Y-75557257D01*
X173213720Y-74357257D02*
X173213720Y-75557257D01*
X173842292Y-75557257D02*
X174585149Y-75557257D01*
X174585149Y-75557257D02*
X174185149Y-75100114D01*
X174185149Y-75100114D02*
X174356578Y-75100114D01*
X174356578Y-75100114D02*
X174470864Y-75042971D01*
X174470864Y-75042971D02*
X174528006Y-74985828D01*
X174528006Y-74985828D02*
X174585149Y-74871542D01*
X174585149Y-74871542D02*
X174585149Y-74585828D01*
X174585149Y-74585828D02*
X174528006Y-74471542D01*
X174528006Y-74471542D02*
X174470864Y-74414400D01*
X174470864Y-74414400D02*
X174356578Y-74357257D01*
X174356578Y-74357257D02*
X174013721Y-74357257D01*
X174013721Y-74357257D02*
X173899435Y-74414400D01*
X173899435Y-74414400D02*
X173842292Y-74471542D01*
X175728006Y-74357257D02*
X175042292Y-74357257D01*
X175385149Y-74357257D02*
X175385149Y-75557257D01*
X175385149Y-75557257D02*
X175270863Y-75385828D01*
X175270863Y-75385828D02*
X175156578Y-75271542D01*
X175156578Y-75271542D02*
X175042292Y-75214400D01*
X176242292Y-74814400D02*
X177156578Y-74814400D01*
X177728006Y-74357257D02*
X177728006Y-75557257D01*
X177728006Y-75557257D02*
X178128006Y-74700114D01*
X178128006Y-74700114D02*
X178528006Y-75557257D01*
X178528006Y-75557257D02*
X178528006Y-74357257D01*
X179328006Y-75557257D02*
X179556578Y-75557257D01*
X179556578Y-75557257D02*
X179670863Y-75500114D01*
X179670863Y-75500114D02*
X179785149Y-75385828D01*
X179785149Y-75385828D02*
X179842292Y-75157257D01*
X179842292Y-75157257D02*
X179842292Y-74757257D01*
X179842292Y-74757257D02*
X179785149Y-74528685D01*
X179785149Y-74528685D02*
X179670863Y-74414400D01*
X179670863Y-74414400D02*
X179556578Y-74357257D01*
X179556578Y-74357257D02*
X179328006Y-74357257D01*
X179328006Y-74357257D02*
X179213721Y-74414400D01*
X179213721Y-74414400D02*
X179099435Y-74528685D01*
X179099435Y-74528685D02*
X179042292Y-74757257D01*
X179042292Y-74757257D02*
X179042292Y-75157257D01*
X179042292Y-75157257D02*
X179099435Y-75385828D01*
X179099435Y-75385828D02*
X179213721Y-75500114D01*
X179213721Y-75500114D02*
X179328006Y-75557257D01*
X180356578Y-74357257D02*
X180356578Y-75557257D01*
X180356578Y-75557257D02*
X180642292Y-75557257D01*
X180642292Y-75557257D02*
X180813721Y-75500114D01*
X180813721Y-75500114D02*
X180928006Y-75385828D01*
X180928006Y-75385828D02*
X180985149Y-75271542D01*
X180985149Y-75271542D02*
X181042292Y-75042971D01*
X181042292Y-75042971D02*
X181042292Y-74871542D01*
X181042292Y-74871542D02*
X180985149Y-74642971D01*
X180985149Y-74642971D02*
X180928006Y-74528685D01*
X180928006Y-74528685D02*
X180813721Y-74414400D01*
X180813721Y-74414400D02*
X180642292Y-74357257D01*
X180642292Y-74357257D02*
X180356578Y-74357257D01*
D11*
X178872419Y-71380074D02*
X178872419Y-70903884D01*
X178872419Y-70903884D02*
X179348609Y-70856265D01*
X179348609Y-70856265D02*
X179300990Y-70903884D01*
X179300990Y-70903884D02*
X179253371Y-70999122D01*
X179253371Y-70999122D02*
X179253371Y-71237217D01*
X179253371Y-71237217D02*
X179300990Y-71332455D01*
X179300990Y-71332455D02*
X179348609Y-71380074D01*
X179348609Y-71380074D02*
X179443847Y-71427693D01*
X179443847Y-71427693D02*
X179681942Y-71427693D01*
X179681942Y-71427693D02*
X179777180Y-71380074D01*
X179777180Y-71380074D02*
X179824800Y-71332455D01*
X179824800Y-71332455D02*
X179872419Y-71237217D01*
X179872419Y-71237217D02*
X179872419Y-70999122D01*
X179872419Y-70999122D02*
X179824800Y-70903884D01*
X179824800Y-70903884D02*
X179777180Y-70856265D01*
X178872419Y-71713408D02*
X179872419Y-72046741D01*
X179872419Y-72046741D02*
X178872419Y-72380074D01*
X176470038Y-71527693D02*
X176422419Y-71432455D01*
X176422419Y-71432455D02*
X176422419Y-71289598D01*
X176422419Y-71289598D02*
X176470038Y-71146741D01*
X176470038Y-71146741D02*
X176565276Y-71051503D01*
X176565276Y-71051503D02*
X176660514Y-71003884D01*
X176660514Y-71003884D02*
X176850990Y-70956265D01*
X176850990Y-70956265D02*
X176993847Y-70956265D01*
X176993847Y-70956265D02*
X177184323Y-71003884D01*
X177184323Y-71003884D02*
X177279561Y-71051503D01*
X177279561Y-71051503D02*
X177374800Y-71146741D01*
X177374800Y-71146741D02*
X177422419Y-71289598D01*
X177422419Y-71289598D02*
X177422419Y-71384836D01*
X177422419Y-71384836D02*
X177374800Y-71527693D01*
X177374800Y-71527693D02*
X177327180Y-71575312D01*
X177327180Y-71575312D02*
X176993847Y-71575312D01*
X176993847Y-71575312D02*
X176993847Y-71384836D01*
X177422419Y-72003884D02*
X176422419Y-72003884D01*
X176422419Y-72003884D02*
X177422419Y-72575312D01*
X177422419Y-72575312D02*
X176422419Y-72575312D01*
X177422419Y-73051503D02*
X176422419Y-73051503D01*
X176422419Y-73051503D02*
X176422419Y-73289598D01*
X176422419Y-73289598D02*
X176470038Y-73432455D01*
X176470038Y-73432455D02*
X176565276Y-73527693D01*
X176565276Y-73527693D02*
X176660514Y-73575312D01*
X176660514Y-73575312D02*
X176850990Y-73622931D01*
X176850990Y-73622931D02*
X176993847Y-73622931D01*
X176993847Y-73622931D02*
X177184323Y-73575312D01*
X177184323Y-73575312D02*
X177279561Y-73527693D01*
X177279561Y-73527693D02*
X177374800Y-73432455D01*
X177374800Y-73432455D02*
X177422419Y-73289598D01*
X177422419Y-73289598D02*
X177422419Y-73051503D01*
X174799800Y-70906265D02*
X174847419Y-71049122D01*
X174847419Y-71049122D02*
X174847419Y-71287217D01*
X174847419Y-71287217D02*
X174799800Y-71382455D01*
X174799800Y-71382455D02*
X174752180Y-71430074D01*
X174752180Y-71430074D02*
X174656942Y-71477693D01*
X174656942Y-71477693D02*
X174561704Y-71477693D01*
X174561704Y-71477693D02*
X174466466Y-71430074D01*
X174466466Y-71430074D02*
X174418847Y-71382455D01*
X174418847Y-71382455D02*
X174371228Y-71287217D01*
X174371228Y-71287217D02*
X174323609Y-71096741D01*
X174323609Y-71096741D02*
X174275990Y-71001503D01*
X174275990Y-71001503D02*
X174228371Y-70953884D01*
X174228371Y-70953884D02*
X174133133Y-70906265D01*
X174133133Y-70906265D02*
X174037895Y-70906265D01*
X174037895Y-70906265D02*
X173942657Y-70953884D01*
X173942657Y-70953884D02*
X173895038Y-71001503D01*
X173895038Y-71001503D02*
X173847419Y-71096741D01*
X173847419Y-71096741D02*
X173847419Y-71334836D01*
X173847419Y-71334836D02*
X173895038Y-71477693D01*
X174752180Y-72477693D02*
X174799800Y-72430074D01*
X174799800Y-72430074D02*
X174847419Y-72287217D01*
X174847419Y-72287217D02*
X174847419Y-72191979D01*
X174847419Y-72191979D02*
X174799800Y-72049122D01*
X174799800Y-72049122D02*
X174704561Y-71953884D01*
X174704561Y-71953884D02*
X174609323Y-71906265D01*
X174609323Y-71906265D02*
X174418847Y-71858646D01*
X174418847Y-71858646D02*
X174275990Y-71858646D01*
X174275990Y-71858646D02*
X174085514Y-71906265D01*
X174085514Y-71906265D02*
X173990276Y-71953884D01*
X173990276Y-71953884D02*
X173895038Y-72049122D01*
X173895038Y-72049122D02*
X173847419Y-72191979D01*
X173847419Y-72191979D02*
X173847419Y-72287217D01*
X173847419Y-72287217D02*
X173895038Y-72430074D01*
X173895038Y-72430074D02*
X173942657Y-72477693D01*
X174847419Y-73382455D02*
X174847419Y-72906265D01*
X174847419Y-72906265D02*
X173847419Y-72906265D01*
X172149800Y-70906265D02*
X172197419Y-71049122D01*
X172197419Y-71049122D02*
X172197419Y-71287217D01*
X172197419Y-71287217D02*
X172149800Y-71382455D01*
X172149800Y-71382455D02*
X172102180Y-71430074D01*
X172102180Y-71430074D02*
X172006942Y-71477693D01*
X172006942Y-71477693D02*
X171911704Y-71477693D01*
X171911704Y-71477693D02*
X171816466Y-71430074D01*
X171816466Y-71430074D02*
X171768847Y-71382455D01*
X171768847Y-71382455D02*
X171721228Y-71287217D01*
X171721228Y-71287217D02*
X171673609Y-71096741D01*
X171673609Y-71096741D02*
X171625990Y-71001503D01*
X171625990Y-71001503D02*
X171578371Y-70953884D01*
X171578371Y-70953884D02*
X171483133Y-70906265D01*
X171483133Y-70906265D02*
X171387895Y-70906265D01*
X171387895Y-70906265D02*
X171292657Y-70953884D01*
X171292657Y-70953884D02*
X171245038Y-71001503D01*
X171245038Y-71001503D02*
X171197419Y-71096741D01*
X171197419Y-71096741D02*
X171197419Y-71334836D01*
X171197419Y-71334836D02*
X171245038Y-71477693D01*
X172197419Y-71906265D02*
X171197419Y-71906265D01*
X171197419Y-71906265D02*
X171197419Y-72144360D01*
X171197419Y-72144360D02*
X171245038Y-72287217D01*
X171245038Y-72287217D02*
X171340276Y-72382455D01*
X171340276Y-72382455D02*
X171435514Y-72430074D01*
X171435514Y-72430074D02*
X171625990Y-72477693D01*
X171625990Y-72477693D02*
X171768847Y-72477693D01*
X171768847Y-72477693D02*
X171959323Y-72430074D01*
X171959323Y-72430074D02*
X172054561Y-72382455D01*
X172054561Y-72382455D02*
X172149800Y-72287217D01*
X172149800Y-72287217D02*
X172197419Y-72144360D01*
X172197419Y-72144360D02*
X172197419Y-71906265D01*
X171911704Y-72858646D02*
X171911704Y-73334836D01*
X172197419Y-72763408D02*
X171197419Y-73096741D01*
X171197419Y-73096741D02*
X172197419Y-73430074D01*
M02*
