%TF.GenerationSoftware,KiCad,Pcbnew,8.0.3*%
%TF.CreationDate,2025-03-02T20:24:55+02:00*%
%TF.ProjectId,SHT-31_module,5348542d-3331-45f6-9d6f-64756c652e6b,rev?*%
%TF.SameCoordinates,Original*%
%TF.FileFunction,Copper,L1,Top*%
%TF.FilePolarity,Positive*%
%FSLAX46Y46*%
G04 Gerber Fmt 4.6, Leading zero omitted, Abs format (unit mm)*
G04 Created by KiCad (PCBNEW 8.0.3) date 2025-03-02 20:24:55*
%MOMM*%
%LPD*%
G01*
G04 APERTURE LIST*
G04 Aperture macros list*
%AMRoundRect*
0 Rectangle with rounded corners*
0 $1 Rounding radius*
0 $2 $3 $4 $5 $6 $7 $8 $9 X,Y pos of 4 corners*
0 Add a 4 corners polygon primitive as box body*
4,1,4,$2,$3,$4,$5,$6,$7,$8,$9,$2,$3,0*
0 Add four circle primitives for the rounded corners*
1,1,$1+$1,$2,$3*
1,1,$1+$1,$4,$5*
1,1,$1+$1,$6,$7*
1,1,$1+$1,$8,$9*
0 Add four rect primitives between the rounded corners*
20,1,$1+$1,$2,$3,$4,$5,0*
20,1,$1+$1,$4,$5,$6,$7,0*
20,1,$1+$1,$6,$7,$8,$9,0*
20,1,$1+$1,$8,$9,$2,$3,0*%
%AMFreePoly0*
4,1,6,0.500000,-0.850000,-0.500000,-0.850000,-0.500000,0.550000,-0.200000,0.850000,0.500000,0.850000,0.500000,-0.850000,0.500000,-0.850000,$1*%
G04 Aperture macros list end*
%TA.AperFunction,SMDPad,CuDef*%
%ADD10R,0.550000X0.250000*%
%TD*%
%TA.AperFunction,SMDPad,CuDef*%
%ADD11FreePoly0,0.000000*%
%TD*%
%TA.AperFunction,SMDPad,CuDef*%
%ADD12RoundRect,0.250000X-0.625000X0.400000X-0.625000X-0.400000X0.625000X-0.400000X0.625000X0.400000X0*%
%TD*%
%TA.AperFunction,SMDPad,CuDef*%
%ADD13RoundRect,0.250000X0.625000X-0.400000X0.625000X0.400000X-0.625000X0.400000X-0.625000X-0.400000X0*%
%TD*%
%TA.AperFunction,ComponentPad*%
%ADD14R,1.700000X1.700000*%
%TD*%
%TA.AperFunction,ComponentPad*%
%ADD15O,1.700000X1.700000*%
%TD*%
%TA.AperFunction,SMDPad,CuDef*%
%ADD16RoundRect,0.250000X0.325000X0.650000X-0.325000X0.650000X-0.325000X-0.650000X0.325000X-0.650000X0*%
%TD*%
%TA.AperFunction,Conductor*%
%ADD17C,0.200000*%
%TD*%
G04 APERTURE END LIST*
D10*
%TO.P,U1,1,SDA*%
%TO.N,/SDA1*%
X176725000Y-74550000D03*
%TO.P,U1,2,ADDR*%
%TO.N,GND*%
X176725000Y-75050000D03*
%TO.P,U1,3,ALERT*%
%TO.N,unconnected-(U1-ALERT-Pad3)*%
X176725000Y-75550000D03*
%TO.P,U1,4,SCL*%
%TO.N,/SCL1*%
X176725000Y-76050000D03*
%TO.P,U1,5,VDD*%
%TO.N,+5V*%
X179075000Y-76050000D03*
%TO.P,U1,6,~{RESET}*%
%TO.N,unconnected-(U1-~{RESET}-Pad6)*%
X179075000Y-75550000D03*
%TO.P,U1,7,R*%
%TO.N,GND*%
X179075000Y-75050000D03*
%TO.P,U1,8,VSS*%
X179075000Y-74550000D03*
D11*
%TO.P,U1,9,VSS*%
X177900000Y-75300000D03*
%TD*%
D12*
%TO.P,R2,1*%
%TO.N,+5V*%
X174300000Y-72600000D03*
%TO.P,R2,2*%
%TO.N,/SCL1*%
X174300000Y-75700000D03*
%TD*%
D13*
%TO.P,R1,1*%
%TO.N,+5V*%
X171475000Y-75700000D03*
%TO.P,R1,2*%
%TO.N,/SDA1*%
X171475000Y-72600000D03*
%TD*%
D14*
%TO.P,J2,1,Pin_1*%
%TO.N,+5V*%
X179375000Y-69325000D03*
D15*
%TO.P,J2,2,Pin_2*%
%TO.N,GND*%
X176835000Y-69325000D03*
%TD*%
D14*
%TO.P,J1,1,Pin_1*%
%TO.N,/SDA1*%
X171725000Y-69325000D03*
D15*
%TO.P,J1,2,Pin_2*%
%TO.N,/SCL1*%
X174265000Y-69325000D03*
%TD*%
D16*
%TO.P,C1,1*%
%TO.N,+5V*%
X179700000Y-72475000D03*
%TO.P,C1,2*%
%TO.N,GND*%
X176750000Y-72475000D03*
%TD*%
D17*
%TO.N,GND*%
X177900000Y-73625000D02*
X176750000Y-72475000D01*
X177900000Y-75300000D02*
X177900000Y-73625000D01*
X177650000Y-75050000D02*
X177900000Y-75300000D01*
X176725000Y-75050000D02*
X177650000Y-75050000D01*
X178150000Y-75050000D02*
X177900000Y-75300000D01*
X179075000Y-75050000D02*
X178150000Y-75050000D01*
X179075000Y-74550000D02*
X178650000Y-74550000D01*
X178650000Y-74550000D02*
X177900000Y-75300000D01*
%TO.N,+5V*%
X180000000Y-75625000D02*
X179575000Y-76050000D01*
X180000000Y-72775000D02*
X180000000Y-75625000D01*
X179575000Y-76050000D02*
X179075000Y-76050000D01*
X179700000Y-72475000D02*
X180000000Y-72775000D01*
X179700000Y-69650000D02*
X179375000Y-69325000D01*
X179700000Y-72475000D02*
X179700000Y-69650000D01*
X175685000Y-68540000D02*
X176700000Y-67525000D01*
X175685000Y-71215000D02*
X175685000Y-68540000D01*
X174300000Y-72600000D02*
X175685000Y-71215000D01*
X176700000Y-67525000D02*
X177575000Y-67525000D01*
X170300000Y-67525000D02*
X176700000Y-67525000D01*
%TO.N,GND*%
X176835000Y-72390000D02*
X176750000Y-72475000D01*
X176835000Y-69325000D02*
X176835000Y-72390000D01*
%TO.N,/SCL1*%
X173725000Y-75650000D02*
X174300000Y-75650000D01*
X171465256Y-74400000D02*
X172475000Y-74400000D01*
X170150000Y-73084744D02*
X171465256Y-74400000D01*
X170150000Y-68575000D02*
X170150000Y-73084744D01*
X172865000Y-67925000D02*
X170800000Y-67925000D01*
X170800000Y-67925000D02*
X170150000Y-68575000D01*
X174265000Y-69325000D02*
X172865000Y-67925000D01*
X172475000Y-74400000D02*
X173725000Y-75650000D01*
%TO.N,+5V*%
X177575000Y-67525000D02*
X179375000Y-69325000D01*
X169750000Y-68075000D02*
X170300000Y-67525000D01*
X169750000Y-73975000D02*
X169750000Y-68075000D01*
X171475000Y-75700000D02*
X169750000Y-73975000D01*
%TO.N,/SDA1*%
X171725000Y-72350000D02*
X171475000Y-72600000D01*
X171725000Y-69325000D02*
X171725000Y-72350000D01*
%TO.N,/SCL1*%
X174700000Y-76050000D02*
X174300000Y-75650000D01*
X176725000Y-76050000D02*
X174700000Y-76050000D01*
%TO.N,/SDA1*%
X173425000Y-74550000D02*
X176725000Y-74550000D01*
X171475000Y-72600000D02*
X173425000Y-74550000D01*
%TO.N,/SCL1*%
X173800000Y-75700000D02*
X174150000Y-76050000D01*
%TD*%
M02*
