%TF.GenerationSoftware,KiCad,Pcbnew,8.0.3*%
%TF.CreationDate,2025-03-02T20:24:55+02:00*%
%TF.ProjectId,SHT-31_module,5348542d-3331-45f6-9d6f-64756c652e6b,rev?*%
%TF.SameCoordinates,Original*%
%TF.FileFunction,AssemblyDrawing,Top*%
%FSLAX46Y46*%
G04 Gerber Fmt 4.6, Leading zero omitted, Abs format (unit mm)*
G04 Created by KiCad (PCBNEW 8.0.3) date 2025-03-02 20:24:55*
%MOMM*%
%LPD*%
G01*
G04 APERTURE LIST*
%ADD10C,0.060000*%
%ADD11C,0.120000*%
%ADD12C,0.150000*%
%ADD13C,0.100000*%
G04 APERTURE END LIST*
D10*
X177595238Y-75081927D02*
X177595238Y-75405737D01*
X177595238Y-75405737D02*
X177614285Y-75443832D01*
X177614285Y-75443832D02*
X177633333Y-75462880D01*
X177633333Y-75462880D02*
X177671428Y-75481927D01*
X177671428Y-75481927D02*
X177747619Y-75481927D01*
X177747619Y-75481927D02*
X177785714Y-75462880D01*
X177785714Y-75462880D02*
X177804761Y-75443832D01*
X177804761Y-75443832D02*
X177823809Y-75405737D01*
X177823809Y-75405737D02*
X177823809Y-75081927D01*
X178223809Y-75481927D02*
X177995238Y-75481927D01*
X178109524Y-75481927D02*
X178109524Y-75081927D01*
X178109524Y-75081927D02*
X178071428Y-75139070D01*
X178071428Y-75139070D02*
X178033333Y-75177165D01*
X178033333Y-75177165D02*
X177995238Y-75196213D01*
D11*
X174663855Y-74283332D02*
X174282902Y-74549999D01*
X174663855Y-74740475D02*
X173863855Y-74740475D01*
X173863855Y-74740475D02*
X173863855Y-74435713D01*
X173863855Y-74435713D02*
X173901950Y-74359523D01*
X173901950Y-74359523D02*
X173940045Y-74321428D01*
X173940045Y-74321428D02*
X174016236Y-74283332D01*
X174016236Y-74283332D02*
X174130521Y-74283332D01*
X174130521Y-74283332D02*
X174206712Y-74321428D01*
X174206712Y-74321428D02*
X174244807Y-74359523D01*
X174244807Y-74359523D02*
X174282902Y-74435713D01*
X174282902Y-74435713D02*
X174282902Y-74740475D01*
X173940045Y-73978571D02*
X173901950Y-73940475D01*
X173901950Y-73940475D02*
X173863855Y-73864285D01*
X173863855Y-73864285D02*
X173863855Y-73673809D01*
X173863855Y-73673809D02*
X173901950Y-73597618D01*
X173901950Y-73597618D02*
X173940045Y-73559523D01*
X173940045Y-73559523D02*
X174016236Y-73521428D01*
X174016236Y-73521428D02*
X174092426Y-73521428D01*
X174092426Y-73521428D02*
X174206712Y-73559523D01*
X174206712Y-73559523D02*
X174663855Y-74016666D01*
X174663855Y-74016666D02*
X174663855Y-73521428D01*
X171838855Y-74283332D02*
X171457902Y-74549999D01*
X171838855Y-74740475D02*
X171038855Y-74740475D01*
X171038855Y-74740475D02*
X171038855Y-74435713D01*
X171038855Y-74435713D02*
X171076950Y-74359523D01*
X171076950Y-74359523D02*
X171115045Y-74321428D01*
X171115045Y-74321428D02*
X171191236Y-74283332D01*
X171191236Y-74283332D02*
X171305521Y-74283332D01*
X171305521Y-74283332D02*
X171381712Y-74321428D01*
X171381712Y-74321428D02*
X171419807Y-74359523D01*
X171419807Y-74359523D02*
X171457902Y-74435713D01*
X171457902Y-74435713D02*
X171457902Y-74740475D01*
X171838855Y-73521428D02*
X171838855Y-73978571D01*
X171838855Y-73749999D02*
X171038855Y-73749999D01*
X171038855Y-73749999D02*
X171153140Y-73826190D01*
X171153140Y-73826190D02*
X171229331Y-73902380D01*
X171229331Y-73902380D02*
X171267426Y-73978571D01*
D12*
X177771666Y-68779819D02*
X177771666Y-69494104D01*
X177771666Y-69494104D02*
X177724047Y-69636961D01*
X177724047Y-69636961D02*
X177628809Y-69732200D01*
X177628809Y-69732200D02*
X177485952Y-69779819D01*
X177485952Y-69779819D02*
X177390714Y-69779819D01*
X178200238Y-68875057D02*
X178247857Y-68827438D01*
X178247857Y-68827438D02*
X178343095Y-68779819D01*
X178343095Y-68779819D02*
X178581190Y-68779819D01*
X178581190Y-68779819D02*
X178676428Y-68827438D01*
X178676428Y-68827438D02*
X178724047Y-68875057D01*
X178724047Y-68875057D02*
X178771666Y-68970295D01*
X178771666Y-68970295D02*
X178771666Y-69065533D01*
X178771666Y-69065533D02*
X178724047Y-69208390D01*
X178724047Y-69208390D02*
X178152619Y-69779819D01*
X178152619Y-69779819D02*
X178771666Y-69779819D01*
X172661666Y-68779819D02*
X172661666Y-69494104D01*
X172661666Y-69494104D02*
X172614047Y-69636961D01*
X172614047Y-69636961D02*
X172518809Y-69732200D01*
X172518809Y-69732200D02*
X172375952Y-69779819D01*
X172375952Y-69779819D02*
X172280714Y-69779819D01*
X173661666Y-69779819D02*
X173090238Y-69779819D01*
X173375952Y-69779819D02*
X173375952Y-68779819D01*
X173375952Y-68779819D02*
X173280714Y-68922676D01*
X173280714Y-68922676D02*
X173185476Y-69017914D01*
X173185476Y-69017914D02*
X173090238Y-69065533D01*
D11*
X178091667Y-72762664D02*
X178053571Y-72800760D01*
X178053571Y-72800760D02*
X177939286Y-72838855D01*
X177939286Y-72838855D02*
X177863095Y-72838855D01*
X177863095Y-72838855D02*
X177748809Y-72800760D01*
X177748809Y-72800760D02*
X177672619Y-72724569D01*
X177672619Y-72724569D02*
X177634524Y-72648379D01*
X177634524Y-72648379D02*
X177596428Y-72495998D01*
X177596428Y-72495998D02*
X177596428Y-72381712D01*
X177596428Y-72381712D02*
X177634524Y-72229331D01*
X177634524Y-72229331D02*
X177672619Y-72153140D01*
X177672619Y-72153140D02*
X177748809Y-72076950D01*
X177748809Y-72076950D02*
X177863095Y-72038855D01*
X177863095Y-72038855D02*
X177939286Y-72038855D01*
X177939286Y-72038855D02*
X178053571Y-72076950D01*
X178053571Y-72076950D02*
X178091667Y-72115045D01*
X178853571Y-72838855D02*
X178396428Y-72838855D01*
X178625000Y-72838855D02*
X178625000Y-72038855D01*
X178625000Y-72038855D02*
X178548809Y-72153140D01*
X178548809Y-72153140D02*
X178472619Y-72229331D01*
X178472619Y-72229331D02*
X178396428Y-72267426D01*
D13*
%TO.C,U1*%
X176650000Y-74550000D02*
X177150000Y-74050000D01*
X176650000Y-76550000D02*
X176650000Y-74550000D01*
X177150000Y-74050000D02*
X179150000Y-74050000D01*
X179150000Y-74050000D02*
X179150000Y-76550000D01*
X179150000Y-76550000D02*
X176650000Y-76550000D01*
%TO.C,R2*%
X175100000Y-72550000D02*
X175100000Y-75750000D01*
X173500000Y-72550000D02*
X175100000Y-72550000D01*
X175100000Y-75750000D02*
X173500000Y-75750000D01*
X173500000Y-75750000D02*
X173500000Y-72550000D01*
%TO.C,R1*%
X170675000Y-75750000D02*
X170675000Y-72550000D01*
X172275000Y-75750000D02*
X170675000Y-75750000D01*
X170675000Y-72550000D02*
X172275000Y-72550000D01*
X172275000Y-72550000D02*
X172275000Y-75750000D01*
%TO.C,J2*%
X180010000Y-68055000D02*
X180645000Y-68690000D01*
X175565000Y-68055000D02*
X180010000Y-68055000D01*
X180645000Y-68690000D02*
X180645000Y-70595000D01*
X180645000Y-70595000D02*
X175565000Y-70595000D01*
X175565000Y-70595000D02*
X175565000Y-68055000D01*
%TO.C,J1*%
X171090000Y-70595000D02*
X170455000Y-69960000D01*
X175535000Y-70595000D02*
X171090000Y-70595000D01*
X170455000Y-69960000D02*
X170455000Y-68055000D01*
X170455000Y-68055000D02*
X175535000Y-68055000D01*
X175535000Y-68055000D02*
X175535000Y-70595000D01*
%TO.C,C1*%
X179825000Y-73275000D02*
X176625000Y-73275000D01*
X179825000Y-71675000D02*
X179825000Y-73275000D01*
X176625000Y-73275000D02*
X176625000Y-71675000D01*
X176625000Y-71675000D02*
X179825000Y-71675000D01*
%TD*%
M02*
