%TF.GenerationSoftware,KiCad,Pcbnew,8.0.3*%
%TF.CreationDate,2025-03-02T20:24:55+02:00*%
%TF.ProjectId,SHT-31_module,5348542d-3331-45f6-9d6f-64756c652e6b,rev?*%
%TF.SameCoordinates,Original*%
%TF.FileFunction,Legend,Top*%
%TF.FilePolarity,Positive*%
%FSLAX46Y46*%
G04 Gerber Fmt 4.6, Leading zero omitted, Abs format (unit mm)*
G04 Created by KiCad (PCBNEW 8.0.3) date 2025-03-02 20:24:55*
%MOMM*%
%LPD*%
G01*
G04 APERTURE LIST*
%ADD10C,0.150000*%
%ADD11C,0.120000*%
G04 APERTURE END LIST*
D10*
X179738095Y-75679819D02*
X179738095Y-76489342D01*
X179738095Y-76489342D02*
X179785714Y-76584580D01*
X179785714Y-76584580D02*
X179833333Y-76632200D01*
X179833333Y-76632200D02*
X179928571Y-76679819D01*
X179928571Y-76679819D02*
X180119047Y-76679819D01*
X180119047Y-76679819D02*
X180214285Y-76632200D01*
X180214285Y-76632200D02*
X180261904Y-76584580D01*
X180261904Y-76584580D02*
X180309523Y-76489342D01*
X180309523Y-76489342D02*
X180309523Y-75679819D01*
X181309523Y-76679819D02*
X180738095Y-76679819D01*
X181023809Y-76679819D02*
X181023809Y-75679819D01*
X181023809Y-75679819D02*
X180928571Y-75822676D01*
X180928571Y-75822676D02*
X180833333Y-75917914D01*
X180833333Y-75917914D02*
X180738095Y-75965533D01*
X174779819Y-74341666D02*
X174303628Y-74674999D01*
X174779819Y-74913094D02*
X173779819Y-74913094D01*
X173779819Y-74913094D02*
X173779819Y-74532142D01*
X173779819Y-74532142D02*
X173827438Y-74436904D01*
X173827438Y-74436904D02*
X173875057Y-74389285D01*
X173875057Y-74389285D02*
X173970295Y-74341666D01*
X173970295Y-74341666D02*
X174113152Y-74341666D01*
X174113152Y-74341666D02*
X174208390Y-74389285D01*
X174208390Y-74389285D02*
X174256009Y-74436904D01*
X174256009Y-74436904D02*
X174303628Y-74532142D01*
X174303628Y-74532142D02*
X174303628Y-74913094D01*
X173875057Y-73960713D02*
X173827438Y-73913094D01*
X173827438Y-73913094D02*
X173779819Y-73817856D01*
X173779819Y-73817856D02*
X173779819Y-73579761D01*
X173779819Y-73579761D02*
X173827438Y-73484523D01*
X173827438Y-73484523D02*
X173875057Y-73436904D01*
X173875057Y-73436904D02*
X173970295Y-73389285D01*
X173970295Y-73389285D02*
X174065533Y-73389285D01*
X174065533Y-73389285D02*
X174208390Y-73436904D01*
X174208390Y-73436904D02*
X174779819Y-74008332D01*
X174779819Y-74008332D02*
X174779819Y-73389285D01*
X171879819Y-74266666D02*
X171403628Y-74599999D01*
X171879819Y-74838094D02*
X170879819Y-74838094D01*
X170879819Y-74838094D02*
X170879819Y-74457142D01*
X170879819Y-74457142D02*
X170927438Y-74361904D01*
X170927438Y-74361904D02*
X170975057Y-74314285D01*
X170975057Y-74314285D02*
X171070295Y-74266666D01*
X171070295Y-74266666D02*
X171213152Y-74266666D01*
X171213152Y-74266666D02*
X171308390Y-74314285D01*
X171308390Y-74314285D02*
X171356009Y-74361904D01*
X171356009Y-74361904D02*
X171403628Y-74457142D01*
X171403628Y-74457142D02*
X171403628Y-74838094D01*
X171879819Y-73314285D02*
X171879819Y-73885713D01*
X171879819Y-73599999D02*
X170879819Y-73599999D01*
X170879819Y-73599999D02*
X171022676Y-73695237D01*
X171022676Y-73695237D02*
X171117914Y-73790475D01*
X171117914Y-73790475D02*
X171165533Y-73885713D01*
X178108333Y-72934580D02*
X178060714Y-72982200D01*
X178060714Y-72982200D02*
X177917857Y-73029819D01*
X177917857Y-73029819D02*
X177822619Y-73029819D01*
X177822619Y-73029819D02*
X177679762Y-72982200D01*
X177679762Y-72982200D02*
X177584524Y-72886961D01*
X177584524Y-72886961D02*
X177536905Y-72791723D01*
X177536905Y-72791723D02*
X177489286Y-72601247D01*
X177489286Y-72601247D02*
X177489286Y-72458390D01*
X177489286Y-72458390D02*
X177536905Y-72267914D01*
X177536905Y-72267914D02*
X177584524Y-72172676D01*
X177584524Y-72172676D02*
X177679762Y-72077438D01*
X177679762Y-72077438D02*
X177822619Y-72029819D01*
X177822619Y-72029819D02*
X177917857Y-72029819D01*
X177917857Y-72029819D02*
X178060714Y-72077438D01*
X178060714Y-72077438D02*
X178108333Y-72125057D01*
X179060714Y-73029819D02*
X178489286Y-73029819D01*
X178775000Y-73029819D02*
X178775000Y-72029819D01*
X178775000Y-72029819D02*
X178679762Y-72172676D01*
X178679762Y-72172676D02*
X178584524Y-72267914D01*
X178584524Y-72267914D02*
X178489286Y-72315533D01*
D11*
%TO.C,U1*%
X176650000Y-73940000D02*
X179150000Y-73940000D01*
X176650000Y-76660000D02*
X179150000Y-76660000D01*
X176250000Y-74250000D02*
X175970000Y-74250000D01*
X176250000Y-73970000D01*
X176250000Y-74250000D01*
G36*
X176250000Y-74250000D02*
G01*
X175970000Y-74250000D01*
X176250000Y-73970000D01*
X176250000Y-74250000D01*
G37*
%TO.C,R2*%
X175210000Y-73422936D02*
X175210000Y-74877064D01*
X173390000Y-73422936D02*
X173390000Y-74877064D01*
%TO.C,R1*%
X170565000Y-74877064D02*
X170565000Y-73422936D01*
X172385000Y-74877064D02*
X172385000Y-73422936D01*
%TO.C,J2*%
X180705000Y-67995000D02*
X180705000Y-69325000D01*
X179375000Y-67995000D02*
X180705000Y-67995000D01*
X178105000Y-67995000D02*
X175505000Y-67995000D01*
X178105000Y-67995000D02*
X178105000Y-70655000D01*
X175505000Y-67995000D02*
X175505000Y-70655000D01*
X178105000Y-70655000D02*
X175505000Y-70655000D01*
%TO.C,J1*%
X170395000Y-70655000D02*
X170395000Y-69325000D01*
X171725000Y-70655000D02*
X170395000Y-70655000D01*
X172995000Y-70655000D02*
X175595000Y-70655000D01*
X172995000Y-70655000D02*
X172995000Y-67995000D01*
X175595000Y-70655000D02*
X175595000Y-67995000D01*
X172995000Y-67995000D02*
X175595000Y-67995000D01*
%TO.C,C1*%
X178936252Y-73385000D02*
X177513748Y-73385000D01*
X178936252Y-71565000D02*
X177513748Y-71565000D01*
%TD*%
M02*
