%TF.GenerationSoftware,KiCad,Pcbnew,8.0.3*%
%TF.CreationDate,2024-10-20T16:03:45+03:00*%
%TF.ProjectId,SmartPot,536d6172-7450-46f7-942e-6b696361645f,rev?*%
%TF.SameCoordinates,Original*%
%TF.FileFunction,Soldermask,Bot*%
%TF.FilePolarity,Negative*%
%FSLAX46Y46*%
G04 Gerber Fmt 4.6, Leading zero omitted, Abs format (unit mm)*
G04 Created by KiCad (PCBNEW 8.0.3) date 2024-10-20 16:03:45*
%MOMM*%
%LPD*%
G01*
G04 APERTURE LIST*
G04 Aperture macros list*
%AMRoundRect*
0 Rectangle with rounded corners*
0 $1 Rounding radius*
0 $2 $3 $4 $5 $6 $7 $8 $9 X,Y pos of 4 corners*
0 Add a 4 corners polygon primitive as box body*
4,1,4,$2,$3,$4,$5,$6,$7,$8,$9,$2,$3,0*
0 Add four circle primitives for the rounded corners*
1,1,$1+$1,$2,$3*
1,1,$1+$1,$4,$5*
1,1,$1+$1,$6,$7*
1,1,$1+$1,$8,$9*
0 Add four rect primitives between the rounded corners*
20,1,$1+$1,$2,$3,$4,$5,0*
20,1,$1+$1,$4,$5,$6,$7,0*
20,1,$1+$1,$6,$7,$8,$9,0*
20,1,$1+$1,$8,$9,$2,$3,0*%
G04 Aperture macros list end*
%ADD10C,1.600000*%
%ADD11R,1.700000X1.700000*%
%ADD12O,1.700000X1.700000*%
%ADD13R,3.000000X3.000000*%
%ADD14C,3.000000*%
%ADD15R,2.000000X4.500000*%
%ADD16O,2.000000X4.000000*%
%ADD17O,4.000000X2.000000*%
%ADD18R,1.800000X1.800000*%
%ADD19C,1.800000*%
%ADD20C,1.524000*%
%ADD21RoundRect,0.250000X-0.312500X-0.625000X0.312500X-0.625000X0.312500X0.625000X-0.312500X0.625000X0*%
%ADD22RoundRect,0.075000X0.650000X0.075000X-0.650000X0.075000X-0.650000X-0.075000X0.650000X-0.075000X0*%
%ADD23RoundRect,0.250000X0.625000X-0.400000X0.625000X0.400000X-0.625000X0.400000X-0.625000X-0.400000X0*%
%ADD24RoundRect,0.150000X0.825000X0.150000X-0.825000X0.150000X-0.825000X-0.150000X0.825000X-0.150000X0*%
%ADD25RoundRect,0.250000X-0.650000X0.325000X-0.650000X-0.325000X0.650000X-0.325000X0.650000X0.325000X0*%
%ADD26RoundRect,0.250000X0.312500X0.625000X-0.312500X0.625000X-0.312500X-0.625000X0.312500X-0.625000X0*%
%ADD27RoundRect,0.250000X-0.325000X-0.650000X0.325000X-0.650000X0.325000X0.650000X-0.325000X0.650000X0*%
%ADD28RoundRect,0.250000X-0.625000X0.400000X-0.625000X-0.400000X0.625000X-0.400000X0.625000X0.400000X0*%
G04 APERTURE END LIST*
D10*
%TO.C,R7*%
X180960000Y-114550000D03*
X183500000Y-114550000D03*
%TD*%
%TO.C,R9*%
X198760000Y-98850000D03*
X201300000Y-98850000D03*
%TD*%
D11*
%TO.C,J5*%
X218575000Y-117200000D03*
D12*
X221115000Y-117200000D03*
X223655000Y-117200000D03*
%TD*%
D13*
%TO.C,J1*%
X248725000Y-107905000D03*
D14*
X248725000Y-102825000D03*
%TD*%
D15*
%TO.C,J4*%
X183150000Y-89925000D03*
D16*
X176950000Y-89925000D03*
D17*
X179950000Y-94625000D03*
%TD*%
D11*
%TO.C,J3*%
X188000000Y-117275000D03*
D12*
X190540000Y-117275000D03*
X193080000Y-117275000D03*
%TD*%
D18*
%TO.C,D3*%
X217160000Y-97100000D03*
D19*
X219700000Y-97100000D03*
%TD*%
D13*
%TO.C,J9*%
X173900000Y-101050000D03*
D14*
X173900000Y-106050000D03*
X173900000Y-111050000D03*
X173900000Y-116050000D03*
%TD*%
D13*
%TO.C,J2*%
X248700000Y-91720000D03*
D14*
X248700000Y-96800000D03*
%TD*%
D20*
%TO.C,U8*%
X228606000Y-113605000D03*
X228606000Y-116145000D03*
X228606000Y-118685000D03*
X228606000Y-121225000D03*
X228606000Y-123765000D03*
%TD*%
D11*
%TO.C,J8*%
X219835000Y-121000000D03*
D12*
X222375000Y-121000000D03*
%TD*%
D11*
%TO.C,J7*%
X228475000Y-109325000D03*
D12*
X228475000Y-106785000D03*
%TD*%
D10*
%TO.C,R6*%
X182860000Y-98700000D03*
X185400000Y-98700000D03*
%TD*%
D20*
%TO.C,K1*%
X226350000Y-91650000D03*
X240550000Y-97650000D03*
X228350000Y-85650000D03*
X228350000Y-97650000D03*
%TD*%
D11*
%TO.C,J6*%
X186880000Y-113475000D03*
D12*
X189420000Y-113475000D03*
X191960000Y-113475000D03*
X194500000Y-113475000D03*
%TD*%
D10*
%TO.C,R8*%
X197785000Y-114900000D03*
X200325000Y-114900000D03*
%TD*%
D20*
%TO.C,U7*%
X231606000Y-101750000D03*
X231606000Y-104290000D03*
X231606000Y-106830000D03*
X231606000Y-109370000D03*
%TD*%
D21*
%TO.C,R1*%
X205300000Y-101900000D03*
X208225000Y-101900000D03*
%TD*%
D22*
%TO.C,U2*%
X192100000Y-105550000D03*
X192100000Y-106050000D03*
X192100000Y-106550000D03*
X192100000Y-107050000D03*
X192100000Y-107550000D03*
X187700000Y-107550000D03*
X187700000Y-107050000D03*
X187700000Y-106550000D03*
X187700000Y-106050000D03*
X187700000Y-105550000D03*
%TD*%
D23*
%TO.C,R12*%
X196950000Y-104175000D03*
X196950000Y-101075000D03*
%TD*%
D24*
%TO.C,U4*%
X209050000Y-105010000D03*
X209050000Y-106280000D03*
X209050000Y-107550000D03*
X209050000Y-108820000D03*
X204100000Y-108820000D03*
X204100000Y-107550000D03*
X204100000Y-106280000D03*
X204100000Y-105010000D03*
%TD*%
D25*
%TO.C,C1*%
X201150000Y-105400000D03*
X201150000Y-108350000D03*
%TD*%
D26*
%TO.C,R2*%
X207912500Y-111650000D03*
X204987500Y-111650000D03*
%TD*%
D23*
%TO.C,R10*%
X183775000Y-104450000D03*
X183775000Y-101350000D03*
%TD*%
D27*
%TO.C,C2*%
X191000000Y-101950000D03*
X193950000Y-101950000D03*
%TD*%
D28*
%TO.C,R11*%
X196925000Y-107475000D03*
X196925000Y-110575000D03*
%TD*%
D27*
%TO.C,C3*%
X191050000Y-99225000D03*
X194000000Y-99225000D03*
%TD*%
D28*
%TO.C,R13*%
X180900000Y-109025000D03*
X180900000Y-112125000D03*
%TD*%
M02*
