%TF.GenerationSoftware,KiCad,Pcbnew,8.0.3*%
%TF.CreationDate,2024-10-20T16:03:45+03:00*%
%TF.ProjectId,SmartPot,536d6172-7450-46f7-942e-6b696361645f,rev?*%
%TF.SameCoordinates,Original*%
%TF.FileFunction,Legend,Bot*%
%TF.FilePolarity,Positive*%
%FSLAX46Y46*%
G04 Gerber Fmt 4.6, Leading zero omitted, Abs format (unit mm)*
G04 Created by KiCad (PCBNEW 8.0.3) date 2024-10-20 16:03:45*
%MOMM*%
%LPD*%
G01*
G04 APERTURE LIST*
%ADD10C,0.150000*%
%ADD11C,0.120000*%
G04 APERTURE END LIST*
D10*
X206816666Y-100154819D02*
X207149999Y-99678628D01*
X207388094Y-100154819D02*
X207388094Y-99154819D01*
X207388094Y-99154819D02*
X207007142Y-99154819D01*
X207007142Y-99154819D02*
X206911904Y-99202438D01*
X206911904Y-99202438D02*
X206864285Y-99250057D01*
X206864285Y-99250057D02*
X206816666Y-99345295D01*
X206816666Y-99345295D02*
X206816666Y-99488152D01*
X206816666Y-99488152D02*
X206864285Y-99583390D01*
X206864285Y-99583390D02*
X206911904Y-99631009D01*
X206911904Y-99631009D02*
X207007142Y-99678628D01*
X207007142Y-99678628D02*
X207388094Y-99678628D01*
X205864285Y-100154819D02*
X206435713Y-100154819D01*
X206149999Y-100154819D02*
X206149999Y-99154819D01*
X206149999Y-99154819D02*
X206245237Y-99297676D01*
X206245237Y-99297676D02*
X206340475Y-99392914D01*
X206340475Y-99392914D02*
X206435713Y-99440533D01*
X190661904Y-103554819D02*
X190661904Y-104364342D01*
X190661904Y-104364342D02*
X190614285Y-104459580D01*
X190614285Y-104459580D02*
X190566666Y-104507200D01*
X190566666Y-104507200D02*
X190471428Y-104554819D01*
X190471428Y-104554819D02*
X190280952Y-104554819D01*
X190280952Y-104554819D02*
X190185714Y-104507200D01*
X190185714Y-104507200D02*
X190138095Y-104459580D01*
X190138095Y-104459580D02*
X190090476Y-104364342D01*
X190090476Y-104364342D02*
X190090476Y-103554819D01*
X189661904Y-103650057D02*
X189614285Y-103602438D01*
X189614285Y-103602438D02*
X189519047Y-103554819D01*
X189519047Y-103554819D02*
X189280952Y-103554819D01*
X189280952Y-103554819D02*
X189185714Y-103602438D01*
X189185714Y-103602438D02*
X189138095Y-103650057D01*
X189138095Y-103650057D02*
X189090476Y-103745295D01*
X189090476Y-103745295D02*
X189090476Y-103840533D01*
X189090476Y-103840533D02*
X189138095Y-103983390D01*
X189138095Y-103983390D02*
X189709523Y-104554819D01*
X189709523Y-104554819D02*
X189090476Y-104554819D01*
X199224819Y-101982142D02*
X198748628Y-101648809D01*
X199224819Y-101410714D02*
X198224819Y-101410714D01*
X198224819Y-101410714D02*
X198224819Y-101791666D01*
X198224819Y-101791666D02*
X198272438Y-101886904D01*
X198272438Y-101886904D02*
X198320057Y-101934523D01*
X198320057Y-101934523D02*
X198415295Y-101982142D01*
X198415295Y-101982142D02*
X198558152Y-101982142D01*
X198558152Y-101982142D02*
X198653390Y-101934523D01*
X198653390Y-101934523D02*
X198701009Y-101886904D01*
X198701009Y-101886904D02*
X198748628Y-101791666D01*
X198748628Y-101791666D02*
X198748628Y-101410714D01*
X199224819Y-102934523D02*
X199224819Y-102363095D01*
X199224819Y-102648809D02*
X198224819Y-102648809D01*
X198224819Y-102648809D02*
X198367676Y-102553571D01*
X198367676Y-102553571D02*
X198462914Y-102458333D01*
X198462914Y-102458333D02*
X198510533Y-102363095D01*
X198320057Y-103315476D02*
X198272438Y-103363095D01*
X198272438Y-103363095D02*
X198224819Y-103458333D01*
X198224819Y-103458333D02*
X198224819Y-103696428D01*
X198224819Y-103696428D02*
X198272438Y-103791666D01*
X198272438Y-103791666D02*
X198320057Y-103839285D01*
X198320057Y-103839285D02*
X198415295Y-103886904D01*
X198415295Y-103886904D02*
X198510533Y-103886904D01*
X198510533Y-103886904D02*
X198653390Y-103839285D01*
X198653390Y-103839285D02*
X199224819Y-103267857D01*
X199224819Y-103267857D02*
X199224819Y-103886904D01*
X207336904Y-106369819D02*
X207336904Y-107179342D01*
X207336904Y-107179342D02*
X207289285Y-107274580D01*
X207289285Y-107274580D02*
X207241666Y-107322200D01*
X207241666Y-107322200D02*
X207146428Y-107369819D01*
X207146428Y-107369819D02*
X206955952Y-107369819D01*
X206955952Y-107369819D02*
X206860714Y-107322200D01*
X206860714Y-107322200D02*
X206813095Y-107274580D01*
X206813095Y-107274580D02*
X206765476Y-107179342D01*
X206765476Y-107179342D02*
X206765476Y-106369819D01*
X205860714Y-106703152D02*
X205860714Y-107369819D01*
X206098809Y-106322200D02*
X206336904Y-107036485D01*
X206336904Y-107036485D02*
X205717857Y-107036485D01*
X201509580Y-106733333D02*
X201557200Y-106685714D01*
X201557200Y-106685714D02*
X201604819Y-106542857D01*
X201604819Y-106542857D02*
X201604819Y-106447619D01*
X201604819Y-106447619D02*
X201557200Y-106304762D01*
X201557200Y-106304762D02*
X201461961Y-106209524D01*
X201461961Y-106209524D02*
X201366723Y-106161905D01*
X201366723Y-106161905D02*
X201176247Y-106114286D01*
X201176247Y-106114286D02*
X201033390Y-106114286D01*
X201033390Y-106114286D02*
X200842914Y-106161905D01*
X200842914Y-106161905D02*
X200747676Y-106209524D01*
X200747676Y-106209524D02*
X200652438Y-106304762D01*
X200652438Y-106304762D02*
X200604819Y-106447619D01*
X200604819Y-106447619D02*
X200604819Y-106542857D01*
X200604819Y-106542857D02*
X200652438Y-106685714D01*
X200652438Y-106685714D02*
X200700057Y-106733333D01*
X201604819Y-107685714D02*
X201604819Y-107114286D01*
X201604819Y-107400000D02*
X200604819Y-107400000D01*
X200604819Y-107400000D02*
X200747676Y-107304762D01*
X200747676Y-107304762D02*
X200842914Y-107209524D01*
X200842914Y-107209524D02*
X200890533Y-107114286D01*
X206572184Y-113824372D02*
X206905517Y-113348181D01*
X207143612Y-113824372D02*
X207143612Y-112824372D01*
X207143612Y-112824372D02*
X206762660Y-112824372D01*
X206762660Y-112824372D02*
X206667422Y-112871991D01*
X206667422Y-112871991D02*
X206619803Y-112919610D01*
X206619803Y-112919610D02*
X206572184Y-113014848D01*
X206572184Y-113014848D02*
X206572184Y-113157705D01*
X206572184Y-113157705D02*
X206619803Y-113252943D01*
X206619803Y-113252943D02*
X206667422Y-113300562D01*
X206667422Y-113300562D02*
X206762660Y-113348181D01*
X206762660Y-113348181D02*
X207143612Y-113348181D01*
X206191231Y-112919610D02*
X206143612Y-112871991D01*
X206143612Y-112871991D02*
X206048374Y-112824372D01*
X206048374Y-112824372D02*
X205810279Y-112824372D01*
X205810279Y-112824372D02*
X205715041Y-112871991D01*
X205715041Y-112871991D02*
X205667422Y-112919610D01*
X205667422Y-112919610D02*
X205619803Y-113014848D01*
X205619803Y-113014848D02*
X205619803Y-113110086D01*
X205619803Y-113110086D02*
X205667422Y-113252943D01*
X205667422Y-113252943D02*
X206238850Y-113824372D01*
X206238850Y-113824372D02*
X205619803Y-113824372D01*
X186049819Y-102257142D02*
X185573628Y-101923809D01*
X186049819Y-101685714D02*
X185049819Y-101685714D01*
X185049819Y-101685714D02*
X185049819Y-102066666D01*
X185049819Y-102066666D02*
X185097438Y-102161904D01*
X185097438Y-102161904D02*
X185145057Y-102209523D01*
X185145057Y-102209523D02*
X185240295Y-102257142D01*
X185240295Y-102257142D02*
X185383152Y-102257142D01*
X185383152Y-102257142D02*
X185478390Y-102209523D01*
X185478390Y-102209523D02*
X185526009Y-102161904D01*
X185526009Y-102161904D02*
X185573628Y-102066666D01*
X185573628Y-102066666D02*
X185573628Y-101685714D01*
X186049819Y-103209523D02*
X186049819Y-102638095D01*
X186049819Y-102923809D02*
X185049819Y-102923809D01*
X185049819Y-102923809D02*
X185192676Y-102828571D01*
X185192676Y-102828571D02*
X185287914Y-102733333D01*
X185287914Y-102733333D02*
X185335533Y-102638095D01*
X185049819Y-103828571D02*
X185049819Y-103923809D01*
X185049819Y-103923809D02*
X185097438Y-104019047D01*
X185097438Y-104019047D02*
X185145057Y-104066666D01*
X185145057Y-104066666D02*
X185240295Y-104114285D01*
X185240295Y-104114285D02*
X185430771Y-104161904D01*
X185430771Y-104161904D02*
X185668866Y-104161904D01*
X185668866Y-104161904D02*
X185859342Y-104114285D01*
X185859342Y-104114285D02*
X185954580Y-104066666D01*
X185954580Y-104066666D02*
X186002200Y-104019047D01*
X186002200Y-104019047D02*
X186049819Y-103923809D01*
X186049819Y-103923809D02*
X186049819Y-103828571D01*
X186049819Y-103828571D02*
X186002200Y-103733333D01*
X186002200Y-103733333D02*
X185954580Y-103685714D01*
X185954580Y-103685714D02*
X185859342Y-103638095D01*
X185859342Y-103638095D02*
X185668866Y-103590476D01*
X185668866Y-103590476D02*
X185430771Y-103590476D01*
X185430771Y-103590476D02*
X185240295Y-103638095D01*
X185240295Y-103638095D02*
X185145057Y-103685714D01*
X185145057Y-103685714D02*
X185097438Y-103733333D01*
X185097438Y-103733333D02*
X185049819Y-103828571D01*
X192641666Y-104159580D02*
X192689285Y-104207200D01*
X192689285Y-104207200D02*
X192832142Y-104254819D01*
X192832142Y-104254819D02*
X192927380Y-104254819D01*
X192927380Y-104254819D02*
X193070237Y-104207200D01*
X193070237Y-104207200D02*
X193165475Y-104111961D01*
X193165475Y-104111961D02*
X193213094Y-104016723D01*
X193213094Y-104016723D02*
X193260713Y-103826247D01*
X193260713Y-103826247D02*
X193260713Y-103683390D01*
X193260713Y-103683390D02*
X193213094Y-103492914D01*
X193213094Y-103492914D02*
X193165475Y-103397676D01*
X193165475Y-103397676D02*
X193070237Y-103302438D01*
X193070237Y-103302438D02*
X192927380Y-103254819D01*
X192927380Y-103254819D02*
X192832142Y-103254819D01*
X192832142Y-103254819D02*
X192689285Y-103302438D01*
X192689285Y-103302438D02*
X192641666Y-103350057D01*
X192260713Y-103350057D02*
X192213094Y-103302438D01*
X192213094Y-103302438D02*
X192117856Y-103254819D01*
X192117856Y-103254819D02*
X191879761Y-103254819D01*
X191879761Y-103254819D02*
X191784523Y-103302438D01*
X191784523Y-103302438D02*
X191736904Y-103350057D01*
X191736904Y-103350057D02*
X191689285Y-103445295D01*
X191689285Y-103445295D02*
X191689285Y-103540533D01*
X191689285Y-103540533D02*
X191736904Y-103683390D01*
X191736904Y-103683390D02*
X192308332Y-104254819D01*
X192308332Y-104254819D02*
X191689285Y-104254819D01*
X195559819Y-108382142D02*
X195083628Y-108048809D01*
X195559819Y-107810714D02*
X194559819Y-107810714D01*
X194559819Y-107810714D02*
X194559819Y-108191666D01*
X194559819Y-108191666D02*
X194607438Y-108286904D01*
X194607438Y-108286904D02*
X194655057Y-108334523D01*
X194655057Y-108334523D02*
X194750295Y-108382142D01*
X194750295Y-108382142D02*
X194893152Y-108382142D01*
X194893152Y-108382142D02*
X194988390Y-108334523D01*
X194988390Y-108334523D02*
X195036009Y-108286904D01*
X195036009Y-108286904D02*
X195083628Y-108191666D01*
X195083628Y-108191666D02*
X195083628Y-107810714D01*
X195559819Y-109334523D02*
X195559819Y-108763095D01*
X195559819Y-109048809D02*
X194559819Y-109048809D01*
X194559819Y-109048809D02*
X194702676Y-108953571D01*
X194702676Y-108953571D02*
X194797914Y-108858333D01*
X194797914Y-108858333D02*
X194845533Y-108763095D01*
X195559819Y-110286904D02*
X195559819Y-109715476D01*
X195559819Y-110001190D02*
X194559819Y-110001190D01*
X194559819Y-110001190D02*
X194702676Y-109905952D01*
X194702676Y-109905952D02*
X194797914Y-109810714D01*
X194797914Y-109810714D02*
X194845533Y-109715476D01*
X192716666Y-97934580D02*
X192764285Y-97982200D01*
X192764285Y-97982200D02*
X192907142Y-98029819D01*
X192907142Y-98029819D02*
X193002380Y-98029819D01*
X193002380Y-98029819D02*
X193145237Y-97982200D01*
X193145237Y-97982200D02*
X193240475Y-97886961D01*
X193240475Y-97886961D02*
X193288094Y-97791723D01*
X193288094Y-97791723D02*
X193335713Y-97601247D01*
X193335713Y-97601247D02*
X193335713Y-97458390D01*
X193335713Y-97458390D02*
X193288094Y-97267914D01*
X193288094Y-97267914D02*
X193240475Y-97172676D01*
X193240475Y-97172676D02*
X193145237Y-97077438D01*
X193145237Y-97077438D02*
X193002380Y-97029819D01*
X193002380Y-97029819D02*
X192907142Y-97029819D01*
X192907142Y-97029819D02*
X192764285Y-97077438D01*
X192764285Y-97077438D02*
X192716666Y-97125057D01*
X192383332Y-97029819D02*
X191764285Y-97029819D01*
X191764285Y-97029819D02*
X192097618Y-97410771D01*
X192097618Y-97410771D02*
X191954761Y-97410771D01*
X191954761Y-97410771D02*
X191859523Y-97458390D01*
X191859523Y-97458390D02*
X191811904Y-97506009D01*
X191811904Y-97506009D02*
X191764285Y-97601247D01*
X191764285Y-97601247D02*
X191764285Y-97839342D01*
X191764285Y-97839342D02*
X191811904Y-97934580D01*
X191811904Y-97934580D02*
X191859523Y-97982200D01*
X191859523Y-97982200D02*
X191954761Y-98029819D01*
X191954761Y-98029819D02*
X192240475Y-98029819D01*
X192240475Y-98029819D02*
X192335713Y-97982200D01*
X192335713Y-97982200D02*
X192383332Y-97934580D01*
X179534819Y-109932142D02*
X179058628Y-109598809D01*
X179534819Y-109360714D02*
X178534819Y-109360714D01*
X178534819Y-109360714D02*
X178534819Y-109741666D01*
X178534819Y-109741666D02*
X178582438Y-109836904D01*
X178582438Y-109836904D02*
X178630057Y-109884523D01*
X178630057Y-109884523D02*
X178725295Y-109932142D01*
X178725295Y-109932142D02*
X178868152Y-109932142D01*
X178868152Y-109932142D02*
X178963390Y-109884523D01*
X178963390Y-109884523D02*
X179011009Y-109836904D01*
X179011009Y-109836904D02*
X179058628Y-109741666D01*
X179058628Y-109741666D02*
X179058628Y-109360714D01*
X179534819Y-110884523D02*
X179534819Y-110313095D01*
X179534819Y-110598809D02*
X178534819Y-110598809D01*
X178534819Y-110598809D02*
X178677676Y-110503571D01*
X178677676Y-110503571D02*
X178772914Y-110408333D01*
X178772914Y-110408333D02*
X178820533Y-110313095D01*
X178534819Y-111217857D02*
X178534819Y-111836904D01*
X178534819Y-111836904D02*
X178915771Y-111503571D01*
X178915771Y-111503571D02*
X178915771Y-111646428D01*
X178915771Y-111646428D02*
X178963390Y-111741666D01*
X178963390Y-111741666D02*
X179011009Y-111789285D01*
X179011009Y-111789285D02*
X179106247Y-111836904D01*
X179106247Y-111836904D02*
X179344342Y-111836904D01*
X179344342Y-111836904D02*
X179439580Y-111789285D01*
X179439580Y-111789285D02*
X179487200Y-111741666D01*
X179487200Y-111741666D02*
X179534819Y-111646428D01*
X179534819Y-111646428D02*
X179534819Y-111360714D01*
X179534819Y-111360714D02*
X179487200Y-111265476D01*
X179487200Y-111265476D02*
X179439580Y-111217857D01*
D11*
%TO.C,R1*%
X207489564Y-100990000D02*
X206035436Y-100990000D01*
X207489564Y-102810000D02*
X206035436Y-102810000D01*
%TO.C,U2*%
X188400000Y-104940000D02*
X189900000Y-104940000D01*
X188400000Y-108160000D02*
X189900000Y-108160000D01*
X191400000Y-104940000D02*
X189900000Y-104940000D01*
X191400000Y-108160000D02*
X189900000Y-108160000D01*
X192112500Y-105140000D02*
X191872500Y-104810000D01*
X192352500Y-104810000D01*
X192112500Y-105140000D01*
G36*
X192112500Y-105140000D02*
G01*
X191872500Y-104810000D01*
X192352500Y-104810000D01*
X192112500Y-105140000D01*
G37*
%TO.C,R12*%
X196040000Y-101897936D02*
X196040000Y-103352064D01*
X197860000Y-101897936D02*
X197860000Y-103352064D01*
%TO.C,U4*%
X204625000Y-104355000D02*
X206575000Y-104355000D01*
X204625000Y-109475000D02*
X206575000Y-109475000D01*
X208525000Y-104355000D02*
X206575000Y-104355000D01*
X208525000Y-109475000D02*
X206575000Y-109475000D01*
X209275000Y-104450000D02*
X209035000Y-104120000D01*
X209515000Y-104120000D01*
X209275000Y-104450000D01*
G36*
X209275000Y-104450000D02*
G01*
X209035000Y-104120000D01*
X209515000Y-104120000D01*
X209275000Y-104450000D01*
G37*
%TO.C,C1*%
X200240000Y-107586252D02*
X200240000Y-106163748D01*
X202060000Y-107586252D02*
X202060000Y-106163748D01*
%TO.C,R2*%
X205722936Y-110740000D02*
X207177064Y-110740000D01*
X205722936Y-112560000D02*
X207177064Y-112560000D01*
%TO.C,R10*%
X182865000Y-102172936D02*
X182865000Y-103627064D01*
X184685000Y-102172936D02*
X184685000Y-103627064D01*
%TO.C,C2*%
X193186252Y-101040000D02*
X191763748Y-101040000D01*
X193186252Y-102860000D02*
X191763748Y-102860000D01*
%TO.C,R11*%
X196015000Y-109752064D02*
X196015000Y-108297936D01*
X197835000Y-109752064D02*
X197835000Y-108297936D01*
%TO.C,C3*%
X193236252Y-98315000D02*
X191813748Y-98315000D01*
X193236252Y-100135000D02*
X191813748Y-100135000D01*
%TO.C,R13*%
X179990000Y-111302064D02*
X179990000Y-109847936D01*
X181810000Y-111302064D02*
X181810000Y-109847936D01*
%TD*%
M02*
