%TF.GenerationSoftware,KiCad,Pcbnew,8.0.3*%
%TF.CreationDate,2024-10-20T16:03:45+03:00*%
%TF.ProjectId,SmartPot,536d6172-7450-46f7-942e-6b696361645f,rev?*%
%TF.SameCoordinates,Original*%
%TF.FileFunction,Copper,L2,Bot*%
%TF.FilePolarity,Positive*%
%FSLAX46Y46*%
G04 Gerber Fmt 4.6, Leading zero omitted, Abs format (unit mm)*
G04 Created by KiCad (PCBNEW 8.0.3) date 2024-10-20 16:03:45*
%MOMM*%
%LPD*%
G01*
G04 APERTURE LIST*
G04 Aperture macros list*
%AMRoundRect*
0 Rectangle with rounded corners*
0 $1 Rounding radius*
0 $2 $3 $4 $5 $6 $7 $8 $9 X,Y pos of 4 corners*
0 Add a 4 corners polygon primitive as box body*
4,1,4,$2,$3,$4,$5,$6,$7,$8,$9,$2,$3,0*
0 Add four circle primitives for the rounded corners*
1,1,$1+$1,$2,$3*
1,1,$1+$1,$4,$5*
1,1,$1+$1,$6,$7*
1,1,$1+$1,$8,$9*
0 Add four rect primitives between the rounded corners*
20,1,$1+$1,$2,$3,$4,$5,0*
20,1,$1+$1,$4,$5,$6,$7,0*
20,1,$1+$1,$6,$7,$8,$9,0*
20,1,$1+$1,$8,$9,$2,$3,0*%
G04 Aperture macros list end*
%TA.AperFunction,ComponentPad*%
%ADD10C,1.600000*%
%TD*%
%TA.AperFunction,ComponentPad*%
%ADD11R,1.700000X1.700000*%
%TD*%
%TA.AperFunction,ComponentPad*%
%ADD12O,1.700000X1.700000*%
%TD*%
%TA.AperFunction,ComponentPad*%
%ADD13R,3.000000X3.000000*%
%TD*%
%TA.AperFunction,ComponentPad*%
%ADD14C,3.000000*%
%TD*%
%TA.AperFunction,ComponentPad*%
%ADD15R,2.000000X4.500000*%
%TD*%
%TA.AperFunction,ComponentPad*%
%ADD16O,2.000000X4.000000*%
%TD*%
%TA.AperFunction,ComponentPad*%
%ADD17O,4.000000X2.000000*%
%TD*%
%TA.AperFunction,ComponentPad*%
%ADD18R,1.800000X1.800000*%
%TD*%
%TA.AperFunction,ComponentPad*%
%ADD19C,1.800000*%
%TD*%
%TA.AperFunction,ComponentPad*%
%ADD20C,1.524000*%
%TD*%
%TA.AperFunction,SMDPad,CuDef*%
%ADD21RoundRect,0.250000X-0.312500X-0.625000X0.312500X-0.625000X0.312500X0.625000X-0.312500X0.625000X0*%
%TD*%
%TA.AperFunction,SMDPad,CuDef*%
%ADD22RoundRect,0.075000X0.650000X0.075000X-0.650000X0.075000X-0.650000X-0.075000X0.650000X-0.075000X0*%
%TD*%
%TA.AperFunction,SMDPad,CuDef*%
%ADD23RoundRect,0.250000X0.625000X-0.400000X0.625000X0.400000X-0.625000X0.400000X-0.625000X-0.400000X0*%
%TD*%
%TA.AperFunction,SMDPad,CuDef*%
%ADD24RoundRect,0.150000X0.825000X0.150000X-0.825000X0.150000X-0.825000X-0.150000X0.825000X-0.150000X0*%
%TD*%
%TA.AperFunction,SMDPad,CuDef*%
%ADD25RoundRect,0.250000X-0.650000X0.325000X-0.650000X-0.325000X0.650000X-0.325000X0.650000X0.325000X0*%
%TD*%
%TA.AperFunction,SMDPad,CuDef*%
%ADD26RoundRect,0.250000X0.312500X0.625000X-0.312500X0.625000X-0.312500X-0.625000X0.312500X-0.625000X0*%
%TD*%
%TA.AperFunction,SMDPad,CuDef*%
%ADD27RoundRect,0.250000X-0.325000X-0.650000X0.325000X-0.650000X0.325000X0.650000X-0.325000X0.650000X0*%
%TD*%
%TA.AperFunction,SMDPad,CuDef*%
%ADD28RoundRect,0.250000X-0.625000X0.400000X-0.625000X-0.400000X0.625000X-0.400000X0.625000X0.400000X0*%
%TD*%
%TA.AperFunction,ViaPad*%
%ADD29C,0.600000*%
%TD*%
%TA.AperFunction,Conductor*%
%ADD30C,0.254000*%
%TD*%
%TA.AperFunction,Conductor*%
%ADD31C,0.381000*%
%TD*%
%TA.AperFunction,Conductor*%
%ADD32C,0.635000*%
%TD*%
G04 APERTURE END LIST*
D10*
%TO.P,R7,1*%
%TO.N,/IN2*%
X180960000Y-114550000D03*
%TO.P,R7,2*%
%TO.N,GND*%
X183500000Y-114550000D03*
%TD*%
%TO.P,R9,1*%
%TO.N,/IN4*%
X198760000Y-98850000D03*
%TO.P,R9,2*%
%TO.N,GND*%
X201300000Y-98850000D03*
%TD*%
D11*
%TO.P,J5,1,Pin_1*%
%TO.N,+5V*%
X218575000Y-117200000D03*
D12*
%TO.P,J5,2,Pin_2*%
%TO.N,GND*%
X221115000Y-117200000D03*
%TO.P,J5,3,Pin_3*%
%TO.N,/UPDI*%
X223655000Y-117200000D03*
%TD*%
D13*
%TO.P,J1,1,Pin_1*%
%TO.N,/LOAD*%
X248725000Y-107905000D03*
D14*
%TO.P,J1,2,Pin_2*%
%TO.N,GND*%
X248725000Y-102825000D03*
%TD*%
D15*
%TO.P,J4,1*%
%TO.N,Net-(F1-Pad2)*%
X183150000Y-89925000D03*
D16*
%TO.P,J4,2*%
%TO.N,GND*%
X176950000Y-89925000D03*
D17*
%TO.P,J4,3,MountPin*%
%TO.N,unconnected-(J4-MountPin-Pad3)*%
X179950000Y-94625000D03*
%TD*%
D11*
%TO.P,J3,1,Pin_1*%
%TO.N,/TX1*%
X188000000Y-117275000D03*
D12*
%TO.P,J3,2,Pin_2*%
%TO.N,/RX1*%
X190540000Y-117275000D03*
%TO.P,J3,3,Pin_3*%
%TO.N,/XDIR1*%
X193080000Y-117275000D03*
%TD*%
D18*
%TO.P,D3,1,K*%
%TO.N,Net-(D3-K)*%
X217160000Y-97100000D03*
D19*
%TO.P,D3,2,A*%
%TO.N,/MCLED*%
X219700000Y-97100000D03*
%TD*%
D13*
%TO.P,J9,1,Pin_1*%
%TO.N,/B*%
X173900000Y-101050000D03*
D14*
%TO.P,J9,2,Pin_2*%
%TO.N,/A*%
X173900000Y-106050000D03*
%TO.P,J9,3,Pin_3*%
%TO.N,+12V*%
X173900000Y-111050000D03*
%TO.P,J9,4,Pin_4*%
%TO.N,GND*%
X173900000Y-116050000D03*
%TD*%
D13*
%TO.P,J2,1,Pin_1*%
%TO.N,/OPEN*%
X248700000Y-91720000D03*
D14*
%TO.P,J2,2,Pin_2*%
%TO.N,GND*%
X248700000Y-96800000D03*
%TD*%
D20*
%TO.P,U8,1,VCC*%
%TO.N,+5V*%
X228606000Y-113605000D03*
%TO.P,U8,2,GND*%
%TO.N,GND*%
X228606000Y-116145000D03*
%TO.P,U8,3,RX*%
%TO.N,/RX2*%
X228606000Y-118685000D03*
%TO.P,U8,4,TX*%
%TO.N,/TX2*%
X228606000Y-121225000D03*
%TO.P,U8,5,SET*%
%TO.N,/SET*%
X228606000Y-123765000D03*
%TD*%
D11*
%TO.P,J8,1,Pin_1*%
%TO.N,/SCL1*%
X219835000Y-121000000D03*
D12*
%TO.P,J8,2,Pin_2*%
%TO.N,/SDA1*%
X222375000Y-121000000D03*
%TD*%
D11*
%TO.P,J7,1,Pin_1*%
%TO.N,/SDA0*%
X228475000Y-109325000D03*
D12*
%TO.P,J7,2,Pin_2*%
%TO.N,/SCL0*%
X228475000Y-106785000D03*
%TD*%
D10*
%TO.P,R6,1*%
%TO.N,/IN1*%
X182860000Y-98700000D03*
%TO.P,R6,2*%
%TO.N,GND*%
X185400000Y-98700000D03*
%TD*%
D20*
%TO.P,K1,COM,COM*%
%TO.N,+12V*%
X226350000Y-91650000D03*
%TO.P,K1,OPEN,OPEN*%
%TO.N,/OPEN*%
X240550000Y-97650000D03*
%TO.P,K1,V+,V+*%
%TO.N,/OUT1*%
X228350000Y-85650000D03*
%TO.P,K1,V-,V-*%
%TO.N,GND*%
X228350000Y-97650000D03*
%TD*%
D11*
%TO.P,J6,1,Pin_1*%
%TO.N,/MOSI0*%
X186880000Y-113475000D03*
D12*
%TO.P,J6,2,Pin_2*%
%TO.N,/MISO0*%
X189420000Y-113475000D03*
%TO.P,J6,3,Pin_3*%
%TO.N,/SCK*%
X191960000Y-113475000D03*
%TO.P,J6,4,Pin_4*%
%TO.N,/!SS*%
X194500000Y-113475000D03*
%TD*%
D10*
%TO.P,R8,1*%
%TO.N,/IN3*%
X197785000Y-114900000D03*
%TO.P,R8,2*%
%TO.N,GND*%
X200325000Y-114900000D03*
%TD*%
D20*
%TO.P,U7,1,VCC*%
%TO.N,+5V*%
X231606000Y-101750000D03*
%TO.P,U7,2,GND*%
%TO.N,GND*%
X231606000Y-104290000D03*
%TO.P,U7,3,SCL*%
%TO.N,/SCL0*%
X231606000Y-106830000D03*
%TO.P,U7,4,SDA*%
%TO.N,/SDA0*%
X231606000Y-109370000D03*
%TD*%
D21*
%TO.P,R1,1*%
%TO.N,+5V*%
X205300000Y-101900000D03*
%TO.P,R1,2*%
%TO.N,/RX1*%
X208225000Y-101900000D03*
%TD*%
D22*
%TO.P,U2,1,~CS*%
%TO.N,/!SS*%
X192100000Y-105550000D03*
%TO.P,U2,2,VA*%
%TO.N,+5V*%
X192100000Y-106050000D03*
%TO.P,U2,3,GND*%
%TO.N,GND*%
X192100000Y-106550000D03*
%TO.P,U2,4,IN4*%
%TO.N,/IN4*%
X192100000Y-107050000D03*
%TO.P,U2,5,IN3*%
%TO.N,/IN3*%
X192100000Y-107550000D03*
%TO.P,U2,6,IN2*%
%TO.N,/IN2*%
X187700000Y-107550000D03*
%TO.P,U2,7,IN1*%
%TO.N,/IN1*%
X187700000Y-107050000D03*
%TO.P,U2,8,DIN*%
%TO.N,/MOSI0*%
X187700000Y-106550000D03*
%TO.P,U2,9,DOUT*%
%TO.N,/MISO0*%
X187700000Y-106050000D03*
%TO.P,U2,10,SCLK*%
%TO.N,/SCK*%
X187700000Y-105550000D03*
%TD*%
D23*
%TO.P,R12,1*%
%TO.N,+5V*%
X196950000Y-104175000D03*
%TO.P,R12,2*%
%TO.N,/IN4*%
X196950000Y-101075000D03*
%TD*%
D24*
%TO.P,U4,1,RO*%
%TO.N,/RX1*%
X209050000Y-105010000D03*
%TO.P,U4,2,~{RE}*%
%TO.N,/XDIR1*%
X209050000Y-106280000D03*
%TO.P,U4,3,DE*%
X209050000Y-107550000D03*
%TO.P,U4,4,DI*%
%TO.N,/TX1*%
X209050000Y-108820000D03*
%TO.P,U4,5,GND*%
%TO.N,GND*%
X204100000Y-108820000D03*
%TO.P,U4,6,A*%
%TO.N,/Bout*%
X204100000Y-107550000D03*
%TO.P,U4,7,B*%
%TO.N,/Aout*%
X204100000Y-106280000D03*
%TO.P,U4,8,VCC*%
%TO.N,+5V*%
X204100000Y-105010000D03*
%TD*%
D25*
%TO.P,C1,1*%
%TO.N,+5V*%
X201150000Y-105400000D03*
%TO.P,C1,2*%
%TO.N,GND*%
X201150000Y-108350000D03*
%TD*%
D26*
%TO.P,R2,1*%
%TO.N,/XDIR1*%
X207912500Y-111650000D03*
%TO.P,R2,2*%
%TO.N,GND*%
X204987500Y-111650000D03*
%TD*%
D23*
%TO.P,R10,1*%
%TO.N,+5V*%
X183775000Y-104450000D03*
%TO.P,R10,2*%
%TO.N,/IN1*%
X183775000Y-101350000D03*
%TD*%
D27*
%TO.P,C2,1*%
%TO.N,+5V*%
X191000000Y-101950000D03*
%TO.P,C2,2*%
%TO.N,GND*%
X193950000Y-101950000D03*
%TD*%
D28*
%TO.P,R11,1*%
%TO.N,+5V*%
X196925000Y-107475000D03*
%TO.P,R11,2*%
%TO.N,/IN3*%
X196925000Y-110575000D03*
%TD*%
D27*
%TO.P,C3,1*%
%TO.N,+5V*%
X191050000Y-99225000D03*
%TO.P,C3,2*%
%TO.N,GND*%
X194000000Y-99225000D03*
%TD*%
D28*
%TO.P,R13,1*%
%TO.N,+5V*%
X180900000Y-109025000D03*
%TO.P,R13,2*%
%TO.N,/IN2*%
X180900000Y-112125000D03*
%TD*%
D29*
%TO.N,GND*%
X211475000Y-96650000D03*
X188550000Y-103150000D03*
X222025000Y-115000000D03*
X234300000Y-119600000D03*
X222275000Y-118925000D03*
X180325000Y-91325000D03*
X208375000Y-113500000D03*
X181975000Y-105725000D03*
X205950000Y-98100000D03*
X233150000Y-103575000D03*
X202450000Y-112175000D03*
X195525000Y-98125000D03*
X212000000Y-110825000D03*
X206442356Y-100344356D03*
X219425000Y-105475000D03*
X203725000Y-96925000D03*
%TO.N,+5V*%
X208229750Y-98323000D03*
X208350000Y-100227000D03*
X192925000Y-96525000D03*
X202575000Y-113425000D03*
X185425000Y-103025000D03*
X220375000Y-114881000D03*
%TO.N,+12V*%
X188900000Y-95050000D03*
X221475000Y-102200000D03*
%TO.N,/Bout*%
X198942144Y-107167144D03*
%TO.N,/Aout*%
X198975000Y-105275000D03*
%TO.N,/SCL0*%
X209450000Y-104210000D03*
%TO.N,/SDA0*%
X208492015Y-104000000D03*
%TO.N,/TX1*%
X200175000Y-109725000D03*
%TO.N,/RX1*%
X205600000Y-105500000D03*
%TO.N,/XDIR1*%
X205554023Y-107868636D03*
%TO.N,/SCL1*%
X214373000Y-107796118D03*
X213100000Y-111900000D03*
%TO.N,/SDA1*%
X215875000Y-115775000D03*
%TO.N,/RX2*%
X213727000Y-109732346D03*
%TO.N,/TX2*%
X213727000Y-110778405D03*
%TO.N,/SET*%
X215027000Y-111800000D03*
%TO.N,/MCLED*%
X217962500Y-98837500D03*
X210037500Y-101387500D03*
%TO.N,/SW*%
X197400000Y-91100000D03*
X204450000Y-91600000D03*
%TD*%
D30*
%TO.N,GND*%
X201014980Y-112175000D02*
X198925000Y-110085020D01*
D31*
X206725000Y-100061712D02*
X206725000Y-98475000D01*
D30*
X198925000Y-110085020D02*
X198925000Y-109025000D01*
D31*
X194025000Y-99225000D02*
X194900000Y-100100000D01*
D30*
X198925000Y-109025000D02*
X199600000Y-108350000D01*
X193207948Y-106550000D02*
X193950000Y-105807948D01*
D31*
X194900000Y-100100000D02*
X194900000Y-101000000D01*
X206725000Y-98475000D02*
X206350000Y-98100000D01*
D30*
X199600000Y-108350000D02*
X201150000Y-108350000D01*
D31*
X211475000Y-96650000D02*
X207400000Y-96650000D01*
X194900000Y-101000000D02*
X193950000Y-101950000D01*
X206442356Y-100344356D02*
X206725000Y-100061712D01*
X201620000Y-108820000D02*
X201150000Y-108350000D01*
D30*
X192100000Y-106550000D02*
X193207948Y-106550000D01*
X202450000Y-112175000D02*
X201014980Y-112175000D01*
D31*
X207400000Y-96650000D02*
X205950000Y-98100000D01*
D30*
X212000000Y-107425000D02*
X213950000Y-105475000D01*
D31*
X194000000Y-99225000D02*
X194025000Y-99225000D01*
D30*
X213950000Y-105475000D02*
X219425000Y-105475000D01*
D31*
X206350000Y-98100000D02*
X205950000Y-98100000D01*
D30*
X193950000Y-105807948D02*
X193950000Y-101950000D01*
X212000000Y-110825000D02*
X212000000Y-107425000D01*
D31*
X204100000Y-108820000D02*
X201620000Y-108820000D01*
D30*
%TO.N,+5V*%
X201622928Y-113425000D02*
X202575000Y-113425000D01*
D31*
X199665500Y-103915500D02*
X197209500Y-103915500D01*
D30*
X191825000Y-101950000D02*
X191000000Y-101950000D01*
X183775000Y-104450000D02*
X184000000Y-104450000D01*
D31*
X201175000Y-101525000D02*
X200109500Y-100459500D01*
X191050000Y-99225000D02*
X190425000Y-99850000D01*
X207425000Y-99127750D02*
X207425000Y-100338227D01*
D30*
X192100000Y-106050000D02*
X191304408Y-106050000D01*
X183775000Y-106150000D02*
X180900000Y-109025000D01*
D31*
X204100000Y-105010000D02*
X204100000Y-103650000D01*
X201150000Y-105400000D02*
X199665500Y-103915500D01*
X192925000Y-96525000D02*
X192225000Y-96525000D01*
X204100000Y-105010000D02*
X201540000Y-105010000D01*
D30*
X192895592Y-106050000D02*
X193475000Y-105470592D01*
D31*
X198118622Y-96525000D02*
X192925000Y-96525000D01*
X201150000Y-105400000D02*
X201175000Y-105375000D01*
X208229750Y-98323000D02*
X208350000Y-98443250D01*
D30*
X196075000Y-105050000D02*
X196075000Y-106625000D01*
D31*
X219669000Y-114881000D02*
X218575000Y-115975000D01*
D30*
X196950000Y-104175000D02*
X196075000Y-105050000D01*
X196925000Y-108727072D02*
X201622928Y-113425000D01*
D31*
X200109500Y-100459500D02*
X200109500Y-98515878D01*
X190425000Y-101375000D02*
X191000000Y-101950000D01*
X190425000Y-99850000D02*
X190425000Y-101375000D01*
X197209500Y-103915500D02*
X196950000Y-104175000D01*
X191050000Y-97700000D02*
X191050000Y-99225000D01*
X201175000Y-105375000D02*
X201175000Y-101525000D01*
D30*
X193475000Y-103600000D02*
X191825000Y-101950000D01*
X196075000Y-106625000D02*
X196925000Y-107475000D01*
D31*
X192225000Y-96525000D02*
X191050000Y-97700000D01*
X208229750Y-98323000D02*
X207425000Y-99127750D01*
D30*
X190500000Y-102450000D02*
X191000000Y-101950000D01*
X184000000Y-104450000D02*
X185425000Y-103025000D01*
D31*
X201540000Y-105010000D02*
X201150000Y-105400000D01*
X205863227Y-101900000D02*
X205300000Y-101900000D01*
X207425000Y-100338227D02*
X205863227Y-101900000D01*
X204100000Y-103650000D02*
X205100000Y-102650000D01*
X208350000Y-98443250D02*
X208350000Y-100227000D01*
D30*
X196925000Y-107475000D02*
X196925000Y-108727072D01*
D31*
X200109500Y-98515878D02*
X198118622Y-96525000D01*
D30*
X183775000Y-104450000D02*
X183775000Y-106150000D01*
X192100000Y-106050000D02*
X192895592Y-106050000D01*
D31*
X218575000Y-115975000D02*
X218575000Y-117200000D01*
D30*
X193475000Y-105470592D02*
X193475000Y-103600000D01*
D31*
X220375000Y-114881000D02*
X219669000Y-114881000D01*
D32*
%TO.N,+12V*%
X173950000Y-111050000D02*
X180925000Y-104075000D01*
X221117500Y-101842500D02*
X221475000Y-102200000D01*
X220600000Y-94750000D02*
X189200000Y-94750000D01*
X189200000Y-94750000D02*
X188900000Y-95050000D01*
X180925000Y-97300000D02*
X183175000Y-95050000D01*
X220900000Y-95050000D02*
X220600000Y-94750000D01*
X220900000Y-95050000D02*
X221117500Y-95267500D01*
X221117500Y-95267500D02*
X221117500Y-101842500D01*
X180925000Y-104075000D02*
X180925000Y-97300000D01*
X226350000Y-91650000D02*
X222950000Y-95050000D01*
X173900000Y-111050000D02*
X173950000Y-111050000D01*
X183175000Y-95050000D02*
X188900000Y-95050000D01*
X222950000Y-95050000D02*
X220900000Y-95050000D01*
D30*
%TO.N,/MOSI0*%
X186880000Y-113475000D02*
X189371000Y-110984000D01*
X189371000Y-106888052D02*
X189032948Y-106550000D01*
X189032948Y-106550000D02*
X187700000Y-106550000D01*
X189371000Y-110984000D02*
X189371000Y-106888052D01*
D31*
%TO.N,/Bout*%
X203850000Y-107300000D02*
X204100000Y-107550000D01*
X199075000Y-107300000D02*
X203850000Y-107300000D01*
X198942144Y-107167144D02*
X199075000Y-107300000D01*
%TO.N,/Aout*%
X203750000Y-106700000D02*
X204100000Y-106350000D01*
X200400000Y-106700000D02*
X203750000Y-106700000D01*
X204100000Y-106350000D02*
X204100000Y-106280000D01*
X198975000Y-105275000D02*
X200400000Y-106700000D01*
D30*
%TO.N,/SCL0*%
X228475000Y-106785000D02*
X225900000Y-104210000D01*
X225900000Y-104210000D02*
X209450000Y-104210000D01*
%TO.N,/SDA0*%
X230000000Y-107764000D02*
X230000000Y-106550000D01*
X230000000Y-106550000D02*
X227033000Y-103583000D01*
X227033000Y-103583000D02*
X208909015Y-103583000D01*
X208909015Y-103583000D02*
X208492015Y-104000000D01*
X231606000Y-109370000D02*
X230000000Y-107764000D01*
%TO.N,/TX1*%
X208370000Y-109500000D02*
X209050000Y-108820000D01*
X200175000Y-109725000D02*
X200400000Y-109500000D01*
X200400000Y-109500000D02*
X208370000Y-109500000D01*
%TO.N,/RX1*%
X206090000Y-105010000D02*
X209050000Y-105010000D01*
D31*
X208525500Y-105010000D02*
X209050000Y-105010000D01*
X207740500Y-104225000D02*
X208525500Y-105010000D01*
D30*
X205600000Y-105500000D02*
X206090000Y-105010000D01*
D31*
X207740500Y-102859500D02*
X207740500Y-104225000D01*
X207950000Y-102650000D02*
X207740500Y-102859500D01*
D30*
%TO.N,/!SS*%
X191100000Y-105550000D02*
X192100000Y-105550000D01*
X190850408Y-105799592D02*
X191100000Y-105550000D01*
X194500000Y-113475000D02*
X193725000Y-113475000D01*
X193725000Y-113475000D02*
X190850408Y-110600408D01*
X190850408Y-110600408D02*
X190850408Y-105799592D01*
%TO.N,/SCK*%
X190396408Y-111911408D02*
X190396408Y-106550000D01*
X191960000Y-113475000D02*
X190396408Y-111911408D01*
X189396408Y-105550000D02*
X187700000Y-105550000D01*
X190396408Y-106550000D02*
X189396408Y-105550000D01*
%TO.N,/MISO0*%
X189825000Y-106700000D02*
X189175000Y-106050000D01*
X189420000Y-113475000D02*
X189825000Y-113070000D01*
X189175000Y-106050000D02*
X187700000Y-106050000D01*
X189825000Y-113070000D02*
X189825000Y-106700000D01*
D31*
%TO.N,/XDIR1*%
X205922659Y-107500000D02*
X207200000Y-107500000D01*
X209050000Y-107550000D02*
X210024999Y-107550000D01*
X210650000Y-110000000D02*
X209000000Y-111650000D01*
X206750000Y-107500000D02*
X206750000Y-107250000D01*
X209000000Y-107500000D02*
X209050000Y-107550000D01*
X205554023Y-107868636D02*
X205922659Y-107500000D01*
X207200000Y-107500000D02*
X209000000Y-107500000D01*
X207720000Y-106280000D02*
X209050000Y-106280000D01*
X210024999Y-107550000D02*
X210650000Y-108175001D01*
X209000000Y-111650000D02*
X207912500Y-111650000D01*
X206750000Y-107250000D02*
X207720000Y-106280000D01*
X210650000Y-108175001D02*
X210650000Y-110000000D01*
D30*
%TO.N,/SCL1*%
X213100000Y-114825000D02*
X219250000Y-120975000D01*
X214373000Y-107796118D02*
X213100000Y-109069118D01*
X219250000Y-120975000D02*
X219700000Y-120975000D01*
X213100000Y-109069118D02*
X213100000Y-111900000D01*
X213100000Y-111900000D02*
X213100000Y-114825000D01*
%TO.N,/SDA1*%
X218819000Y-119798000D02*
X221063000Y-119798000D01*
X215875000Y-116854000D02*
X218819000Y-119798000D01*
X221063000Y-119798000D02*
X222240000Y-120975000D01*
X215875000Y-115775000D02*
X215875000Y-116854000D01*
%TO.N,/RX2*%
X223325000Y-113100000D02*
X228606000Y-118381000D01*
X228606000Y-118381000D02*
X228606000Y-118685000D01*
X218120433Y-113100000D02*
X223325000Y-113100000D01*
X214752779Y-109732346D02*
X218120433Y-113100000D01*
X213727000Y-109732346D02*
X214752779Y-109732346D01*
%TO.N,/TX2*%
X223078948Y-113800000D02*
X227175000Y-117896052D01*
X227175000Y-117896052D02*
X227175000Y-119794000D01*
X213727000Y-110778405D02*
X214928405Y-110778405D01*
X214928405Y-110778405D02*
X217950000Y-113800000D01*
X227175000Y-119794000D02*
X228606000Y-121225000D01*
X217950000Y-113800000D02*
X223078948Y-113800000D01*
%TO.N,/SET*%
X215027000Y-111800000D02*
X215075000Y-111800000D01*
X222504000Y-114254000D02*
X226571000Y-118321000D01*
X226571000Y-121730000D02*
X228606000Y-123765000D01*
X226571000Y-118321000D02*
X226571000Y-121730000D01*
X217529000Y-114254000D02*
X222504000Y-114254000D01*
X215075000Y-111800000D02*
X217529000Y-114254000D01*
D31*
%TO.N,/MCLED*%
X217962500Y-98837500D02*
X216700000Y-100100000D01*
X216700000Y-100100000D02*
X211325000Y-100100000D01*
X211325000Y-100100000D02*
X210037500Y-101387500D01*
D32*
%TO.N,/SW*%
X202850000Y-89750000D02*
X203100000Y-90000000D01*
X197400000Y-91100000D02*
X198750000Y-89750000D01*
X203100000Y-90000000D02*
X204450000Y-91350000D01*
X204450000Y-91350000D02*
X204450000Y-91600000D01*
X198750000Y-89750000D02*
X202850000Y-89750000D01*
D30*
%TO.N,/IN1*%
X186325000Y-107050000D02*
X186150000Y-106875000D01*
X183775000Y-101350000D02*
X183775000Y-99465000D01*
X187700000Y-107050000D02*
X186325000Y-107050000D01*
X186150000Y-106875000D02*
X186150000Y-102100000D01*
X186150000Y-102100000D02*
X185400000Y-101350000D01*
X183775000Y-99465000D02*
X182960000Y-98650000D01*
X185400000Y-101350000D02*
X183775000Y-101350000D01*
%TO.N,/IN2*%
X185250000Y-107550000D02*
X187700000Y-107550000D01*
X180375000Y-112650000D02*
X180375000Y-113965000D01*
X180900000Y-112125000D02*
X180375000Y-112650000D01*
X180900000Y-112125000D02*
X180900000Y-111900000D01*
X180375000Y-113965000D02*
X180960000Y-114550000D01*
X180900000Y-111900000D02*
X185250000Y-107550000D01*
%TO.N,/IN3*%
X192100000Y-107550000D02*
X193900000Y-107550000D01*
D31*
X197375000Y-111025000D02*
X196925000Y-110575000D01*
D30*
X193900000Y-107550000D02*
X196925000Y-110575000D01*
D31*
X197785000Y-114900000D02*
X197375000Y-114490000D01*
X197375000Y-114490000D02*
X197375000Y-111025000D01*
D30*
%TO.N,/IN4*%
X197125000Y-98850000D02*
X198760000Y-98850000D01*
X192100000Y-107050000D02*
X193350000Y-107050000D01*
X194475000Y-103550000D02*
X196950000Y-101075000D01*
X196200000Y-99775000D02*
X197125000Y-98850000D01*
X194475000Y-105925000D02*
X194475000Y-103550000D01*
X196950000Y-101075000D02*
X196200000Y-100325000D01*
X193350000Y-107050000D02*
X194475000Y-105925000D01*
X196200000Y-100325000D02*
X196200000Y-99775000D01*
%TD*%
%TA.AperFunction,Conductor*%
%TO.N,GND*%
G36*
X222259758Y-114901185D02*
G01*
X222280400Y-114917819D01*
X223132500Y-115769919D01*
X223165985Y-115831242D01*
X223161001Y-115900934D01*
X223119129Y-115956867D01*
X223097225Y-115969982D01*
X222977168Y-116025966D01*
X222783597Y-116161505D01*
X222616508Y-116328594D01*
X222486269Y-116514595D01*
X222431692Y-116558219D01*
X222362193Y-116565412D01*
X222299839Y-116533890D01*
X222283119Y-116514594D01*
X222153113Y-116328926D01*
X222153108Y-116328920D01*
X221986082Y-116161894D01*
X221792578Y-116026399D01*
X221578492Y-115926570D01*
X221578486Y-115926567D01*
X221365000Y-115869364D01*
X221365000Y-116766988D01*
X221307993Y-116734075D01*
X221180826Y-116700000D01*
X221049174Y-116700000D01*
X220922007Y-116734075D01*
X220865000Y-116766988D01*
X220865000Y-115869364D01*
X220864999Y-115869364D01*
X220651513Y-115926567D01*
X220651507Y-115926570D01*
X220437422Y-116026399D01*
X220437420Y-116026400D01*
X220243926Y-116161886D01*
X220121865Y-116283947D01*
X220060542Y-116317431D01*
X219990850Y-116312447D01*
X219934917Y-116270575D01*
X219918002Y-116239598D01*
X219916848Y-116236505D01*
X219882718Y-116144995D01*
X219868797Y-116107671D01*
X219868793Y-116107664D01*
X219782547Y-115992455D01*
X219782546Y-115992454D01*
X219773899Y-115985981D01*
X219755402Y-115972134D01*
X219713531Y-115916202D01*
X219708547Y-115846510D01*
X219742030Y-115785189D01*
X219892569Y-115634650D01*
X219953889Y-115601169D01*
X220021201Y-115605293D01*
X220195742Y-115666367D01*
X220195745Y-115666368D01*
X220195746Y-115666368D01*
X220195750Y-115666369D01*
X220374996Y-115686565D01*
X220375000Y-115686565D01*
X220375004Y-115686565D01*
X220554249Y-115666369D01*
X220554252Y-115666368D01*
X220554255Y-115666368D01*
X220724522Y-115606789D01*
X220877262Y-115510816D01*
X221004816Y-115383262D01*
X221100789Y-115230522D01*
X221160368Y-115060255D01*
X221161029Y-115054394D01*
X221168102Y-114991617D01*
X221195168Y-114927203D01*
X221252763Y-114887648D01*
X221291322Y-114881500D01*
X222192719Y-114881500D01*
X222259758Y-114901185D01*
G37*
%TD.AperFunction*%
%TA.AperFunction,Conductor*%
G36*
X198436740Y-111135278D02*
G01*
X198469063Y-111158554D01*
X200734944Y-113424435D01*
X200768429Y-113485758D01*
X200763445Y-113555450D01*
X200721573Y-113611383D01*
X200656109Y-113635800D01*
X200615170Y-113631891D01*
X200551610Y-113614860D01*
X200551599Y-113614858D01*
X200325002Y-113595034D01*
X200324998Y-113595034D01*
X200098400Y-113614858D01*
X200098389Y-113614860D01*
X199878682Y-113673730D01*
X199878673Y-113673734D01*
X199672516Y-113769866D01*
X199672512Y-113769868D01*
X199599526Y-113820973D01*
X199599526Y-113820974D01*
X200278553Y-114500000D01*
X200272339Y-114500000D01*
X200170606Y-114527259D01*
X200079394Y-114579920D01*
X200004920Y-114654394D01*
X199952259Y-114745606D01*
X199925000Y-114847339D01*
X199925000Y-114853552D01*
X199245974Y-114174526D01*
X199245973Y-114174526D01*
X199194868Y-114247512D01*
X199194868Y-114247513D01*
X199167657Y-114305867D01*
X199121484Y-114358306D01*
X199054290Y-114377457D01*
X198987409Y-114357241D01*
X198942893Y-114305865D01*
X198915684Y-114247516D01*
X198915568Y-114247266D01*
X198785047Y-114060861D01*
X198785045Y-114060858D01*
X198624141Y-113899954D01*
X198437734Y-113769432D01*
X198437732Y-113769431D01*
X198231496Y-113673261D01*
X198157904Y-113653541D01*
X198098245Y-113617175D01*
X198067716Y-113554328D01*
X198066000Y-113533767D01*
X198066000Y-111571730D01*
X198085685Y-111504691D01*
X198102319Y-111484049D01*
X198142712Y-111443656D01*
X198234814Y-111294334D01*
X198263677Y-111207229D01*
X198303448Y-111149787D01*
X198367964Y-111122963D01*
X198436740Y-111135278D01*
G37*
%TD.AperFunction*%
%TA.AperFunction,Conductor*%
G36*
X198490197Y-107828575D02*
G01*
X198592619Y-107892932D01*
X198762889Y-107952512D01*
X198762893Y-107952513D01*
X198854184Y-107962798D01*
X198874322Y-107965067D01*
X198884629Y-107966670D01*
X199006939Y-107991000D01*
X199006942Y-107991000D01*
X199006943Y-107991000D01*
X199143057Y-107991000D01*
X199626000Y-107991000D01*
X199693039Y-108010685D01*
X199738794Y-108063489D01*
X199745829Y-108095829D01*
X199750000Y-108100000D01*
X201276000Y-108100000D01*
X201343039Y-108119685D01*
X201388794Y-108172489D01*
X201400000Y-108224000D01*
X201400000Y-108476000D01*
X201380315Y-108543039D01*
X201327511Y-108588794D01*
X201276000Y-108600000D01*
X199750001Y-108600000D01*
X199750001Y-108724986D01*
X199760494Y-108827697D01*
X199788154Y-108911170D01*
X199790556Y-108980999D01*
X199754824Y-109041041D01*
X199736422Y-109055167D01*
X199672738Y-109095183D01*
X199545184Y-109222737D01*
X199449211Y-109375476D01*
X199389631Y-109545745D01*
X199389630Y-109545750D01*
X199369435Y-109724996D01*
X199369435Y-109725003D01*
X199389630Y-109904249D01*
X199389632Y-109904257D01*
X199425518Y-110006813D01*
X199429079Y-110076591D01*
X199394350Y-110137219D01*
X199332357Y-110169446D01*
X199262781Y-110163041D01*
X199220795Y-110135448D01*
X197841573Y-108756226D01*
X197808088Y-108694903D01*
X197813072Y-108625211D01*
X197854944Y-108569278D01*
X197864158Y-108563006D01*
X197869332Y-108559814D01*
X197869334Y-108559814D01*
X198018656Y-108467712D01*
X198142712Y-108343656D01*
X198234814Y-108194334D01*
X198289999Y-108027797D01*
X198298949Y-107940187D01*
X198300821Y-107921868D01*
X198302253Y-107922014D01*
X198323375Y-107861420D01*
X198378390Y-107818350D01*
X198447958Y-107811861D01*
X198490197Y-107828575D01*
G37*
%TD.AperFunction*%
%TA.AperFunction,Conductor*%
G36*
X192580073Y-95587685D02*
G01*
X192625828Y-95640489D01*
X192635772Y-95709647D01*
X192606747Y-95773203D01*
X192579006Y-95796994D01*
X192550359Y-95814994D01*
X192484387Y-95834000D01*
X192156941Y-95834000D01*
X192144052Y-95836564D01*
X192114442Y-95842454D01*
X192114441Y-95842454D01*
X192023450Y-95860553D01*
X192023438Y-95860556D01*
X191897695Y-95912640D01*
X191897682Y-95912647D01*
X191784514Y-95988264D01*
X191784510Y-95988267D01*
X190513269Y-97259507D01*
X190513266Y-97259510D01*
X190465789Y-97330564D01*
X190465790Y-97330565D01*
X190437642Y-97372692D01*
X190385556Y-97498438D01*
X190385553Y-97498448D01*
X190359000Y-97631939D01*
X190359000Y-97849762D01*
X190339315Y-97916801D01*
X190300097Y-97955300D01*
X190256347Y-97982285D01*
X190256343Y-97982288D01*
X190132289Y-98106342D01*
X190040187Y-98255663D01*
X190040185Y-98255668D01*
X190027512Y-98293913D01*
X189985001Y-98422203D01*
X189985001Y-98422204D01*
X189985000Y-98422204D01*
X189974500Y-98524983D01*
X189974500Y-99271914D01*
X189954815Y-99338953D01*
X189938183Y-99359594D01*
X189888263Y-99409514D01*
X189888261Y-99409518D01*
X189812644Y-99522687D01*
X189812642Y-99522690D01*
X189760556Y-99648438D01*
X189760553Y-99648448D01*
X189734000Y-99781939D01*
X189734000Y-99781942D01*
X189734000Y-101443058D01*
X189736761Y-101456939D01*
X189740197Y-101474209D01*
X189740197Y-101474212D01*
X189760553Y-101576549D01*
X189760556Y-101576561D01*
X189812642Y-101702309D01*
X189812644Y-101702312D01*
X189888263Y-101815485D01*
X189892134Y-101820202D01*
X189891211Y-101820958D01*
X189921663Y-101876712D01*
X189924500Y-101903084D01*
X189924500Y-102174977D01*
X189915062Y-102222425D01*
X189896614Y-102266965D01*
X189896613Y-102266969D01*
X189896613Y-102266970D01*
X189896612Y-102266973D01*
X189872500Y-102388192D01*
X189872500Y-102511807D01*
X189896612Y-102633026D01*
X189896615Y-102633038D01*
X189924376Y-102700059D01*
X189933173Y-102734907D01*
X189935000Y-102752794D01*
X189990185Y-102919331D01*
X189990187Y-102919336D01*
X190003484Y-102940894D01*
X190082288Y-103068656D01*
X190206344Y-103192712D01*
X190355666Y-103284814D01*
X190522203Y-103339999D01*
X190624991Y-103350500D01*
X191375008Y-103350499D01*
X191375016Y-103350498D01*
X191375019Y-103350498D01*
X191431302Y-103344748D01*
X191477797Y-103339999D01*
X191644334Y-103284814D01*
X191793656Y-103192712D01*
X191899296Y-103087071D01*
X191960615Y-103053589D01*
X192030307Y-103058573D01*
X192074655Y-103087074D01*
X192811181Y-103823600D01*
X192844666Y-103884923D01*
X192847500Y-103911281D01*
X192847500Y-104775500D01*
X192827815Y-104842539D01*
X192775011Y-104888294D01*
X192723500Y-104899500D01*
X191412272Y-104899500D01*
X191299764Y-104914313D01*
X191291913Y-104916417D01*
X191291609Y-104915285D01*
X191255334Y-104922500D01*
X191038194Y-104922500D01*
X190916970Y-104946613D01*
X190916960Y-104946616D01*
X190802773Y-104993913D01*
X190802760Y-104993920D01*
X190699992Y-105062588D01*
X190699988Y-105062591D01*
X190502772Y-105259809D01*
X190450400Y-105312181D01*
X190425876Y-105336705D01*
X190362995Y-105399585D01*
X190354977Y-105411585D01*
X190301362Y-105456387D01*
X190232037Y-105465091D01*
X190169011Y-105434934D01*
X190164197Y-105430370D01*
X189796421Y-105062593D01*
X189796419Y-105062591D01*
X189782638Y-105053383D01*
X189782638Y-105053382D01*
X189693647Y-104993920D01*
X189693634Y-104993913D01*
X189660193Y-104980062D01*
X189579443Y-104946614D01*
X189579435Y-104946612D01*
X189458215Y-104922500D01*
X189458211Y-104922500D01*
X188544666Y-104922500D01*
X188508390Y-104915285D01*
X188508087Y-104916417D01*
X188500237Y-104914313D01*
X188500236Y-104914313D01*
X188482310Y-104911953D01*
X188387727Y-104899500D01*
X188387720Y-104899500D01*
X187012280Y-104899500D01*
X187012274Y-104899500D01*
X187012269Y-104899501D01*
X186917685Y-104911953D01*
X186848649Y-104901187D01*
X186796394Y-104854807D01*
X186777500Y-104789014D01*
X186777500Y-102038194D01*
X186753386Y-101916970D01*
X186753385Y-101916969D01*
X186753385Y-101916965D01*
X186747517Y-101902799D01*
X186706086Y-101802773D01*
X186706079Y-101802760D01*
X186637412Y-101699993D01*
X186606676Y-101669257D01*
X186550008Y-101612589D01*
X186182301Y-101244882D01*
X185800013Y-100862593D01*
X185800009Y-100862590D01*
X185765236Y-100839355D01*
X185697239Y-100793920D01*
X185697226Y-100793913D01*
X185661641Y-100779174D01*
X185583035Y-100746614D01*
X185583027Y-100746612D01*
X185461807Y-100722500D01*
X185461803Y-100722500D01*
X185204786Y-100722500D01*
X185137747Y-100702815D01*
X185091992Y-100650011D01*
X185087082Y-100637508D01*
X185084817Y-100630675D01*
X185084816Y-100630674D01*
X185084814Y-100630666D01*
X184992712Y-100481344D01*
X184868656Y-100357288D01*
X184775888Y-100300069D01*
X184719336Y-100265187D01*
X184719331Y-100265185D01*
X184713332Y-100263197D01*
X184552797Y-100210001D01*
X184552795Y-100210000D01*
X184513895Y-100206026D01*
X184449204Y-100179628D01*
X184409054Y-100122447D01*
X184402500Y-100082668D01*
X184402500Y-99826751D01*
X184422185Y-99759712D01*
X184474989Y-99713957D01*
X184544147Y-99704013D01*
X184597624Y-99725177D01*
X184747510Y-99830129D01*
X184747516Y-99830133D01*
X184953673Y-99926265D01*
X184953682Y-99926269D01*
X185173389Y-99985139D01*
X185173400Y-99985141D01*
X185399998Y-100004966D01*
X185400002Y-100004966D01*
X185626599Y-99985141D01*
X185626610Y-99985139D01*
X185846317Y-99926269D01*
X185846331Y-99926264D01*
X186052478Y-99830136D01*
X186125471Y-99779024D01*
X185446447Y-99100000D01*
X185452661Y-99100000D01*
X185554394Y-99072741D01*
X185645606Y-99020080D01*
X185720080Y-98945606D01*
X185772741Y-98854394D01*
X185800000Y-98752661D01*
X185800000Y-98746447D01*
X186479024Y-99425471D01*
X186530136Y-99352478D01*
X186626264Y-99146331D01*
X186626269Y-99146317D01*
X186685139Y-98926610D01*
X186685141Y-98926599D01*
X186704966Y-98700002D01*
X186704966Y-98699997D01*
X186685141Y-98473400D01*
X186685139Y-98473389D01*
X186626269Y-98253682D01*
X186626264Y-98253668D01*
X186530136Y-98047521D01*
X186530132Y-98047513D01*
X186479025Y-97974526D01*
X185800000Y-98653551D01*
X185800000Y-98647339D01*
X185772741Y-98545606D01*
X185720080Y-98454394D01*
X185645606Y-98379920D01*
X185554394Y-98327259D01*
X185452661Y-98300000D01*
X185446448Y-98300000D01*
X186125472Y-97620974D01*
X186052478Y-97569863D01*
X185846331Y-97473735D01*
X185846317Y-97473730D01*
X185626610Y-97414860D01*
X185626599Y-97414858D01*
X185400002Y-97395034D01*
X185399998Y-97395034D01*
X185173400Y-97414858D01*
X185173389Y-97414860D01*
X184953682Y-97473730D01*
X184953673Y-97473734D01*
X184747516Y-97569866D01*
X184747512Y-97569868D01*
X184674526Y-97620973D01*
X184674526Y-97620974D01*
X185353553Y-98300000D01*
X185347339Y-98300000D01*
X185245606Y-98327259D01*
X185154394Y-98379920D01*
X185079920Y-98454394D01*
X185027259Y-98545606D01*
X185000000Y-98647339D01*
X185000000Y-98653552D01*
X184320974Y-97974526D01*
X184320973Y-97974526D01*
X184269868Y-98047512D01*
X184269868Y-98047513D01*
X184242657Y-98105867D01*
X184196484Y-98158306D01*
X184129290Y-98177457D01*
X184062409Y-98157241D01*
X184017893Y-98105865D01*
X184015152Y-98099988D01*
X183990568Y-98047266D01*
X183880899Y-97890641D01*
X183860045Y-97860858D01*
X183699141Y-97699954D01*
X183512734Y-97569432D01*
X183512732Y-97569431D01*
X183306497Y-97473261D01*
X183306488Y-97473258D01*
X183086697Y-97414366D01*
X183086693Y-97414365D01*
X183086692Y-97414365D01*
X183086691Y-97414364D01*
X183086686Y-97414364D01*
X182860002Y-97394532D01*
X182859998Y-97394532D01*
X182633313Y-97414364D01*
X182633302Y-97414366D01*
X182413511Y-97473258D01*
X182413502Y-97473261D01*
X182207267Y-97569431D01*
X182051121Y-97678764D01*
X181984915Y-97701091D01*
X181917148Y-97684079D01*
X181869335Y-97633131D01*
X181856658Y-97564421D01*
X181883140Y-97499764D01*
X181892309Y-97489516D01*
X183477507Y-95904319D01*
X183538830Y-95870834D01*
X183565188Y-95868000D01*
X188980567Y-95868000D01*
X188980568Y-95867999D01*
X189138602Y-95836565D01*
X189228782Y-95799211D01*
X189287468Y-95774903D01*
X189421445Y-95685382D01*
X189502509Y-95604317D01*
X189563830Y-95570834D01*
X189590189Y-95568000D01*
X192513034Y-95568000D01*
X192580073Y-95587685D01*
G37*
%TD.AperFunction*%
%TA.AperFunction,Conductor*%
G36*
X215963559Y-95587685D02*
G01*
X216009314Y-95640489D01*
X216019258Y-95709647D01*
X215990233Y-95773203D01*
X215970832Y-95791266D01*
X215902452Y-95842455D01*
X215816206Y-95957664D01*
X215816202Y-95957671D01*
X215765908Y-96092517D01*
X215759501Y-96152116D01*
X215759500Y-96152135D01*
X215759500Y-98047870D01*
X215759501Y-98047876D01*
X215765908Y-98107483D01*
X215816202Y-98242328D01*
X215816206Y-98242335D01*
X215902452Y-98357544D01*
X215902455Y-98357547D01*
X216017664Y-98443793D01*
X216017671Y-98443797D01*
X216152517Y-98494091D01*
X216152516Y-98494091D01*
X216159444Y-98494835D01*
X216212127Y-98500500D01*
X217022916Y-98500499D01*
X217089955Y-98520183D01*
X217135710Y-98572987D01*
X217145654Y-98642146D01*
X217116629Y-98705702D01*
X217110597Y-98712180D01*
X216450097Y-99372681D01*
X216388774Y-99406166D01*
X216362416Y-99409000D01*
X211256940Y-99409000D01*
X211123448Y-99435553D01*
X211123438Y-99435556D01*
X210997695Y-99487640D01*
X210997682Y-99487647D01*
X210884514Y-99563264D01*
X210884510Y-99563267D01*
X209858876Y-100588900D01*
X209812151Y-100618260D01*
X209687976Y-100661711D01*
X209687975Y-100661712D01*
X209535237Y-100757684D01*
X209407684Y-100885237D01*
X209407683Y-100885239D01*
X209398186Y-100900353D01*
X209345850Y-100946643D01*
X209276796Y-100957289D01*
X209212949Y-100928912D01*
X209187655Y-100899475D01*
X209130212Y-100806344D01*
X209078030Y-100754162D01*
X209044545Y-100692839D01*
X209049529Y-100623147D01*
X209060718Y-100600508D01*
X209075788Y-100576524D01*
X209075789Y-100576522D01*
X209135368Y-100406255D01*
X209140885Y-100357289D01*
X209155565Y-100227003D01*
X209155565Y-100226996D01*
X209135369Y-100047750D01*
X209135366Y-100047737D01*
X209075790Y-99877480D01*
X209060005Y-99852357D01*
X209041000Y-99786387D01*
X209041000Y-98375192D01*
X209037378Y-98356988D01*
X209036243Y-98329968D01*
X209035315Y-98329968D01*
X209035315Y-98322998D01*
X209015119Y-98143750D01*
X209015118Y-98143745D01*
X209005383Y-98115925D01*
X208955539Y-97973478D01*
X208949051Y-97963153D01*
X208890558Y-97870062D01*
X208859566Y-97820738D01*
X208732012Y-97693184D01*
X208579273Y-97597211D01*
X208409004Y-97537631D01*
X208408999Y-97537630D01*
X208229754Y-97517435D01*
X208229746Y-97517435D01*
X208050500Y-97537630D01*
X208050495Y-97537631D01*
X207880226Y-97597211D01*
X207727487Y-97693184D01*
X207599934Y-97820737D01*
X207503962Y-97973475D01*
X207503961Y-97973476D01*
X207460510Y-98097651D01*
X207431150Y-98144376D01*
X206888266Y-98687260D01*
X206820826Y-98788191D01*
X206820827Y-98788192D01*
X206812642Y-98800442D01*
X206812641Y-98800443D01*
X206760556Y-98926188D01*
X206760553Y-98926198D01*
X206734000Y-99059689D01*
X206734000Y-100000642D01*
X206714315Y-100067681D01*
X206697681Y-100088323D01*
X206164438Y-100621565D01*
X206103115Y-100655050D01*
X206033423Y-100650066D01*
X206011661Y-100639423D01*
X205931840Y-100590189D01*
X205931835Y-100590187D01*
X205931834Y-100590186D01*
X205765297Y-100535001D01*
X205765295Y-100535000D01*
X205662510Y-100524500D01*
X204937498Y-100524500D01*
X204937480Y-100524501D01*
X204834703Y-100535000D01*
X204834700Y-100535001D01*
X204668168Y-100590185D01*
X204668163Y-100590187D01*
X204518842Y-100682289D01*
X204394789Y-100806342D01*
X204302687Y-100955663D01*
X204302685Y-100955668D01*
X204275410Y-101037978D01*
X204247501Y-101122203D01*
X204247501Y-101122204D01*
X204247500Y-101122204D01*
X204237000Y-101224983D01*
X204237000Y-102484415D01*
X204217315Y-102551454D01*
X204200681Y-102572096D01*
X203563267Y-103209509D01*
X203563261Y-103209517D01*
X203498566Y-103306339D01*
X203498567Y-103306340D01*
X203487644Y-103322688D01*
X203435555Y-103448442D01*
X203435553Y-103448448D01*
X203409000Y-103581939D01*
X203409000Y-104085500D01*
X203389315Y-104152539D01*
X203336511Y-104198294D01*
X203285000Y-104209500D01*
X203209298Y-104209500D01*
X203172432Y-104212401D01*
X203172426Y-104212402D01*
X203014606Y-104258254D01*
X203014603Y-104258255D01*
X202941088Y-104301732D01*
X202877967Y-104319000D01*
X201990000Y-104319000D01*
X201922961Y-104299315D01*
X201877206Y-104246511D01*
X201866000Y-104195000D01*
X201866000Y-101456939D01*
X201839446Y-101323448D01*
X201839445Y-101323447D01*
X201839445Y-101323443D01*
X201839443Y-101323438D01*
X201787359Y-101197695D01*
X201787352Y-101197682D01*
X201711735Y-101084514D01*
X201665199Y-101037978D01*
X201615487Y-100988266D01*
X201295221Y-100668000D01*
X200973443Y-100346221D01*
X200939958Y-100284898D01*
X200944942Y-100215206D01*
X200986814Y-100159273D01*
X201052278Y-100134856D01*
X201071932Y-100135012D01*
X201299999Y-100154966D01*
X201300002Y-100154966D01*
X201526599Y-100135141D01*
X201526610Y-100135139D01*
X201746317Y-100076269D01*
X201746331Y-100076264D01*
X201952478Y-99980136D01*
X202025471Y-99929024D01*
X201346447Y-99250000D01*
X201352661Y-99250000D01*
X201454394Y-99222741D01*
X201545606Y-99170080D01*
X201620080Y-99095606D01*
X201672741Y-99004394D01*
X201700000Y-98902661D01*
X201700000Y-98896447D01*
X202379024Y-99575471D01*
X202430136Y-99502478D01*
X202526264Y-99296331D01*
X202526269Y-99296317D01*
X202585139Y-99076610D01*
X202585141Y-99076599D01*
X202604966Y-98850002D01*
X202604966Y-98849997D01*
X202585141Y-98623400D01*
X202585139Y-98623389D01*
X202526269Y-98403682D01*
X202526264Y-98403668D01*
X202430136Y-98197521D01*
X202430132Y-98197513D01*
X202379025Y-98124526D01*
X201700000Y-98803551D01*
X201700000Y-98797339D01*
X201672741Y-98695606D01*
X201620080Y-98604394D01*
X201545606Y-98529920D01*
X201454394Y-98477259D01*
X201352661Y-98450000D01*
X201346447Y-98450000D01*
X202025472Y-97770974D01*
X201952478Y-97719863D01*
X201746331Y-97623735D01*
X201746317Y-97623730D01*
X201526610Y-97564860D01*
X201526599Y-97564858D01*
X201300002Y-97545034D01*
X201299998Y-97545034D01*
X201073400Y-97564858D01*
X201073389Y-97564860D01*
X200853682Y-97623730D01*
X200853673Y-97623734D01*
X200647516Y-97719866D01*
X200647512Y-97719868D01*
X200522886Y-97807133D01*
X200456680Y-97829460D01*
X200388913Y-97812450D01*
X200364082Y-97793239D01*
X198559114Y-95988269D01*
X198559107Y-95988263D01*
X198445934Y-95912644D01*
X198445931Y-95912642D01*
X198320183Y-95860556D01*
X198320171Y-95860553D01*
X198229180Y-95842454D01*
X198229179Y-95842453D01*
X198199570Y-95836564D01*
X198186681Y-95834000D01*
X198186680Y-95834000D01*
X193365613Y-95834000D01*
X193299641Y-95814994D01*
X193270994Y-95796994D01*
X193224703Y-95744660D01*
X193214054Y-95675606D01*
X193242429Y-95611758D01*
X193300819Y-95573385D01*
X193336966Y-95568000D01*
X215896520Y-95568000D01*
X215963559Y-95587685D01*
G37*
%TD.AperFunction*%
%TA.AperFunction,Conductor*%
G36*
X197848077Y-97235685D02*
G01*
X197868719Y-97252319D01*
X198137922Y-97521522D01*
X198171407Y-97582845D01*
X198166423Y-97652537D01*
X198124551Y-97708470D01*
X198111667Y-97716212D01*
X198111961Y-97716721D01*
X198107268Y-97719430D01*
X197920858Y-97849954D01*
X197759954Y-98010858D01*
X197692298Y-98107483D01*
X197666908Y-98143745D01*
X197648788Y-98169623D01*
X197594212Y-98213248D01*
X197547213Y-98222500D01*
X197063192Y-98222500D01*
X196941973Y-98246612D01*
X196941965Y-98246614D01*
X196877172Y-98273453D01*
X196877171Y-98273453D01*
X196827773Y-98293913D01*
X196827766Y-98293917D01*
X196797230Y-98314321D01*
X196765926Y-98335238D01*
X196765925Y-98335239D01*
X196724989Y-98362590D01*
X196724988Y-98362591D01*
X196027892Y-99059689D01*
X195799992Y-99287589D01*
X195712589Y-99374992D01*
X195644096Y-99477500D01*
X195643916Y-99477769D01*
X195630061Y-99511214D01*
X195630062Y-99511215D01*
X195596614Y-99591964D01*
X195596612Y-99591972D01*
X195575621Y-99697496D01*
X195575622Y-99697497D01*
X195572500Y-99713193D01*
X195572500Y-100386802D01*
X195587631Y-100462879D01*
X195584400Y-100515155D01*
X195586418Y-100515587D01*
X195585000Y-100522207D01*
X195574500Y-100624983D01*
X195574500Y-101511716D01*
X195554815Y-101578755D01*
X195538181Y-101599397D01*
X195236680Y-101900899D01*
X195175357Y-101934384D01*
X195105666Y-101929400D01*
X195049732Y-101887529D01*
X195025315Y-101822064D01*
X195024999Y-101813218D01*
X195024999Y-101250028D01*
X195024998Y-101250013D01*
X195014505Y-101147302D01*
X194959358Y-100980880D01*
X194959356Y-100980875D01*
X194867315Y-100831654D01*
X194743344Y-100707683D01*
X194737677Y-100703202D01*
X194738704Y-100701901D01*
X194697878Y-100656514D01*
X194686654Y-100587551D01*
X194714496Y-100523469D01*
X194744602Y-100497381D01*
X194793343Y-100467317D01*
X194917315Y-100343345D01*
X195009356Y-100194124D01*
X195009358Y-100194119D01*
X195064505Y-100027697D01*
X195064506Y-100027690D01*
X195074999Y-99924986D01*
X195075000Y-99924973D01*
X195075000Y-99475000D01*
X194250000Y-99475000D01*
X194250000Y-100566638D01*
X194230315Y-100633677D01*
X194213681Y-100654319D01*
X194200000Y-100668000D01*
X194200000Y-102076000D01*
X194180315Y-102143039D01*
X194127511Y-102188794D01*
X194076000Y-102200000D01*
X193824000Y-102200000D01*
X193756961Y-102180315D01*
X193711206Y-102127511D01*
X193700000Y-102076000D01*
X193700000Y-100608362D01*
X193719685Y-100541323D01*
X193736319Y-100520681D01*
X193750000Y-100507000D01*
X193750000Y-99475000D01*
X192925001Y-99475000D01*
X192925001Y-99924986D01*
X192935494Y-100027697D01*
X192990641Y-100194119D01*
X192990643Y-100194124D01*
X193082684Y-100343345D01*
X193206655Y-100467316D01*
X193212323Y-100471798D01*
X193211294Y-100473099D01*
X193252118Y-100518479D01*
X193263346Y-100587441D01*
X193235508Y-100651525D01*
X193205399Y-100677617D01*
X193156656Y-100707682D01*
X193032684Y-100831654D01*
X192940643Y-100980875D01*
X192940641Y-100980880D01*
X192885494Y-101147302D01*
X192885493Y-101147309D01*
X192875000Y-101250013D01*
X192875000Y-101813218D01*
X192855315Y-101880257D01*
X192802511Y-101926012D01*
X192733353Y-101935956D01*
X192669797Y-101906931D01*
X192663319Y-101900899D01*
X192225011Y-101462591D01*
X192213695Y-101455030D01*
X192213695Y-101455029D01*
X192130608Y-101399512D01*
X192085803Y-101345899D01*
X192075499Y-101296410D01*
X192075499Y-101249998D01*
X192075498Y-101249981D01*
X192064999Y-101147203D01*
X192064998Y-101147200D01*
X192062013Y-101138191D01*
X192009814Y-100980666D01*
X191917712Y-100831344D01*
X191793656Y-100707288D01*
X191787989Y-100702807D01*
X191789150Y-100701337D01*
X191748832Y-100656519D01*
X191737605Y-100587557D01*
X191765444Y-100523473D01*
X191795552Y-100497382D01*
X191843656Y-100467712D01*
X191967712Y-100343656D01*
X192059814Y-100194334D01*
X192114999Y-100027797D01*
X192125500Y-99925009D01*
X192125499Y-98525013D01*
X192925000Y-98525013D01*
X192925000Y-98975000D01*
X193750000Y-98975000D01*
X194250000Y-98975000D01*
X195074999Y-98975000D01*
X195074999Y-98525028D01*
X195074998Y-98525013D01*
X195064505Y-98422302D01*
X195009358Y-98255880D01*
X195009356Y-98255875D01*
X194917315Y-98106654D01*
X194793345Y-97982684D01*
X194644124Y-97890643D01*
X194644119Y-97890641D01*
X194477697Y-97835494D01*
X194477690Y-97835493D01*
X194374986Y-97825000D01*
X194250000Y-97825000D01*
X194250000Y-98975000D01*
X193750000Y-98975000D01*
X193750000Y-97825000D01*
X193625027Y-97825000D01*
X193625012Y-97825001D01*
X193522302Y-97835494D01*
X193355880Y-97890641D01*
X193355875Y-97890643D01*
X193206654Y-97982684D01*
X193082684Y-98106654D01*
X192990643Y-98255875D01*
X192990641Y-98255880D01*
X192935494Y-98422302D01*
X192935493Y-98422309D01*
X192925000Y-98525013D01*
X192125499Y-98525013D01*
X192125499Y-98524992D01*
X192122342Y-98494091D01*
X192114999Y-98422203D01*
X192114998Y-98422200D01*
X192099421Y-98375192D01*
X192059814Y-98255666D01*
X191967712Y-98106344D01*
X191881975Y-98020607D01*
X191848490Y-97959284D01*
X191853474Y-97889592D01*
X191881975Y-97845245D01*
X192144375Y-97582845D01*
X192447013Y-97280207D01*
X192508334Y-97246724D01*
X192575646Y-97250847D01*
X192705961Y-97296447D01*
X192745745Y-97310368D01*
X192745750Y-97310369D01*
X192924996Y-97330565D01*
X192925000Y-97330565D01*
X192925004Y-97330565D01*
X193104249Y-97310369D01*
X193104252Y-97310368D01*
X193104255Y-97310368D01*
X193274522Y-97250789D01*
X193298560Y-97235685D01*
X193299641Y-97235006D01*
X193365613Y-97216000D01*
X197781038Y-97216000D01*
X197848077Y-97235685D01*
G37*
%TD.AperFunction*%
%TA.AperFunction,Conductor*%
G36*
X254005039Y-83945185D02*
G01*
X254050794Y-83997989D01*
X254062000Y-84049500D01*
X254062000Y-125400500D01*
X254042315Y-125467539D01*
X253989511Y-125513294D01*
X253938000Y-125524500D01*
X168362000Y-125524500D01*
X168294961Y-125504815D01*
X168249206Y-125452011D01*
X168238000Y-125400500D01*
X168238000Y-116049998D01*
X171894891Y-116049998D01*
X171894891Y-116050001D01*
X171915300Y-116335362D01*
X171976109Y-116614895D01*
X172076091Y-116882958D01*
X172213191Y-117134038D01*
X172213196Y-117134046D01*
X172319882Y-117276561D01*
X172319883Y-117276562D01*
X173298958Y-116297487D01*
X173323978Y-116357890D01*
X173395112Y-116464351D01*
X173485649Y-116554888D01*
X173592110Y-116626022D01*
X173652511Y-116651041D01*
X172673436Y-117630115D01*
X172815960Y-117736807D01*
X172815961Y-117736808D01*
X173067042Y-117873908D01*
X173067041Y-117873908D01*
X173335104Y-117973890D01*
X173614637Y-118034699D01*
X173899999Y-118055109D01*
X173900001Y-118055109D01*
X174185362Y-118034699D01*
X174464895Y-117973890D01*
X174732958Y-117873908D01*
X174984047Y-117736803D01*
X175126561Y-117630116D01*
X175126562Y-117630115D01*
X174147489Y-116651041D01*
X174207890Y-116626022D01*
X174314351Y-116554888D01*
X174404888Y-116464351D01*
X174476022Y-116357890D01*
X174501041Y-116297488D01*
X175480115Y-117276562D01*
X175480116Y-117276561D01*
X175586803Y-117134047D01*
X175723908Y-116882958D01*
X175823890Y-116614895D01*
X175875612Y-116377135D01*
X186649500Y-116377135D01*
X186649500Y-118172870D01*
X186649501Y-118172876D01*
X186655908Y-118232483D01*
X186706202Y-118367328D01*
X186706206Y-118367335D01*
X186792452Y-118482544D01*
X186792455Y-118482547D01*
X186907664Y-118568793D01*
X186907671Y-118568797D01*
X187042517Y-118619091D01*
X187042516Y-118619091D01*
X187049444Y-118619835D01*
X187102127Y-118625500D01*
X188897872Y-118625499D01*
X188957483Y-118619091D01*
X189092331Y-118568796D01*
X189207546Y-118482546D01*
X189293796Y-118367331D01*
X189342810Y-118235916D01*
X189384681Y-118179984D01*
X189450145Y-118155566D01*
X189518418Y-118170417D01*
X189546673Y-118191569D01*
X189668599Y-118313495D01*
X189754438Y-118373600D01*
X189862165Y-118449032D01*
X189862167Y-118449033D01*
X189862170Y-118449035D01*
X190076337Y-118548903D01*
X190076343Y-118548904D01*
X190076344Y-118548905D01*
X190101551Y-118555659D01*
X190304592Y-118610063D01*
X190481034Y-118625500D01*
X190539999Y-118630659D01*
X190540000Y-118630659D01*
X190540001Y-118630659D01*
X190598966Y-118625500D01*
X190775408Y-118610063D01*
X191003663Y-118548903D01*
X191217830Y-118449035D01*
X191411401Y-118313495D01*
X191578495Y-118146401D01*
X191708425Y-117960842D01*
X191763002Y-117917217D01*
X191832500Y-117910023D01*
X191894855Y-117941546D01*
X191911575Y-117960842D01*
X192041500Y-118146395D01*
X192041505Y-118146401D01*
X192208599Y-118313495D01*
X192294438Y-118373600D01*
X192402165Y-118449032D01*
X192402167Y-118449033D01*
X192402170Y-118449035D01*
X192616337Y-118548903D01*
X192616343Y-118548904D01*
X192616344Y-118548905D01*
X192641551Y-118555659D01*
X192844592Y-118610063D01*
X193021034Y-118625500D01*
X193079999Y-118630659D01*
X193080000Y-118630659D01*
X193080001Y-118630659D01*
X193138966Y-118625500D01*
X193315408Y-118610063D01*
X193543663Y-118548903D01*
X193757830Y-118449035D01*
X193951401Y-118313495D01*
X194118495Y-118146401D01*
X194254035Y-117952830D01*
X194353903Y-117738663D01*
X194415063Y-117510408D01*
X194435659Y-117275000D01*
X194415063Y-117039592D01*
X194353903Y-116811337D01*
X194254035Y-116597171D01*
X194251872Y-116594081D01*
X194118494Y-116403597D01*
X193951402Y-116236506D01*
X193951395Y-116236501D01*
X193757834Y-116100967D01*
X193757830Y-116100965D01*
X193711099Y-116079174D01*
X193543663Y-116001097D01*
X193543659Y-116001096D01*
X193543655Y-116001094D01*
X193315413Y-115939938D01*
X193315403Y-115939936D01*
X193080001Y-115919341D01*
X193079999Y-115919341D01*
X192844596Y-115939936D01*
X192844586Y-115939938D01*
X192616344Y-116001094D01*
X192616335Y-116001098D01*
X192402171Y-116100964D01*
X192402169Y-116100965D01*
X192208597Y-116236505D01*
X192041505Y-116403597D01*
X191911575Y-116589158D01*
X191856998Y-116632783D01*
X191787500Y-116639977D01*
X191725145Y-116608454D01*
X191708425Y-116589158D01*
X191578494Y-116403597D01*
X191411402Y-116236506D01*
X191411395Y-116236501D01*
X191217834Y-116100967D01*
X191217830Y-116100965D01*
X191171099Y-116079174D01*
X191003663Y-116001097D01*
X191003659Y-116001096D01*
X191003655Y-116001094D01*
X190775413Y-115939938D01*
X190775403Y-115939936D01*
X190540001Y-115919341D01*
X190539999Y-115919341D01*
X190304596Y-115939936D01*
X190304586Y-115939938D01*
X190076344Y-116001094D01*
X190076335Y-116001098D01*
X189862171Y-116100964D01*
X189862169Y-116100965D01*
X189668600Y-116236503D01*
X189546673Y-116358430D01*
X189485350Y-116391914D01*
X189415658Y-116386930D01*
X189359725Y-116345058D01*
X189342810Y-116314081D01*
X189293797Y-116182671D01*
X189293793Y-116182664D01*
X189207547Y-116067455D01*
X189207544Y-116067452D01*
X189092335Y-115981206D01*
X189092328Y-115981202D01*
X188957482Y-115930908D01*
X188957483Y-115930908D01*
X188897883Y-115924501D01*
X188897881Y-115924500D01*
X188897873Y-115924500D01*
X188897864Y-115924500D01*
X187102129Y-115924500D01*
X187102123Y-115924501D01*
X187042516Y-115930908D01*
X186907671Y-115981202D01*
X186907664Y-115981206D01*
X186792455Y-116067452D01*
X186792452Y-116067455D01*
X186706206Y-116182664D01*
X186706202Y-116182671D01*
X186655908Y-116317517D01*
X186649501Y-116377116D01*
X186649500Y-116377135D01*
X175875612Y-116377135D01*
X175884699Y-116335362D01*
X175905109Y-116050001D01*
X175905109Y-116049998D01*
X175884699Y-115764637D01*
X175823890Y-115485104D01*
X175723908Y-115217041D01*
X175586808Y-114965961D01*
X175586807Y-114965960D01*
X175480115Y-114823436D01*
X174501041Y-115802510D01*
X174476022Y-115742110D01*
X174404888Y-115635649D01*
X174314351Y-115545112D01*
X174207890Y-115473978D01*
X174147488Y-115448958D01*
X175126562Y-114469883D01*
X175126561Y-114469882D01*
X174984046Y-114363196D01*
X174984038Y-114363191D01*
X174732957Y-114226091D01*
X174732958Y-114226091D01*
X174464895Y-114126109D01*
X174185362Y-114065300D01*
X173900001Y-114044891D01*
X173899999Y-114044891D01*
X173614637Y-114065300D01*
X173335104Y-114126109D01*
X173067041Y-114226091D01*
X172815961Y-114363191D01*
X172815953Y-114363196D01*
X172673437Y-114469882D01*
X172673436Y-114469883D01*
X173652512Y-115448958D01*
X173592110Y-115473978D01*
X173485649Y-115545112D01*
X173395112Y-115635649D01*
X173323978Y-115742110D01*
X173298958Y-115802511D01*
X172319883Y-114823436D01*
X172319882Y-114823437D01*
X172213196Y-114965953D01*
X172213191Y-114965961D01*
X172076091Y-115217041D01*
X171976109Y-115485104D01*
X171915300Y-115764637D01*
X171894891Y-116049998D01*
X168238000Y-116049998D01*
X168238000Y-111049998D01*
X171894390Y-111049998D01*
X171894390Y-111050001D01*
X171914804Y-111335433D01*
X171975628Y-111615037D01*
X171975630Y-111615043D01*
X171975631Y-111615046D01*
X172044617Y-111800003D01*
X172075635Y-111883166D01*
X172212770Y-112134309D01*
X172212775Y-112134317D01*
X172384254Y-112363387D01*
X172384270Y-112363405D01*
X172586594Y-112565729D01*
X172586612Y-112565745D01*
X172815682Y-112737224D01*
X172815690Y-112737229D01*
X173066833Y-112874364D01*
X173066832Y-112874364D01*
X173066836Y-112874365D01*
X173066839Y-112874367D01*
X173334954Y-112974369D01*
X173334960Y-112974370D01*
X173334962Y-112974371D01*
X173614566Y-113035195D01*
X173614568Y-113035195D01*
X173614572Y-113035196D01*
X173868220Y-113053337D01*
X173899999Y-113055610D01*
X173900000Y-113055610D01*
X173900001Y-113055610D01*
X173928595Y-113053564D01*
X174185428Y-113035196D01*
X174243566Y-113022549D01*
X174465037Y-112974371D01*
X174465037Y-112974370D01*
X174465046Y-112974369D01*
X174733161Y-112874367D01*
X174984315Y-112737226D01*
X175213395Y-112565739D01*
X175415739Y-112363395D01*
X175587226Y-112134315D01*
X175724367Y-111883161D01*
X175824369Y-111615046D01*
X175824371Y-111615037D01*
X175885195Y-111335433D01*
X175885195Y-111335432D01*
X175885196Y-111335428D01*
X175905610Y-111050000D01*
X175885196Y-110764572D01*
X175884288Y-110760399D01*
X175839966Y-110556654D01*
X175824369Y-110484954D01*
X175810789Y-110448547D01*
X175805806Y-110378856D01*
X175839289Y-110317536D01*
X181446442Y-104710383D01*
X181446445Y-104710382D01*
X181560382Y-104596445D01*
X181597593Y-104540755D01*
X181601932Y-104534262D01*
X181601932Y-104534261D01*
X181614006Y-104516191D01*
X181649903Y-104462468D01*
X181711565Y-104313602D01*
X181729063Y-104225635D01*
X181743001Y-104155567D01*
X181743001Y-103989324D01*
X181743000Y-103989298D01*
X181743000Y-99721549D01*
X181762685Y-99654510D01*
X181815489Y-99608755D01*
X181884647Y-99598811D01*
X181948203Y-99627836D01*
X181954681Y-99633868D01*
X182020858Y-99700045D01*
X182020861Y-99700047D01*
X182207266Y-99830568D01*
X182413504Y-99926739D01*
X182413509Y-99926740D01*
X182413511Y-99926741D01*
X182431410Y-99931537D01*
X182633308Y-99985635D01*
X182795050Y-99999785D01*
X182858615Y-100005347D01*
X182923684Y-100030799D01*
X182964663Y-100087390D01*
X182968541Y-100157152D01*
X182934087Y-100217936D01*
X182886814Y-100246580D01*
X182836668Y-100263197D01*
X182830666Y-100265186D01*
X182830663Y-100265187D01*
X182681342Y-100357289D01*
X182557289Y-100481342D01*
X182465187Y-100630663D01*
X182465185Y-100630668D01*
X182454898Y-100661712D01*
X182410001Y-100797203D01*
X182410001Y-100797204D01*
X182410000Y-100797204D01*
X182399500Y-100899983D01*
X182399500Y-101800001D01*
X182399501Y-101800019D01*
X182410000Y-101902796D01*
X182410001Y-101902799D01*
X182465185Y-102069331D01*
X182465187Y-102069336D01*
X182496086Y-102119431D01*
X182557288Y-102218656D01*
X182681344Y-102342712D01*
X182830666Y-102434814D01*
X182997203Y-102489999D01*
X183099991Y-102500500D01*
X184450008Y-102500499D01*
X184552797Y-102489999D01*
X184556215Y-102488866D01*
X184557270Y-102488517D01*
X184627098Y-102486110D01*
X184687142Y-102521838D01*
X184718338Y-102584357D01*
X184710782Y-102653816D01*
X184701277Y-102672188D01*
X184699211Y-102675475D01*
X184639632Y-102845745D01*
X184634686Y-102889637D01*
X184607618Y-102954051D01*
X184599147Y-102963432D01*
X184299398Y-103263181D01*
X184238075Y-103296666D01*
X184211717Y-103299500D01*
X183099998Y-103299500D01*
X183099981Y-103299501D01*
X182997203Y-103310000D01*
X182997200Y-103310001D01*
X182830668Y-103365185D01*
X182830663Y-103365187D01*
X182681342Y-103457289D01*
X182557289Y-103581342D01*
X182465187Y-103730663D01*
X182465185Y-103730668D01*
X182450959Y-103773599D01*
X182410001Y-103897203D01*
X182410001Y-103897204D01*
X182410000Y-103897204D01*
X182399500Y-103999983D01*
X182399500Y-104900001D01*
X182399501Y-104900019D01*
X182410000Y-105002796D01*
X182410001Y-105002799D01*
X182429815Y-105062593D01*
X182465186Y-105169334D01*
X182557288Y-105318656D01*
X182681344Y-105442712D01*
X182830666Y-105534814D01*
X182997203Y-105589999D01*
X183034144Y-105593772D01*
X183036102Y-105593973D01*
X183100794Y-105620369D01*
X183140946Y-105677550D01*
X183147500Y-105717331D01*
X183147500Y-105838718D01*
X183127815Y-105905757D01*
X183111181Y-105926399D01*
X181199398Y-107838181D01*
X181138075Y-107871666D01*
X181111717Y-107874500D01*
X180224998Y-107874500D01*
X180224980Y-107874501D01*
X180122203Y-107885000D01*
X180122200Y-107885001D01*
X179955668Y-107940185D01*
X179955663Y-107940187D01*
X179806342Y-108032289D01*
X179682289Y-108156342D01*
X179590187Y-108305663D01*
X179590185Y-108305668D01*
X179568570Y-108370898D01*
X179535001Y-108472203D01*
X179535001Y-108472204D01*
X179535000Y-108472204D01*
X179524500Y-108574983D01*
X179524500Y-109475001D01*
X179524501Y-109475019D01*
X179535000Y-109577796D01*
X179535001Y-109577799D01*
X179573172Y-109692989D01*
X179590186Y-109744334D01*
X179682288Y-109893656D01*
X179806344Y-110017712D01*
X179955666Y-110109814D01*
X180122203Y-110164999D01*
X180224991Y-110175500D01*
X181437718Y-110175499D01*
X181504757Y-110195184D01*
X181550512Y-110247987D01*
X181560456Y-110317146D01*
X181531431Y-110380702D01*
X181525399Y-110387180D01*
X180974398Y-110938181D01*
X180913075Y-110971666D01*
X180886717Y-110974500D01*
X180224998Y-110974500D01*
X180224980Y-110974501D01*
X180122203Y-110985000D01*
X180122200Y-110985001D01*
X179955668Y-111040185D01*
X179955663Y-111040187D01*
X179806342Y-111132289D01*
X179682289Y-111256342D01*
X179590187Y-111405663D01*
X179590185Y-111405668D01*
X179589339Y-111408221D01*
X179535001Y-111572203D01*
X179535001Y-111572204D01*
X179535000Y-111572204D01*
X179524500Y-111674983D01*
X179524500Y-112575001D01*
X179524501Y-112575019D01*
X179535000Y-112677796D01*
X179535001Y-112677799D01*
X179590185Y-112844331D01*
X179590187Y-112844336D01*
X179608710Y-112874367D01*
X179668523Y-112971340D01*
X179682289Y-112993657D01*
X179711181Y-113022549D01*
X179744666Y-113083872D01*
X179747500Y-113110230D01*
X179747500Y-114026805D01*
X179747926Y-114031132D01*
X179736908Y-114095682D01*
X179733260Y-114103504D01*
X179674366Y-114323302D01*
X179674364Y-114323313D01*
X179654532Y-114549998D01*
X179654532Y-114550001D01*
X179674364Y-114776686D01*
X179674366Y-114776697D01*
X179733258Y-114996488D01*
X179733261Y-114996497D01*
X179829431Y-115202732D01*
X179829432Y-115202734D01*
X179959954Y-115389141D01*
X180120858Y-115550045D01*
X180124698Y-115552734D01*
X180307266Y-115680568D01*
X180513504Y-115776739D01*
X180513509Y-115776740D01*
X180513511Y-115776741D01*
X180566415Y-115790916D01*
X180733308Y-115835635D01*
X180890883Y-115849421D01*
X180959998Y-115855468D01*
X180960000Y-115855468D01*
X180960002Y-115855468D01*
X181029117Y-115849421D01*
X181186692Y-115835635D01*
X181406496Y-115776739D01*
X181612734Y-115680568D01*
X181799139Y-115550047D01*
X181960047Y-115389139D01*
X182090568Y-115202734D01*
X182117893Y-115144134D01*
X182164065Y-115091695D01*
X182231258Y-115072543D01*
X182298139Y-115092758D01*
X182342657Y-115144134D01*
X182369864Y-115202480D01*
X182420974Y-115275472D01*
X183100000Y-114596446D01*
X183100000Y-114602661D01*
X183127259Y-114704394D01*
X183179920Y-114795606D01*
X183254394Y-114870080D01*
X183345606Y-114922741D01*
X183447339Y-114950000D01*
X183453553Y-114950000D01*
X182774526Y-115629025D01*
X182847513Y-115680132D01*
X182847521Y-115680136D01*
X183053668Y-115776264D01*
X183053682Y-115776269D01*
X183273389Y-115835139D01*
X183273400Y-115835141D01*
X183499998Y-115854966D01*
X183500002Y-115854966D01*
X183726599Y-115835141D01*
X183726610Y-115835139D01*
X183946317Y-115776269D01*
X183946331Y-115776264D01*
X184152478Y-115680136D01*
X184225471Y-115629024D01*
X183546447Y-114950000D01*
X183552661Y-114950000D01*
X183654394Y-114922741D01*
X183745606Y-114870080D01*
X183820080Y-114795606D01*
X183872741Y-114704394D01*
X183900000Y-114602661D01*
X183900000Y-114596447D01*
X184579024Y-115275471D01*
X184630136Y-115202478D01*
X184726264Y-114996331D01*
X184726269Y-114996317D01*
X184785139Y-114776610D01*
X184785141Y-114776599D01*
X184804966Y-114550002D01*
X184804966Y-114549997D01*
X184785141Y-114323400D01*
X184785139Y-114323389D01*
X184726269Y-114103682D01*
X184726264Y-114103668D01*
X184630136Y-113897521D01*
X184630132Y-113897513D01*
X184579025Y-113824526D01*
X183900000Y-114503551D01*
X183900000Y-114497339D01*
X183872741Y-114395606D01*
X183820080Y-114304394D01*
X183745606Y-114229920D01*
X183654394Y-114177259D01*
X183552661Y-114150000D01*
X183546448Y-114150000D01*
X184225472Y-113470974D01*
X184152478Y-113419863D01*
X183946331Y-113323735D01*
X183946317Y-113323730D01*
X183726610Y-113264860D01*
X183726599Y-113264858D01*
X183500002Y-113245034D01*
X183499998Y-113245034D01*
X183273400Y-113264858D01*
X183273389Y-113264860D01*
X183053682Y-113323730D01*
X183053673Y-113323734D01*
X182847516Y-113419866D01*
X182847512Y-113419868D01*
X182774526Y-113470973D01*
X182774526Y-113470974D01*
X183453553Y-114150000D01*
X183447339Y-114150000D01*
X183345606Y-114177259D01*
X183254394Y-114229920D01*
X183179920Y-114304394D01*
X183127259Y-114395606D01*
X183100000Y-114497339D01*
X183100000Y-114503552D01*
X182420974Y-113824526D01*
X182420973Y-113824526D01*
X182369868Y-113897512D01*
X182369868Y-113897513D01*
X182342657Y-113955867D01*
X182296484Y-114008306D01*
X182229290Y-114027457D01*
X182162409Y-114007241D01*
X182117893Y-113955865D01*
X182093333Y-113903197D01*
X182090568Y-113897266D01*
X181960047Y-113710861D01*
X181960045Y-113710858D01*
X181799142Y-113549955D01*
X181776023Y-113533767D01*
X181686178Y-113470857D01*
X181642554Y-113416283D01*
X181635360Y-113346785D01*
X181666882Y-113284430D01*
X181718297Y-113251578D01*
X181844334Y-113209814D01*
X181993656Y-113117712D01*
X182117712Y-112993656D01*
X182209814Y-112844334D01*
X182264999Y-112677797D01*
X182275500Y-112575009D01*
X182275499Y-111674992D01*
X182273948Y-111659812D01*
X182264999Y-111572203D01*
X182264997Y-111572196D01*
X182251777Y-111532299D01*
X182249375Y-111462471D01*
X182281800Y-111405617D01*
X185473600Y-108213819D01*
X185534923Y-108180334D01*
X185561281Y-108177500D01*
X186855334Y-108177500D01*
X186891609Y-108184714D01*
X186891913Y-108183583D01*
X186899757Y-108185684D01*
X186899764Y-108185687D01*
X187012280Y-108200500D01*
X187012287Y-108200500D01*
X188387713Y-108200500D01*
X188387720Y-108200500D01*
X188500236Y-108185687D01*
X188572049Y-108155940D01*
X188641516Y-108148472D01*
X188703995Y-108179747D01*
X188739648Y-108239835D01*
X188743500Y-108270502D01*
X188743500Y-110672718D01*
X188723815Y-110739757D01*
X188707181Y-110760399D01*
X187379398Y-112088181D01*
X187318075Y-112121666D01*
X187291717Y-112124500D01*
X185982129Y-112124500D01*
X185982123Y-112124501D01*
X185922516Y-112130908D01*
X185787671Y-112181202D01*
X185787664Y-112181206D01*
X185672455Y-112267452D01*
X185672452Y-112267455D01*
X185586206Y-112382664D01*
X185586202Y-112382671D01*
X185535908Y-112517517D01*
X185529501Y-112577116D01*
X185529500Y-112577135D01*
X185529500Y-114372870D01*
X185529501Y-114372876D01*
X185535908Y-114432483D01*
X185586202Y-114567328D01*
X185586206Y-114567335D01*
X185672452Y-114682544D01*
X185672455Y-114682547D01*
X185787664Y-114768793D01*
X185787671Y-114768797D01*
X185922517Y-114819091D01*
X185922516Y-114819091D01*
X185929444Y-114819835D01*
X185982127Y-114825500D01*
X187777872Y-114825499D01*
X187837483Y-114819091D01*
X187972331Y-114768796D01*
X188087546Y-114682546D01*
X188173796Y-114567331D01*
X188222810Y-114435916D01*
X188264681Y-114379984D01*
X188330145Y-114355566D01*
X188398418Y-114370417D01*
X188426673Y-114391569D01*
X188548599Y-114513495D01*
X188637614Y-114575824D01*
X188742165Y-114649032D01*
X188742167Y-114649033D01*
X188742170Y-114649035D01*
X188956337Y-114748903D01*
X189184592Y-114810063D01*
X189361034Y-114825500D01*
X189419999Y-114830659D01*
X189420000Y-114830659D01*
X189420001Y-114830659D01*
X189478966Y-114825500D01*
X189655408Y-114810063D01*
X189883663Y-114748903D01*
X190097830Y-114649035D01*
X190291401Y-114513495D01*
X190458495Y-114346401D01*
X190588425Y-114160842D01*
X190643002Y-114117217D01*
X190712500Y-114110023D01*
X190774855Y-114141546D01*
X190791575Y-114160842D01*
X190921500Y-114346395D01*
X190921505Y-114346401D01*
X191088599Y-114513495D01*
X191177614Y-114575824D01*
X191282165Y-114649032D01*
X191282167Y-114649033D01*
X191282170Y-114649035D01*
X191496337Y-114748903D01*
X191724592Y-114810063D01*
X191901034Y-114825500D01*
X191959999Y-114830659D01*
X191960000Y-114830659D01*
X191960001Y-114830659D01*
X192018966Y-114825500D01*
X192195408Y-114810063D01*
X192423663Y-114748903D01*
X192637830Y-114649035D01*
X192831401Y-114513495D01*
X192998495Y-114346401D01*
X193128425Y-114160842D01*
X193183002Y-114117217D01*
X193252500Y-114110023D01*
X193314855Y-114141546D01*
X193331575Y-114160842D01*
X193461500Y-114346395D01*
X193461505Y-114346401D01*
X193628599Y-114513495D01*
X193717614Y-114575824D01*
X193822165Y-114649032D01*
X193822167Y-114649033D01*
X193822170Y-114649035D01*
X194036337Y-114748903D01*
X194264592Y-114810063D01*
X194441034Y-114825500D01*
X194499999Y-114830659D01*
X194500000Y-114830659D01*
X194500001Y-114830659D01*
X194558966Y-114825500D01*
X194735408Y-114810063D01*
X194963663Y-114748903D01*
X195177830Y-114649035D01*
X195371401Y-114513495D01*
X195538495Y-114346401D01*
X195674035Y-114152830D01*
X195773903Y-113938663D01*
X195835063Y-113710408D01*
X195855659Y-113475000D01*
X195835063Y-113239592D01*
X195777564Y-113024999D01*
X195773905Y-113011344D01*
X195773904Y-113011343D01*
X195773903Y-113011337D01*
X195674035Y-112797171D01*
X195660958Y-112778494D01*
X195538494Y-112603597D01*
X195371402Y-112436506D01*
X195371395Y-112436501D01*
X195361846Y-112429815D01*
X195294518Y-112382671D01*
X195177834Y-112300967D01*
X195177830Y-112300965D01*
X195177828Y-112300964D01*
X194963663Y-112201097D01*
X194963659Y-112201096D01*
X194963655Y-112201094D01*
X194735413Y-112139938D01*
X194735403Y-112139936D01*
X194500001Y-112119341D01*
X194499999Y-112119341D01*
X194264596Y-112139936D01*
X194264586Y-112139938D01*
X194036344Y-112201094D01*
X194036335Y-112201098D01*
X193822171Y-112300964D01*
X193822169Y-112300965D01*
X193681671Y-112399342D01*
X193615464Y-112421670D01*
X193547697Y-112404658D01*
X193522867Y-112385448D01*
X191514227Y-110376808D01*
X191480742Y-110315485D01*
X191477908Y-110289127D01*
X191477908Y-108324500D01*
X191497593Y-108257461D01*
X191550397Y-108211706D01*
X191601908Y-108200500D01*
X192787713Y-108200500D01*
X192787720Y-108200500D01*
X192900236Y-108185687D01*
X192900244Y-108185683D01*
X192908087Y-108183583D01*
X192908390Y-108184714D01*
X192944666Y-108177500D01*
X193588719Y-108177500D01*
X193655758Y-108197185D01*
X193676400Y-108213819D01*
X195513181Y-110050600D01*
X195546666Y-110111923D01*
X195549500Y-110138281D01*
X195549500Y-111025001D01*
X195549501Y-111025019D01*
X195560000Y-111127796D01*
X195560001Y-111127799D01*
X195586323Y-111207232D01*
X195615186Y-111294334D01*
X195707288Y-111443656D01*
X195831344Y-111567712D01*
X195980666Y-111659814D01*
X196147203Y-111714999D01*
X196249991Y-111725500D01*
X196560000Y-111725499D01*
X196627039Y-111745183D01*
X196672794Y-111797987D01*
X196684000Y-111849499D01*
X196684000Y-114165941D01*
X196664315Y-114232980D01*
X196661578Y-114237060D01*
X196654432Y-114247265D01*
X196654431Y-114247267D01*
X196558261Y-114453502D01*
X196558258Y-114453511D01*
X196499366Y-114673302D01*
X196499364Y-114673313D01*
X196479532Y-114899998D01*
X196479532Y-114900001D01*
X196499364Y-115126686D01*
X196499366Y-115126697D01*
X196558258Y-115346488D01*
X196558261Y-115346497D01*
X196654431Y-115552732D01*
X196654432Y-115552734D01*
X196784954Y-115739141D01*
X196945858Y-115900045D01*
X196945861Y-115900047D01*
X197132266Y-116030568D01*
X197338504Y-116126739D01*
X197558308Y-116185635D01*
X197720230Y-116199801D01*
X197784998Y-116205468D01*
X197785000Y-116205468D01*
X197785002Y-116205468D01*
X197841673Y-116200509D01*
X198011692Y-116185635D01*
X198231496Y-116126739D01*
X198437734Y-116030568D01*
X198624139Y-115900047D01*
X198785047Y-115739139D01*
X198915568Y-115552734D01*
X198942893Y-115494134D01*
X198989065Y-115441695D01*
X199056258Y-115422543D01*
X199123139Y-115442758D01*
X199167657Y-115494134D01*
X199194864Y-115552480D01*
X199245974Y-115625472D01*
X199925000Y-114946446D01*
X199925000Y-114952661D01*
X199952259Y-115054394D01*
X200004920Y-115145606D01*
X200079394Y-115220080D01*
X200170606Y-115272741D01*
X200272339Y-115300000D01*
X200278553Y-115300000D01*
X199599526Y-115979025D01*
X199672513Y-116030132D01*
X199672521Y-116030136D01*
X199878668Y-116126264D01*
X199878682Y-116126269D01*
X200098389Y-116185139D01*
X200098400Y-116185141D01*
X200324998Y-116204966D01*
X200325002Y-116204966D01*
X200551599Y-116185141D01*
X200551610Y-116185139D01*
X200771317Y-116126269D01*
X200771331Y-116126264D01*
X200977478Y-116030136D01*
X201050471Y-115979024D01*
X200371447Y-115300000D01*
X200377661Y-115300000D01*
X200479394Y-115272741D01*
X200570606Y-115220080D01*
X200645080Y-115145606D01*
X200697741Y-115054394D01*
X200725000Y-114952661D01*
X200725000Y-114946447D01*
X201404024Y-115625471D01*
X201455136Y-115552478D01*
X201551264Y-115346331D01*
X201551269Y-115346317D01*
X201610139Y-115126610D01*
X201610141Y-115126599D01*
X201629966Y-114900002D01*
X201629966Y-114899997D01*
X201610141Y-114673400D01*
X201610139Y-114673389D01*
X201551269Y-114453682D01*
X201551265Y-114453673D01*
X201455133Y-114247516D01*
X201452425Y-114242825D01*
X201453402Y-114242260D01*
X201432881Y-114181427D01*
X201449886Y-114113658D01*
X201500830Y-114065841D01*
X201556783Y-114052500D01*
X201561124Y-114052500D01*
X201561125Y-114052500D01*
X202033328Y-114052500D01*
X202099300Y-114071506D01*
X202172048Y-114117217D01*
X202225478Y-114150789D01*
X202355961Y-114196447D01*
X202395745Y-114210368D01*
X202395750Y-114210369D01*
X202574996Y-114230565D01*
X202575000Y-114230565D01*
X202575004Y-114230565D01*
X202754249Y-114210369D01*
X202754252Y-114210368D01*
X202754255Y-114210368D01*
X202924522Y-114150789D01*
X203077262Y-114054816D01*
X203204816Y-113927262D01*
X203300789Y-113774522D01*
X203360368Y-113604255D01*
X203365867Y-113555450D01*
X203380565Y-113425003D01*
X203380565Y-113424996D01*
X203360369Y-113245750D01*
X203360368Y-113245745D01*
X203315567Y-113117712D01*
X203300789Y-113075478D01*
X203275477Y-113035195D01*
X203227826Y-112959358D01*
X203204816Y-112922738D01*
X203077262Y-112795184D01*
X203069618Y-112790381D01*
X202924523Y-112699211D01*
X202754254Y-112639631D01*
X202754249Y-112639630D01*
X202575004Y-112619435D01*
X202574996Y-112619435D01*
X202395750Y-112639630D01*
X202395745Y-112639631D01*
X202225476Y-112699211D01*
X202099300Y-112778494D01*
X202033328Y-112797500D01*
X201934209Y-112797500D01*
X201867170Y-112777815D01*
X201846528Y-112761181D01*
X201410333Y-112324986D01*
X203925001Y-112324986D01*
X203935494Y-112427697D01*
X203990641Y-112594119D01*
X203990643Y-112594124D01*
X204082684Y-112743345D01*
X204206654Y-112867315D01*
X204355875Y-112959356D01*
X204355880Y-112959358D01*
X204522302Y-113014505D01*
X204522309Y-113014506D01*
X204625019Y-113024999D01*
X204737499Y-113024999D01*
X205237500Y-113024999D01*
X205349972Y-113024999D01*
X205349986Y-113024998D01*
X205452697Y-113014505D01*
X205619119Y-112959358D01*
X205619124Y-112959356D01*
X205768345Y-112867315D01*
X205892315Y-112743345D01*
X205984356Y-112594124D01*
X205984358Y-112594119D01*
X206039505Y-112427697D01*
X206039506Y-112427690D01*
X206049999Y-112324986D01*
X206050000Y-112324973D01*
X206050000Y-111900000D01*
X205237500Y-111900000D01*
X205237500Y-113024999D01*
X204737499Y-113024999D01*
X204737500Y-113024998D01*
X204737500Y-111900000D01*
X203925001Y-111900000D01*
X203925001Y-112324986D01*
X201410333Y-112324986D01*
X199764551Y-110679204D01*
X199731066Y-110617881D01*
X199736050Y-110548189D01*
X199777922Y-110492256D01*
X199843386Y-110467839D01*
X199893187Y-110474482D01*
X199995737Y-110510366D01*
X199995743Y-110510367D01*
X199995745Y-110510368D01*
X199995746Y-110510368D01*
X199995750Y-110510369D01*
X200174996Y-110530565D01*
X200175000Y-110530565D01*
X200175004Y-110530565D01*
X200354249Y-110510369D01*
X200354252Y-110510368D01*
X200354255Y-110510368D01*
X200524522Y-110450789D01*
X200677262Y-110354816D01*
X200804816Y-110227262D01*
X200821953Y-110199989D01*
X200831041Y-110185527D01*
X200883376Y-110139237D01*
X200936034Y-110127500D01*
X204264198Y-110127500D01*
X204331237Y-110147185D01*
X204376992Y-110199989D01*
X204386936Y-110269147D01*
X204357911Y-110332703D01*
X204329295Y-110357039D01*
X204206654Y-110432684D01*
X204082684Y-110556654D01*
X203990643Y-110705875D01*
X203990641Y-110705880D01*
X203935494Y-110872302D01*
X203935493Y-110872309D01*
X203925000Y-110975013D01*
X203925000Y-111400000D01*
X206049999Y-111400000D01*
X206049999Y-110975028D01*
X206049998Y-110975013D01*
X206039505Y-110872302D01*
X205984358Y-110705880D01*
X205984356Y-110705875D01*
X205892315Y-110556654D01*
X205768345Y-110432684D01*
X205645705Y-110357039D01*
X205598981Y-110305091D01*
X205587758Y-110236128D01*
X205615602Y-110172046D01*
X205673671Y-110133190D01*
X205710802Y-110127500D01*
X207188247Y-110127500D01*
X207255286Y-110147185D01*
X207301041Y-110199989D01*
X207310985Y-110269147D01*
X207281960Y-110332703D01*
X207253343Y-110357039D01*
X207131344Y-110432287D01*
X207007289Y-110556342D01*
X206915187Y-110705663D01*
X206915185Y-110705668D01*
X206915115Y-110705880D01*
X206860001Y-110872203D01*
X206860001Y-110872204D01*
X206860000Y-110872204D01*
X206849500Y-110974983D01*
X206849500Y-112325001D01*
X206849501Y-112325018D01*
X206860000Y-112427796D01*
X206860001Y-112427799D01*
X206915185Y-112594331D01*
X206915187Y-112594336D01*
X206938386Y-112631947D01*
X207007288Y-112743656D01*
X207131344Y-112867712D01*
X207280666Y-112959814D01*
X207447203Y-113014999D01*
X207549991Y-113025500D01*
X208275008Y-113025499D01*
X208275016Y-113025498D01*
X208275019Y-113025498D01*
X208331302Y-113019748D01*
X208377797Y-113014999D01*
X208544334Y-112959814D01*
X208693656Y-112867712D01*
X208817712Y-112743656D01*
X208909814Y-112594334D01*
X208964999Y-112427797D01*
X208964999Y-112427791D01*
X208965903Y-112425065D01*
X209005675Y-112367620D01*
X209062446Y-112344015D01*
X209062083Y-112342189D01*
X209161529Y-112322407D01*
X209201557Y-112314445D01*
X209327311Y-112262356D01*
X209327316Y-112262352D01*
X209327319Y-112262351D01*
X209345813Y-112249994D01*
X209345814Y-112249993D01*
X209377372Y-112228906D01*
X209440487Y-112186735D01*
X209727226Y-111899996D01*
X212294435Y-111899996D01*
X212294435Y-111900000D01*
X212314630Y-112079249D01*
X212314631Y-112079254D01*
X212374211Y-112249524D01*
X212453493Y-112375698D01*
X212472500Y-112441671D01*
X212472500Y-114886807D01*
X212496612Y-115008028D01*
X212496615Y-115008039D01*
X212518244Y-115060252D01*
X212518245Y-115060256D01*
X212543915Y-115122230D01*
X212607265Y-115217041D01*
X212608519Y-115218917D01*
X212612589Y-115225008D01*
X212612590Y-115225009D01*
X218448181Y-121060600D01*
X218481666Y-121121923D01*
X218484500Y-121148281D01*
X218484500Y-121897870D01*
X218484501Y-121897876D01*
X218490908Y-121957483D01*
X218541202Y-122092328D01*
X218541206Y-122092335D01*
X218627452Y-122207544D01*
X218627455Y-122207547D01*
X218742664Y-122293793D01*
X218742671Y-122293797D01*
X218877517Y-122344091D01*
X218877516Y-122344091D01*
X218884444Y-122344835D01*
X218937127Y-122350500D01*
X220732872Y-122350499D01*
X220792483Y-122344091D01*
X220927331Y-122293796D01*
X221042546Y-122207546D01*
X221128796Y-122092331D01*
X221177810Y-121960916D01*
X221219681Y-121904984D01*
X221285145Y-121880566D01*
X221353418Y-121895417D01*
X221381673Y-121916569D01*
X221503599Y-122038495D01*
X221600384Y-122106265D01*
X221697165Y-122174032D01*
X221697167Y-122174033D01*
X221697170Y-122174035D01*
X221911337Y-122273903D01*
X222139592Y-122335063D01*
X222316034Y-122350500D01*
X222374999Y-122355659D01*
X222375000Y-122355659D01*
X222375001Y-122355659D01*
X222433966Y-122350500D01*
X222610408Y-122335063D01*
X222838663Y-122273903D01*
X223052830Y-122174035D01*
X223246401Y-122038495D01*
X223413495Y-121871401D01*
X223549035Y-121677830D01*
X223648903Y-121463663D01*
X223710063Y-121235408D01*
X223730659Y-121000000D01*
X223710063Y-120764592D01*
X223648903Y-120536337D01*
X223549035Y-120322171D01*
X223501424Y-120254174D01*
X223413494Y-120128597D01*
X223246402Y-119961506D01*
X223246395Y-119961501D01*
X223052834Y-119825967D01*
X223052830Y-119825965D01*
X222959692Y-119782534D01*
X222838663Y-119726097D01*
X222838659Y-119726096D01*
X222838655Y-119726094D01*
X222610413Y-119664938D01*
X222610403Y-119664936D01*
X222375001Y-119644341D01*
X222374999Y-119644341D01*
X222139596Y-119664936D01*
X222139586Y-119664938D01*
X221954603Y-119714503D01*
X221884753Y-119712840D01*
X221834829Y-119682409D01*
X221463013Y-119310593D01*
X221463009Y-119310590D01*
X221463008Y-119310589D01*
X221429777Y-119288385D01*
X221429775Y-119288383D01*
X221360239Y-119241920D01*
X221360226Y-119241913D01*
X221326785Y-119228062D01*
X221246035Y-119194614D01*
X221246027Y-119194612D01*
X221124807Y-119170500D01*
X221124803Y-119170500D01*
X219130281Y-119170500D01*
X219063242Y-119150815D01*
X219042600Y-119134181D01*
X218670599Y-118762180D01*
X218637114Y-118700857D01*
X218642098Y-118631165D01*
X218683970Y-118575232D01*
X218749434Y-118550815D01*
X218758280Y-118550499D01*
X219472871Y-118550499D01*
X219472872Y-118550499D01*
X219532483Y-118544091D01*
X219667331Y-118493796D01*
X219782546Y-118407546D01*
X219868796Y-118292331D01*
X219918002Y-118160401D01*
X219959872Y-118104468D01*
X220025337Y-118080050D01*
X220093610Y-118094901D01*
X220121865Y-118116053D01*
X220243917Y-118238105D01*
X220437421Y-118373600D01*
X220651507Y-118473429D01*
X220651516Y-118473433D01*
X220865000Y-118530634D01*
X220865000Y-117633012D01*
X220922007Y-117665925D01*
X221049174Y-117700000D01*
X221180826Y-117700000D01*
X221307993Y-117665925D01*
X221365000Y-117633012D01*
X221365000Y-118530633D01*
X221578483Y-118473433D01*
X221578492Y-118473429D01*
X221792578Y-118373600D01*
X221986082Y-118238105D01*
X222153105Y-118071082D01*
X222283119Y-117885405D01*
X222337696Y-117841781D01*
X222407195Y-117834588D01*
X222469549Y-117866110D01*
X222486269Y-117885405D01*
X222616505Y-118071401D01*
X222783599Y-118238495D01*
X222880384Y-118306265D01*
X222977165Y-118374032D01*
X222977167Y-118374033D01*
X222977170Y-118374035D01*
X223191337Y-118473903D01*
X223191343Y-118473904D01*
X223191344Y-118473905D01*
X223223597Y-118482547D01*
X223419592Y-118535063D01*
X223599634Y-118550815D01*
X223654999Y-118555659D01*
X223655000Y-118555659D01*
X223655001Y-118555659D01*
X223710366Y-118550815D01*
X223890408Y-118535063D01*
X224118663Y-118473903D01*
X224332830Y-118374035D01*
X224526401Y-118238495D01*
X224693495Y-118071401D01*
X224829035Y-117877830D01*
X224885017Y-117757775D01*
X224931189Y-117705336D01*
X224998382Y-117686184D01*
X225065264Y-117706400D01*
X225085080Y-117722499D01*
X225907181Y-118544600D01*
X225940666Y-118605923D01*
X225943500Y-118632281D01*
X225943500Y-121791807D01*
X225967612Y-121913028D01*
X225967615Y-121913039D01*
X225987918Y-121962051D01*
X225987919Y-121962054D01*
X226014914Y-122027228D01*
X226014916Y-122027231D01*
X226014917Y-122027233D01*
X226023194Y-122039620D01*
X226058412Y-122092328D01*
X226083590Y-122130010D01*
X226083591Y-122130011D01*
X227337015Y-123383434D01*
X227370500Y-123444757D01*
X227369110Y-123503205D01*
X227357931Y-123544928D01*
X227357929Y-123544938D01*
X227338677Y-123764997D01*
X227338677Y-123765002D01*
X227357929Y-123985062D01*
X227357930Y-123985070D01*
X227415104Y-124198445D01*
X227415105Y-124198447D01*
X227415106Y-124198450D01*
X227508466Y-124398662D01*
X227508468Y-124398666D01*
X227635170Y-124579615D01*
X227635175Y-124579621D01*
X227791378Y-124735824D01*
X227791384Y-124735829D01*
X227972333Y-124862531D01*
X227972335Y-124862532D01*
X227972338Y-124862534D01*
X228172550Y-124955894D01*
X228385932Y-125013070D01*
X228543123Y-125026822D01*
X228605998Y-125032323D01*
X228606000Y-125032323D01*
X228606002Y-125032323D01*
X228661017Y-125027509D01*
X228826068Y-125013070D01*
X229039450Y-124955894D01*
X229239662Y-124862534D01*
X229420620Y-124735826D01*
X229576826Y-124579620D01*
X229703534Y-124398662D01*
X229796894Y-124198450D01*
X229854070Y-123985068D01*
X229873323Y-123765000D01*
X229854070Y-123544932D01*
X229796894Y-123331550D01*
X229703534Y-123131339D01*
X229576826Y-122950380D01*
X229420620Y-122794174D01*
X229420616Y-122794171D01*
X229420615Y-122794170D01*
X229239666Y-122667468D01*
X229239658Y-122667464D01*
X229110811Y-122607382D01*
X229058371Y-122561210D01*
X229039219Y-122494017D01*
X229059435Y-122427135D01*
X229110811Y-122382618D01*
X229116802Y-122379824D01*
X229239662Y-122322534D01*
X229420620Y-122195826D01*
X229576826Y-122039620D01*
X229703534Y-121858662D01*
X229796894Y-121658450D01*
X229854070Y-121445068D01*
X229872412Y-121235413D01*
X229873323Y-121225002D01*
X229873323Y-121224997D01*
X229864305Y-121121923D01*
X229854070Y-121004932D01*
X229796894Y-120791550D01*
X229703534Y-120591339D01*
X229576826Y-120410380D01*
X229420620Y-120254174D01*
X229420616Y-120254171D01*
X229420615Y-120254170D01*
X229239666Y-120127468D01*
X229239658Y-120127464D01*
X229110811Y-120067382D01*
X229058371Y-120021210D01*
X229039219Y-119954017D01*
X229059435Y-119887135D01*
X229110811Y-119842618D01*
X229146519Y-119825967D01*
X229239662Y-119782534D01*
X229420620Y-119655826D01*
X229576826Y-119499620D01*
X229703534Y-119318662D01*
X229796894Y-119118450D01*
X229854070Y-118905068D01*
X229873323Y-118685000D01*
X229868117Y-118625499D01*
X229862007Y-118555659D01*
X229854070Y-118464932D01*
X229796894Y-118251550D01*
X229703534Y-118051339D01*
X229611335Y-117919664D01*
X229576827Y-117870381D01*
X229541034Y-117834588D01*
X229420620Y-117714174D01*
X229420616Y-117714171D01*
X229420615Y-117714170D01*
X229239666Y-117587468D01*
X229239662Y-117587466D01*
X229110218Y-117527105D01*
X229057779Y-117480932D01*
X229038627Y-117413739D01*
X229058843Y-117346858D01*
X229110219Y-117302340D01*
X229239416Y-117242095D01*
X229239417Y-117242094D01*
X229304188Y-117196741D01*
X228735409Y-116627962D01*
X228798993Y-116610925D01*
X228913007Y-116545099D01*
X229006099Y-116452007D01*
X229071925Y-116337993D01*
X229088962Y-116274409D01*
X229657741Y-116843188D01*
X229703094Y-116778417D01*
X229703100Y-116778407D01*
X229796419Y-116578284D01*
X229796424Y-116578270D01*
X229853573Y-116364986D01*
X229853575Y-116364976D01*
X229872821Y-116144996D01*
X229872821Y-116144995D01*
X229853575Y-115925023D01*
X229853573Y-115925013D01*
X229796424Y-115711729D01*
X229796420Y-115711720D01*
X229703096Y-115511586D01*
X229657741Y-115446811D01*
X229657740Y-115446810D01*
X229088962Y-116015589D01*
X229071925Y-115952007D01*
X229006099Y-115837993D01*
X228913007Y-115744901D01*
X228798993Y-115679075D01*
X228735410Y-115662037D01*
X229304188Y-115093259D01*
X229304187Y-115093258D01*
X229239411Y-115047901D01*
X229239405Y-115047898D01*
X229110219Y-114987658D01*
X229057779Y-114941486D01*
X229038627Y-114874293D01*
X229058843Y-114807411D01*
X229110219Y-114762894D01*
X229239662Y-114702534D01*
X229420620Y-114575826D01*
X229576826Y-114419620D01*
X229703534Y-114238662D01*
X229796894Y-114038450D01*
X229854070Y-113825068D01*
X229872258Y-113617175D01*
X229873323Y-113605002D01*
X229873323Y-113604997D01*
X229861950Y-113474999D01*
X229854070Y-113384932D01*
X229796894Y-113171550D01*
X229703534Y-112971339D01*
X229614603Y-112844331D01*
X229576827Y-112790381D01*
X229523670Y-112737224D01*
X229420620Y-112634174D01*
X229420616Y-112634171D01*
X229420615Y-112634170D01*
X229239666Y-112507468D01*
X229239662Y-112507466D01*
X229216385Y-112496612D01*
X229039450Y-112414106D01*
X229039447Y-112414105D01*
X229039445Y-112414104D01*
X228826070Y-112356930D01*
X228826062Y-112356929D01*
X228606002Y-112337677D01*
X228605998Y-112337677D01*
X228385937Y-112356929D01*
X228385929Y-112356930D01*
X228172554Y-112414104D01*
X228172548Y-112414107D01*
X227972340Y-112507465D01*
X227972338Y-112507466D01*
X227791377Y-112634175D01*
X227635175Y-112790377D01*
X227508466Y-112971338D01*
X227508465Y-112971340D01*
X227415107Y-113171548D01*
X227415104Y-113171554D01*
X227357930Y-113384929D01*
X227357929Y-113384937D01*
X227338677Y-113604997D01*
X227338677Y-113605002D01*
X227357929Y-113825062D01*
X227357930Y-113825070D01*
X227415104Y-114038445D01*
X227415105Y-114038447D01*
X227415106Y-114038450D01*
X227481777Y-114181427D01*
X227508466Y-114238662D01*
X227508468Y-114238666D01*
X227635170Y-114419615D01*
X227635175Y-114419621D01*
X227791378Y-114575824D01*
X227791384Y-114575829D01*
X227972333Y-114702531D01*
X227972335Y-114702532D01*
X227972338Y-114702534D01*
X228101781Y-114762894D01*
X228154220Y-114809066D01*
X228173372Y-114876260D01*
X228153156Y-114943141D01*
X228101781Y-114987658D01*
X227972590Y-115047901D01*
X227907811Y-115093258D01*
X228476590Y-115662037D01*
X228413007Y-115679075D01*
X228298993Y-115744901D01*
X228205901Y-115837993D01*
X228140075Y-115952007D01*
X228123037Y-116015590D01*
X227554258Y-115446811D01*
X227508901Y-115511590D01*
X227415579Y-115711720D01*
X227415575Y-115711729D01*
X227358426Y-115925013D01*
X227358425Y-115925022D01*
X227355777Y-115955279D01*
X227330322Y-116020347D01*
X227273730Y-116061324D01*
X227203968Y-116065200D01*
X227144568Y-116032149D01*
X223725011Y-112612591D01*
X223725006Y-112612587D01*
X223712904Y-112604501D01*
X223712902Y-112604500D01*
X223622239Y-112543920D01*
X223622226Y-112543913D01*
X223578469Y-112525789D01*
X223508035Y-112496614D01*
X223508027Y-112496612D01*
X223386807Y-112472500D01*
X223386803Y-112472500D01*
X218431714Y-112472500D01*
X218364675Y-112452815D01*
X218344033Y-112436181D01*
X215152790Y-109244937D01*
X215152789Y-109244936D01*
X215130562Y-109230085D01*
X215130561Y-109230084D01*
X215050018Y-109176266D01*
X215050005Y-109176259D01*
X215016564Y-109162408D01*
X214935814Y-109128960D01*
X214935806Y-109128958D01*
X214814586Y-109104846D01*
X214814582Y-109104846D01*
X214268672Y-109104846D01*
X214202695Y-109085837D01*
X214191874Y-109079037D01*
X214145585Y-109026700D01*
X214134940Y-108957646D01*
X214163318Y-108893799D01*
X214170158Y-108886377D01*
X214434567Y-108621968D01*
X214495888Y-108588485D01*
X214508345Y-108586433D01*
X214552255Y-108581486D01*
X214722522Y-108521907D01*
X214875262Y-108425934D01*
X215002816Y-108298380D01*
X215098789Y-108145640D01*
X215158368Y-107975373D01*
X215158369Y-107975367D01*
X215178565Y-107796121D01*
X215178565Y-107796114D01*
X215158369Y-107616868D01*
X215158368Y-107616863D01*
X215104762Y-107463666D01*
X215098789Y-107446596D01*
X215002816Y-107293856D01*
X214875262Y-107166302D01*
X214722523Y-107070329D01*
X214552254Y-107010749D01*
X214552249Y-107010748D01*
X214373004Y-106990553D01*
X214372996Y-106990553D01*
X214193750Y-107010748D01*
X214193745Y-107010749D01*
X214023476Y-107070329D01*
X213870737Y-107166302D01*
X213743184Y-107293855D01*
X213647210Y-107446596D01*
X213587632Y-107616863D01*
X213582686Y-107660755D01*
X213555618Y-107725169D01*
X213547147Y-107734550D01*
X212910801Y-108370898D01*
X212699992Y-108581707D01*
X212677401Y-108604298D01*
X212612586Y-108669112D01*
X212612585Y-108669114D01*
X212543920Y-108771879D01*
X212543916Y-108771886D01*
X212536881Y-108788872D01*
X212536880Y-108788874D01*
X212496614Y-108886082D01*
X212496612Y-108886090D01*
X212479923Y-108969993D01*
X212472500Y-109007310D01*
X212472500Y-111358328D01*
X212453494Y-111424300D01*
X212374211Y-111550476D01*
X212314631Y-111720745D01*
X212314630Y-111720750D01*
X212294435Y-111899996D01*
X209727226Y-111899996D01*
X211186735Y-110440487D01*
X211262356Y-110327312D01*
X211314445Y-110201558D01*
X211320235Y-110172447D01*
X211341000Y-110068058D01*
X211341000Y-108106943D01*
X211341000Y-108106940D01*
X211314446Y-107973449D01*
X211314445Y-107973448D01*
X211314445Y-107973444D01*
X211311639Y-107966670D01*
X211262359Y-107847696D01*
X211262351Y-107847681D01*
X211232208Y-107802570D01*
X211232208Y-107802569D01*
X211232206Y-107802567D01*
X211201892Y-107757199D01*
X211186736Y-107734516D01*
X211186732Y-107734511D01*
X210465491Y-107013269D01*
X210465485Y-107013264D01*
X210434277Y-106992411D01*
X210389472Y-106938798D01*
X210380766Y-106869473D01*
X210396435Y-106826192D01*
X210476744Y-106690398D01*
X210517531Y-106550010D01*
X210522597Y-106532573D01*
X210522598Y-106532567D01*
X210525499Y-106495701D01*
X210525500Y-106495694D01*
X210525500Y-106064306D01*
X210522598Y-106027431D01*
X210519097Y-106015381D01*
X210476745Y-105869606D01*
X210476744Y-105869603D01*
X210476744Y-105869602D01*
X210393081Y-105728135D01*
X210393078Y-105728132D01*
X210388298Y-105721969D01*
X210390750Y-105720066D01*
X210364155Y-105671421D01*
X210369104Y-105601726D01*
X210389940Y-105569304D01*
X210388298Y-105568031D01*
X210393075Y-105561870D01*
X210393081Y-105561865D01*
X210476744Y-105420398D01*
X210512755Y-105296449D01*
X210522597Y-105262573D01*
X210522598Y-105262567D01*
X210525499Y-105225701D01*
X210525500Y-105225694D01*
X210525500Y-104961500D01*
X210545185Y-104894461D01*
X210597989Y-104848706D01*
X210649500Y-104837500D01*
X225588719Y-104837500D01*
X225655758Y-104857185D01*
X225676400Y-104873819D01*
X227134164Y-106331583D01*
X227167649Y-106392906D01*
X227166258Y-106451356D01*
X227139939Y-106549583D01*
X227139936Y-106549596D01*
X227119341Y-106784999D01*
X227119341Y-106785000D01*
X227139936Y-107020403D01*
X227139938Y-107020413D01*
X227201094Y-107248655D01*
X227201096Y-107248659D01*
X227201097Y-107248663D01*
X227222171Y-107293856D01*
X227300965Y-107462830D01*
X227300967Y-107462834D01*
X227436501Y-107656395D01*
X227436506Y-107656402D01*
X227558430Y-107778326D01*
X227591915Y-107839649D01*
X227586931Y-107909341D01*
X227545059Y-107965274D01*
X227514083Y-107982189D01*
X227382669Y-108031203D01*
X227382664Y-108031206D01*
X227267455Y-108117452D01*
X227267452Y-108117455D01*
X227181206Y-108232664D01*
X227181202Y-108232671D01*
X227130908Y-108367517D01*
X227124501Y-108427116D01*
X227124500Y-108427135D01*
X227124500Y-110222870D01*
X227124501Y-110222876D01*
X227130908Y-110282483D01*
X227181202Y-110417328D01*
X227181206Y-110417335D01*
X227267452Y-110532544D01*
X227267455Y-110532547D01*
X227382664Y-110618793D01*
X227382671Y-110618797D01*
X227517517Y-110669091D01*
X227517516Y-110669091D01*
X227524444Y-110669835D01*
X227577127Y-110675500D01*
X229372872Y-110675499D01*
X229432483Y-110669091D01*
X229567331Y-110618796D01*
X229682546Y-110532546D01*
X229768796Y-110417331D01*
X229819091Y-110282483D01*
X229825500Y-110222873D01*
X229825499Y-108776279D01*
X229845184Y-108709241D01*
X229897987Y-108663486D01*
X229967146Y-108653542D01*
X230030702Y-108682567D01*
X230037180Y-108688599D01*
X230337015Y-108988434D01*
X230370500Y-109049757D01*
X230369110Y-109108205D01*
X230357931Y-109149928D01*
X230357929Y-109149938D01*
X230338677Y-109369997D01*
X230338677Y-109370002D01*
X230357929Y-109590062D01*
X230357930Y-109590070D01*
X230415104Y-109803445D01*
X230415105Y-109803447D01*
X230415106Y-109803450D01*
X230508466Y-110003662D01*
X230508468Y-110003666D01*
X230635170Y-110184615D01*
X230635175Y-110184621D01*
X230791378Y-110340824D01*
X230791384Y-110340829D01*
X230972333Y-110467531D01*
X230972335Y-110467532D01*
X230972338Y-110467534D01*
X231172550Y-110560894D01*
X231385932Y-110618070D01*
X231543123Y-110631822D01*
X231605998Y-110637323D01*
X231606000Y-110637323D01*
X231606002Y-110637323D01*
X231661017Y-110632509D01*
X231826068Y-110618070D01*
X232039450Y-110560894D01*
X232239662Y-110467534D01*
X232420620Y-110340826D01*
X232576826Y-110184620D01*
X232703534Y-110003662D01*
X232796894Y-109803450D01*
X232854070Y-109590068D01*
X232873323Y-109370000D01*
X232872690Y-109362770D01*
X232862382Y-109244937D01*
X232854070Y-109149932D01*
X232796894Y-108936550D01*
X232703534Y-108736339D01*
X232608069Y-108600000D01*
X232576827Y-108555381D01*
X232519897Y-108498451D01*
X232420620Y-108399174D01*
X232420616Y-108399171D01*
X232420615Y-108399170D01*
X232239666Y-108272468D01*
X232239658Y-108272464D01*
X232110811Y-108212382D01*
X232058371Y-108166210D01*
X232039219Y-108099017D01*
X232059435Y-108032135D01*
X232110811Y-107987618D01*
X232125198Y-107980909D01*
X232239662Y-107927534D01*
X232420620Y-107800826D01*
X232576826Y-107644620D01*
X232703534Y-107463662D01*
X232796894Y-107263450D01*
X232854070Y-107050068D01*
X232870214Y-106865539D01*
X232873323Y-106830002D01*
X232873323Y-106829997D01*
X232861489Y-106694731D01*
X232854070Y-106609932D01*
X232796894Y-106396550D01*
X232778514Y-106357135D01*
X246724500Y-106357135D01*
X246724500Y-109452870D01*
X246724501Y-109452876D01*
X246730908Y-109512483D01*
X246781202Y-109647328D01*
X246781206Y-109647335D01*
X246867452Y-109762544D01*
X246867455Y-109762547D01*
X246982664Y-109848793D01*
X246982671Y-109848797D01*
X247117517Y-109899091D01*
X247117516Y-109899091D01*
X247124444Y-109899835D01*
X247177127Y-109905500D01*
X250272872Y-109905499D01*
X250332483Y-109899091D01*
X250467331Y-109848796D01*
X250582546Y-109762546D01*
X250668796Y-109647331D01*
X250719091Y-109512483D01*
X250725500Y-109452873D01*
X250725499Y-106357128D01*
X250719091Y-106297517D01*
X250702118Y-106252011D01*
X250668797Y-106162671D01*
X250668793Y-106162664D01*
X250582547Y-106047455D01*
X250582544Y-106047452D01*
X250467335Y-105961206D01*
X250467328Y-105961202D01*
X250332482Y-105910908D01*
X250332483Y-105910908D01*
X250272883Y-105904501D01*
X250272881Y-105904500D01*
X250272873Y-105904500D01*
X250272864Y-105904500D01*
X247177129Y-105904500D01*
X247177123Y-105904501D01*
X247117516Y-105910908D01*
X246982671Y-105961202D01*
X246982664Y-105961206D01*
X246867455Y-106047452D01*
X246867452Y-106047455D01*
X246781206Y-106162664D01*
X246781202Y-106162671D01*
X246730908Y-106297517D01*
X246724501Y-106357116D01*
X246724501Y-106357123D01*
X246724500Y-106357135D01*
X232778514Y-106357135D01*
X232703534Y-106196339D01*
X232621866Y-106079704D01*
X232576827Y-106015381D01*
X232522648Y-105961202D01*
X232420620Y-105859174D01*
X232420616Y-105859171D01*
X232420615Y-105859170D01*
X232239666Y-105732468D01*
X232239662Y-105732466D01*
X232110218Y-105672105D01*
X232057779Y-105625932D01*
X232038627Y-105558739D01*
X232058843Y-105491858D01*
X232110219Y-105447340D01*
X232239416Y-105387095D01*
X232239417Y-105387094D01*
X232304188Y-105341741D01*
X231735410Y-104772962D01*
X231798993Y-104755925D01*
X231913007Y-104690099D01*
X232006099Y-104597007D01*
X232071925Y-104482993D01*
X232088962Y-104419409D01*
X232657741Y-104988188D01*
X232703094Y-104923417D01*
X232703100Y-104923407D01*
X232796419Y-104723284D01*
X232796424Y-104723270D01*
X232853573Y-104509986D01*
X232853575Y-104509976D01*
X232872821Y-104290000D01*
X232872821Y-104289999D01*
X232853575Y-104070023D01*
X232853573Y-104070013D01*
X232796424Y-103856729D01*
X232796420Y-103856720D01*
X232703096Y-103656586D01*
X232657741Y-103591811D01*
X232657740Y-103591810D01*
X232088962Y-104160589D01*
X232071925Y-104097007D01*
X232006099Y-103982993D01*
X231913007Y-103889901D01*
X231798993Y-103824075D01*
X231735410Y-103807037D01*
X232304188Y-103238259D01*
X232304187Y-103238258D01*
X232239411Y-103192901D01*
X232239405Y-103192898D01*
X232110219Y-103132658D01*
X232057779Y-103086486D01*
X232038627Y-103019293D01*
X232058843Y-102952411D01*
X232110219Y-102907894D01*
X232149371Y-102889637D01*
X232239662Y-102847534D01*
X232271847Y-102824998D01*
X246719891Y-102824998D01*
X246719891Y-102825001D01*
X246740300Y-103110362D01*
X246801109Y-103389895D01*
X246901091Y-103657958D01*
X247038191Y-103909038D01*
X247038196Y-103909046D01*
X247144882Y-104051561D01*
X247144883Y-104051562D01*
X248039767Y-103156677D01*
X248051497Y-103184995D01*
X248134670Y-103309472D01*
X248240528Y-103415330D01*
X248365005Y-103498503D01*
X248393320Y-103510231D01*
X247498436Y-104405115D01*
X247640960Y-104511807D01*
X247640961Y-104511808D01*
X247892042Y-104648908D01*
X247892041Y-104648908D01*
X248160104Y-104748890D01*
X248439637Y-104809699D01*
X248724999Y-104830109D01*
X248725001Y-104830109D01*
X249010362Y-104809699D01*
X249289895Y-104748890D01*
X249557958Y-104648908D01*
X249809047Y-104511803D01*
X249951561Y-104405116D01*
X249951562Y-104405115D01*
X249056679Y-103510231D01*
X249084995Y-103498503D01*
X249209472Y-103415330D01*
X249315330Y-103309472D01*
X249398503Y-103184995D01*
X249410231Y-103156678D01*
X250305115Y-104051562D01*
X250305116Y-104051561D01*
X250411803Y-103909047D01*
X250548908Y-103657958D01*
X250648890Y-103389895D01*
X250709699Y-103110362D01*
X250730109Y-102825001D01*
X250730109Y-102824998D01*
X250709699Y-102539637D01*
X250648890Y-102260104D01*
X250548908Y-101992041D01*
X250411808Y-101740961D01*
X250411807Y-101740960D01*
X250305115Y-101598436D01*
X249410231Y-102493320D01*
X249398503Y-102465005D01*
X249315330Y-102340528D01*
X249209472Y-102234670D01*
X249084995Y-102151497D01*
X249056678Y-102139767D01*
X249951562Y-101244883D01*
X249951561Y-101244882D01*
X249809046Y-101138196D01*
X249809038Y-101138191D01*
X249557957Y-101001091D01*
X249557958Y-101001091D01*
X249289895Y-100901109D01*
X249010362Y-100840300D01*
X248725001Y-100819891D01*
X248724999Y-100819891D01*
X248439637Y-100840300D01*
X248160104Y-100901109D01*
X247892041Y-101001091D01*
X247640961Y-101138191D01*
X247640953Y-101138196D01*
X247498437Y-101244882D01*
X247498436Y-101244883D01*
X248393321Y-102139767D01*
X248365005Y-102151497D01*
X248240528Y-102234670D01*
X248134670Y-102340528D01*
X248051497Y-102465005D01*
X248039768Y-102493321D01*
X247144883Y-101598436D01*
X247144882Y-101598437D01*
X247038196Y-101740953D01*
X247038191Y-101740961D01*
X246901091Y-101992041D01*
X246801109Y-102260104D01*
X246740300Y-102539637D01*
X246719891Y-102824998D01*
X232271847Y-102824998D01*
X232420620Y-102720826D01*
X232576826Y-102564620D01*
X232703534Y-102383662D01*
X232796894Y-102183450D01*
X232854070Y-101970068D01*
X232869812Y-101790129D01*
X232873323Y-101750002D01*
X232873323Y-101749997D01*
X232854070Y-101529937D01*
X232854070Y-101529932D01*
X232796894Y-101316550D01*
X232703534Y-101116339D01*
X232608537Y-100980668D01*
X232576827Y-100935381D01*
X232504035Y-100862589D01*
X232420620Y-100779174D01*
X232420616Y-100779171D01*
X232420615Y-100779170D01*
X232239666Y-100652468D01*
X232239662Y-100652466D01*
X232207584Y-100637508D01*
X232039450Y-100559106D01*
X232039447Y-100559105D01*
X232039445Y-100559104D01*
X231826070Y-100501930D01*
X231826062Y-100501929D01*
X231606002Y-100482677D01*
X231605998Y-100482677D01*
X231385937Y-100501929D01*
X231385929Y-100501930D01*
X231172554Y-100559104D01*
X231172548Y-100559107D01*
X230972340Y-100652465D01*
X230972338Y-100652466D01*
X230791379Y-100779174D01*
X230635175Y-100935377D01*
X230508466Y-101116338D01*
X230508465Y-101116340D01*
X230415107Y-101316548D01*
X230415104Y-101316554D01*
X230357930Y-101529929D01*
X230357929Y-101529937D01*
X230338677Y-101749997D01*
X230338677Y-101750002D01*
X230357929Y-101970062D01*
X230357930Y-101970070D01*
X230415104Y-102183445D01*
X230415105Y-102183447D01*
X230415106Y-102183450D01*
X230460392Y-102280567D01*
X230508466Y-102383662D01*
X230508468Y-102383666D01*
X230635170Y-102564615D01*
X230635175Y-102564621D01*
X230791378Y-102720824D01*
X230791384Y-102720829D01*
X230972333Y-102847531D01*
X230972335Y-102847532D01*
X230972338Y-102847534D01*
X231048419Y-102883011D01*
X231101781Y-102907894D01*
X231154220Y-102954066D01*
X231173372Y-103021260D01*
X231153156Y-103088141D01*
X231101781Y-103132658D01*
X230972590Y-103192901D01*
X230907811Y-103238258D01*
X231476590Y-103807037D01*
X231413007Y-103824075D01*
X231298993Y-103889901D01*
X231205901Y-103982993D01*
X231140075Y-104097007D01*
X231123037Y-104160589D01*
X230554258Y-103591811D01*
X230508901Y-103656590D01*
X230415579Y-103856720D01*
X230415575Y-103856729D01*
X230358426Y-104070013D01*
X230358424Y-104070023D01*
X230339179Y-104289999D01*
X230339179Y-104290000D01*
X230358424Y-104509976D01*
X230358426Y-104509986D01*
X230415575Y-104723270D01*
X230415580Y-104723284D01*
X230508898Y-104923405D01*
X230508901Y-104923411D01*
X230554258Y-104988187D01*
X230554259Y-104988188D01*
X231123037Y-104419409D01*
X231140075Y-104482993D01*
X231205901Y-104597007D01*
X231298993Y-104690099D01*
X231413007Y-104755925D01*
X231476590Y-104772962D01*
X230907810Y-105341740D01*
X230972589Y-105387098D01*
X231101781Y-105447342D01*
X231154220Y-105493514D01*
X231173372Y-105560708D01*
X231153156Y-105627589D01*
X231101781Y-105672106D01*
X230972340Y-105732465D01*
X230972338Y-105732466D01*
X230791381Y-105859172D01*
X230635171Y-106015383D01*
X230603642Y-106060411D01*
X230549064Y-106104035D01*
X230479566Y-106111227D01*
X230417212Y-106079704D01*
X230414390Y-106076970D01*
X230400011Y-106062592D01*
X230400008Y-106062589D01*
X227433011Y-103095591D01*
X227433010Y-103095590D01*
X227405937Y-103077501D01*
X227405936Y-103077500D01*
X227330230Y-103026915D01*
X227279936Y-103006083D01*
X227216035Y-102979614D01*
X227216027Y-102979612D01*
X227094807Y-102955500D01*
X227094803Y-102955500D01*
X222175689Y-102955500D01*
X222108650Y-102935815D01*
X222062895Y-102883011D01*
X222052951Y-102813853D01*
X222081976Y-102750297D01*
X222088008Y-102743819D01*
X222110379Y-102721447D01*
X222110382Y-102721444D01*
X222199902Y-102587468D01*
X222206269Y-102572096D01*
X222261563Y-102438605D01*
X222261565Y-102438596D01*
X222263512Y-102428811D01*
X222276414Y-102363948D01*
X222293000Y-102280567D01*
X222293000Y-102119431D01*
X222263289Y-101970070D01*
X222261564Y-101961398D01*
X222199902Y-101812531D01*
X222199900Y-101812529D01*
X222199900Y-101812527D01*
X222110382Y-101678555D01*
X222110379Y-101678551D01*
X221971819Y-101539991D01*
X221938334Y-101478668D01*
X221935500Y-101452310D01*
X221935500Y-97649999D01*
X227083179Y-97649999D01*
X227083179Y-97650000D01*
X227102424Y-97869976D01*
X227102426Y-97869986D01*
X227159575Y-98083270D01*
X227159580Y-98083284D01*
X227252898Y-98283405D01*
X227252901Y-98283411D01*
X227298258Y-98348187D01*
X227298259Y-98348188D01*
X227867037Y-97779409D01*
X227884075Y-97842993D01*
X227949901Y-97957007D01*
X228042993Y-98050099D01*
X228157007Y-98115925D01*
X228220590Y-98132962D01*
X227651810Y-98701740D01*
X227716590Y-98747099D01*
X227716592Y-98747100D01*
X227916715Y-98840419D01*
X227916729Y-98840424D01*
X228130013Y-98897573D01*
X228130023Y-98897575D01*
X228349999Y-98916821D01*
X228350001Y-98916821D01*
X228569976Y-98897575D01*
X228569986Y-98897573D01*
X228783270Y-98840424D01*
X228783284Y-98840419D01*
X228983407Y-98747100D01*
X228983417Y-98747094D01*
X229048188Y-98701741D01*
X228479410Y-98132962D01*
X228542993Y-98115925D01*
X228657007Y-98050099D01*
X228750099Y-97957007D01*
X228815925Y-97842993D01*
X228832962Y-97779409D01*
X229401741Y-98348188D01*
X229447094Y-98283417D01*
X229447100Y-98283407D01*
X229540419Y-98083284D01*
X229540424Y-98083270D01*
X229597573Y-97869986D01*
X229597575Y-97869976D01*
X229616821Y-97650000D01*
X229616821Y-97649999D01*
X229616821Y-97649997D01*
X239282677Y-97649997D01*
X239282677Y-97650002D01*
X239301929Y-97870062D01*
X239301930Y-97870070D01*
X239359104Y-98083445D01*
X239359105Y-98083447D01*
X239359106Y-98083450D01*
X239449110Y-98276464D01*
X239452466Y-98283662D01*
X239452468Y-98283666D01*
X239579170Y-98464615D01*
X239579175Y-98464621D01*
X239735378Y-98620824D01*
X239735384Y-98620829D01*
X239916333Y-98747531D01*
X239916335Y-98747532D01*
X239916338Y-98747534D01*
X240116550Y-98840894D01*
X240329932Y-98898070D01*
X240487123Y-98911822D01*
X240549998Y-98917323D01*
X240550000Y-98917323D01*
X240550002Y-98917323D01*
X240605017Y-98912509D01*
X240770068Y-98898070D01*
X240983450Y-98840894D01*
X241183662Y-98747534D01*
X241364620Y-98620826D01*
X241520826Y-98464620D01*
X241647534Y-98283662D01*
X241740894Y-98083450D01*
X241798070Y-97870068D01*
X241817323Y-97650000D01*
X241816345Y-97638826D01*
X241801902Y-97473734D01*
X241798070Y-97429932D01*
X241740894Y-97216550D01*
X241647534Y-97016339D01*
X241520826Y-96835380D01*
X241485444Y-96799998D01*
X246694891Y-96799998D01*
X246694891Y-96800001D01*
X246715300Y-97085362D01*
X246776109Y-97364895D01*
X246876091Y-97632958D01*
X247013191Y-97884038D01*
X247013196Y-97884046D01*
X247119882Y-98026561D01*
X247119883Y-98026562D01*
X248014767Y-97131677D01*
X248026497Y-97159995D01*
X248109670Y-97284472D01*
X248215528Y-97390330D01*
X248340005Y-97473503D01*
X248368320Y-97485231D01*
X247473436Y-98380115D01*
X247615960Y-98486807D01*
X247615961Y-98486808D01*
X247867042Y-98623908D01*
X247867041Y-98623908D01*
X248135104Y-98723890D01*
X248414637Y-98784699D01*
X248699999Y-98805109D01*
X248700001Y-98805109D01*
X248985362Y-98784699D01*
X249264895Y-98723890D01*
X249532958Y-98623908D01*
X249784047Y-98486803D01*
X249926561Y-98380116D01*
X249926562Y-98380115D01*
X249031679Y-97485231D01*
X249059995Y-97473503D01*
X249184472Y-97390330D01*
X249290330Y-97284472D01*
X249373503Y-97159995D01*
X249385231Y-97131678D01*
X250280115Y-98026562D01*
X250280116Y-98026561D01*
X250386803Y-97884047D01*
X250523908Y-97632958D01*
X250623890Y-97364895D01*
X250684699Y-97085362D01*
X250705109Y-96800001D01*
X250705109Y-96799998D01*
X250684699Y-96514637D01*
X250623890Y-96235104D01*
X250523908Y-95967041D01*
X250386808Y-95715961D01*
X250386807Y-95715960D01*
X250280115Y-95573436D01*
X249385231Y-96468320D01*
X249373503Y-96440005D01*
X249290330Y-96315528D01*
X249184472Y-96209670D01*
X249059995Y-96126497D01*
X249031678Y-96114767D01*
X249926562Y-95219883D01*
X249926561Y-95219882D01*
X249784046Y-95113196D01*
X249784038Y-95113191D01*
X249532957Y-94976091D01*
X249532958Y-94976091D01*
X249264895Y-94876109D01*
X248985362Y-94815300D01*
X248700001Y-94794891D01*
X248699999Y-94794891D01*
X248414637Y-94815300D01*
X248135104Y-94876109D01*
X247867041Y-94976091D01*
X247615961Y-95113191D01*
X247615953Y-95113196D01*
X247473437Y-95219882D01*
X247473436Y-95219883D01*
X248368321Y-96114767D01*
X248340005Y-96126497D01*
X248215528Y-96209670D01*
X248109670Y-96315528D01*
X248026497Y-96440005D01*
X248014768Y-96468321D01*
X247119883Y-95573436D01*
X247119882Y-95573437D01*
X247013196Y-95715953D01*
X247013191Y-95715961D01*
X246876091Y-95967041D01*
X246776109Y-96235104D01*
X246715300Y-96514637D01*
X246694891Y-96799998D01*
X241485444Y-96799998D01*
X241364620Y-96679174D01*
X241364616Y-96679171D01*
X241364615Y-96679170D01*
X241183666Y-96552468D01*
X241183662Y-96552466D01*
X241102537Y-96514637D01*
X240983450Y-96459106D01*
X240983447Y-96459105D01*
X240983445Y-96459104D01*
X240770070Y-96401930D01*
X240770062Y-96401929D01*
X240550002Y-96382677D01*
X240549998Y-96382677D01*
X240329937Y-96401929D01*
X240329929Y-96401930D01*
X240116554Y-96459104D01*
X240116548Y-96459107D01*
X239916340Y-96552465D01*
X239916338Y-96552466D01*
X239735377Y-96679175D01*
X239579175Y-96835377D01*
X239452466Y-97016338D01*
X239452465Y-97016340D01*
X239431451Y-97061405D01*
X239359363Y-97216000D01*
X239359107Y-97216548D01*
X239359104Y-97216554D01*
X239301930Y-97429929D01*
X239301929Y-97429937D01*
X239282677Y-97649997D01*
X229616821Y-97649997D01*
X229597575Y-97430023D01*
X229597573Y-97430013D01*
X229540424Y-97216729D01*
X229540420Y-97216720D01*
X229447096Y-97016586D01*
X229401741Y-96951811D01*
X229401740Y-96951810D01*
X228832962Y-97520589D01*
X228815925Y-97457007D01*
X228750099Y-97342993D01*
X228657007Y-97249901D01*
X228542993Y-97184075D01*
X228479410Y-97167037D01*
X229048188Y-96598259D01*
X229048187Y-96598258D01*
X228983411Y-96552901D01*
X228983405Y-96552898D01*
X228783284Y-96459580D01*
X228783270Y-96459575D01*
X228569986Y-96402426D01*
X228569976Y-96402424D01*
X228350001Y-96383179D01*
X228349999Y-96383179D01*
X228130023Y-96402424D01*
X228130013Y-96402426D01*
X227916729Y-96459575D01*
X227916720Y-96459579D01*
X227716590Y-96552901D01*
X227651811Y-96598258D01*
X228220590Y-97167037D01*
X228157007Y-97184075D01*
X228042993Y-97249901D01*
X227949901Y-97342993D01*
X227884075Y-97457007D01*
X227867037Y-97520590D01*
X227298258Y-96951811D01*
X227252901Y-97016590D01*
X227159579Y-97216720D01*
X227159575Y-97216729D01*
X227102426Y-97430013D01*
X227102424Y-97430023D01*
X227083179Y-97649999D01*
X221935500Y-97649999D01*
X221935500Y-95992000D01*
X221955185Y-95924961D01*
X222007989Y-95879206D01*
X222059500Y-95868000D01*
X223030567Y-95868000D01*
X223030568Y-95867999D01*
X223188602Y-95836565D01*
X223278782Y-95799211D01*
X223337468Y-95774903D01*
X223471445Y-95685382D01*
X226207508Y-92949317D01*
X226268829Y-92915834D01*
X226305990Y-92913472D01*
X226350000Y-92917323D01*
X226350000Y-92917322D01*
X226350001Y-92917323D01*
X226394018Y-92913472D01*
X226570068Y-92898070D01*
X226783450Y-92840894D01*
X226983662Y-92747534D01*
X227164620Y-92620826D01*
X227320826Y-92464620D01*
X227447534Y-92283662D01*
X227540894Y-92083450D01*
X227598070Y-91870068D01*
X227617323Y-91650000D01*
X227598070Y-91429932D01*
X227540894Y-91216550D01*
X227447534Y-91016339D01*
X227339044Y-90861398D01*
X227320827Y-90835381D01*
X227313997Y-90828551D01*
X227164620Y-90679174D01*
X227164616Y-90679171D01*
X227164615Y-90679170D01*
X226983666Y-90552468D01*
X226983662Y-90552466D01*
X226983660Y-90552465D01*
X226783450Y-90459106D01*
X226783447Y-90459105D01*
X226783445Y-90459104D01*
X226570070Y-90401930D01*
X226570062Y-90401929D01*
X226350002Y-90382677D01*
X226349998Y-90382677D01*
X226129937Y-90401929D01*
X226129929Y-90401930D01*
X225916554Y-90459104D01*
X225916548Y-90459107D01*
X225716340Y-90552465D01*
X225716338Y-90552466D01*
X225535377Y-90679175D01*
X225379175Y-90835377D01*
X225252466Y-91016338D01*
X225252465Y-91016340D01*
X225159107Y-91216548D01*
X225159104Y-91216554D01*
X225101930Y-91429929D01*
X225101929Y-91429937D01*
X225082677Y-91649997D01*
X225082677Y-91650003D01*
X225086526Y-91694005D01*
X225072759Y-91762505D01*
X225050679Y-91792492D01*
X222647492Y-94195681D01*
X222586169Y-94229166D01*
X222559811Y-94232000D01*
X221290189Y-94232000D01*
X221223150Y-94212315D01*
X221202512Y-94195685D01*
X221121445Y-94114618D01*
X221121444Y-94114617D01*
X221121443Y-94114616D01*
X220987474Y-94025100D01*
X220987461Y-94025093D01*
X220838606Y-93963436D01*
X220838594Y-93963433D01*
X220680570Y-93932000D01*
X220680566Y-93932000D01*
X189119434Y-93932000D01*
X189119429Y-93932000D01*
X188961405Y-93963433D01*
X188961397Y-93963435D01*
X188812529Y-94025099D01*
X188812526Y-94025100D01*
X188678559Y-94114614D01*
X188678557Y-94114615D01*
X188638025Y-94155148D01*
X188597490Y-94195682D01*
X188536170Y-94229166D01*
X188509811Y-94232000D01*
X183261700Y-94232000D01*
X183261680Y-94231999D01*
X183255566Y-94231999D01*
X183094435Y-94231999D01*
X183094433Y-94231999D01*
X182936403Y-94263433D01*
X182936393Y-94263436D01*
X182787536Y-94325094D01*
X182787534Y-94325095D01*
X182707219Y-94378761D01*
X182707218Y-94378762D01*
X182653552Y-94414619D01*
X182637726Y-94430445D01*
X182576402Y-94463929D01*
X182506711Y-94458943D01*
X182450778Y-94417070D01*
X182427574Y-94362159D01*
X182413553Y-94273631D01*
X182340566Y-94049003D01*
X182233342Y-93838566D01*
X182094517Y-93647490D01*
X181927510Y-93480483D01*
X181736433Y-93341657D01*
X181708613Y-93327482D01*
X181525996Y-93234433D01*
X181301368Y-93161446D01*
X181068097Y-93124500D01*
X181068092Y-93124500D01*
X178831908Y-93124500D01*
X178831903Y-93124500D01*
X178598631Y-93161446D01*
X178374003Y-93234433D01*
X178163566Y-93341657D01*
X178054550Y-93420862D01*
X177972490Y-93480483D01*
X177972488Y-93480485D01*
X177972487Y-93480485D01*
X177805485Y-93647487D01*
X177805485Y-93647488D01*
X177805483Y-93647490D01*
X177757094Y-93714091D01*
X177666657Y-93838566D01*
X177559433Y-94049003D01*
X177486446Y-94273631D01*
X177449500Y-94506902D01*
X177449500Y-94743097D01*
X177486446Y-94976368D01*
X177559433Y-95200996D01*
X177666657Y-95411433D01*
X177805483Y-95602510D01*
X177972490Y-95769517D01*
X178163567Y-95908343D01*
X178196182Y-95924961D01*
X178374003Y-96015566D01*
X178374005Y-96015566D01*
X178374008Y-96015568D01*
X178449202Y-96040000D01*
X178598631Y-96088553D01*
X178831903Y-96125500D01*
X178831908Y-96125500D01*
X180643311Y-96125500D01*
X180710350Y-96145185D01*
X180756105Y-96197989D01*
X180766049Y-96267147D01*
X180737024Y-96330703D01*
X180730992Y-96337181D01*
X180289620Y-96778551D01*
X180289617Y-96778555D01*
X180200098Y-96912528D01*
X180178163Y-96965486D01*
X180138435Y-97061397D01*
X180138433Y-97061405D01*
X180107000Y-97219429D01*
X180107000Y-103684810D01*
X180087315Y-103751849D01*
X180070681Y-103772491D01*
X174705298Y-109137873D01*
X174643975Y-109171358D01*
X174574284Y-109166374D01*
X174465041Y-109125629D01*
X174185433Y-109064804D01*
X173900001Y-109044390D01*
X173899999Y-109044390D01*
X173614566Y-109064804D01*
X173334962Y-109125628D01*
X173066833Y-109225635D01*
X172815690Y-109362770D01*
X172815682Y-109362775D01*
X172586612Y-109534254D01*
X172586594Y-109534270D01*
X172384270Y-109736594D01*
X172384254Y-109736612D01*
X172212775Y-109965682D01*
X172212770Y-109965690D01*
X172075635Y-110216833D01*
X171975628Y-110484962D01*
X171914804Y-110764566D01*
X171894390Y-111049998D01*
X168238000Y-111049998D01*
X168238000Y-106049998D01*
X171894390Y-106049998D01*
X171894390Y-106050001D01*
X171914804Y-106335433D01*
X171975628Y-106615037D01*
X171975630Y-106615043D01*
X171975631Y-106615046D01*
X172075633Y-106883161D01*
X172075635Y-106883166D01*
X172212770Y-107134309D01*
X172212775Y-107134317D01*
X172384254Y-107363387D01*
X172384270Y-107363405D01*
X172586594Y-107565729D01*
X172586612Y-107565745D01*
X172815682Y-107737224D01*
X172815690Y-107737229D01*
X173066833Y-107874364D01*
X173066832Y-107874364D01*
X173066836Y-107874365D01*
X173066839Y-107874367D01*
X173334954Y-107974369D01*
X173334960Y-107974370D01*
X173334962Y-107974371D01*
X173614566Y-108035195D01*
X173614568Y-108035195D01*
X173614572Y-108035196D01*
X173868220Y-108053337D01*
X173899999Y-108055610D01*
X173900000Y-108055610D01*
X173900001Y-108055610D01*
X173928595Y-108053564D01*
X174185428Y-108035196D01*
X174198792Y-108032289D01*
X174465037Y-107974371D01*
X174465037Y-107974370D01*
X174465046Y-107974369D01*
X174733161Y-107874367D01*
X174984315Y-107737226D01*
X175213395Y-107565739D01*
X175415739Y-107363395D01*
X175587226Y-107134315D01*
X175724367Y-106883161D01*
X175824369Y-106615046D01*
X175825480Y-106609937D01*
X175885195Y-106335433D01*
X175885195Y-106335432D01*
X175885196Y-106335428D01*
X175905610Y-106050000D01*
X175903995Y-106027426D01*
X175895662Y-105910908D01*
X175885196Y-105764572D01*
X175878212Y-105732468D01*
X175824371Y-105484962D01*
X175824370Y-105484960D01*
X175824369Y-105484954D01*
X175724367Y-105216839D01*
X175717790Y-105204795D01*
X175587229Y-104965690D01*
X175587224Y-104965682D01*
X175415745Y-104736612D01*
X175415729Y-104736594D01*
X175213405Y-104534270D01*
X175213387Y-104534254D01*
X174984317Y-104362775D01*
X174984309Y-104362770D01*
X174733166Y-104225635D01*
X174733167Y-104225635D01*
X174545307Y-104155567D01*
X174465046Y-104125631D01*
X174465043Y-104125630D01*
X174465037Y-104125628D01*
X174185433Y-104064804D01*
X173900001Y-104044390D01*
X173899999Y-104044390D01*
X173614566Y-104064804D01*
X173334962Y-104125628D01*
X173066833Y-104225635D01*
X172815690Y-104362770D01*
X172815682Y-104362775D01*
X172586612Y-104534254D01*
X172586594Y-104534270D01*
X172384270Y-104736594D01*
X172384254Y-104736612D01*
X172212775Y-104965682D01*
X172212770Y-104965690D01*
X172075635Y-105216833D01*
X171975628Y-105484962D01*
X171914804Y-105764566D01*
X171894390Y-106049998D01*
X168238000Y-106049998D01*
X168238000Y-99502135D01*
X171899500Y-99502135D01*
X171899500Y-102597870D01*
X171899501Y-102597876D01*
X171905908Y-102657483D01*
X171956202Y-102792328D01*
X171956206Y-102792335D01*
X172042452Y-102907544D01*
X172042455Y-102907547D01*
X172157664Y-102993793D01*
X172157671Y-102993797D01*
X172292517Y-103044091D01*
X172292516Y-103044091D01*
X172299444Y-103044835D01*
X172352127Y-103050500D01*
X175447872Y-103050499D01*
X175507483Y-103044091D01*
X175642331Y-102993796D01*
X175757546Y-102907546D01*
X175843796Y-102792331D01*
X175894091Y-102657483D01*
X175900500Y-102597873D01*
X175900499Y-99502128D01*
X175894091Y-99442517D01*
X175891494Y-99435555D01*
X175843797Y-99307671D01*
X175843793Y-99307664D01*
X175757547Y-99192455D01*
X175757544Y-99192452D01*
X175642335Y-99106206D01*
X175642328Y-99106202D01*
X175507482Y-99055908D01*
X175507483Y-99055908D01*
X175447883Y-99049501D01*
X175447881Y-99049500D01*
X175447873Y-99049500D01*
X175447864Y-99049500D01*
X172352129Y-99049500D01*
X172352123Y-99049501D01*
X172292516Y-99055908D01*
X172157671Y-99106202D01*
X172157664Y-99106206D01*
X172042455Y-99192452D01*
X172042452Y-99192455D01*
X171956206Y-99307664D01*
X171956202Y-99307671D01*
X171905908Y-99442517D01*
X171900031Y-99497185D01*
X171899501Y-99502123D01*
X171899500Y-99502135D01*
X168238000Y-99502135D01*
X168238000Y-88806947D01*
X175450000Y-88806947D01*
X175450000Y-89675000D01*
X176450000Y-89675000D01*
X176450000Y-90175000D01*
X175450000Y-90175000D01*
X175450000Y-91043052D01*
X175486934Y-91276247D01*
X175559897Y-91500802D01*
X175667085Y-91711171D01*
X175805866Y-91902186D01*
X175972813Y-92069133D01*
X176163828Y-92207914D01*
X176374195Y-92315102D01*
X176598744Y-92388063D01*
X176598750Y-92388065D01*
X176700000Y-92404101D01*
X176700000Y-91358012D01*
X176757007Y-91390925D01*
X176884174Y-91425000D01*
X177015826Y-91425000D01*
X177142993Y-91390925D01*
X177200000Y-91358012D01*
X177200000Y-92404100D01*
X177301249Y-92388065D01*
X177301255Y-92388063D01*
X177525804Y-92315102D01*
X177736171Y-92207914D01*
X177927186Y-92069133D01*
X178094133Y-91902186D01*
X178232914Y-91711171D01*
X178340102Y-91500802D01*
X178413065Y-91276247D01*
X178450000Y-91043052D01*
X178450000Y-90175000D01*
X177450000Y-90175000D01*
X177450000Y-89675000D01*
X178450000Y-89675000D01*
X178450000Y-88806947D01*
X178413065Y-88573752D01*
X178340102Y-88349197D01*
X178232914Y-88138828D01*
X178094133Y-87947813D01*
X177927186Y-87780866D01*
X177736171Y-87642085D01*
X177706830Y-87627135D01*
X181649500Y-87627135D01*
X181649500Y-92222870D01*
X181649501Y-92222876D01*
X181655908Y-92282483D01*
X181706202Y-92417328D01*
X181706206Y-92417335D01*
X181792452Y-92532544D01*
X181792455Y-92532547D01*
X181907664Y-92618793D01*
X181907671Y-92618797D01*
X182042517Y-92669091D01*
X182042516Y-92669091D01*
X182049444Y-92669835D01*
X182102127Y-92675500D01*
X184197872Y-92675499D01*
X184257483Y-92669091D01*
X184392331Y-92618796D01*
X184507546Y-92532546D01*
X184593796Y-92417331D01*
X184644091Y-92282483D01*
X184650500Y-92222873D01*
X184650500Y-91180568D01*
X196581999Y-91180568D01*
X196613434Y-91338595D01*
X196613436Y-91338603D01*
X196675097Y-91487468D01*
X196675098Y-91487471D01*
X196764617Y-91621444D01*
X196764620Y-91621448D01*
X196878551Y-91735379D01*
X196878555Y-91735382D01*
X197012528Y-91824901D01*
X197012530Y-91824901D01*
X197012532Y-91824903D01*
X197161398Y-91886564D01*
X197200098Y-91894262D01*
X197319431Y-91918000D01*
X197319434Y-91918000D01*
X197480568Y-91918000D01*
X197560123Y-91902174D01*
X197638602Y-91886564D01*
X197787468Y-91824903D01*
X197921445Y-91735382D01*
X199052508Y-90604319D01*
X199113831Y-90570834D01*
X199140189Y-90568000D01*
X202459811Y-90568000D01*
X202526850Y-90587685D01*
X202547492Y-90604319D01*
X203607453Y-91664280D01*
X203640938Y-91725603D01*
X203641389Y-91727770D01*
X203663433Y-91838594D01*
X203663435Y-91838602D01*
X203725096Y-91987466D01*
X203814619Y-92121447D01*
X203928552Y-92235380D01*
X204062533Y-92324903D01*
X204136965Y-92355733D01*
X204211398Y-92386565D01*
X204366056Y-92417328D01*
X204369429Y-92417999D01*
X204369433Y-92418000D01*
X204369434Y-92418000D01*
X204530567Y-92418000D01*
X204530568Y-92417999D01*
X204688602Y-92386565D01*
X204837468Y-92324902D01*
X204971445Y-92235382D01*
X205085382Y-92121445D01*
X205174902Y-91987468D01*
X205236565Y-91838602D01*
X205268000Y-91680566D01*
X205268000Y-91269434D01*
X205236565Y-91111398D01*
X205177228Y-90968149D01*
X205175584Y-90963551D01*
X205085382Y-90828554D01*
X205085379Y-90828551D01*
X204428963Y-90172135D01*
X246699500Y-90172135D01*
X246699500Y-93267870D01*
X246699501Y-93267876D01*
X246705908Y-93327483D01*
X246756202Y-93462328D01*
X246756206Y-93462335D01*
X246842452Y-93577544D01*
X246842455Y-93577547D01*
X246957664Y-93663793D01*
X246957671Y-93663797D01*
X247092517Y-93714091D01*
X247092516Y-93714091D01*
X247099444Y-93714835D01*
X247152127Y-93720500D01*
X250247872Y-93720499D01*
X250307483Y-93714091D01*
X250442331Y-93663796D01*
X250557546Y-93577546D01*
X250643796Y-93462331D01*
X250694091Y-93327483D01*
X250700500Y-93267873D01*
X250700499Y-90172128D01*
X250694091Y-90112517D01*
X250643796Y-89977669D01*
X250643795Y-89977668D01*
X250643793Y-89977664D01*
X250557547Y-89862455D01*
X250557544Y-89862452D01*
X250442335Y-89776206D01*
X250442328Y-89776202D01*
X250307482Y-89725908D01*
X250307483Y-89725908D01*
X250247883Y-89719501D01*
X250247881Y-89719500D01*
X250247873Y-89719500D01*
X250247864Y-89719500D01*
X247152129Y-89719500D01*
X247152123Y-89719501D01*
X247092516Y-89725908D01*
X246957671Y-89776202D01*
X246957664Y-89776206D01*
X246842455Y-89862452D01*
X246842452Y-89862455D01*
X246756206Y-89977664D01*
X246756202Y-89977671D01*
X246705908Y-90112517D01*
X246699501Y-90172116D01*
X246699501Y-90172123D01*
X246699500Y-90172135D01*
X204428963Y-90172135D01*
X203621445Y-89364618D01*
X203371448Y-89114620D01*
X203371444Y-89114617D01*
X203237474Y-89025100D01*
X203237461Y-89025093D01*
X203088606Y-88963436D01*
X203088594Y-88963433D01*
X202930570Y-88932000D01*
X202930566Y-88932000D01*
X198669434Y-88932000D01*
X198669429Y-88932000D01*
X198511405Y-88963433D01*
X198511393Y-88963436D01*
X198406132Y-89007037D01*
X198362533Y-89025096D01*
X198362528Y-89025099D01*
X198228559Y-89114614D01*
X198228551Y-89114620D01*
X196764620Y-90578551D01*
X196764617Y-90578555D01*
X196675098Y-90712528D01*
X196675097Y-90712531D01*
X196613436Y-90861396D01*
X196613434Y-90861404D01*
X196582000Y-91019431D01*
X196582000Y-91019434D01*
X196582000Y-91180566D01*
X196582000Y-91180568D01*
X196581999Y-91180568D01*
X184650500Y-91180568D01*
X184650499Y-87627128D01*
X184644091Y-87567517D01*
X184593796Y-87432669D01*
X184593795Y-87432668D01*
X184593793Y-87432664D01*
X184507547Y-87317455D01*
X184507544Y-87317452D01*
X184392335Y-87231206D01*
X184392328Y-87231202D01*
X184257482Y-87180908D01*
X184257483Y-87180908D01*
X184197883Y-87174501D01*
X184197881Y-87174500D01*
X184197873Y-87174500D01*
X184197864Y-87174500D01*
X182102129Y-87174500D01*
X182102123Y-87174501D01*
X182042516Y-87180908D01*
X181907671Y-87231202D01*
X181907664Y-87231206D01*
X181792455Y-87317452D01*
X181792452Y-87317455D01*
X181706206Y-87432664D01*
X181706202Y-87432671D01*
X181655908Y-87567517D01*
X181649501Y-87627116D01*
X181649501Y-87627123D01*
X181649500Y-87627135D01*
X177706830Y-87627135D01*
X177525802Y-87534897D01*
X177301247Y-87461934D01*
X177200000Y-87445897D01*
X177200000Y-88491988D01*
X177142993Y-88459075D01*
X177015826Y-88425000D01*
X176884174Y-88425000D01*
X176757007Y-88459075D01*
X176700000Y-88491988D01*
X176700000Y-87445897D01*
X176598752Y-87461934D01*
X176374197Y-87534897D01*
X176163828Y-87642085D01*
X175972813Y-87780866D01*
X175805866Y-87947813D01*
X175667085Y-88138828D01*
X175559897Y-88349197D01*
X175486934Y-88573752D01*
X175450000Y-88806947D01*
X168238000Y-88806947D01*
X168238000Y-85649997D01*
X227082677Y-85649997D01*
X227082677Y-85650002D01*
X227101929Y-85870062D01*
X227101930Y-85870070D01*
X227159104Y-86083445D01*
X227159105Y-86083447D01*
X227159106Y-86083450D01*
X227252466Y-86283662D01*
X227252468Y-86283666D01*
X227379170Y-86464615D01*
X227379175Y-86464621D01*
X227535378Y-86620824D01*
X227535384Y-86620829D01*
X227716333Y-86747531D01*
X227716335Y-86747532D01*
X227716338Y-86747534D01*
X227916550Y-86840894D01*
X228129932Y-86898070D01*
X228287123Y-86911822D01*
X228349998Y-86917323D01*
X228350000Y-86917323D01*
X228350002Y-86917323D01*
X228405017Y-86912509D01*
X228570068Y-86898070D01*
X228783450Y-86840894D01*
X228983662Y-86747534D01*
X229164620Y-86620826D01*
X229320826Y-86464620D01*
X229447534Y-86283662D01*
X229540894Y-86083450D01*
X229598070Y-85870068D01*
X229617323Y-85650000D01*
X229598070Y-85429932D01*
X229540894Y-85216550D01*
X229447534Y-85016339D01*
X229320826Y-84835380D01*
X229164620Y-84679174D01*
X229164616Y-84679171D01*
X229164615Y-84679170D01*
X228983666Y-84552468D01*
X228983662Y-84552466D01*
X228983660Y-84552465D01*
X228783450Y-84459106D01*
X228783447Y-84459105D01*
X228783445Y-84459104D01*
X228570070Y-84401930D01*
X228570062Y-84401929D01*
X228350002Y-84382677D01*
X228349998Y-84382677D01*
X228129937Y-84401929D01*
X228129929Y-84401930D01*
X227916554Y-84459104D01*
X227916548Y-84459107D01*
X227716340Y-84552465D01*
X227716338Y-84552466D01*
X227535377Y-84679175D01*
X227379175Y-84835377D01*
X227252466Y-85016338D01*
X227252465Y-85016340D01*
X227159107Y-85216548D01*
X227159104Y-85216554D01*
X227101930Y-85429929D01*
X227101929Y-85429937D01*
X227082677Y-85649997D01*
X168238000Y-85649997D01*
X168238000Y-84049500D01*
X168257685Y-83982461D01*
X168310489Y-83936706D01*
X168362000Y-83925500D01*
X253938000Y-83925500D01*
X254005039Y-83945185D01*
G37*
%TD.AperFunction*%
%TD*%
M02*
