%TF.GenerationSoftware,KiCad,Pcbnew,8.0.3*%
%TF.CreationDate,2024-10-20T16:03:45+03:00*%
%TF.ProjectId,SmartPot,536d6172-7450-46f7-942e-6b696361645f,rev?*%
%TF.SameCoordinates,Original*%
%TF.FileFunction,Legend,Top*%
%TF.FilePolarity,Positive*%
%FSLAX46Y46*%
G04 Gerber Fmt 4.6, Leading zero omitted, Abs format (unit mm)*
G04 Created by KiCad (PCBNEW 8.0.3) date 2024-10-20 16:03:45*
%MOMM*%
%LPD*%
G01*
G04 APERTURE LIST*
%ADD10C,0.100000*%
%ADD11C,0.150000*%
%ADD12C,0.200000*%
%ADD13C,0.500000*%
%ADD14C,0.300000*%
%ADD15C,0.120000*%
%ADD16C,0.152400*%
%ADD17C,0.127000*%
G04 APERTURE END LIST*
D10*
X216125000Y-123725000D02*
X215975000Y-123725000D01*
X225475000Y-123725000D02*
X216125000Y-123725000D01*
X209750000Y-122500000D02*
X209750000Y-125225000D01*
X225475000Y-115550000D02*
X225475000Y-123725000D01*
X209750000Y-125225000D02*
X215975000Y-125225000D01*
X217050000Y-115550000D02*
X225475000Y-115550000D01*
X217050000Y-122500000D02*
X215975000Y-122500000D01*
X215975000Y-122500000D02*
X209750000Y-122500000D01*
X215975000Y-123725000D02*
X215975000Y-125225000D01*
X217050000Y-115550000D02*
X217050000Y-122500000D01*
X184900000Y-111425000D02*
X196325000Y-111425000D01*
X196325000Y-122575000D01*
X184900000Y-122575000D01*
X184900000Y-111425000D01*
D11*
X210437969Y-124590200D02*
X210523684Y-124618771D01*
X210523684Y-124618771D02*
X210666541Y-124618771D01*
X210666541Y-124618771D02*
X210723684Y-124590200D01*
X210723684Y-124590200D02*
X210752255Y-124561628D01*
X210752255Y-124561628D02*
X210780826Y-124504485D01*
X210780826Y-124504485D02*
X210780826Y-124447342D01*
X210780826Y-124447342D02*
X210752255Y-124390200D01*
X210752255Y-124390200D02*
X210723684Y-124361628D01*
X210723684Y-124361628D02*
X210666541Y-124333057D01*
X210666541Y-124333057D02*
X210552255Y-124304485D01*
X210552255Y-124304485D02*
X210495112Y-124275914D01*
X210495112Y-124275914D02*
X210466541Y-124247342D01*
X210466541Y-124247342D02*
X210437969Y-124190200D01*
X210437969Y-124190200D02*
X210437969Y-124133057D01*
X210437969Y-124133057D02*
X210466541Y-124075914D01*
X210466541Y-124075914D02*
X210495112Y-124047342D01*
X210495112Y-124047342D02*
X210552255Y-124018771D01*
X210552255Y-124018771D02*
X210695112Y-124018771D01*
X210695112Y-124018771D02*
X210780826Y-124047342D01*
X211380827Y-124561628D02*
X211352255Y-124590200D01*
X211352255Y-124590200D02*
X211266541Y-124618771D01*
X211266541Y-124618771D02*
X211209398Y-124618771D01*
X211209398Y-124618771D02*
X211123684Y-124590200D01*
X211123684Y-124590200D02*
X211066541Y-124533057D01*
X211066541Y-124533057D02*
X211037970Y-124475914D01*
X211037970Y-124475914D02*
X211009398Y-124361628D01*
X211009398Y-124361628D02*
X211009398Y-124275914D01*
X211009398Y-124275914D02*
X211037970Y-124161628D01*
X211037970Y-124161628D02*
X211066541Y-124104485D01*
X211066541Y-124104485D02*
X211123684Y-124047342D01*
X211123684Y-124047342D02*
X211209398Y-124018771D01*
X211209398Y-124018771D02*
X211266541Y-124018771D01*
X211266541Y-124018771D02*
X211352255Y-124047342D01*
X211352255Y-124047342D02*
X211380827Y-124075914D01*
X211923684Y-124618771D02*
X211637970Y-124618771D01*
X211637970Y-124618771D02*
X211637970Y-124018771D01*
X212437969Y-124618771D02*
X212095112Y-124618771D01*
X212266541Y-124618771D02*
X212266541Y-124018771D01*
X212266541Y-124018771D02*
X212209398Y-124104485D01*
X212209398Y-124104485D02*
X212152255Y-124161628D01*
X212152255Y-124161628D02*
X212095112Y-124190200D01*
X213123684Y-124590200D02*
X213209399Y-124618771D01*
X213209399Y-124618771D02*
X213352256Y-124618771D01*
X213352256Y-124618771D02*
X213409399Y-124590200D01*
X213409399Y-124590200D02*
X213437970Y-124561628D01*
X213437970Y-124561628D02*
X213466541Y-124504485D01*
X213466541Y-124504485D02*
X213466541Y-124447342D01*
X213466541Y-124447342D02*
X213437970Y-124390200D01*
X213437970Y-124390200D02*
X213409399Y-124361628D01*
X213409399Y-124361628D02*
X213352256Y-124333057D01*
X213352256Y-124333057D02*
X213237970Y-124304485D01*
X213237970Y-124304485D02*
X213180827Y-124275914D01*
X213180827Y-124275914D02*
X213152256Y-124247342D01*
X213152256Y-124247342D02*
X213123684Y-124190200D01*
X213123684Y-124190200D02*
X213123684Y-124133057D01*
X213123684Y-124133057D02*
X213152256Y-124075914D01*
X213152256Y-124075914D02*
X213180827Y-124047342D01*
X213180827Y-124047342D02*
X213237970Y-124018771D01*
X213237970Y-124018771D02*
X213380827Y-124018771D01*
X213380827Y-124018771D02*
X213466541Y-124047342D01*
X213723685Y-124618771D02*
X213723685Y-124018771D01*
X213723685Y-124018771D02*
X213866542Y-124018771D01*
X213866542Y-124018771D02*
X213952256Y-124047342D01*
X213952256Y-124047342D02*
X214009399Y-124104485D01*
X214009399Y-124104485D02*
X214037970Y-124161628D01*
X214037970Y-124161628D02*
X214066542Y-124275914D01*
X214066542Y-124275914D02*
X214066542Y-124361628D01*
X214066542Y-124361628D02*
X214037970Y-124475914D01*
X214037970Y-124475914D02*
X214009399Y-124533057D01*
X214009399Y-124533057D02*
X213952256Y-124590200D01*
X213952256Y-124590200D02*
X213866542Y-124618771D01*
X213866542Y-124618771D02*
X213723685Y-124618771D01*
X214295113Y-124447342D02*
X214580828Y-124447342D01*
X214237970Y-124618771D02*
X214437970Y-124018771D01*
X214437970Y-124018771D02*
X214637970Y-124618771D01*
X215152256Y-124618771D02*
X214809399Y-124618771D01*
X214980828Y-124618771D02*
X214980828Y-124018771D01*
X214980828Y-124018771D02*
X214923685Y-124104485D01*
X214923685Y-124104485D02*
X214866542Y-124161628D01*
X214866542Y-124161628D02*
X214809399Y-124190200D01*
X185816541Y-120193771D02*
X185816541Y-119593771D01*
X185816541Y-119593771D02*
X186016541Y-120022342D01*
X186016541Y-120022342D02*
X186216541Y-119593771D01*
X186216541Y-119593771D02*
X186216541Y-120193771D01*
X186616540Y-119593771D02*
X186730826Y-119593771D01*
X186730826Y-119593771D02*
X186787969Y-119622342D01*
X186787969Y-119622342D02*
X186845112Y-119679485D01*
X186845112Y-119679485D02*
X186873683Y-119793771D01*
X186873683Y-119793771D02*
X186873683Y-119993771D01*
X186873683Y-119993771D02*
X186845112Y-120108057D01*
X186845112Y-120108057D02*
X186787969Y-120165200D01*
X186787969Y-120165200D02*
X186730826Y-120193771D01*
X186730826Y-120193771D02*
X186616540Y-120193771D01*
X186616540Y-120193771D02*
X186559398Y-120165200D01*
X186559398Y-120165200D02*
X186502255Y-120108057D01*
X186502255Y-120108057D02*
X186473683Y-119993771D01*
X186473683Y-119993771D02*
X186473683Y-119793771D01*
X186473683Y-119793771D02*
X186502255Y-119679485D01*
X186502255Y-119679485D02*
X186559398Y-119622342D01*
X186559398Y-119622342D02*
X186616540Y-119593771D01*
X187102254Y-120165200D02*
X187187969Y-120193771D01*
X187187969Y-120193771D02*
X187330826Y-120193771D01*
X187330826Y-120193771D02*
X187387969Y-120165200D01*
X187387969Y-120165200D02*
X187416540Y-120136628D01*
X187416540Y-120136628D02*
X187445111Y-120079485D01*
X187445111Y-120079485D02*
X187445111Y-120022342D01*
X187445111Y-120022342D02*
X187416540Y-119965200D01*
X187416540Y-119965200D02*
X187387969Y-119936628D01*
X187387969Y-119936628D02*
X187330826Y-119908057D01*
X187330826Y-119908057D02*
X187216540Y-119879485D01*
X187216540Y-119879485D02*
X187159397Y-119850914D01*
X187159397Y-119850914D02*
X187130826Y-119822342D01*
X187130826Y-119822342D02*
X187102254Y-119765200D01*
X187102254Y-119765200D02*
X187102254Y-119708057D01*
X187102254Y-119708057D02*
X187130826Y-119650914D01*
X187130826Y-119650914D02*
X187159397Y-119622342D01*
X187159397Y-119622342D02*
X187216540Y-119593771D01*
X187216540Y-119593771D02*
X187359397Y-119593771D01*
X187359397Y-119593771D02*
X187445111Y-119622342D01*
X187702255Y-120193771D02*
X187702255Y-119593771D01*
X188102254Y-119593771D02*
X188159397Y-119593771D01*
X188159397Y-119593771D02*
X188216540Y-119622342D01*
X188216540Y-119622342D02*
X188245112Y-119650914D01*
X188245112Y-119650914D02*
X188273683Y-119708057D01*
X188273683Y-119708057D02*
X188302254Y-119822342D01*
X188302254Y-119822342D02*
X188302254Y-119965200D01*
X188302254Y-119965200D02*
X188273683Y-120079485D01*
X188273683Y-120079485D02*
X188245112Y-120136628D01*
X188245112Y-120136628D02*
X188216540Y-120165200D01*
X188216540Y-120165200D02*
X188159397Y-120193771D01*
X188159397Y-120193771D02*
X188102254Y-120193771D01*
X188102254Y-120193771D02*
X188045112Y-120165200D01*
X188045112Y-120165200D02*
X188016540Y-120136628D01*
X188016540Y-120136628D02*
X187987969Y-120079485D01*
X187987969Y-120079485D02*
X187959397Y-119965200D01*
X187959397Y-119965200D02*
X187959397Y-119822342D01*
X187959397Y-119822342D02*
X187987969Y-119708057D01*
X187987969Y-119708057D02*
X188016540Y-119650914D01*
X188016540Y-119650914D02*
X188045112Y-119622342D01*
X188045112Y-119622342D02*
X188102254Y-119593771D01*
X189016541Y-120193771D02*
X189016541Y-119593771D01*
X189016541Y-119593771D02*
X189216541Y-120022342D01*
X189216541Y-120022342D02*
X189416541Y-119593771D01*
X189416541Y-119593771D02*
X189416541Y-120193771D01*
X189702255Y-120193771D02*
X189702255Y-119593771D01*
X189959397Y-120165200D02*
X190045112Y-120193771D01*
X190045112Y-120193771D02*
X190187969Y-120193771D01*
X190187969Y-120193771D02*
X190245112Y-120165200D01*
X190245112Y-120165200D02*
X190273683Y-120136628D01*
X190273683Y-120136628D02*
X190302254Y-120079485D01*
X190302254Y-120079485D02*
X190302254Y-120022342D01*
X190302254Y-120022342D02*
X190273683Y-119965200D01*
X190273683Y-119965200D02*
X190245112Y-119936628D01*
X190245112Y-119936628D02*
X190187969Y-119908057D01*
X190187969Y-119908057D02*
X190073683Y-119879485D01*
X190073683Y-119879485D02*
X190016540Y-119850914D01*
X190016540Y-119850914D02*
X189987969Y-119822342D01*
X189987969Y-119822342D02*
X189959397Y-119765200D01*
X189959397Y-119765200D02*
X189959397Y-119708057D01*
X189959397Y-119708057D02*
X189987969Y-119650914D01*
X189987969Y-119650914D02*
X190016540Y-119622342D01*
X190016540Y-119622342D02*
X190073683Y-119593771D01*
X190073683Y-119593771D02*
X190216540Y-119593771D01*
X190216540Y-119593771D02*
X190302254Y-119622342D01*
X190673683Y-119593771D02*
X190787969Y-119593771D01*
X190787969Y-119593771D02*
X190845112Y-119622342D01*
X190845112Y-119622342D02*
X190902255Y-119679485D01*
X190902255Y-119679485D02*
X190930826Y-119793771D01*
X190930826Y-119793771D02*
X190930826Y-119993771D01*
X190930826Y-119993771D02*
X190902255Y-120108057D01*
X190902255Y-120108057D02*
X190845112Y-120165200D01*
X190845112Y-120165200D02*
X190787969Y-120193771D01*
X190787969Y-120193771D02*
X190673683Y-120193771D01*
X190673683Y-120193771D02*
X190616541Y-120165200D01*
X190616541Y-120165200D02*
X190559398Y-120108057D01*
X190559398Y-120108057D02*
X190530826Y-119993771D01*
X190530826Y-119993771D02*
X190530826Y-119793771D01*
X190530826Y-119793771D02*
X190559398Y-119679485D01*
X190559398Y-119679485D02*
X190616541Y-119622342D01*
X190616541Y-119622342D02*
X190673683Y-119593771D01*
X191302254Y-119593771D02*
X191359397Y-119593771D01*
X191359397Y-119593771D02*
X191416540Y-119622342D01*
X191416540Y-119622342D02*
X191445112Y-119650914D01*
X191445112Y-119650914D02*
X191473683Y-119708057D01*
X191473683Y-119708057D02*
X191502254Y-119822342D01*
X191502254Y-119822342D02*
X191502254Y-119965200D01*
X191502254Y-119965200D02*
X191473683Y-120079485D01*
X191473683Y-120079485D02*
X191445112Y-120136628D01*
X191445112Y-120136628D02*
X191416540Y-120165200D01*
X191416540Y-120165200D02*
X191359397Y-120193771D01*
X191359397Y-120193771D02*
X191302254Y-120193771D01*
X191302254Y-120193771D02*
X191245112Y-120165200D01*
X191245112Y-120165200D02*
X191216540Y-120136628D01*
X191216540Y-120136628D02*
X191187969Y-120079485D01*
X191187969Y-120079485D02*
X191159397Y-119965200D01*
X191159397Y-119965200D02*
X191159397Y-119822342D01*
X191159397Y-119822342D02*
X191187969Y-119708057D01*
X191187969Y-119708057D02*
X191216540Y-119650914D01*
X191216540Y-119650914D02*
X191245112Y-119622342D01*
X191245112Y-119622342D02*
X191302254Y-119593771D01*
X192187969Y-120165200D02*
X192273684Y-120193771D01*
X192273684Y-120193771D02*
X192416541Y-120193771D01*
X192416541Y-120193771D02*
X192473684Y-120165200D01*
X192473684Y-120165200D02*
X192502255Y-120136628D01*
X192502255Y-120136628D02*
X192530826Y-120079485D01*
X192530826Y-120079485D02*
X192530826Y-120022342D01*
X192530826Y-120022342D02*
X192502255Y-119965200D01*
X192502255Y-119965200D02*
X192473684Y-119936628D01*
X192473684Y-119936628D02*
X192416541Y-119908057D01*
X192416541Y-119908057D02*
X192302255Y-119879485D01*
X192302255Y-119879485D02*
X192245112Y-119850914D01*
X192245112Y-119850914D02*
X192216541Y-119822342D01*
X192216541Y-119822342D02*
X192187969Y-119765200D01*
X192187969Y-119765200D02*
X192187969Y-119708057D01*
X192187969Y-119708057D02*
X192216541Y-119650914D01*
X192216541Y-119650914D02*
X192245112Y-119622342D01*
X192245112Y-119622342D02*
X192302255Y-119593771D01*
X192302255Y-119593771D02*
X192445112Y-119593771D01*
X192445112Y-119593771D02*
X192530826Y-119622342D01*
X193130827Y-120136628D02*
X193102255Y-120165200D01*
X193102255Y-120165200D02*
X193016541Y-120193771D01*
X193016541Y-120193771D02*
X192959398Y-120193771D01*
X192959398Y-120193771D02*
X192873684Y-120165200D01*
X192873684Y-120165200D02*
X192816541Y-120108057D01*
X192816541Y-120108057D02*
X192787970Y-120050914D01*
X192787970Y-120050914D02*
X192759398Y-119936628D01*
X192759398Y-119936628D02*
X192759398Y-119850914D01*
X192759398Y-119850914D02*
X192787970Y-119736628D01*
X192787970Y-119736628D02*
X192816541Y-119679485D01*
X192816541Y-119679485D02*
X192873684Y-119622342D01*
X192873684Y-119622342D02*
X192959398Y-119593771D01*
X192959398Y-119593771D02*
X193016541Y-119593771D01*
X193016541Y-119593771D02*
X193102255Y-119622342D01*
X193102255Y-119622342D02*
X193130827Y-119650914D01*
X193387970Y-120193771D02*
X193387970Y-119593771D01*
X193730827Y-120193771D02*
X193473684Y-119850914D01*
X193730827Y-119593771D02*
X193387970Y-119936628D01*
X194445113Y-120136628D02*
X194473684Y-120165200D01*
X194473684Y-120165200D02*
X194445113Y-120193771D01*
X194445113Y-120193771D02*
X194416541Y-120165200D01*
X194416541Y-120165200D02*
X194445113Y-120136628D01*
X194445113Y-120136628D02*
X194445113Y-120193771D01*
X194445113Y-119965200D02*
X194416541Y-119622342D01*
X194416541Y-119622342D02*
X194445113Y-119593771D01*
X194445113Y-119593771D02*
X194473684Y-119622342D01*
X194473684Y-119622342D02*
X194445113Y-119965200D01*
X194445113Y-119965200D02*
X194445113Y-119593771D01*
X194702255Y-120165200D02*
X194787970Y-120193771D01*
X194787970Y-120193771D02*
X194930827Y-120193771D01*
X194930827Y-120193771D02*
X194987970Y-120165200D01*
X194987970Y-120165200D02*
X195016541Y-120136628D01*
X195016541Y-120136628D02*
X195045112Y-120079485D01*
X195045112Y-120079485D02*
X195045112Y-120022342D01*
X195045112Y-120022342D02*
X195016541Y-119965200D01*
X195016541Y-119965200D02*
X194987970Y-119936628D01*
X194987970Y-119936628D02*
X194930827Y-119908057D01*
X194930827Y-119908057D02*
X194816541Y-119879485D01*
X194816541Y-119879485D02*
X194759398Y-119850914D01*
X194759398Y-119850914D02*
X194730827Y-119822342D01*
X194730827Y-119822342D02*
X194702255Y-119765200D01*
X194702255Y-119765200D02*
X194702255Y-119708057D01*
X194702255Y-119708057D02*
X194730827Y-119650914D01*
X194730827Y-119650914D02*
X194759398Y-119622342D01*
X194759398Y-119622342D02*
X194816541Y-119593771D01*
X194816541Y-119593771D02*
X194959398Y-119593771D01*
X194959398Y-119593771D02*
X195045112Y-119622342D01*
X195273684Y-120165200D02*
X195359399Y-120193771D01*
X195359399Y-120193771D02*
X195502256Y-120193771D01*
X195502256Y-120193771D02*
X195559399Y-120165200D01*
X195559399Y-120165200D02*
X195587970Y-120136628D01*
X195587970Y-120136628D02*
X195616541Y-120079485D01*
X195616541Y-120079485D02*
X195616541Y-120022342D01*
X195616541Y-120022342D02*
X195587970Y-119965200D01*
X195587970Y-119965200D02*
X195559399Y-119936628D01*
X195559399Y-119936628D02*
X195502256Y-119908057D01*
X195502256Y-119908057D02*
X195387970Y-119879485D01*
X195387970Y-119879485D02*
X195330827Y-119850914D01*
X195330827Y-119850914D02*
X195302256Y-119822342D01*
X195302256Y-119822342D02*
X195273684Y-119765200D01*
X195273684Y-119765200D02*
X195273684Y-119708057D01*
X195273684Y-119708057D02*
X195302256Y-119650914D01*
X195302256Y-119650914D02*
X195330827Y-119622342D01*
X195330827Y-119622342D02*
X195387970Y-119593771D01*
X195387970Y-119593771D02*
X195530827Y-119593771D01*
X195530827Y-119593771D02*
X195616541Y-119622342D01*
X187505826Y-120893771D02*
X187848684Y-120893771D01*
X187677255Y-121493771D02*
X187677255Y-120893771D01*
X187991541Y-120893771D02*
X188391541Y-121493771D01*
X188391541Y-120893771D02*
X187991541Y-121493771D01*
X188934398Y-121493771D02*
X188591541Y-121493771D01*
X188762970Y-121493771D02*
X188762970Y-120893771D01*
X188762970Y-120893771D02*
X188705827Y-120979485D01*
X188705827Y-120979485D02*
X188648684Y-121036628D01*
X188648684Y-121036628D02*
X188591541Y-121065200D01*
X189991542Y-121493771D02*
X189791542Y-121208057D01*
X189648685Y-121493771D02*
X189648685Y-120893771D01*
X189648685Y-120893771D02*
X189877256Y-120893771D01*
X189877256Y-120893771D02*
X189934399Y-120922342D01*
X189934399Y-120922342D02*
X189962970Y-120950914D01*
X189962970Y-120950914D02*
X189991542Y-121008057D01*
X189991542Y-121008057D02*
X189991542Y-121093771D01*
X189991542Y-121093771D02*
X189962970Y-121150914D01*
X189962970Y-121150914D02*
X189934399Y-121179485D01*
X189934399Y-121179485D02*
X189877256Y-121208057D01*
X189877256Y-121208057D02*
X189648685Y-121208057D01*
X190191542Y-120893771D02*
X190591542Y-121493771D01*
X190591542Y-120893771D02*
X190191542Y-121493771D01*
X191134399Y-121493771D02*
X190791542Y-121493771D01*
X190962971Y-121493771D02*
X190962971Y-120893771D01*
X190962971Y-120893771D02*
X190905828Y-120979485D01*
X190905828Y-120979485D02*
X190848685Y-121036628D01*
X190848685Y-121036628D02*
X190791542Y-121065200D01*
X191791543Y-120893771D02*
X192191543Y-121493771D01*
X192191543Y-120893771D02*
X191791543Y-121493771D01*
X192420115Y-121493771D02*
X192420115Y-120893771D01*
X192420115Y-120893771D02*
X192562972Y-120893771D01*
X192562972Y-120893771D02*
X192648686Y-120922342D01*
X192648686Y-120922342D02*
X192705829Y-120979485D01*
X192705829Y-120979485D02*
X192734400Y-121036628D01*
X192734400Y-121036628D02*
X192762972Y-121150914D01*
X192762972Y-121150914D02*
X192762972Y-121236628D01*
X192762972Y-121236628D02*
X192734400Y-121350914D01*
X192734400Y-121350914D02*
X192705829Y-121408057D01*
X192705829Y-121408057D02*
X192648686Y-121465200D01*
X192648686Y-121465200D02*
X192562972Y-121493771D01*
X192562972Y-121493771D02*
X192420115Y-121493771D01*
X193020115Y-121493771D02*
X193020115Y-120893771D01*
X193648686Y-121493771D02*
X193448686Y-121208057D01*
X193305829Y-121493771D02*
X193305829Y-120893771D01*
X193305829Y-120893771D02*
X193534400Y-120893771D01*
X193534400Y-120893771D02*
X193591543Y-120922342D01*
X193591543Y-120922342D02*
X193620114Y-120950914D01*
X193620114Y-120950914D02*
X193648686Y-121008057D01*
X193648686Y-121008057D02*
X193648686Y-121093771D01*
X193648686Y-121093771D02*
X193620114Y-121150914D01*
X193620114Y-121150914D02*
X193591543Y-121179485D01*
X193591543Y-121179485D02*
X193534400Y-121208057D01*
X193534400Y-121208057D02*
X193305829Y-121208057D01*
X194220114Y-121493771D02*
X193877257Y-121493771D01*
X194048686Y-121493771D02*
X194048686Y-120893771D01*
X194048686Y-120893771D02*
X193991543Y-120979485D01*
X193991543Y-120979485D02*
X193934400Y-121036628D01*
X193934400Y-121036628D02*
X193877257Y-121065200D01*
X226440200Y-110487030D02*
X226468771Y-110401316D01*
X226468771Y-110401316D02*
X226468771Y-110258458D01*
X226468771Y-110258458D02*
X226440200Y-110201316D01*
X226440200Y-110201316D02*
X226411628Y-110172744D01*
X226411628Y-110172744D02*
X226354485Y-110144173D01*
X226354485Y-110144173D02*
X226297342Y-110144173D01*
X226297342Y-110144173D02*
X226240200Y-110172744D01*
X226240200Y-110172744D02*
X226211628Y-110201316D01*
X226211628Y-110201316D02*
X226183057Y-110258458D01*
X226183057Y-110258458D02*
X226154485Y-110372744D01*
X226154485Y-110372744D02*
X226125914Y-110429887D01*
X226125914Y-110429887D02*
X226097342Y-110458458D01*
X226097342Y-110458458D02*
X226040200Y-110487030D01*
X226040200Y-110487030D02*
X225983057Y-110487030D01*
X225983057Y-110487030D02*
X225925914Y-110458458D01*
X225925914Y-110458458D02*
X225897342Y-110429887D01*
X225897342Y-110429887D02*
X225868771Y-110372744D01*
X225868771Y-110372744D02*
X225868771Y-110229887D01*
X225868771Y-110229887D02*
X225897342Y-110144173D01*
X226468771Y-109887029D02*
X225868771Y-109887029D01*
X225868771Y-109887029D02*
X225868771Y-109744172D01*
X225868771Y-109744172D02*
X225897342Y-109658458D01*
X225897342Y-109658458D02*
X225954485Y-109601315D01*
X225954485Y-109601315D02*
X226011628Y-109572744D01*
X226011628Y-109572744D02*
X226125914Y-109544172D01*
X226125914Y-109544172D02*
X226211628Y-109544172D01*
X226211628Y-109544172D02*
X226325914Y-109572744D01*
X226325914Y-109572744D02*
X226383057Y-109601315D01*
X226383057Y-109601315D02*
X226440200Y-109658458D01*
X226440200Y-109658458D02*
X226468771Y-109744172D01*
X226468771Y-109744172D02*
X226468771Y-109887029D01*
X226297342Y-109315601D02*
X226297342Y-109029887D01*
X226468771Y-109372744D02*
X225868771Y-109172744D01*
X225868771Y-109172744D02*
X226468771Y-108972744D01*
X225868771Y-108658458D02*
X225868771Y-108601315D01*
X225868771Y-108601315D02*
X225897342Y-108544172D01*
X225897342Y-108544172D02*
X225925914Y-108515601D01*
X225925914Y-108515601D02*
X225983057Y-108487029D01*
X225983057Y-108487029D02*
X226097342Y-108458458D01*
X226097342Y-108458458D02*
X226240200Y-108458458D01*
X226240200Y-108458458D02*
X226354485Y-108487029D01*
X226354485Y-108487029D02*
X226411628Y-108515601D01*
X226411628Y-108515601D02*
X226440200Y-108544172D01*
X226440200Y-108544172D02*
X226468771Y-108601315D01*
X226468771Y-108601315D02*
X226468771Y-108658458D01*
X226468771Y-108658458D02*
X226440200Y-108715601D01*
X226440200Y-108715601D02*
X226411628Y-108744172D01*
X226411628Y-108744172D02*
X226354485Y-108772743D01*
X226354485Y-108772743D02*
X226240200Y-108801315D01*
X226240200Y-108801315D02*
X226097342Y-108801315D01*
X226097342Y-108801315D02*
X225983057Y-108772743D01*
X225983057Y-108772743D02*
X225925914Y-108744172D01*
X225925914Y-108744172D02*
X225897342Y-108715601D01*
X225897342Y-108715601D02*
X225868771Y-108658458D01*
X226440200Y-107772743D02*
X226468771Y-107687029D01*
X226468771Y-107687029D02*
X226468771Y-107544171D01*
X226468771Y-107544171D02*
X226440200Y-107487029D01*
X226440200Y-107487029D02*
X226411628Y-107458457D01*
X226411628Y-107458457D02*
X226354485Y-107429886D01*
X226354485Y-107429886D02*
X226297342Y-107429886D01*
X226297342Y-107429886D02*
X226240200Y-107458457D01*
X226240200Y-107458457D02*
X226211628Y-107487029D01*
X226211628Y-107487029D02*
X226183057Y-107544171D01*
X226183057Y-107544171D02*
X226154485Y-107658457D01*
X226154485Y-107658457D02*
X226125914Y-107715600D01*
X226125914Y-107715600D02*
X226097342Y-107744171D01*
X226097342Y-107744171D02*
X226040200Y-107772743D01*
X226040200Y-107772743D02*
X225983057Y-107772743D01*
X225983057Y-107772743D02*
X225925914Y-107744171D01*
X225925914Y-107744171D02*
X225897342Y-107715600D01*
X225897342Y-107715600D02*
X225868771Y-107658457D01*
X225868771Y-107658457D02*
X225868771Y-107515600D01*
X225868771Y-107515600D02*
X225897342Y-107429886D01*
X226411628Y-106829885D02*
X226440200Y-106858457D01*
X226440200Y-106858457D02*
X226468771Y-106944171D01*
X226468771Y-106944171D02*
X226468771Y-107001314D01*
X226468771Y-107001314D02*
X226440200Y-107087028D01*
X226440200Y-107087028D02*
X226383057Y-107144171D01*
X226383057Y-107144171D02*
X226325914Y-107172742D01*
X226325914Y-107172742D02*
X226211628Y-107201314D01*
X226211628Y-107201314D02*
X226125914Y-107201314D01*
X226125914Y-107201314D02*
X226011628Y-107172742D01*
X226011628Y-107172742D02*
X225954485Y-107144171D01*
X225954485Y-107144171D02*
X225897342Y-107087028D01*
X225897342Y-107087028D02*
X225868771Y-107001314D01*
X225868771Y-107001314D02*
X225868771Y-106944171D01*
X225868771Y-106944171D02*
X225897342Y-106858457D01*
X225897342Y-106858457D02*
X225925914Y-106829885D01*
X226468771Y-106287028D02*
X226468771Y-106572742D01*
X226468771Y-106572742D02*
X225868771Y-106572742D01*
X225868771Y-105972743D02*
X225868771Y-105915600D01*
X225868771Y-105915600D02*
X225897342Y-105858457D01*
X225897342Y-105858457D02*
X225925914Y-105829886D01*
X225925914Y-105829886D02*
X225983057Y-105801314D01*
X225983057Y-105801314D02*
X226097342Y-105772743D01*
X226097342Y-105772743D02*
X226240200Y-105772743D01*
X226240200Y-105772743D02*
X226354485Y-105801314D01*
X226354485Y-105801314D02*
X226411628Y-105829886D01*
X226411628Y-105829886D02*
X226440200Y-105858457D01*
X226440200Y-105858457D02*
X226468771Y-105915600D01*
X226468771Y-105915600D02*
X226468771Y-105972743D01*
X226468771Y-105972743D02*
X226440200Y-106029886D01*
X226440200Y-106029886D02*
X226411628Y-106058457D01*
X226411628Y-106058457D02*
X226354485Y-106087028D01*
X226354485Y-106087028D02*
X226240200Y-106115600D01*
X226240200Y-106115600D02*
X226097342Y-106115600D01*
X226097342Y-106115600D02*
X225983057Y-106087028D01*
X225983057Y-106087028D02*
X225925914Y-106058457D01*
X225925914Y-106058457D02*
X225897342Y-106029886D01*
X225897342Y-106029886D02*
X225868771Y-105972743D01*
X210427255Y-122768771D02*
X210141541Y-122768771D01*
X210141541Y-122768771D02*
X210112969Y-123054485D01*
X210112969Y-123054485D02*
X210141541Y-123025914D01*
X210141541Y-123025914D02*
X210198684Y-122997342D01*
X210198684Y-122997342D02*
X210341541Y-122997342D01*
X210341541Y-122997342D02*
X210398684Y-123025914D01*
X210398684Y-123025914D02*
X210427255Y-123054485D01*
X210427255Y-123054485D02*
X210455826Y-123111628D01*
X210455826Y-123111628D02*
X210455826Y-123254485D01*
X210455826Y-123254485D02*
X210427255Y-123311628D01*
X210427255Y-123311628D02*
X210398684Y-123340200D01*
X210398684Y-123340200D02*
X210341541Y-123368771D01*
X210341541Y-123368771D02*
X210198684Y-123368771D01*
X210198684Y-123368771D02*
X210141541Y-123340200D01*
X210141541Y-123340200D02*
X210112969Y-123311628D01*
X210627255Y-122768771D02*
X210827255Y-123368771D01*
X210827255Y-123368771D02*
X211027255Y-122768771D01*
X211998684Y-122797342D02*
X211941542Y-122768771D01*
X211941542Y-122768771D02*
X211855827Y-122768771D01*
X211855827Y-122768771D02*
X211770113Y-122797342D01*
X211770113Y-122797342D02*
X211712970Y-122854485D01*
X211712970Y-122854485D02*
X211684399Y-122911628D01*
X211684399Y-122911628D02*
X211655827Y-123025914D01*
X211655827Y-123025914D02*
X211655827Y-123111628D01*
X211655827Y-123111628D02*
X211684399Y-123225914D01*
X211684399Y-123225914D02*
X211712970Y-123283057D01*
X211712970Y-123283057D02*
X211770113Y-123340200D01*
X211770113Y-123340200D02*
X211855827Y-123368771D01*
X211855827Y-123368771D02*
X211912970Y-123368771D01*
X211912970Y-123368771D02*
X211998684Y-123340200D01*
X211998684Y-123340200D02*
X212027256Y-123311628D01*
X212027256Y-123311628D02*
X212027256Y-123111628D01*
X212027256Y-123111628D02*
X211912970Y-123111628D01*
X212284399Y-123368771D02*
X212284399Y-122768771D01*
X212284399Y-122768771D02*
X212627256Y-123368771D01*
X212627256Y-123368771D02*
X212627256Y-122768771D01*
X212912970Y-123368771D02*
X212912970Y-122768771D01*
X212912970Y-122768771D02*
X213055827Y-122768771D01*
X213055827Y-122768771D02*
X213141541Y-122797342D01*
X213141541Y-122797342D02*
X213198684Y-122854485D01*
X213198684Y-122854485D02*
X213227255Y-122911628D01*
X213227255Y-122911628D02*
X213255827Y-123025914D01*
X213255827Y-123025914D02*
X213255827Y-123111628D01*
X213255827Y-123111628D02*
X213227255Y-123225914D01*
X213227255Y-123225914D02*
X213198684Y-123283057D01*
X213198684Y-123283057D02*
X213141541Y-123340200D01*
X213141541Y-123340200D02*
X213055827Y-123368771D01*
X213055827Y-123368771D02*
X212912970Y-123368771D01*
X213970113Y-122768771D02*
X213970113Y-123254485D01*
X213970113Y-123254485D02*
X213998684Y-123311628D01*
X213998684Y-123311628D02*
X214027256Y-123340200D01*
X214027256Y-123340200D02*
X214084398Y-123368771D01*
X214084398Y-123368771D02*
X214198684Y-123368771D01*
X214198684Y-123368771D02*
X214255827Y-123340200D01*
X214255827Y-123340200D02*
X214284398Y-123311628D01*
X214284398Y-123311628D02*
X214312970Y-123254485D01*
X214312970Y-123254485D02*
X214312970Y-122768771D01*
X214598684Y-123368771D02*
X214598684Y-122768771D01*
X214598684Y-122768771D02*
X214827255Y-122768771D01*
X214827255Y-122768771D02*
X214884398Y-122797342D01*
X214884398Y-122797342D02*
X214912969Y-122825914D01*
X214912969Y-122825914D02*
X214941541Y-122883057D01*
X214941541Y-122883057D02*
X214941541Y-122968771D01*
X214941541Y-122968771D02*
X214912969Y-123025914D01*
X214912969Y-123025914D02*
X214884398Y-123054485D01*
X214884398Y-123054485D02*
X214827255Y-123083057D01*
X214827255Y-123083057D02*
X214598684Y-123083057D01*
X215198684Y-123368771D02*
X215198684Y-122768771D01*
X215198684Y-122768771D02*
X215341541Y-122768771D01*
X215341541Y-122768771D02*
X215427255Y-122797342D01*
X215427255Y-122797342D02*
X215484398Y-122854485D01*
X215484398Y-122854485D02*
X215512969Y-122911628D01*
X215512969Y-122911628D02*
X215541541Y-123025914D01*
X215541541Y-123025914D02*
X215541541Y-123111628D01*
X215541541Y-123111628D02*
X215512969Y-123225914D01*
X215512969Y-123225914D02*
X215484398Y-123283057D01*
X215484398Y-123283057D02*
X215427255Y-123340200D01*
X215427255Y-123340200D02*
X215341541Y-123368771D01*
X215341541Y-123368771D02*
X215198684Y-123368771D01*
X215798684Y-123368771D02*
X215798684Y-122768771D01*
X191842857Y-88434580D02*
X191795238Y-88482200D01*
X191795238Y-88482200D02*
X191652381Y-88529819D01*
X191652381Y-88529819D02*
X191557143Y-88529819D01*
X191557143Y-88529819D02*
X191414286Y-88482200D01*
X191414286Y-88482200D02*
X191319048Y-88386961D01*
X191319048Y-88386961D02*
X191271429Y-88291723D01*
X191271429Y-88291723D02*
X191223810Y-88101247D01*
X191223810Y-88101247D02*
X191223810Y-87958390D01*
X191223810Y-87958390D02*
X191271429Y-87767914D01*
X191271429Y-87767914D02*
X191319048Y-87672676D01*
X191319048Y-87672676D02*
X191414286Y-87577438D01*
X191414286Y-87577438D02*
X191557143Y-87529819D01*
X191557143Y-87529819D02*
X191652381Y-87529819D01*
X191652381Y-87529819D02*
X191795238Y-87577438D01*
X191795238Y-87577438D02*
X191842857Y-87625057D01*
X192271429Y-88529819D02*
X192271429Y-87863152D01*
X192271429Y-87529819D02*
X192223810Y-87577438D01*
X192223810Y-87577438D02*
X192271429Y-87625057D01*
X192271429Y-87625057D02*
X192319048Y-87577438D01*
X192319048Y-87577438D02*
X192271429Y-87529819D01*
X192271429Y-87529819D02*
X192271429Y-87625057D01*
X192747619Y-87863152D02*
X192747619Y-88529819D01*
X192747619Y-87958390D02*
X192795238Y-87910771D01*
X192795238Y-87910771D02*
X192890476Y-87863152D01*
X192890476Y-87863152D02*
X193033333Y-87863152D01*
X193033333Y-87863152D02*
X193128571Y-87910771D01*
X193128571Y-87910771D02*
X193176190Y-88006009D01*
X193176190Y-88006009D02*
X193176190Y-88529819D01*
X194176190Y-88529819D02*
X193604762Y-88529819D01*
X193890476Y-88529819D02*
X193890476Y-87529819D01*
X193890476Y-87529819D02*
X193795238Y-87672676D01*
X193795238Y-87672676D02*
X193700000Y-87767914D01*
X193700000Y-87767914D02*
X193604762Y-87815533D01*
X185511009Y-91683333D02*
X185511009Y-92016666D01*
X186034819Y-92016666D02*
X185034819Y-92016666D01*
X185034819Y-92016666D02*
X185034819Y-91540476D01*
X186034819Y-90635714D02*
X186034819Y-91207142D01*
X186034819Y-90921428D02*
X185034819Y-90921428D01*
X185034819Y-90921428D02*
X185177676Y-91016666D01*
X185177676Y-91016666D02*
X185272914Y-91111904D01*
X185272914Y-91111904D02*
X185320533Y-91207142D01*
X195595833Y-111384819D02*
X195262500Y-110908628D01*
X195024405Y-111384819D02*
X195024405Y-110384819D01*
X195024405Y-110384819D02*
X195405357Y-110384819D01*
X195405357Y-110384819D02*
X195500595Y-110432438D01*
X195500595Y-110432438D02*
X195548214Y-110480057D01*
X195548214Y-110480057D02*
X195595833Y-110575295D01*
X195595833Y-110575295D02*
X195595833Y-110718152D01*
X195595833Y-110718152D02*
X195548214Y-110813390D01*
X195548214Y-110813390D02*
X195500595Y-110861009D01*
X195500595Y-110861009D02*
X195405357Y-110908628D01*
X195405357Y-110908628D02*
X195024405Y-110908628D01*
X195929167Y-110384819D02*
X196548214Y-110384819D01*
X196548214Y-110384819D02*
X196214881Y-110765771D01*
X196214881Y-110765771D02*
X196357738Y-110765771D01*
X196357738Y-110765771D02*
X196452976Y-110813390D01*
X196452976Y-110813390D02*
X196500595Y-110861009D01*
X196500595Y-110861009D02*
X196548214Y-110956247D01*
X196548214Y-110956247D02*
X196548214Y-111194342D01*
X196548214Y-111194342D02*
X196500595Y-111289580D01*
X196500595Y-111289580D02*
X196452976Y-111337200D01*
X196452976Y-111337200D02*
X196357738Y-111384819D01*
X196357738Y-111384819D02*
X196072024Y-111384819D01*
X196072024Y-111384819D02*
X195976786Y-111337200D01*
X195976786Y-111337200D02*
X195929167Y-111289580D01*
D12*
X210333333Y-87002219D02*
X209857143Y-87002219D01*
X209857143Y-87002219D02*
X209857143Y-86002219D01*
X211190476Y-87002219D02*
X210619048Y-87002219D01*
X210904762Y-87002219D02*
X210904762Y-86002219D01*
X210904762Y-86002219D02*
X210809524Y-86145076D01*
X210809524Y-86145076D02*
X210714286Y-86240314D01*
X210714286Y-86240314D02*
X210619048Y-86287933D01*
D11*
X211682142Y-119704819D02*
X211348809Y-119228628D01*
X211110714Y-119704819D02*
X211110714Y-118704819D01*
X211110714Y-118704819D02*
X211491666Y-118704819D01*
X211491666Y-118704819D02*
X211586904Y-118752438D01*
X211586904Y-118752438D02*
X211634523Y-118800057D01*
X211634523Y-118800057D02*
X211682142Y-118895295D01*
X211682142Y-118895295D02*
X211682142Y-119038152D01*
X211682142Y-119038152D02*
X211634523Y-119133390D01*
X211634523Y-119133390D02*
X211586904Y-119181009D01*
X211586904Y-119181009D02*
X211491666Y-119228628D01*
X211491666Y-119228628D02*
X211110714Y-119228628D01*
X212634523Y-119704819D02*
X212063095Y-119704819D01*
X212348809Y-119704819D02*
X212348809Y-118704819D01*
X212348809Y-118704819D02*
X212253571Y-118847676D01*
X212253571Y-118847676D02*
X212158333Y-118942914D01*
X212158333Y-118942914D02*
X212063095Y-118990533D01*
X213539285Y-118704819D02*
X213063095Y-118704819D01*
X213063095Y-118704819D02*
X213015476Y-119181009D01*
X213015476Y-119181009D02*
X213063095Y-119133390D01*
X213063095Y-119133390D02*
X213158333Y-119085771D01*
X213158333Y-119085771D02*
X213396428Y-119085771D01*
X213396428Y-119085771D02*
X213491666Y-119133390D01*
X213491666Y-119133390D02*
X213539285Y-119181009D01*
X213539285Y-119181009D02*
X213586904Y-119276247D01*
X213586904Y-119276247D02*
X213586904Y-119514342D01*
X213586904Y-119514342D02*
X213539285Y-119609580D01*
X213539285Y-119609580D02*
X213491666Y-119657200D01*
X213491666Y-119657200D02*
X213396428Y-119704819D01*
X213396428Y-119704819D02*
X213158333Y-119704819D01*
X213158333Y-119704819D02*
X213063095Y-119657200D01*
X213063095Y-119657200D02*
X213015476Y-119609580D01*
X182063333Y-112104819D02*
X181730000Y-111628628D01*
X181491905Y-112104819D02*
X181491905Y-111104819D01*
X181491905Y-111104819D02*
X181872857Y-111104819D01*
X181872857Y-111104819D02*
X181968095Y-111152438D01*
X181968095Y-111152438D02*
X182015714Y-111200057D01*
X182015714Y-111200057D02*
X182063333Y-111295295D01*
X182063333Y-111295295D02*
X182063333Y-111438152D01*
X182063333Y-111438152D02*
X182015714Y-111533390D01*
X182015714Y-111533390D02*
X181968095Y-111581009D01*
X181968095Y-111581009D02*
X181872857Y-111628628D01*
X181872857Y-111628628D02*
X181491905Y-111628628D01*
X182396667Y-111104819D02*
X183063333Y-111104819D01*
X183063333Y-111104819D02*
X182634762Y-112104819D01*
X236504761Y-103550057D02*
X236409523Y-103502438D01*
X236409523Y-103502438D02*
X236314285Y-103407200D01*
X236314285Y-103407200D02*
X236171428Y-103264342D01*
X236171428Y-103264342D02*
X236076190Y-103216723D01*
X236076190Y-103216723D02*
X235980952Y-103216723D01*
X236028571Y-103454819D02*
X235933333Y-103407200D01*
X235933333Y-103407200D02*
X235838095Y-103311961D01*
X235838095Y-103311961D02*
X235790476Y-103121485D01*
X235790476Y-103121485D02*
X235790476Y-102788152D01*
X235790476Y-102788152D02*
X235838095Y-102597676D01*
X235838095Y-102597676D02*
X235933333Y-102502438D01*
X235933333Y-102502438D02*
X236028571Y-102454819D01*
X236028571Y-102454819D02*
X236219047Y-102454819D01*
X236219047Y-102454819D02*
X236314285Y-102502438D01*
X236314285Y-102502438D02*
X236409523Y-102597676D01*
X236409523Y-102597676D02*
X236457142Y-102788152D01*
X236457142Y-102788152D02*
X236457142Y-103121485D01*
X236457142Y-103121485D02*
X236409523Y-103311961D01*
X236409523Y-103311961D02*
X236314285Y-103407200D01*
X236314285Y-103407200D02*
X236219047Y-103454819D01*
X236219047Y-103454819D02*
X236028571Y-103454819D01*
X237409523Y-103454819D02*
X236838095Y-103454819D01*
X237123809Y-103454819D02*
X237123809Y-102454819D01*
X237123809Y-102454819D02*
X237028571Y-102597676D01*
X237028571Y-102597676D02*
X236933333Y-102692914D01*
X236933333Y-102692914D02*
X236838095Y-102740533D01*
X194359523Y-95304819D02*
X194026190Y-94828628D01*
X193788095Y-95304819D02*
X193788095Y-94304819D01*
X193788095Y-94304819D02*
X194169047Y-94304819D01*
X194169047Y-94304819D02*
X194264285Y-94352438D01*
X194264285Y-94352438D02*
X194311904Y-94400057D01*
X194311904Y-94400057D02*
X194359523Y-94495295D01*
X194359523Y-94495295D02*
X194359523Y-94638152D01*
X194359523Y-94638152D02*
X194311904Y-94733390D01*
X194311904Y-94733390D02*
X194264285Y-94781009D01*
X194264285Y-94781009D02*
X194169047Y-94828628D01*
X194169047Y-94828628D02*
X193788095Y-94828628D01*
X194645238Y-94638152D02*
X195026190Y-94638152D01*
X194788095Y-95304819D02*
X194788095Y-94447676D01*
X194788095Y-94447676D02*
X194835714Y-94352438D01*
X194835714Y-94352438D02*
X194930952Y-94304819D01*
X194930952Y-94304819D02*
X195026190Y-94304819D01*
X195359524Y-95304819D02*
X195359524Y-94304819D01*
X195359524Y-94685771D02*
X195454762Y-94638152D01*
X195454762Y-94638152D02*
X195645238Y-94638152D01*
X195645238Y-94638152D02*
X195740476Y-94685771D01*
X195740476Y-94685771D02*
X195788095Y-94733390D01*
X195788095Y-94733390D02*
X195835714Y-94828628D01*
X195835714Y-94828628D02*
X195835714Y-95114342D01*
X195835714Y-95114342D02*
X195788095Y-95209580D01*
X195788095Y-95209580D02*
X195740476Y-95257200D01*
X195740476Y-95257200D02*
X195645238Y-95304819D01*
X195645238Y-95304819D02*
X195454762Y-95304819D01*
X195454762Y-95304819D02*
X195359524Y-95257200D01*
X196121429Y-94638152D02*
X196502381Y-94638152D01*
X196264286Y-94304819D02*
X196264286Y-95161961D01*
X196264286Y-95161961D02*
X196311905Y-95257200D01*
X196311905Y-95257200D02*
X196407143Y-95304819D01*
X196407143Y-95304819D02*
X196502381Y-95304819D01*
X197359524Y-95304819D02*
X196788096Y-95304819D01*
X197073810Y-95304819D02*
X197073810Y-94304819D01*
X197073810Y-94304819D02*
X196978572Y-94447676D01*
X196978572Y-94447676D02*
X196883334Y-94542914D01*
X196883334Y-94542914D02*
X196788096Y-94590533D01*
X207133333Y-98759580D02*
X207085714Y-98807200D01*
X207085714Y-98807200D02*
X206942857Y-98854819D01*
X206942857Y-98854819D02*
X206847619Y-98854819D01*
X206847619Y-98854819D02*
X206704762Y-98807200D01*
X206704762Y-98807200D02*
X206609524Y-98711961D01*
X206609524Y-98711961D02*
X206561905Y-98616723D01*
X206561905Y-98616723D02*
X206514286Y-98426247D01*
X206514286Y-98426247D02*
X206514286Y-98283390D01*
X206514286Y-98283390D02*
X206561905Y-98092914D01*
X206561905Y-98092914D02*
X206609524Y-97997676D01*
X206609524Y-97997676D02*
X206704762Y-97902438D01*
X206704762Y-97902438D02*
X206847619Y-97854819D01*
X206847619Y-97854819D02*
X206942857Y-97854819D01*
X206942857Y-97854819D02*
X207085714Y-97902438D01*
X207085714Y-97902438D02*
X207133333Y-97950057D01*
X208038095Y-97854819D02*
X207561905Y-97854819D01*
X207561905Y-97854819D02*
X207514286Y-98331009D01*
X207514286Y-98331009D02*
X207561905Y-98283390D01*
X207561905Y-98283390D02*
X207657143Y-98235771D01*
X207657143Y-98235771D02*
X207895238Y-98235771D01*
X207895238Y-98235771D02*
X207990476Y-98283390D01*
X207990476Y-98283390D02*
X208038095Y-98331009D01*
X208038095Y-98331009D02*
X208085714Y-98426247D01*
X208085714Y-98426247D02*
X208085714Y-98664342D01*
X208085714Y-98664342D02*
X208038095Y-98759580D01*
X208038095Y-98759580D02*
X207990476Y-98807200D01*
X207990476Y-98807200D02*
X207895238Y-98854819D01*
X207895238Y-98854819D02*
X207657143Y-98854819D01*
X207657143Y-98854819D02*
X207561905Y-98807200D01*
X207561905Y-98807200D02*
X207514286Y-98759580D01*
X203713333Y-99404819D02*
X203380000Y-98928628D01*
X203141905Y-99404819D02*
X203141905Y-98404819D01*
X203141905Y-98404819D02*
X203522857Y-98404819D01*
X203522857Y-98404819D02*
X203618095Y-98452438D01*
X203618095Y-98452438D02*
X203665714Y-98500057D01*
X203665714Y-98500057D02*
X203713333Y-98595295D01*
X203713333Y-98595295D02*
X203713333Y-98738152D01*
X203713333Y-98738152D02*
X203665714Y-98833390D01*
X203665714Y-98833390D02*
X203618095Y-98881009D01*
X203618095Y-98881009D02*
X203522857Y-98928628D01*
X203522857Y-98928628D02*
X203141905Y-98928628D01*
X204189524Y-99404819D02*
X204380000Y-99404819D01*
X204380000Y-99404819D02*
X204475238Y-99357200D01*
X204475238Y-99357200D02*
X204522857Y-99309580D01*
X204522857Y-99309580D02*
X204618095Y-99166723D01*
X204618095Y-99166723D02*
X204665714Y-98976247D01*
X204665714Y-98976247D02*
X204665714Y-98595295D01*
X204665714Y-98595295D02*
X204618095Y-98500057D01*
X204618095Y-98500057D02*
X204570476Y-98452438D01*
X204570476Y-98452438D02*
X204475238Y-98404819D01*
X204475238Y-98404819D02*
X204284762Y-98404819D01*
X204284762Y-98404819D02*
X204189524Y-98452438D01*
X204189524Y-98452438D02*
X204141905Y-98500057D01*
X204141905Y-98500057D02*
X204094286Y-98595295D01*
X204094286Y-98595295D02*
X204094286Y-98833390D01*
X204094286Y-98833390D02*
X204141905Y-98928628D01*
X204141905Y-98928628D02*
X204189524Y-98976247D01*
X204189524Y-98976247D02*
X204284762Y-99023866D01*
X204284762Y-99023866D02*
X204475238Y-99023866D01*
X204475238Y-99023866D02*
X204570476Y-98976247D01*
X204570476Y-98976247D02*
X204618095Y-98928628D01*
X204618095Y-98928628D02*
X204665714Y-98833390D01*
X187654819Y-103466666D02*
X187178628Y-103799999D01*
X187654819Y-104038094D02*
X186654819Y-104038094D01*
X186654819Y-104038094D02*
X186654819Y-103657142D01*
X186654819Y-103657142D02*
X186702438Y-103561904D01*
X186702438Y-103561904D02*
X186750057Y-103514285D01*
X186750057Y-103514285D02*
X186845295Y-103466666D01*
X186845295Y-103466666D02*
X186988152Y-103466666D01*
X186988152Y-103466666D02*
X187083390Y-103514285D01*
X187083390Y-103514285D02*
X187131009Y-103561904D01*
X187131009Y-103561904D02*
X187178628Y-103657142D01*
X187178628Y-103657142D02*
X187178628Y-104038094D01*
X186654819Y-102561904D02*
X186654819Y-103038094D01*
X186654819Y-103038094D02*
X187131009Y-103085713D01*
X187131009Y-103085713D02*
X187083390Y-103038094D01*
X187083390Y-103038094D02*
X187035771Y-102942856D01*
X187035771Y-102942856D02*
X187035771Y-102704761D01*
X187035771Y-102704761D02*
X187083390Y-102609523D01*
X187083390Y-102609523D02*
X187131009Y-102561904D01*
X187131009Y-102561904D02*
X187226247Y-102514285D01*
X187226247Y-102514285D02*
X187464342Y-102514285D01*
X187464342Y-102514285D02*
X187559580Y-102561904D01*
X187559580Y-102561904D02*
X187607200Y-102609523D01*
X187607200Y-102609523D02*
X187654819Y-102704761D01*
X187654819Y-102704761D02*
X187654819Y-102942856D01*
X187654819Y-102942856D02*
X187607200Y-103038094D01*
X187607200Y-103038094D02*
X187559580Y-103085713D01*
X195583333Y-103254819D02*
X195250000Y-102778628D01*
X195011905Y-103254819D02*
X195011905Y-102254819D01*
X195011905Y-102254819D02*
X195392857Y-102254819D01*
X195392857Y-102254819D02*
X195488095Y-102302438D01*
X195488095Y-102302438D02*
X195535714Y-102350057D01*
X195535714Y-102350057D02*
X195583333Y-102445295D01*
X195583333Y-102445295D02*
X195583333Y-102588152D01*
X195583333Y-102588152D02*
X195535714Y-102683390D01*
X195535714Y-102683390D02*
X195488095Y-102731009D01*
X195488095Y-102731009D02*
X195392857Y-102778628D01*
X195392857Y-102778628D02*
X195011905Y-102778628D01*
X196440476Y-102588152D02*
X196440476Y-103254819D01*
X196202381Y-102207200D02*
X195964286Y-102921485D01*
X195964286Y-102921485D02*
X196583333Y-102921485D01*
X225741666Y-116704819D02*
X225741666Y-117419104D01*
X225741666Y-117419104D02*
X225694047Y-117561961D01*
X225694047Y-117561961D02*
X225598809Y-117657200D01*
X225598809Y-117657200D02*
X225455952Y-117704819D01*
X225455952Y-117704819D02*
X225360714Y-117704819D01*
X226694047Y-116704819D02*
X226217857Y-116704819D01*
X226217857Y-116704819D02*
X226170238Y-117181009D01*
X226170238Y-117181009D02*
X226217857Y-117133390D01*
X226217857Y-117133390D02*
X226313095Y-117085771D01*
X226313095Y-117085771D02*
X226551190Y-117085771D01*
X226551190Y-117085771D02*
X226646428Y-117133390D01*
X226646428Y-117133390D02*
X226694047Y-117181009D01*
X226694047Y-117181009D02*
X226741666Y-117276247D01*
X226741666Y-117276247D02*
X226741666Y-117514342D01*
X226741666Y-117514342D02*
X226694047Y-117609580D01*
X226694047Y-117609580D02*
X226646428Y-117657200D01*
X226646428Y-117657200D02*
X226551190Y-117704819D01*
X226551190Y-117704819D02*
X226313095Y-117704819D01*
X226313095Y-117704819D02*
X226217857Y-117657200D01*
X226217857Y-117657200D02*
X226170238Y-117609580D01*
X248391666Y-110854819D02*
X248391666Y-111569104D01*
X248391666Y-111569104D02*
X248344047Y-111711961D01*
X248344047Y-111711961D02*
X248248809Y-111807200D01*
X248248809Y-111807200D02*
X248105952Y-111854819D01*
X248105952Y-111854819D02*
X248010714Y-111854819D01*
X249391666Y-111854819D02*
X248820238Y-111854819D01*
X249105952Y-111854819D02*
X249105952Y-110854819D01*
X249105952Y-110854819D02*
X249010714Y-110997676D01*
X249010714Y-110997676D02*
X248915476Y-111092914D01*
X248915476Y-111092914D02*
X248820238Y-111140533D01*
X221379819Y-92838094D02*
X220379819Y-92838094D01*
X220379819Y-92838094D02*
X220379819Y-92599999D01*
X220379819Y-92599999D02*
X220427438Y-92457142D01*
X220427438Y-92457142D02*
X220522676Y-92361904D01*
X220522676Y-92361904D02*
X220617914Y-92314285D01*
X220617914Y-92314285D02*
X220808390Y-92266666D01*
X220808390Y-92266666D02*
X220951247Y-92266666D01*
X220951247Y-92266666D02*
X221141723Y-92314285D01*
X221141723Y-92314285D02*
X221236961Y-92361904D01*
X221236961Y-92361904D02*
X221332200Y-92457142D01*
X221332200Y-92457142D02*
X221379819Y-92599999D01*
X221379819Y-92599999D02*
X221379819Y-92838094D01*
X220475057Y-91885713D02*
X220427438Y-91838094D01*
X220427438Y-91838094D02*
X220379819Y-91742856D01*
X220379819Y-91742856D02*
X220379819Y-91504761D01*
X220379819Y-91504761D02*
X220427438Y-91409523D01*
X220427438Y-91409523D02*
X220475057Y-91361904D01*
X220475057Y-91361904D02*
X220570295Y-91314285D01*
X220570295Y-91314285D02*
X220665533Y-91314285D01*
X220665533Y-91314285D02*
X220808390Y-91361904D01*
X220808390Y-91361904D02*
X221379819Y-91933332D01*
X221379819Y-91933332D02*
X221379819Y-91314285D01*
X215909580Y-92507143D02*
X215957200Y-92554762D01*
X215957200Y-92554762D02*
X216004819Y-92697619D01*
X216004819Y-92697619D02*
X216004819Y-92792857D01*
X216004819Y-92792857D02*
X215957200Y-92935714D01*
X215957200Y-92935714D02*
X215861961Y-93030952D01*
X215861961Y-93030952D02*
X215766723Y-93078571D01*
X215766723Y-93078571D02*
X215576247Y-93126190D01*
X215576247Y-93126190D02*
X215433390Y-93126190D01*
X215433390Y-93126190D02*
X215242914Y-93078571D01*
X215242914Y-93078571D02*
X215147676Y-93030952D01*
X215147676Y-93030952D02*
X215052438Y-92935714D01*
X215052438Y-92935714D02*
X215004819Y-92792857D01*
X215004819Y-92792857D02*
X215004819Y-92697619D01*
X215004819Y-92697619D02*
X215052438Y-92554762D01*
X215052438Y-92554762D02*
X215100057Y-92507143D01*
X216004819Y-91935714D02*
X215957200Y-92030952D01*
X215957200Y-92030952D02*
X215909580Y-92078571D01*
X215909580Y-92078571D02*
X215814342Y-92126190D01*
X215814342Y-92126190D02*
X215528628Y-92126190D01*
X215528628Y-92126190D02*
X215433390Y-92078571D01*
X215433390Y-92078571D02*
X215385771Y-92030952D01*
X215385771Y-92030952D02*
X215338152Y-91935714D01*
X215338152Y-91935714D02*
X215338152Y-91792857D01*
X215338152Y-91792857D02*
X215385771Y-91697619D01*
X215385771Y-91697619D02*
X215433390Y-91650000D01*
X215433390Y-91650000D02*
X215528628Y-91602381D01*
X215528628Y-91602381D02*
X215814342Y-91602381D01*
X215814342Y-91602381D02*
X215909580Y-91650000D01*
X215909580Y-91650000D02*
X215957200Y-91697619D01*
X215957200Y-91697619D02*
X216004819Y-91792857D01*
X216004819Y-91792857D02*
X216004819Y-91935714D01*
X215338152Y-90745238D02*
X216004819Y-90745238D01*
X215338152Y-91173809D02*
X215861961Y-91173809D01*
X215861961Y-91173809D02*
X215957200Y-91126190D01*
X215957200Y-91126190D02*
X216004819Y-91030952D01*
X216004819Y-91030952D02*
X216004819Y-90888095D01*
X216004819Y-90888095D02*
X215957200Y-90792857D01*
X215957200Y-90792857D02*
X215909580Y-90745238D01*
X215338152Y-90411904D02*
X215338152Y-90030952D01*
X215004819Y-90269047D02*
X215861961Y-90269047D01*
X215861961Y-90269047D02*
X215957200Y-90221428D01*
X215957200Y-90221428D02*
X216004819Y-90126190D01*
X216004819Y-90126190D02*
X216004819Y-90030952D01*
X216004819Y-89173809D02*
X216004819Y-89745237D01*
X216004819Y-89459523D02*
X215004819Y-89459523D01*
X215004819Y-89459523D02*
X215147676Y-89554761D01*
X215147676Y-89554761D02*
X215242914Y-89649999D01*
X215242914Y-89649999D02*
X215290533Y-89745237D01*
X212357142Y-98874819D02*
X212023809Y-98398628D01*
X211785714Y-98874819D02*
X211785714Y-97874819D01*
X211785714Y-97874819D02*
X212166666Y-97874819D01*
X212166666Y-97874819D02*
X212261904Y-97922438D01*
X212261904Y-97922438D02*
X212309523Y-97970057D01*
X212309523Y-97970057D02*
X212357142Y-98065295D01*
X212357142Y-98065295D02*
X212357142Y-98208152D01*
X212357142Y-98208152D02*
X212309523Y-98303390D01*
X212309523Y-98303390D02*
X212261904Y-98351009D01*
X212261904Y-98351009D02*
X212166666Y-98398628D01*
X212166666Y-98398628D02*
X211785714Y-98398628D01*
X213309523Y-98874819D02*
X212738095Y-98874819D01*
X213023809Y-98874819D02*
X213023809Y-97874819D01*
X213023809Y-97874819D02*
X212928571Y-98017676D01*
X212928571Y-98017676D02*
X212833333Y-98112914D01*
X212833333Y-98112914D02*
X212738095Y-98160533D01*
X214166666Y-97874819D02*
X213976190Y-97874819D01*
X213976190Y-97874819D02*
X213880952Y-97922438D01*
X213880952Y-97922438D02*
X213833333Y-97970057D01*
X213833333Y-97970057D02*
X213738095Y-98112914D01*
X213738095Y-98112914D02*
X213690476Y-98303390D01*
X213690476Y-98303390D02*
X213690476Y-98684342D01*
X213690476Y-98684342D02*
X213738095Y-98779580D01*
X213738095Y-98779580D02*
X213785714Y-98827200D01*
X213785714Y-98827200D02*
X213880952Y-98874819D01*
X213880952Y-98874819D02*
X214071428Y-98874819D01*
X214071428Y-98874819D02*
X214166666Y-98827200D01*
X214166666Y-98827200D02*
X214214285Y-98779580D01*
X214214285Y-98779580D02*
X214261904Y-98684342D01*
X214261904Y-98684342D02*
X214261904Y-98446247D01*
X214261904Y-98446247D02*
X214214285Y-98351009D01*
X214214285Y-98351009D02*
X214166666Y-98303390D01*
X214166666Y-98303390D02*
X214071428Y-98255771D01*
X214071428Y-98255771D02*
X213880952Y-98255771D01*
X213880952Y-98255771D02*
X213785714Y-98303390D01*
X213785714Y-98303390D02*
X213738095Y-98351009D01*
X213738095Y-98351009D02*
X213690476Y-98446247D01*
X180166666Y-87029819D02*
X180166666Y-87744104D01*
X180166666Y-87744104D02*
X180119047Y-87886961D01*
X180119047Y-87886961D02*
X180023809Y-87982200D01*
X180023809Y-87982200D02*
X179880952Y-88029819D01*
X179880952Y-88029819D02*
X179785714Y-88029819D01*
X181071428Y-87363152D02*
X181071428Y-88029819D01*
X180833333Y-86982200D02*
X180595238Y-87696485D01*
X180595238Y-87696485D02*
X181214285Y-87696485D01*
X194992857Y-88409580D02*
X194945238Y-88457200D01*
X194945238Y-88457200D02*
X194802381Y-88504819D01*
X194802381Y-88504819D02*
X194707143Y-88504819D01*
X194707143Y-88504819D02*
X194564286Y-88457200D01*
X194564286Y-88457200D02*
X194469048Y-88361961D01*
X194469048Y-88361961D02*
X194421429Y-88266723D01*
X194421429Y-88266723D02*
X194373810Y-88076247D01*
X194373810Y-88076247D02*
X194373810Y-87933390D01*
X194373810Y-87933390D02*
X194421429Y-87742914D01*
X194421429Y-87742914D02*
X194469048Y-87647676D01*
X194469048Y-87647676D02*
X194564286Y-87552438D01*
X194564286Y-87552438D02*
X194707143Y-87504819D01*
X194707143Y-87504819D02*
X194802381Y-87504819D01*
X194802381Y-87504819D02*
X194945238Y-87552438D01*
X194945238Y-87552438D02*
X194992857Y-87600057D01*
X195421429Y-88504819D02*
X195421429Y-87838152D01*
X195421429Y-87504819D02*
X195373810Y-87552438D01*
X195373810Y-87552438D02*
X195421429Y-87600057D01*
X195421429Y-87600057D02*
X195469048Y-87552438D01*
X195469048Y-87552438D02*
X195421429Y-87504819D01*
X195421429Y-87504819D02*
X195421429Y-87600057D01*
X195897619Y-87838152D02*
X195897619Y-88504819D01*
X195897619Y-87933390D02*
X195945238Y-87885771D01*
X195945238Y-87885771D02*
X196040476Y-87838152D01*
X196040476Y-87838152D02*
X196183333Y-87838152D01*
X196183333Y-87838152D02*
X196278571Y-87885771D01*
X196278571Y-87885771D02*
X196326190Y-87981009D01*
X196326190Y-87981009D02*
X196326190Y-88504819D01*
X196754762Y-87600057D02*
X196802381Y-87552438D01*
X196802381Y-87552438D02*
X196897619Y-87504819D01*
X196897619Y-87504819D02*
X197135714Y-87504819D01*
X197135714Y-87504819D02*
X197230952Y-87552438D01*
X197230952Y-87552438D02*
X197278571Y-87600057D01*
X197278571Y-87600057D02*
X197326190Y-87695295D01*
X197326190Y-87695295D02*
X197326190Y-87790533D01*
X197326190Y-87790533D02*
X197278571Y-87933390D01*
X197278571Y-87933390D02*
X196707143Y-88504819D01*
X196707143Y-88504819D02*
X197326190Y-88504819D01*
X205788095Y-100354819D02*
X205788095Y-101164342D01*
X205788095Y-101164342D02*
X205835714Y-101259580D01*
X205835714Y-101259580D02*
X205883333Y-101307200D01*
X205883333Y-101307200D02*
X205978571Y-101354819D01*
X205978571Y-101354819D02*
X206169047Y-101354819D01*
X206169047Y-101354819D02*
X206264285Y-101307200D01*
X206264285Y-101307200D02*
X206311904Y-101259580D01*
X206311904Y-101259580D02*
X206359523Y-101164342D01*
X206359523Y-101164342D02*
X206359523Y-100354819D01*
X207311904Y-100354819D02*
X206835714Y-100354819D01*
X206835714Y-100354819D02*
X206788095Y-100831009D01*
X206788095Y-100831009D02*
X206835714Y-100783390D01*
X206835714Y-100783390D02*
X206930952Y-100735771D01*
X206930952Y-100735771D02*
X207169047Y-100735771D01*
X207169047Y-100735771D02*
X207264285Y-100783390D01*
X207264285Y-100783390D02*
X207311904Y-100831009D01*
X207311904Y-100831009D02*
X207359523Y-100926247D01*
X207359523Y-100926247D02*
X207359523Y-101164342D01*
X207359523Y-101164342D02*
X207311904Y-101259580D01*
X207311904Y-101259580D02*
X207264285Y-101307200D01*
X207264285Y-101307200D02*
X207169047Y-101354819D01*
X207169047Y-101354819D02*
X206930952Y-101354819D01*
X206930952Y-101354819D02*
X206835714Y-101307200D01*
X206835714Y-101307200D02*
X206788095Y-101259580D01*
X190274405Y-104754819D02*
X190274405Y-103754819D01*
X190274405Y-103754819D02*
X190512500Y-103754819D01*
X190512500Y-103754819D02*
X190655357Y-103802438D01*
X190655357Y-103802438D02*
X190750595Y-103897676D01*
X190750595Y-103897676D02*
X190798214Y-103992914D01*
X190798214Y-103992914D02*
X190845833Y-104183390D01*
X190845833Y-104183390D02*
X190845833Y-104326247D01*
X190845833Y-104326247D02*
X190798214Y-104516723D01*
X190798214Y-104516723D02*
X190750595Y-104611961D01*
X190750595Y-104611961D02*
X190655357Y-104707200D01*
X190655357Y-104707200D02*
X190512500Y-104754819D01*
X190512500Y-104754819D02*
X190274405Y-104754819D01*
X191798214Y-104754819D02*
X191226786Y-104754819D01*
X191512500Y-104754819D02*
X191512500Y-103754819D01*
X191512500Y-103754819D02*
X191417262Y-103897676D01*
X191417262Y-103897676D02*
X191322024Y-103992914D01*
X191322024Y-103992914D02*
X191226786Y-104040533D01*
X199027975Y-86409580D02*
X198980356Y-86457200D01*
X198980356Y-86457200D02*
X198837499Y-86504819D01*
X198837499Y-86504819D02*
X198742261Y-86504819D01*
X198742261Y-86504819D02*
X198599404Y-86457200D01*
X198599404Y-86457200D02*
X198504166Y-86361961D01*
X198504166Y-86361961D02*
X198456547Y-86266723D01*
X198456547Y-86266723D02*
X198408928Y-86076247D01*
X198408928Y-86076247D02*
X198408928Y-85933390D01*
X198408928Y-85933390D02*
X198456547Y-85742914D01*
X198456547Y-85742914D02*
X198504166Y-85647676D01*
X198504166Y-85647676D02*
X198599404Y-85552438D01*
X198599404Y-85552438D02*
X198742261Y-85504819D01*
X198742261Y-85504819D02*
X198837499Y-85504819D01*
X198837499Y-85504819D02*
X198980356Y-85552438D01*
X198980356Y-85552438D02*
X199027975Y-85600057D01*
X199456547Y-86504819D02*
X199456547Y-85504819D01*
X199456547Y-85885771D02*
X199551785Y-85838152D01*
X199551785Y-85838152D02*
X199742261Y-85838152D01*
X199742261Y-85838152D02*
X199837499Y-85885771D01*
X199837499Y-85885771D02*
X199885118Y-85933390D01*
X199885118Y-85933390D02*
X199932737Y-86028628D01*
X199932737Y-86028628D02*
X199932737Y-86314342D01*
X199932737Y-86314342D02*
X199885118Y-86409580D01*
X199885118Y-86409580D02*
X199837499Y-86457200D01*
X199837499Y-86457200D02*
X199742261Y-86504819D01*
X199742261Y-86504819D02*
X199551785Y-86504819D01*
X199551785Y-86504819D02*
X199456547Y-86457200D01*
X200313690Y-86457200D02*
X200408928Y-86504819D01*
X200408928Y-86504819D02*
X200599404Y-86504819D01*
X200599404Y-86504819D02*
X200694642Y-86457200D01*
X200694642Y-86457200D02*
X200742261Y-86361961D01*
X200742261Y-86361961D02*
X200742261Y-86314342D01*
X200742261Y-86314342D02*
X200694642Y-86219104D01*
X200694642Y-86219104D02*
X200599404Y-86171485D01*
X200599404Y-86171485D02*
X200456547Y-86171485D01*
X200456547Y-86171485D02*
X200361309Y-86123866D01*
X200361309Y-86123866D02*
X200313690Y-86028628D01*
X200313690Y-86028628D02*
X200313690Y-85981009D01*
X200313690Y-85981009D02*
X200361309Y-85885771D01*
X200361309Y-85885771D02*
X200456547Y-85838152D01*
X200456547Y-85838152D02*
X200599404Y-85838152D01*
X200599404Y-85838152D02*
X200694642Y-85885771D01*
X201027976Y-85838152D02*
X201408928Y-85838152D01*
X201170833Y-85504819D02*
X201170833Y-86361961D01*
X201170833Y-86361961D02*
X201218452Y-86457200D01*
X201218452Y-86457200D02*
X201313690Y-86504819D01*
X201313690Y-86504819D02*
X201408928Y-86504819D01*
X202266071Y-86504819D02*
X201694643Y-86504819D01*
X201980357Y-86504819D02*
X201980357Y-85504819D01*
X201980357Y-85504819D02*
X201885119Y-85647676D01*
X201885119Y-85647676D02*
X201789881Y-85742914D01*
X201789881Y-85742914D02*
X201694643Y-85790533D01*
X187416666Y-109979819D02*
X187416666Y-110694104D01*
X187416666Y-110694104D02*
X187369047Y-110836961D01*
X187369047Y-110836961D02*
X187273809Y-110932200D01*
X187273809Y-110932200D02*
X187130952Y-110979819D01*
X187130952Y-110979819D02*
X187035714Y-110979819D01*
X187797619Y-109979819D02*
X188416666Y-109979819D01*
X188416666Y-109979819D02*
X188083333Y-110360771D01*
X188083333Y-110360771D02*
X188226190Y-110360771D01*
X188226190Y-110360771D02*
X188321428Y-110408390D01*
X188321428Y-110408390D02*
X188369047Y-110456009D01*
X188369047Y-110456009D02*
X188416666Y-110551247D01*
X188416666Y-110551247D02*
X188416666Y-110789342D01*
X188416666Y-110789342D02*
X188369047Y-110884580D01*
X188369047Y-110884580D02*
X188321428Y-110932200D01*
X188321428Y-110932200D02*
X188226190Y-110979819D01*
X188226190Y-110979819D02*
X187940476Y-110979819D01*
X187940476Y-110979819D02*
X187845238Y-110932200D01*
X187845238Y-110932200D02*
X187797619Y-110884580D01*
X217691905Y-94594819D02*
X217691905Y-93594819D01*
X217691905Y-93594819D02*
X217930000Y-93594819D01*
X217930000Y-93594819D02*
X218072857Y-93642438D01*
X218072857Y-93642438D02*
X218168095Y-93737676D01*
X218168095Y-93737676D02*
X218215714Y-93832914D01*
X218215714Y-93832914D02*
X218263333Y-94023390D01*
X218263333Y-94023390D02*
X218263333Y-94166247D01*
X218263333Y-94166247D02*
X218215714Y-94356723D01*
X218215714Y-94356723D02*
X218168095Y-94451961D01*
X218168095Y-94451961D02*
X218072857Y-94547200D01*
X218072857Y-94547200D02*
X217930000Y-94594819D01*
X217930000Y-94594819D02*
X217691905Y-94594819D01*
X218596667Y-93594819D02*
X219215714Y-93594819D01*
X219215714Y-93594819D02*
X218882381Y-93975771D01*
X218882381Y-93975771D02*
X219025238Y-93975771D01*
X219025238Y-93975771D02*
X219120476Y-94023390D01*
X219120476Y-94023390D02*
X219168095Y-94071009D01*
X219168095Y-94071009D02*
X219215714Y-94166247D01*
X219215714Y-94166247D02*
X219215714Y-94404342D01*
X219215714Y-94404342D02*
X219168095Y-94499580D01*
X219168095Y-94499580D02*
X219120476Y-94547200D01*
X219120476Y-94547200D02*
X219025238Y-94594819D01*
X219025238Y-94594819D02*
X218739524Y-94594819D01*
X218739524Y-94594819D02*
X218644286Y-94547200D01*
X218644286Y-94547200D02*
X218596667Y-94499580D01*
X173816666Y-96554819D02*
X173816666Y-97269104D01*
X173816666Y-97269104D02*
X173769047Y-97411961D01*
X173769047Y-97411961D02*
X173673809Y-97507200D01*
X173673809Y-97507200D02*
X173530952Y-97554819D01*
X173530952Y-97554819D02*
X173435714Y-97554819D01*
X174340476Y-97554819D02*
X174530952Y-97554819D01*
X174530952Y-97554819D02*
X174626190Y-97507200D01*
X174626190Y-97507200D02*
X174673809Y-97459580D01*
X174673809Y-97459580D02*
X174769047Y-97316723D01*
X174769047Y-97316723D02*
X174816666Y-97126247D01*
X174816666Y-97126247D02*
X174816666Y-96745295D01*
X174816666Y-96745295D02*
X174769047Y-96650057D01*
X174769047Y-96650057D02*
X174721428Y-96602438D01*
X174721428Y-96602438D02*
X174626190Y-96554819D01*
X174626190Y-96554819D02*
X174435714Y-96554819D01*
X174435714Y-96554819D02*
X174340476Y-96602438D01*
X174340476Y-96602438D02*
X174292857Y-96650057D01*
X174292857Y-96650057D02*
X174245238Y-96745295D01*
X174245238Y-96745295D02*
X174245238Y-96983390D01*
X174245238Y-96983390D02*
X174292857Y-97078628D01*
X174292857Y-97078628D02*
X174340476Y-97126247D01*
X174340476Y-97126247D02*
X174435714Y-97173866D01*
X174435714Y-97173866D02*
X174626190Y-97173866D01*
X174626190Y-97173866D02*
X174721428Y-97126247D01*
X174721428Y-97126247D02*
X174769047Y-97078628D01*
X174769047Y-97078628D02*
X174816666Y-96983390D01*
X206213095Y-118329819D02*
X206213095Y-119139342D01*
X206213095Y-119139342D02*
X206260714Y-119234580D01*
X206260714Y-119234580D02*
X206308333Y-119282200D01*
X206308333Y-119282200D02*
X206403571Y-119329819D01*
X206403571Y-119329819D02*
X206594047Y-119329819D01*
X206594047Y-119329819D02*
X206689285Y-119282200D01*
X206689285Y-119282200D02*
X206736904Y-119234580D01*
X206736904Y-119234580D02*
X206784523Y-119139342D01*
X206784523Y-119139342D02*
X206784523Y-118329819D01*
X207689285Y-118329819D02*
X207498809Y-118329819D01*
X207498809Y-118329819D02*
X207403571Y-118377438D01*
X207403571Y-118377438D02*
X207355952Y-118425057D01*
X207355952Y-118425057D02*
X207260714Y-118567914D01*
X207260714Y-118567914D02*
X207213095Y-118758390D01*
X207213095Y-118758390D02*
X207213095Y-119139342D01*
X207213095Y-119139342D02*
X207260714Y-119234580D01*
X207260714Y-119234580D02*
X207308333Y-119282200D01*
X207308333Y-119282200D02*
X207403571Y-119329819D01*
X207403571Y-119329819D02*
X207594047Y-119329819D01*
X207594047Y-119329819D02*
X207689285Y-119282200D01*
X207689285Y-119282200D02*
X207736904Y-119234580D01*
X207736904Y-119234580D02*
X207784523Y-119139342D01*
X207784523Y-119139342D02*
X207784523Y-118901247D01*
X207784523Y-118901247D02*
X207736904Y-118806009D01*
X207736904Y-118806009D02*
X207689285Y-118758390D01*
X207689285Y-118758390D02*
X207594047Y-118710771D01*
X207594047Y-118710771D02*
X207403571Y-118710771D01*
X207403571Y-118710771D02*
X207308333Y-118758390D01*
X207308333Y-118758390D02*
X207260714Y-118806009D01*
X207260714Y-118806009D02*
X207213095Y-118901247D01*
X214807142Y-119704819D02*
X214473809Y-119228628D01*
X214235714Y-119704819D02*
X214235714Y-118704819D01*
X214235714Y-118704819D02*
X214616666Y-118704819D01*
X214616666Y-118704819D02*
X214711904Y-118752438D01*
X214711904Y-118752438D02*
X214759523Y-118800057D01*
X214759523Y-118800057D02*
X214807142Y-118895295D01*
X214807142Y-118895295D02*
X214807142Y-119038152D01*
X214807142Y-119038152D02*
X214759523Y-119133390D01*
X214759523Y-119133390D02*
X214711904Y-119181009D01*
X214711904Y-119181009D02*
X214616666Y-119228628D01*
X214616666Y-119228628D02*
X214235714Y-119228628D01*
X215759523Y-119704819D02*
X215188095Y-119704819D01*
X215473809Y-119704819D02*
X215473809Y-118704819D01*
X215473809Y-118704819D02*
X215378571Y-118847676D01*
X215378571Y-118847676D02*
X215283333Y-118942914D01*
X215283333Y-118942914D02*
X215188095Y-118990533D01*
X216616666Y-119038152D02*
X216616666Y-119704819D01*
X216378571Y-118657200D02*
X216140476Y-119371485D01*
X216140476Y-119371485D02*
X216759523Y-119371485D01*
X248366666Y-87679819D02*
X248366666Y-88394104D01*
X248366666Y-88394104D02*
X248319047Y-88536961D01*
X248319047Y-88536961D02*
X248223809Y-88632200D01*
X248223809Y-88632200D02*
X248080952Y-88679819D01*
X248080952Y-88679819D02*
X247985714Y-88679819D01*
X248795238Y-87775057D02*
X248842857Y-87727438D01*
X248842857Y-87727438D02*
X248938095Y-87679819D01*
X248938095Y-87679819D02*
X249176190Y-87679819D01*
X249176190Y-87679819D02*
X249271428Y-87727438D01*
X249271428Y-87727438D02*
X249319047Y-87775057D01*
X249319047Y-87775057D02*
X249366666Y-87870295D01*
X249366666Y-87870295D02*
X249366666Y-87965533D01*
X249366666Y-87965533D02*
X249319047Y-88108390D01*
X249319047Y-88108390D02*
X248747619Y-88679819D01*
X248747619Y-88679819D02*
X249366666Y-88679819D01*
D10*
X235363095Y-113332419D02*
X235363095Y-114141942D01*
X235363095Y-114141942D02*
X235410714Y-114237180D01*
X235410714Y-114237180D02*
X235458333Y-114284800D01*
X235458333Y-114284800D02*
X235553571Y-114332419D01*
X235553571Y-114332419D02*
X235744047Y-114332419D01*
X235744047Y-114332419D02*
X235839285Y-114284800D01*
X235839285Y-114284800D02*
X235886904Y-114237180D01*
X235886904Y-114237180D02*
X235934523Y-114141942D01*
X235934523Y-114141942D02*
X235934523Y-113332419D01*
X236553571Y-113760990D02*
X236458333Y-113713371D01*
X236458333Y-113713371D02*
X236410714Y-113665752D01*
X236410714Y-113665752D02*
X236363095Y-113570514D01*
X236363095Y-113570514D02*
X236363095Y-113522895D01*
X236363095Y-113522895D02*
X236410714Y-113427657D01*
X236410714Y-113427657D02*
X236458333Y-113380038D01*
X236458333Y-113380038D02*
X236553571Y-113332419D01*
X236553571Y-113332419D02*
X236744047Y-113332419D01*
X236744047Y-113332419D02*
X236839285Y-113380038D01*
X236839285Y-113380038D02*
X236886904Y-113427657D01*
X236886904Y-113427657D02*
X236934523Y-113522895D01*
X236934523Y-113522895D02*
X236934523Y-113570514D01*
X236934523Y-113570514D02*
X236886904Y-113665752D01*
X236886904Y-113665752D02*
X236839285Y-113713371D01*
X236839285Y-113713371D02*
X236744047Y-113760990D01*
X236744047Y-113760990D02*
X236553571Y-113760990D01*
X236553571Y-113760990D02*
X236458333Y-113808609D01*
X236458333Y-113808609D02*
X236410714Y-113856228D01*
X236410714Y-113856228D02*
X236363095Y-113951466D01*
X236363095Y-113951466D02*
X236363095Y-114141942D01*
X236363095Y-114141942D02*
X236410714Y-114237180D01*
X236410714Y-114237180D02*
X236458333Y-114284800D01*
X236458333Y-114284800D02*
X236553571Y-114332419D01*
X236553571Y-114332419D02*
X236744047Y-114332419D01*
X236744047Y-114332419D02*
X236839285Y-114284800D01*
X236839285Y-114284800D02*
X236886904Y-114237180D01*
X236886904Y-114237180D02*
X236934523Y-114141942D01*
X236934523Y-114141942D02*
X236934523Y-113951466D01*
X236934523Y-113951466D02*
X236886904Y-113856228D01*
X236886904Y-113856228D02*
X236839285Y-113808609D01*
X236839285Y-113808609D02*
X236744047Y-113760990D01*
X230933693Y-115645038D02*
X230838455Y-115597419D01*
X230838455Y-115597419D02*
X230695598Y-115597419D01*
X230695598Y-115597419D02*
X230552741Y-115645038D01*
X230552741Y-115645038D02*
X230457503Y-115740276D01*
X230457503Y-115740276D02*
X230409884Y-115835514D01*
X230409884Y-115835514D02*
X230362265Y-116025990D01*
X230362265Y-116025990D02*
X230362265Y-116168847D01*
X230362265Y-116168847D02*
X230409884Y-116359323D01*
X230409884Y-116359323D02*
X230457503Y-116454561D01*
X230457503Y-116454561D02*
X230552741Y-116549800D01*
X230552741Y-116549800D02*
X230695598Y-116597419D01*
X230695598Y-116597419D02*
X230790836Y-116597419D01*
X230790836Y-116597419D02*
X230933693Y-116549800D01*
X230933693Y-116549800D02*
X230981312Y-116502180D01*
X230981312Y-116502180D02*
X230981312Y-116168847D01*
X230981312Y-116168847D02*
X230790836Y-116168847D01*
X231409884Y-116597419D02*
X231409884Y-115597419D01*
X231409884Y-115597419D02*
X231981312Y-116597419D01*
X231981312Y-116597419D02*
X231981312Y-115597419D01*
X232457503Y-116597419D02*
X232457503Y-115597419D01*
X232457503Y-115597419D02*
X232695598Y-115597419D01*
X232695598Y-115597419D02*
X232838455Y-115645038D01*
X232838455Y-115645038D02*
X232933693Y-115740276D01*
X232933693Y-115740276D02*
X232981312Y-115835514D01*
X232981312Y-115835514D02*
X233028931Y-116025990D01*
X233028931Y-116025990D02*
X233028931Y-116168847D01*
X233028931Y-116168847D02*
X232981312Y-116359323D01*
X232981312Y-116359323D02*
X232933693Y-116454561D01*
X232933693Y-116454561D02*
X232838455Y-116549800D01*
X232838455Y-116549800D02*
X232695598Y-116597419D01*
X232695598Y-116597419D02*
X232457503Y-116597419D01*
X230981312Y-119097419D02*
X230647979Y-118621228D01*
X230409884Y-119097419D02*
X230409884Y-118097419D01*
X230409884Y-118097419D02*
X230790836Y-118097419D01*
X230790836Y-118097419D02*
X230886074Y-118145038D01*
X230886074Y-118145038D02*
X230933693Y-118192657D01*
X230933693Y-118192657D02*
X230981312Y-118287895D01*
X230981312Y-118287895D02*
X230981312Y-118430752D01*
X230981312Y-118430752D02*
X230933693Y-118525990D01*
X230933693Y-118525990D02*
X230886074Y-118573609D01*
X230886074Y-118573609D02*
X230790836Y-118621228D01*
X230790836Y-118621228D02*
X230409884Y-118621228D01*
X231314646Y-118097419D02*
X231981312Y-119097419D01*
X231981312Y-118097419D02*
X231314646Y-119097419D01*
X230362265Y-124049800D02*
X230505122Y-124097419D01*
X230505122Y-124097419D02*
X230743217Y-124097419D01*
X230743217Y-124097419D02*
X230838455Y-124049800D01*
X230838455Y-124049800D02*
X230886074Y-124002180D01*
X230886074Y-124002180D02*
X230933693Y-123906942D01*
X230933693Y-123906942D02*
X230933693Y-123811704D01*
X230933693Y-123811704D02*
X230886074Y-123716466D01*
X230886074Y-123716466D02*
X230838455Y-123668847D01*
X230838455Y-123668847D02*
X230743217Y-123621228D01*
X230743217Y-123621228D02*
X230552741Y-123573609D01*
X230552741Y-123573609D02*
X230457503Y-123525990D01*
X230457503Y-123525990D02*
X230409884Y-123478371D01*
X230409884Y-123478371D02*
X230362265Y-123383133D01*
X230362265Y-123383133D02*
X230362265Y-123287895D01*
X230362265Y-123287895D02*
X230409884Y-123192657D01*
X230409884Y-123192657D02*
X230457503Y-123145038D01*
X230457503Y-123145038D02*
X230552741Y-123097419D01*
X230552741Y-123097419D02*
X230790836Y-123097419D01*
X230790836Y-123097419D02*
X230933693Y-123145038D01*
X231362265Y-123573609D02*
X231695598Y-123573609D01*
X231838455Y-124097419D02*
X231362265Y-124097419D01*
X231362265Y-124097419D02*
X231362265Y-123097419D01*
X231362265Y-123097419D02*
X231838455Y-123097419D01*
X232124170Y-123097419D02*
X232695598Y-123097419D01*
X232409884Y-124097419D02*
X232409884Y-123097419D01*
X230267027Y-113097419D02*
X230600360Y-114097419D01*
X230600360Y-114097419D02*
X230933693Y-113097419D01*
X231838455Y-114002180D02*
X231790836Y-114049800D01*
X231790836Y-114049800D02*
X231647979Y-114097419D01*
X231647979Y-114097419D02*
X231552741Y-114097419D01*
X231552741Y-114097419D02*
X231409884Y-114049800D01*
X231409884Y-114049800D02*
X231314646Y-113954561D01*
X231314646Y-113954561D02*
X231267027Y-113859323D01*
X231267027Y-113859323D02*
X231219408Y-113668847D01*
X231219408Y-113668847D02*
X231219408Y-113525990D01*
X231219408Y-113525990D02*
X231267027Y-113335514D01*
X231267027Y-113335514D02*
X231314646Y-113240276D01*
X231314646Y-113240276D02*
X231409884Y-113145038D01*
X231409884Y-113145038D02*
X231552741Y-113097419D01*
X231552741Y-113097419D02*
X231647979Y-113097419D01*
X231647979Y-113097419D02*
X231790836Y-113145038D01*
X231790836Y-113145038D02*
X231838455Y-113192657D01*
X232838455Y-114002180D02*
X232790836Y-114049800D01*
X232790836Y-114049800D02*
X232647979Y-114097419D01*
X232647979Y-114097419D02*
X232552741Y-114097419D01*
X232552741Y-114097419D02*
X232409884Y-114049800D01*
X232409884Y-114049800D02*
X232314646Y-113954561D01*
X232314646Y-113954561D02*
X232267027Y-113859323D01*
X232267027Y-113859323D02*
X232219408Y-113668847D01*
X232219408Y-113668847D02*
X232219408Y-113525990D01*
X232219408Y-113525990D02*
X232267027Y-113335514D01*
X232267027Y-113335514D02*
X232314646Y-113240276D01*
X232314646Y-113240276D02*
X232409884Y-113145038D01*
X232409884Y-113145038D02*
X232552741Y-113097419D01*
X232552741Y-113097419D02*
X232647979Y-113097419D01*
X232647979Y-113097419D02*
X232790836Y-113145038D01*
X232790836Y-113145038D02*
X232838455Y-113192657D01*
D13*
X237030185Y-119893047D02*
X237030185Y-117393047D01*
X237030185Y-118583523D02*
X238458756Y-118583523D01*
X238458756Y-119893047D02*
X238458756Y-117393047D01*
X241077804Y-119654952D02*
X240958756Y-119774000D01*
X240958756Y-119774000D02*
X240601614Y-119893047D01*
X240601614Y-119893047D02*
X240363518Y-119893047D01*
X240363518Y-119893047D02*
X240006375Y-119774000D01*
X240006375Y-119774000D02*
X239768280Y-119535904D01*
X239768280Y-119535904D02*
X239649233Y-119297809D01*
X239649233Y-119297809D02*
X239530185Y-118821619D01*
X239530185Y-118821619D02*
X239530185Y-118464476D01*
X239530185Y-118464476D02*
X239649233Y-117988285D01*
X239649233Y-117988285D02*
X239768280Y-117750190D01*
X239768280Y-117750190D02*
X240006375Y-117512095D01*
X240006375Y-117512095D02*
X240363518Y-117393047D01*
X240363518Y-117393047D02*
X240601614Y-117393047D01*
X240601614Y-117393047D02*
X240958756Y-117512095D01*
X240958756Y-117512095D02*
X241077804Y-117631142D01*
X243458756Y-119893047D02*
X242030185Y-119893047D01*
X242744471Y-119893047D02*
X242744471Y-117393047D01*
X242744471Y-117393047D02*
X242506375Y-117750190D01*
X242506375Y-117750190D02*
X242268280Y-117988285D01*
X242268280Y-117988285D02*
X242030185Y-118107333D01*
X244411137Y-117631142D02*
X244530185Y-117512095D01*
X244530185Y-117512095D02*
X244768280Y-117393047D01*
X244768280Y-117393047D02*
X245363518Y-117393047D01*
X245363518Y-117393047D02*
X245601613Y-117512095D01*
X245601613Y-117512095D02*
X245720661Y-117631142D01*
X245720661Y-117631142D02*
X245839708Y-117869238D01*
X245839708Y-117869238D02*
X245839708Y-118107333D01*
X245839708Y-118107333D02*
X245720661Y-118464476D01*
X245720661Y-118464476D02*
X244292089Y-119893047D01*
X244292089Y-119893047D02*
X245839708Y-119893047D01*
D10*
X230267027Y-120597419D02*
X230838455Y-120597419D01*
X230552741Y-121597419D02*
X230552741Y-120597419D01*
X231076551Y-120597419D02*
X231743217Y-121597419D01*
X231743217Y-120597419D02*
X231076551Y-121597419D01*
D11*
X217171666Y-120454819D02*
X217171666Y-121169104D01*
X217171666Y-121169104D02*
X217124047Y-121311961D01*
X217124047Y-121311961D02*
X217028809Y-121407200D01*
X217028809Y-121407200D02*
X216885952Y-121454819D01*
X216885952Y-121454819D02*
X216790714Y-121454819D01*
X217790714Y-120883390D02*
X217695476Y-120835771D01*
X217695476Y-120835771D02*
X217647857Y-120788152D01*
X217647857Y-120788152D02*
X217600238Y-120692914D01*
X217600238Y-120692914D02*
X217600238Y-120645295D01*
X217600238Y-120645295D02*
X217647857Y-120550057D01*
X217647857Y-120550057D02*
X217695476Y-120502438D01*
X217695476Y-120502438D02*
X217790714Y-120454819D01*
X217790714Y-120454819D02*
X217981190Y-120454819D01*
X217981190Y-120454819D02*
X218076428Y-120502438D01*
X218076428Y-120502438D02*
X218124047Y-120550057D01*
X218124047Y-120550057D02*
X218171666Y-120645295D01*
X218171666Y-120645295D02*
X218171666Y-120692914D01*
X218171666Y-120692914D02*
X218124047Y-120788152D01*
X218124047Y-120788152D02*
X218076428Y-120835771D01*
X218076428Y-120835771D02*
X217981190Y-120883390D01*
X217981190Y-120883390D02*
X217790714Y-120883390D01*
X217790714Y-120883390D02*
X217695476Y-120931009D01*
X217695476Y-120931009D02*
X217647857Y-120978628D01*
X217647857Y-120978628D02*
X217600238Y-121073866D01*
X217600238Y-121073866D02*
X217600238Y-121264342D01*
X217600238Y-121264342D02*
X217647857Y-121359580D01*
X217647857Y-121359580D02*
X217695476Y-121407200D01*
X217695476Y-121407200D02*
X217790714Y-121454819D01*
X217790714Y-121454819D02*
X217981190Y-121454819D01*
X217981190Y-121454819D02*
X218076428Y-121407200D01*
X218076428Y-121407200D02*
X218124047Y-121359580D01*
X218124047Y-121359580D02*
X218171666Y-121264342D01*
X218171666Y-121264342D02*
X218171666Y-121073866D01*
X218171666Y-121073866D02*
X218124047Y-120978628D01*
X218124047Y-120978628D02*
X218076428Y-120931009D01*
X218076428Y-120931009D02*
X217981190Y-120883390D01*
X203458333Y-119884580D02*
X203410714Y-119932200D01*
X203410714Y-119932200D02*
X203267857Y-119979819D01*
X203267857Y-119979819D02*
X203172619Y-119979819D01*
X203172619Y-119979819D02*
X203029762Y-119932200D01*
X203029762Y-119932200D02*
X202934524Y-119836961D01*
X202934524Y-119836961D02*
X202886905Y-119741723D01*
X202886905Y-119741723D02*
X202839286Y-119551247D01*
X202839286Y-119551247D02*
X202839286Y-119408390D01*
X202839286Y-119408390D02*
X202886905Y-119217914D01*
X202886905Y-119217914D02*
X202934524Y-119122676D01*
X202934524Y-119122676D02*
X203029762Y-119027438D01*
X203029762Y-119027438D02*
X203172619Y-118979819D01*
X203172619Y-118979819D02*
X203267857Y-118979819D01*
X203267857Y-118979819D02*
X203410714Y-119027438D01*
X203410714Y-119027438D02*
X203458333Y-119075057D01*
X204315476Y-119313152D02*
X204315476Y-119979819D01*
X204077381Y-118932200D02*
X203839286Y-119646485D01*
X203839286Y-119646485D02*
X204458333Y-119646485D01*
X227741666Y-110954819D02*
X227741666Y-111669104D01*
X227741666Y-111669104D02*
X227694047Y-111811961D01*
X227694047Y-111811961D02*
X227598809Y-111907200D01*
X227598809Y-111907200D02*
X227455952Y-111954819D01*
X227455952Y-111954819D02*
X227360714Y-111954819D01*
X228122619Y-110954819D02*
X228789285Y-110954819D01*
X228789285Y-110954819D02*
X228360714Y-111954819D01*
X183963333Y-96254819D02*
X183630000Y-95778628D01*
X183391905Y-96254819D02*
X183391905Y-95254819D01*
X183391905Y-95254819D02*
X183772857Y-95254819D01*
X183772857Y-95254819D02*
X183868095Y-95302438D01*
X183868095Y-95302438D02*
X183915714Y-95350057D01*
X183915714Y-95350057D02*
X183963333Y-95445295D01*
X183963333Y-95445295D02*
X183963333Y-95588152D01*
X183963333Y-95588152D02*
X183915714Y-95683390D01*
X183915714Y-95683390D02*
X183868095Y-95731009D01*
X183868095Y-95731009D02*
X183772857Y-95778628D01*
X183772857Y-95778628D02*
X183391905Y-95778628D01*
X184820476Y-95254819D02*
X184630000Y-95254819D01*
X184630000Y-95254819D02*
X184534762Y-95302438D01*
X184534762Y-95302438D02*
X184487143Y-95350057D01*
X184487143Y-95350057D02*
X184391905Y-95492914D01*
X184391905Y-95492914D02*
X184344286Y-95683390D01*
X184344286Y-95683390D02*
X184344286Y-96064342D01*
X184344286Y-96064342D02*
X184391905Y-96159580D01*
X184391905Y-96159580D02*
X184439524Y-96207200D01*
X184439524Y-96207200D02*
X184534762Y-96254819D01*
X184534762Y-96254819D02*
X184725238Y-96254819D01*
X184725238Y-96254819D02*
X184820476Y-96207200D01*
X184820476Y-96207200D02*
X184868095Y-96159580D01*
X184868095Y-96159580D02*
X184915714Y-96064342D01*
X184915714Y-96064342D02*
X184915714Y-95826247D01*
X184915714Y-95826247D02*
X184868095Y-95731009D01*
X184868095Y-95731009D02*
X184820476Y-95683390D01*
X184820476Y-95683390D02*
X184725238Y-95635771D01*
X184725238Y-95635771D02*
X184534762Y-95635771D01*
X184534762Y-95635771D02*
X184439524Y-95683390D01*
X184439524Y-95683390D02*
X184391905Y-95731009D01*
X184391905Y-95731009D02*
X184344286Y-95826247D01*
D10*
X233861905Y-90982419D02*
X233861905Y-89982419D01*
X234433333Y-90982419D02*
X234004762Y-90410990D01*
X234433333Y-89982419D02*
X233861905Y-90553847D01*
X235385714Y-90982419D02*
X234814286Y-90982419D01*
X235100000Y-90982419D02*
X235100000Y-89982419D01*
X235100000Y-89982419D02*
X235004762Y-90125276D01*
X235004762Y-90125276D02*
X234909524Y-90220514D01*
X234909524Y-90220514D02*
X234814286Y-90268133D01*
X229511027Y-84522419D02*
X229844360Y-85522419D01*
X229844360Y-85522419D02*
X230177693Y-84522419D01*
X230511027Y-85141466D02*
X231272932Y-85141466D01*
X230891979Y-85522419D02*
X230891979Y-84760514D01*
X229511027Y-96522419D02*
X229844360Y-97522419D01*
X229844360Y-97522419D02*
X230177693Y-96522419D01*
X230511027Y-97141466D02*
X231272932Y-97141466D01*
X227825312Y-90927180D02*
X227777693Y-90974800D01*
X227777693Y-90974800D02*
X227634836Y-91022419D01*
X227634836Y-91022419D02*
X227539598Y-91022419D01*
X227539598Y-91022419D02*
X227396741Y-90974800D01*
X227396741Y-90974800D02*
X227301503Y-90879561D01*
X227301503Y-90879561D02*
X227253884Y-90784323D01*
X227253884Y-90784323D02*
X227206265Y-90593847D01*
X227206265Y-90593847D02*
X227206265Y-90450990D01*
X227206265Y-90450990D02*
X227253884Y-90260514D01*
X227253884Y-90260514D02*
X227301503Y-90165276D01*
X227301503Y-90165276D02*
X227396741Y-90070038D01*
X227396741Y-90070038D02*
X227539598Y-90022419D01*
X227539598Y-90022419D02*
X227634836Y-90022419D01*
X227634836Y-90022419D02*
X227777693Y-90070038D01*
X227777693Y-90070038D02*
X227825312Y-90117657D01*
X228444360Y-90022419D02*
X228634836Y-90022419D01*
X228634836Y-90022419D02*
X228730074Y-90070038D01*
X228730074Y-90070038D02*
X228825312Y-90165276D01*
X228825312Y-90165276D02*
X228872931Y-90355752D01*
X228872931Y-90355752D02*
X228872931Y-90689085D01*
X228872931Y-90689085D02*
X228825312Y-90879561D01*
X228825312Y-90879561D02*
X228730074Y-90974800D01*
X228730074Y-90974800D02*
X228634836Y-91022419D01*
X228634836Y-91022419D02*
X228444360Y-91022419D01*
X228444360Y-91022419D02*
X228349122Y-90974800D01*
X228349122Y-90974800D02*
X228253884Y-90879561D01*
X228253884Y-90879561D02*
X228206265Y-90689085D01*
X228206265Y-90689085D02*
X228206265Y-90355752D01*
X228206265Y-90355752D02*
X228253884Y-90165276D01*
X228253884Y-90165276D02*
X228349122Y-90070038D01*
X228349122Y-90070038D02*
X228444360Y-90022419D01*
X229301503Y-91022419D02*
X229301503Y-90022419D01*
X229301503Y-90022419D02*
X229634836Y-90736704D01*
X229634836Y-90736704D02*
X229968169Y-90022419D01*
X229968169Y-90022419D02*
X229968169Y-91022419D01*
X238944360Y-95522419D02*
X239134836Y-95522419D01*
X239134836Y-95522419D02*
X239230074Y-95570038D01*
X239230074Y-95570038D02*
X239325312Y-95665276D01*
X239325312Y-95665276D02*
X239372931Y-95855752D01*
X239372931Y-95855752D02*
X239372931Y-96189085D01*
X239372931Y-96189085D02*
X239325312Y-96379561D01*
X239325312Y-96379561D02*
X239230074Y-96474800D01*
X239230074Y-96474800D02*
X239134836Y-96522419D01*
X239134836Y-96522419D02*
X238944360Y-96522419D01*
X238944360Y-96522419D02*
X238849122Y-96474800D01*
X238849122Y-96474800D02*
X238753884Y-96379561D01*
X238753884Y-96379561D02*
X238706265Y-96189085D01*
X238706265Y-96189085D02*
X238706265Y-95855752D01*
X238706265Y-95855752D02*
X238753884Y-95665276D01*
X238753884Y-95665276D02*
X238849122Y-95570038D01*
X238849122Y-95570038D02*
X238944360Y-95522419D01*
X239801503Y-96522419D02*
X239801503Y-95522419D01*
X239801503Y-95522419D02*
X240182455Y-95522419D01*
X240182455Y-95522419D02*
X240277693Y-95570038D01*
X240277693Y-95570038D02*
X240325312Y-95617657D01*
X240325312Y-95617657D02*
X240372931Y-95712895D01*
X240372931Y-95712895D02*
X240372931Y-95855752D01*
X240372931Y-95855752D02*
X240325312Y-95950990D01*
X240325312Y-95950990D02*
X240277693Y-95998609D01*
X240277693Y-95998609D02*
X240182455Y-96046228D01*
X240182455Y-96046228D02*
X239801503Y-96046228D01*
X240801503Y-95998609D02*
X241134836Y-95998609D01*
X241277693Y-96522419D02*
X240801503Y-96522419D01*
X240801503Y-96522419D02*
X240801503Y-95522419D01*
X240801503Y-95522419D02*
X241277693Y-95522419D01*
X241706265Y-96522419D02*
X241706265Y-95522419D01*
X241706265Y-95522419D02*
X242277693Y-96522419D01*
X242277693Y-96522419D02*
X242277693Y-95522419D01*
D11*
X204754819Y-88332143D02*
X204278628Y-88665476D01*
X204754819Y-88903571D02*
X203754819Y-88903571D01*
X203754819Y-88903571D02*
X203754819Y-88522619D01*
X203754819Y-88522619D02*
X203802438Y-88427381D01*
X203802438Y-88427381D02*
X203850057Y-88379762D01*
X203850057Y-88379762D02*
X203945295Y-88332143D01*
X203945295Y-88332143D02*
X204088152Y-88332143D01*
X204088152Y-88332143D02*
X204183390Y-88379762D01*
X204183390Y-88379762D02*
X204231009Y-88427381D01*
X204231009Y-88427381D02*
X204278628Y-88522619D01*
X204278628Y-88522619D02*
X204278628Y-88903571D01*
X204088152Y-88046428D02*
X204088152Y-87665476D01*
X204754819Y-87903571D02*
X203897676Y-87903571D01*
X203897676Y-87903571D02*
X203802438Y-87855952D01*
X203802438Y-87855952D02*
X203754819Y-87760714D01*
X203754819Y-87760714D02*
X203754819Y-87665476D01*
X204754819Y-87332142D02*
X203754819Y-87332142D01*
X204135771Y-87332142D02*
X204088152Y-87236904D01*
X204088152Y-87236904D02*
X204088152Y-87046428D01*
X204088152Y-87046428D02*
X204135771Y-86951190D01*
X204135771Y-86951190D02*
X204183390Y-86903571D01*
X204183390Y-86903571D02*
X204278628Y-86855952D01*
X204278628Y-86855952D02*
X204564342Y-86855952D01*
X204564342Y-86855952D02*
X204659580Y-86903571D01*
X204659580Y-86903571D02*
X204707200Y-86951190D01*
X204707200Y-86951190D02*
X204754819Y-87046428D01*
X204754819Y-87046428D02*
X204754819Y-87236904D01*
X204754819Y-87236904D02*
X204707200Y-87332142D01*
X204754819Y-86427380D02*
X203754819Y-86427380D01*
X204135771Y-86427380D02*
X204088152Y-86332142D01*
X204088152Y-86332142D02*
X204088152Y-86141666D01*
X204088152Y-86141666D02*
X204135771Y-86046428D01*
X204135771Y-86046428D02*
X204183390Y-85998809D01*
X204183390Y-85998809D02*
X204278628Y-85951190D01*
X204278628Y-85951190D02*
X204564342Y-85951190D01*
X204564342Y-85951190D02*
X204659580Y-85998809D01*
X204659580Y-85998809D02*
X204707200Y-86046428D01*
X204707200Y-86046428D02*
X204754819Y-86141666D01*
X204754819Y-86141666D02*
X204754819Y-86332142D01*
X204754819Y-86332142D02*
X204707200Y-86427380D01*
X204754819Y-84998809D02*
X204754819Y-85570237D01*
X204754819Y-85284523D02*
X203754819Y-85284523D01*
X203754819Y-85284523D02*
X203897676Y-85379761D01*
X203897676Y-85379761D02*
X203992914Y-85474999D01*
X203992914Y-85474999D02*
X204040533Y-85570237D01*
X220113095Y-105979819D02*
X220113095Y-106789342D01*
X220113095Y-106789342D02*
X220160714Y-106884580D01*
X220160714Y-106884580D02*
X220208333Y-106932200D01*
X220208333Y-106932200D02*
X220303571Y-106979819D01*
X220303571Y-106979819D02*
X220494047Y-106979819D01*
X220494047Y-106979819D02*
X220589285Y-106932200D01*
X220589285Y-106932200D02*
X220636904Y-106884580D01*
X220636904Y-106884580D02*
X220684523Y-106789342D01*
X220684523Y-106789342D02*
X220684523Y-105979819D01*
X221065476Y-105979819D02*
X221684523Y-105979819D01*
X221684523Y-105979819D02*
X221351190Y-106360771D01*
X221351190Y-106360771D02*
X221494047Y-106360771D01*
X221494047Y-106360771D02*
X221589285Y-106408390D01*
X221589285Y-106408390D02*
X221636904Y-106456009D01*
X221636904Y-106456009D02*
X221684523Y-106551247D01*
X221684523Y-106551247D02*
X221684523Y-106789342D01*
X221684523Y-106789342D02*
X221636904Y-106884580D01*
X221636904Y-106884580D02*
X221589285Y-106932200D01*
X221589285Y-106932200D02*
X221494047Y-106979819D01*
X221494047Y-106979819D02*
X221208333Y-106979819D01*
X221208333Y-106979819D02*
X221113095Y-106932200D01*
X221113095Y-106932200D02*
X221065476Y-106884580D01*
X199762380Y-89073276D02*
X199762380Y-89591371D01*
X199762380Y-89591371D02*
X199792857Y-89652323D01*
X199792857Y-89652323D02*
X199823333Y-89682800D01*
X199823333Y-89682800D02*
X199884285Y-89713276D01*
X199884285Y-89713276D02*
X200006190Y-89713276D01*
X200006190Y-89713276D02*
X200067142Y-89682800D01*
X200067142Y-89682800D02*
X200097619Y-89652323D01*
X200097619Y-89652323D02*
X200128095Y-89591371D01*
X200128095Y-89591371D02*
X200128095Y-89073276D01*
X200768095Y-89713276D02*
X200402380Y-89713276D01*
X200585237Y-89713276D02*
X200585237Y-89073276D01*
X200585237Y-89073276D02*
X200524285Y-89164704D01*
X200524285Y-89164704D02*
X200463333Y-89225657D01*
X200463333Y-89225657D02*
X200402380Y-89256133D01*
X185366666Y-110029819D02*
X185366666Y-110744104D01*
X185366666Y-110744104D02*
X185319047Y-110886961D01*
X185319047Y-110886961D02*
X185223809Y-110982200D01*
X185223809Y-110982200D02*
X185080952Y-111029819D01*
X185080952Y-111029819D02*
X184985714Y-111029819D01*
X186271428Y-110029819D02*
X186080952Y-110029819D01*
X186080952Y-110029819D02*
X185985714Y-110077438D01*
X185985714Y-110077438D02*
X185938095Y-110125057D01*
X185938095Y-110125057D02*
X185842857Y-110267914D01*
X185842857Y-110267914D02*
X185795238Y-110458390D01*
X185795238Y-110458390D02*
X185795238Y-110839342D01*
X185795238Y-110839342D02*
X185842857Y-110934580D01*
X185842857Y-110934580D02*
X185890476Y-110982200D01*
X185890476Y-110982200D02*
X185985714Y-111029819D01*
X185985714Y-111029819D02*
X186176190Y-111029819D01*
X186176190Y-111029819D02*
X186271428Y-110982200D01*
X186271428Y-110982200D02*
X186319047Y-110934580D01*
X186319047Y-110934580D02*
X186366666Y-110839342D01*
X186366666Y-110839342D02*
X186366666Y-110601247D01*
X186366666Y-110601247D02*
X186319047Y-110506009D01*
X186319047Y-110506009D02*
X186271428Y-110458390D01*
X186271428Y-110458390D02*
X186176190Y-110410771D01*
X186176190Y-110410771D02*
X185985714Y-110410771D01*
X185985714Y-110410771D02*
X185890476Y-110458390D01*
X185890476Y-110458390D02*
X185842857Y-110506009D01*
X185842857Y-110506009D02*
X185795238Y-110601247D01*
X198888333Y-112454819D02*
X198555000Y-111978628D01*
X198316905Y-112454819D02*
X198316905Y-111454819D01*
X198316905Y-111454819D02*
X198697857Y-111454819D01*
X198697857Y-111454819D02*
X198793095Y-111502438D01*
X198793095Y-111502438D02*
X198840714Y-111550057D01*
X198840714Y-111550057D02*
X198888333Y-111645295D01*
X198888333Y-111645295D02*
X198888333Y-111788152D01*
X198888333Y-111788152D02*
X198840714Y-111883390D01*
X198840714Y-111883390D02*
X198793095Y-111931009D01*
X198793095Y-111931009D02*
X198697857Y-111978628D01*
X198697857Y-111978628D02*
X198316905Y-111978628D01*
X199459762Y-111883390D02*
X199364524Y-111835771D01*
X199364524Y-111835771D02*
X199316905Y-111788152D01*
X199316905Y-111788152D02*
X199269286Y-111692914D01*
X199269286Y-111692914D02*
X199269286Y-111645295D01*
X199269286Y-111645295D02*
X199316905Y-111550057D01*
X199316905Y-111550057D02*
X199364524Y-111502438D01*
X199364524Y-111502438D02*
X199459762Y-111454819D01*
X199459762Y-111454819D02*
X199650238Y-111454819D01*
X199650238Y-111454819D02*
X199745476Y-111502438D01*
X199745476Y-111502438D02*
X199793095Y-111550057D01*
X199793095Y-111550057D02*
X199840714Y-111645295D01*
X199840714Y-111645295D02*
X199840714Y-111692914D01*
X199840714Y-111692914D02*
X199793095Y-111788152D01*
X199793095Y-111788152D02*
X199745476Y-111835771D01*
X199745476Y-111835771D02*
X199650238Y-111883390D01*
X199650238Y-111883390D02*
X199459762Y-111883390D01*
X199459762Y-111883390D02*
X199364524Y-111931009D01*
X199364524Y-111931009D02*
X199316905Y-111978628D01*
X199316905Y-111978628D02*
X199269286Y-112073866D01*
X199269286Y-112073866D02*
X199269286Y-112264342D01*
X199269286Y-112264342D02*
X199316905Y-112359580D01*
X199316905Y-112359580D02*
X199364524Y-112407200D01*
X199364524Y-112407200D02*
X199459762Y-112454819D01*
X199459762Y-112454819D02*
X199650238Y-112454819D01*
X199650238Y-112454819D02*
X199745476Y-112407200D01*
X199745476Y-112407200D02*
X199793095Y-112359580D01*
X199793095Y-112359580D02*
X199840714Y-112264342D01*
X199840714Y-112264342D02*
X199840714Y-112073866D01*
X199840714Y-112073866D02*
X199793095Y-111978628D01*
X199793095Y-111978628D02*
X199745476Y-111931009D01*
X199745476Y-111931009D02*
X199650238Y-111883390D01*
D10*
X241392580Y-104913095D02*
X240583057Y-104913095D01*
X240583057Y-104913095D02*
X240487819Y-104960714D01*
X240487819Y-104960714D02*
X240440200Y-105008333D01*
X240440200Y-105008333D02*
X240392580Y-105103571D01*
X240392580Y-105103571D02*
X240392580Y-105294047D01*
X240392580Y-105294047D02*
X240440200Y-105389285D01*
X240440200Y-105389285D02*
X240487819Y-105436904D01*
X240487819Y-105436904D02*
X240583057Y-105484523D01*
X240583057Y-105484523D02*
X241392580Y-105484523D01*
X241392580Y-105865476D02*
X241392580Y-106532142D01*
X241392580Y-106532142D02*
X240392580Y-106103571D01*
X227536027Y-100947419D02*
X227869360Y-101947419D01*
X227869360Y-101947419D02*
X228202693Y-100947419D01*
X229107455Y-101852180D02*
X229059836Y-101899800D01*
X229059836Y-101899800D02*
X228916979Y-101947419D01*
X228916979Y-101947419D02*
X228821741Y-101947419D01*
X228821741Y-101947419D02*
X228678884Y-101899800D01*
X228678884Y-101899800D02*
X228583646Y-101804561D01*
X228583646Y-101804561D02*
X228536027Y-101709323D01*
X228536027Y-101709323D02*
X228488408Y-101518847D01*
X228488408Y-101518847D02*
X228488408Y-101375990D01*
X228488408Y-101375990D02*
X228536027Y-101185514D01*
X228536027Y-101185514D02*
X228583646Y-101090276D01*
X228583646Y-101090276D02*
X228678884Y-100995038D01*
X228678884Y-100995038D02*
X228821741Y-100947419D01*
X228821741Y-100947419D02*
X228916979Y-100947419D01*
X228916979Y-100947419D02*
X229059836Y-100995038D01*
X229059836Y-100995038D02*
X229107455Y-101042657D01*
X230107455Y-101852180D02*
X230059836Y-101899800D01*
X230059836Y-101899800D02*
X229916979Y-101947419D01*
X229916979Y-101947419D02*
X229821741Y-101947419D01*
X229821741Y-101947419D02*
X229678884Y-101899800D01*
X229678884Y-101899800D02*
X229583646Y-101804561D01*
X229583646Y-101804561D02*
X229536027Y-101709323D01*
X229536027Y-101709323D02*
X229488408Y-101518847D01*
X229488408Y-101518847D02*
X229488408Y-101375990D01*
X229488408Y-101375990D02*
X229536027Y-101185514D01*
X229536027Y-101185514D02*
X229583646Y-101090276D01*
X229583646Y-101090276D02*
X229678884Y-100995038D01*
X229678884Y-100995038D02*
X229821741Y-100947419D01*
X229821741Y-100947419D02*
X229916979Y-100947419D01*
X229916979Y-100947419D02*
X230059836Y-100995038D01*
X230059836Y-100995038D02*
X230107455Y-101042657D01*
X232406265Y-110724800D02*
X232549122Y-110772419D01*
X232549122Y-110772419D02*
X232787217Y-110772419D01*
X232787217Y-110772419D02*
X232882455Y-110724800D01*
X232882455Y-110724800D02*
X232930074Y-110677180D01*
X232930074Y-110677180D02*
X232977693Y-110581942D01*
X232977693Y-110581942D02*
X232977693Y-110486704D01*
X232977693Y-110486704D02*
X232930074Y-110391466D01*
X232930074Y-110391466D02*
X232882455Y-110343847D01*
X232882455Y-110343847D02*
X232787217Y-110296228D01*
X232787217Y-110296228D02*
X232596741Y-110248609D01*
X232596741Y-110248609D02*
X232501503Y-110200990D01*
X232501503Y-110200990D02*
X232453884Y-110153371D01*
X232453884Y-110153371D02*
X232406265Y-110058133D01*
X232406265Y-110058133D02*
X232406265Y-109962895D01*
X232406265Y-109962895D02*
X232453884Y-109867657D01*
X232453884Y-109867657D02*
X232501503Y-109820038D01*
X232501503Y-109820038D02*
X232596741Y-109772419D01*
X232596741Y-109772419D02*
X232834836Y-109772419D01*
X232834836Y-109772419D02*
X232977693Y-109820038D01*
X233406265Y-110772419D02*
X233406265Y-109772419D01*
X233406265Y-109772419D02*
X233644360Y-109772419D01*
X233644360Y-109772419D02*
X233787217Y-109820038D01*
X233787217Y-109820038D02*
X233882455Y-109915276D01*
X233882455Y-109915276D02*
X233930074Y-110010514D01*
X233930074Y-110010514D02*
X233977693Y-110200990D01*
X233977693Y-110200990D02*
X233977693Y-110343847D01*
X233977693Y-110343847D02*
X233930074Y-110534323D01*
X233930074Y-110534323D02*
X233882455Y-110629561D01*
X233882455Y-110629561D02*
X233787217Y-110724800D01*
X233787217Y-110724800D02*
X233644360Y-110772419D01*
X233644360Y-110772419D02*
X233406265Y-110772419D01*
X234358646Y-110486704D02*
X234834836Y-110486704D01*
X234263408Y-110772419D02*
X234596741Y-109772419D01*
X234596741Y-109772419D02*
X234930074Y-110772419D01*
X228377693Y-103520038D02*
X228282455Y-103472419D01*
X228282455Y-103472419D02*
X228139598Y-103472419D01*
X228139598Y-103472419D02*
X227996741Y-103520038D01*
X227996741Y-103520038D02*
X227901503Y-103615276D01*
X227901503Y-103615276D02*
X227853884Y-103710514D01*
X227853884Y-103710514D02*
X227806265Y-103900990D01*
X227806265Y-103900990D02*
X227806265Y-104043847D01*
X227806265Y-104043847D02*
X227853884Y-104234323D01*
X227853884Y-104234323D02*
X227901503Y-104329561D01*
X227901503Y-104329561D02*
X227996741Y-104424800D01*
X227996741Y-104424800D02*
X228139598Y-104472419D01*
X228139598Y-104472419D02*
X228234836Y-104472419D01*
X228234836Y-104472419D02*
X228377693Y-104424800D01*
X228377693Y-104424800D02*
X228425312Y-104377180D01*
X228425312Y-104377180D02*
X228425312Y-104043847D01*
X228425312Y-104043847D02*
X228234836Y-104043847D01*
X228853884Y-104472419D02*
X228853884Y-103472419D01*
X228853884Y-103472419D02*
X229425312Y-104472419D01*
X229425312Y-104472419D02*
X229425312Y-103472419D01*
X229901503Y-104472419D02*
X229901503Y-103472419D01*
X229901503Y-103472419D02*
X230139598Y-103472419D01*
X230139598Y-103472419D02*
X230282455Y-103520038D01*
X230282455Y-103520038D02*
X230377693Y-103615276D01*
X230377693Y-103615276D02*
X230425312Y-103710514D01*
X230425312Y-103710514D02*
X230472931Y-103900990D01*
X230472931Y-103900990D02*
X230472931Y-104043847D01*
X230472931Y-104043847D02*
X230425312Y-104234323D01*
X230425312Y-104234323D02*
X230377693Y-104329561D01*
X230377693Y-104329561D02*
X230282455Y-104424800D01*
X230282455Y-104424800D02*
X230139598Y-104472419D01*
X230139598Y-104472419D02*
X229901503Y-104472419D01*
X232131265Y-108399800D02*
X232274122Y-108447419D01*
X232274122Y-108447419D02*
X232512217Y-108447419D01*
X232512217Y-108447419D02*
X232607455Y-108399800D01*
X232607455Y-108399800D02*
X232655074Y-108352180D01*
X232655074Y-108352180D02*
X232702693Y-108256942D01*
X232702693Y-108256942D02*
X232702693Y-108161704D01*
X232702693Y-108161704D02*
X232655074Y-108066466D01*
X232655074Y-108066466D02*
X232607455Y-108018847D01*
X232607455Y-108018847D02*
X232512217Y-107971228D01*
X232512217Y-107971228D02*
X232321741Y-107923609D01*
X232321741Y-107923609D02*
X232226503Y-107875990D01*
X232226503Y-107875990D02*
X232178884Y-107828371D01*
X232178884Y-107828371D02*
X232131265Y-107733133D01*
X232131265Y-107733133D02*
X232131265Y-107637895D01*
X232131265Y-107637895D02*
X232178884Y-107542657D01*
X232178884Y-107542657D02*
X232226503Y-107495038D01*
X232226503Y-107495038D02*
X232321741Y-107447419D01*
X232321741Y-107447419D02*
X232559836Y-107447419D01*
X232559836Y-107447419D02*
X232702693Y-107495038D01*
X233702693Y-108352180D02*
X233655074Y-108399800D01*
X233655074Y-108399800D02*
X233512217Y-108447419D01*
X233512217Y-108447419D02*
X233416979Y-108447419D01*
X233416979Y-108447419D02*
X233274122Y-108399800D01*
X233274122Y-108399800D02*
X233178884Y-108304561D01*
X233178884Y-108304561D02*
X233131265Y-108209323D01*
X233131265Y-108209323D02*
X233083646Y-108018847D01*
X233083646Y-108018847D02*
X233083646Y-107875990D01*
X233083646Y-107875990D02*
X233131265Y-107685514D01*
X233131265Y-107685514D02*
X233178884Y-107590276D01*
X233178884Y-107590276D02*
X233274122Y-107495038D01*
X233274122Y-107495038D02*
X233416979Y-107447419D01*
X233416979Y-107447419D02*
X233512217Y-107447419D01*
X233512217Y-107447419D02*
X233655074Y-107495038D01*
X233655074Y-107495038D02*
X233702693Y-107542657D01*
X234607455Y-108447419D02*
X234131265Y-108447419D01*
X234131265Y-108447419D02*
X234131265Y-107447419D01*
D14*
X238376600Y-102733082D02*
X238305171Y-102947368D01*
X238305171Y-102947368D02*
X238305171Y-103304510D01*
X238305171Y-103304510D02*
X238376600Y-103447368D01*
X238376600Y-103447368D02*
X238448028Y-103518796D01*
X238448028Y-103518796D02*
X238590885Y-103590225D01*
X238590885Y-103590225D02*
X238733742Y-103590225D01*
X238733742Y-103590225D02*
X238876600Y-103518796D01*
X238876600Y-103518796D02*
X238948028Y-103447368D01*
X238948028Y-103447368D02*
X239019457Y-103304510D01*
X239019457Y-103304510D02*
X239090885Y-103018796D01*
X239090885Y-103018796D02*
X239162314Y-102875939D01*
X239162314Y-102875939D02*
X239233742Y-102804510D01*
X239233742Y-102804510D02*
X239376600Y-102733082D01*
X239376600Y-102733082D02*
X239519457Y-102733082D01*
X239519457Y-102733082D02*
X239662314Y-102804510D01*
X239662314Y-102804510D02*
X239733742Y-102875939D01*
X239733742Y-102875939D02*
X239805171Y-103018796D01*
X239805171Y-103018796D02*
X239805171Y-103375939D01*
X239805171Y-103375939D02*
X239733742Y-103590225D01*
X238305171Y-104233081D02*
X239805171Y-104233081D01*
X239090885Y-104233081D02*
X239090885Y-105090224D01*
X238305171Y-105090224D02*
X239805171Y-105090224D01*
X239805171Y-105590225D02*
X239805171Y-106447368D01*
X238305171Y-106018796D02*
X239805171Y-106018796D01*
X239805171Y-106804510D02*
X239805171Y-107733082D01*
X239805171Y-107733082D02*
X239233742Y-107233082D01*
X239233742Y-107233082D02*
X239233742Y-107447367D01*
X239233742Y-107447367D02*
X239162314Y-107590225D01*
X239162314Y-107590225D02*
X239090885Y-107661653D01*
X239090885Y-107661653D02*
X238948028Y-107733082D01*
X238948028Y-107733082D02*
X238590885Y-107733082D01*
X238590885Y-107733082D02*
X238448028Y-107661653D01*
X238448028Y-107661653D02*
X238376600Y-107590225D01*
X238376600Y-107590225D02*
X238305171Y-107447367D01*
X238305171Y-107447367D02*
X238305171Y-107018796D01*
X238305171Y-107018796D02*
X238376600Y-106875939D01*
X238376600Y-106875939D02*
X238448028Y-106804510D01*
X238305171Y-109161653D02*
X238305171Y-108304510D01*
X238305171Y-108733081D02*
X239805171Y-108733081D01*
X239805171Y-108733081D02*
X239590885Y-108590224D01*
X239590885Y-108590224D02*
X239448028Y-108447367D01*
X239448028Y-108447367D02*
X239376600Y-108304510D01*
D15*
%TO.C,Cin1*%
X191840000Y-92211252D02*
X191840000Y-90788748D01*
X193660000Y-92211252D02*
X193660000Y-90788748D01*
%TO.C,F1*%
X186490000Y-91952064D02*
X186490000Y-90747936D01*
X188310000Y-91952064D02*
X188310000Y-90747936D01*
%TO.C,R3*%
X196486237Y-107295000D02*
X195038763Y-107295000D01*
X196486237Y-110005000D02*
X195038763Y-110005000D01*
D12*
%TO.C,L1*%
X207050000Y-87550000D02*
X213850000Y-87550000D01*
X207050000Y-89350000D02*
X207050000Y-87550000D01*
X207050000Y-94350000D02*
X207050000Y-92550000D01*
X207050000Y-94350000D02*
X213850000Y-94350000D01*
X213850000Y-89350000D02*
X213850000Y-87550000D01*
X213850000Y-94350000D02*
X213850000Y-92550000D01*
D15*
%TO.C,R15*%
X211590000Y-116652064D02*
X211590000Y-115197936D01*
X213410000Y-116652064D02*
X213410000Y-115197936D01*
%TO.C,R7*%
X180910000Y-112400000D02*
X183560000Y-112400000D01*
X180910000Y-116700000D02*
X183560000Y-116700000D01*
X180910000Y-116700000D02*
G75*
G02*
X180884524Y-112415612I1300000J2150000D01*
G01*
X183560000Y-112400000D02*
G75*
G02*
X183588027Y-116682145I-1350000J-2150000D01*
G01*
D16*
%TO.C,Q1*%
X234685500Y-105508139D02*
X234685500Y-106191861D01*
X234685500Y-107427000D02*
X236489500Y-107427000D01*
X236489500Y-104273000D02*
X234685500Y-104273000D01*
X236489500Y-105241860D02*
X236489500Y-104273000D01*
X236489500Y-107427000D02*
X236489500Y-106458140D01*
D15*
%TO.C,Rfbt1*%
X200764564Y-93940000D02*
X199310436Y-93940000D01*
X200764564Y-95760000D02*
X199310436Y-95760000D01*
%TO.C,C5*%
X208011252Y-95640000D02*
X206588748Y-95640000D01*
X208011252Y-97460000D02*
X206588748Y-97460000D01*
%TO.C,R9*%
X198710000Y-96700000D02*
X201360000Y-96700000D01*
X198710000Y-101000000D02*
X201360000Y-101000000D01*
X198710000Y-101000000D02*
G75*
G02*
X198684524Y-96715612I1300000J2150000D01*
G01*
X201360000Y-96700000D02*
G75*
G02*
X201388027Y-100982145I-1350000J-2150000D01*
G01*
%TO.C,R5*%
X186290000Y-107377064D02*
X186290000Y-105922936D01*
X188110000Y-107377064D02*
X188110000Y-105922936D01*
%TO.C,R4*%
X196486237Y-103645000D02*
X195038763Y-103645000D01*
X196486237Y-106355000D02*
X195038763Y-106355000D01*
%TO.C,J5*%
X217245000Y-118530000D02*
X217245000Y-117200000D01*
X218575000Y-118530000D02*
X217245000Y-118530000D01*
X219845000Y-115870000D02*
X224985000Y-115870000D01*
X219845000Y-118530000D02*
X219845000Y-115870000D01*
X219845000Y-118530000D02*
X224985000Y-118530000D01*
X224985000Y-118530000D02*
X224985000Y-115870000D01*
%TO.C,J1*%
X244915000Y-100285000D02*
X244915000Y-110445000D01*
X244915000Y-110445000D02*
X252535000Y-110445000D01*
X251265000Y-100285000D02*
X251265000Y-110445000D01*
X252535000Y-100285000D02*
X244915000Y-100285000D01*
X252535000Y-110445000D02*
X252535000Y-100285000D01*
%TO.C,D2*%
X222050000Y-89990000D02*
X222050000Y-94000000D01*
X224050000Y-89990000D02*
X222050000Y-89990000D01*
X224050000Y-89990000D02*
X224050000Y-94000000D01*
%TO.C,Cout1*%
X216490000Y-91861252D02*
X216490000Y-90438748D01*
X218310000Y-91861252D02*
X218310000Y-90438748D01*
%TO.C,R16*%
X213727064Y-95690000D02*
X212272936Y-95690000D01*
X213727064Y-97510000D02*
X212272936Y-97510000D01*
%TO.C,J4*%
X169130000Y-85305000D02*
X169130000Y-94545000D01*
X169130000Y-94545000D02*
X177250000Y-94545000D01*
X182650000Y-94545000D02*
X183870000Y-94545000D01*
X183870000Y-85305000D02*
X169130000Y-85305000D01*
X183870000Y-86975000D02*
X183870000Y-85305000D01*
X183870000Y-94545000D02*
X183870000Y-92875000D01*
%TO.C,Cin2*%
X194940000Y-92173752D02*
X194940000Y-90751248D01*
X196760000Y-92173752D02*
X196760000Y-90751248D01*
D11*
%TO.C,U5*%
X202925000Y-103325000D02*
X202925000Y-103550000D01*
X202925000Y-103325000D02*
X203250000Y-103325000D01*
X202925000Y-110575000D02*
X202925000Y-110250000D01*
X202925000Y-110575000D02*
X203250000Y-110575000D01*
X210175000Y-103325000D02*
X209850000Y-103325000D01*
X210175000Y-103325000D02*
X210175000Y-103650000D01*
X210175000Y-110575000D02*
X209850000Y-110575000D01*
X210175000Y-110575000D02*
X210175000Y-110250000D01*
D15*
X202160000Y-103610000D02*
X201820000Y-103140000D01*
X202500000Y-103140000D01*
X202160000Y-103610000D01*
G36*
X202160000Y-103610000D02*
G01*
X201820000Y-103140000D01*
X202500000Y-103140000D01*
X202160000Y-103610000D01*
G37*
%TO.C,D1*%
X191012500Y-105140000D02*
X190362500Y-105140000D01*
X191012500Y-105140000D02*
X191662500Y-105140000D01*
X191012500Y-108260000D02*
X190362500Y-108260000D01*
X191012500Y-108260000D02*
X191662500Y-108260000D01*
X189850000Y-105190000D02*
X189610000Y-104860000D01*
X190090000Y-104860000D01*
X189850000Y-105190000D01*
G36*
X189850000Y-105190000D02*
G01*
X189610000Y-104860000D01*
X190090000Y-104860000D01*
X189850000Y-105190000D01*
G37*
%TO.C,Cbst1*%
X199626248Y-86990000D02*
X201048752Y-86990000D01*
X199626248Y-88810000D02*
X201048752Y-88810000D01*
%TO.C,J3*%
X186670000Y-118605000D02*
X186670000Y-117275000D01*
X188000000Y-118605000D02*
X186670000Y-118605000D01*
X189270000Y-115945000D02*
X194410000Y-115945000D01*
X189270000Y-118605000D02*
X189270000Y-115945000D01*
X189270000Y-118605000D02*
X194410000Y-118605000D01*
X194410000Y-118605000D02*
X194410000Y-115945000D01*
%TO.C,D3*%
X216870000Y-95864000D02*
X216870000Y-96020000D01*
X216870000Y-98180000D02*
X216870000Y-98336000D01*
X216870000Y-95864484D02*
G75*
G02*
X220102335Y-96021392I1560000J-1235516D01*
G01*
X217389039Y-96020000D02*
G75*
G02*
X219471130Y-96020163I1040961J-1080000D01*
G01*
X219471130Y-98179837D02*
G75*
G02*
X217389039Y-98180000I-1041130J1079837D01*
G01*
X220102335Y-98178608D02*
G75*
G02*
X216870000Y-98335516I-1672335J1078608D01*
G01*
%TO.C,J9*%
X169790000Y-98440000D02*
X169790000Y-118660000D01*
X176250000Y-98200000D02*
X179250000Y-98200000D01*
X179010000Y-98440000D02*
X169790000Y-98440000D01*
X179010000Y-98440000D02*
X179010000Y-118660000D01*
X179010000Y-118660000D02*
X169790000Y-118660000D01*
X179250000Y-98200000D02*
X179250000Y-101200000D01*
%TO.C,U6*%
X208225000Y-115265000D02*
X205725000Y-115265000D01*
X208225000Y-117985000D02*
X205725000Y-117985000D01*
X208625000Y-117955000D02*
X208625000Y-117675000D01*
X208905000Y-117675000D01*
X208625000Y-117955000D01*
G36*
X208625000Y-117955000D02*
G01*
X208625000Y-117675000D01*
X208905000Y-117675000D01*
X208625000Y-117955000D01*
G37*
%TO.C,R14*%
X214615000Y-116702064D02*
X214615000Y-115247936D01*
X216435000Y-116702064D02*
X216435000Y-115247936D01*
%TO.C,J2*%
X244890000Y-89180000D02*
X244890000Y-99340000D01*
X244890000Y-99340000D02*
X252510000Y-99340000D01*
X246160000Y-99340000D02*
X246160000Y-89180000D01*
X252510000Y-89180000D02*
X244890000Y-89180000D01*
X252510000Y-99340000D02*
X252510000Y-89180000D01*
D10*
%TO.C,U8*%
X228606000Y-125225000D02*
X253606000Y-125225000D01*
X253606000Y-112225000D02*
X228606000Y-112225000D01*
X253606000Y-125225000D02*
X253606000Y-112225000D01*
D15*
%TO.C,J8*%
X218505000Y-122330000D02*
X218505000Y-121000000D01*
X219835000Y-122330000D02*
X218505000Y-122330000D01*
X221105000Y-119670000D02*
X223705000Y-119670000D01*
X221105000Y-122330000D02*
X221105000Y-119670000D01*
X221105000Y-122330000D02*
X223705000Y-122330000D01*
X223705000Y-122330000D02*
X223705000Y-119670000D01*
%TO.C,C4*%
X202740000Y-115788748D02*
X202740000Y-117211252D01*
X204560000Y-115788748D02*
X204560000Y-117211252D01*
%TO.C,J7*%
X227145000Y-108055000D02*
X227145000Y-105455000D01*
X229805000Y-105455000D02*
X227145000Y-105455000D01*
X229805000Y-108055000D02*
X227145000Y-108055000D01*
X229805000Y-108055000D02*
X229805000Y-105455000D01*
X229805000Y-109325000D02*
X229805000Y-110655000D01*
X229805000Y-110655000D02*
X228475000Y-110655000D01*
%TO.C,R6*%
X182810000Y-96550000D02*
X185460000Y-96550000D01*
X182810000Y-100850000D02*
X185460000Y-100850000D01*
X182810000Y-100850000D02*
G75*
G02*
X182784524Y-96565612I1300000J2150000D01*
G01*
X185460000Y-96550000D02*
G75*
G02*
X185488027Y-100832145I-1350000J-2150000D01*
G01*
D10*
%TO.C,K1*%
X224950000Y-83950000D02*
X224950000Y-99350000D01*
X224950000Y-83950000D02*
X243950000Y-83950000D01*
X224950000Y-99350000D02*
X243950000Y-99350000D01*
X227450000Y-91650000D02*
X238450000Y-91650000D01*
X229450000Y-85650000D02*
X231450000Y-85650000D01*
X229450000Y-97650000D02*
X231450000Y-97650000D01*
X231450000Y-85650000D02*
X231450000Y-87650000D01*
X231450000Y-95287111D02*
X231450000Y-95650000D01*
X231450000Y-97650000D02*
X231450000Y-95650000D01*
X238450000Y-91650000D02*
X242450000Y-88650000D01*
X243950000Y-83950000D02*
X243950000Y-99350000D01*
X230473179Y-91126821D02*
G75*
G02*
X230665325Y-93327013I976821J-1023179D01*
G01*
X230555573Y-89097214D02*
G75*
G02*
X230473179Y-91126821I894427J-1052786D01*
G01*
X230665325Y-93327013D02*
G75*
G02*
X231450000Y-95287111I784675J-822987D01*
G01*
X231450000Y-87650000D02*
G75*
G02*
X230555573Y-89097214I0J-1000000D01*
G01*
D15*
%TO.C,Rfbb1*%
X203390000Y-92314564D02*
X203390000Y-90860436D01*
X205210000Y-92314564D02*
X205210000Y-90860436D01*
%TO.C,U3*%
X217890000Y-101305000D02*
X217890000Y-101510000D01*
X217890000Y-111725000D02*
X217890000Y-111520000D01*
X220650000Y-101305000D02*
X217890000Y-101305000D01*
X220650000Y-101305000D02*
X223410000Y-101305000D01*
X220650000Y-111725000D02*
X217890000Y-111725000D01*
X220650000Y-111725000D02*
X223410000Y-111725000D01*
X223410000Y-101305000D02*
X223410000Y-101510000D01*
X223410000Y-111725000D02*
X223410000Y-111520000D01*
X217100000Y-101510000D02*
X216860000Y-101180000D01*
X217340000Y-101180000D01*
X217100000Y-101510000D01*
G36*
X217100000Y-101510000D02*
G01*
X216860000Y-101180000D01*
X217340000Y-101180000D01*
X217100000Y-101510000D01*
G37*
D17*
%TO.C,U1*%
X199395000Y-89985000D02*
X200995000Y-89985000D01*
X199395000Y-93115000D02*
X200995000Y-93115000D01*
D12*
X197895000Y-90350000D02*
G75*
G02*
X197695000Y-90350000I-100000J0D01*
G01*
X197695000Y-90350000D02*
G75*
G02*
X197895000Y-90350000I100000J0D01*
G01*
D15*
%TO.C,J6*%
X185550000Y-114805000D02*
X185550000Y-113475000D01*
X186880000Y-114805000D02*
X185550000Y-114805000D01*
X188150000Y-112145000D02*
X195830000Y-112145000D01*
X188150000Y-114805000D02*
X188150000Y-112145000D01*
X188150000Y-114805000D02*
X195830000Y-114805000D01*
X195830000Y-114805000D02*
X195830000Y-112145000D01*
%TO.C,R8*%
X197735000Y-112750000D02*
X200385000Y-112750000D01*
X197735000Y-117050000D02*
X200385000Y-117050000D01*
X197735000Y-117050000D02*
G75*
G02*
X197709524Y-112765612I1300000J2150000D01*
G01*
X200385000Y-112750000D02*
G75*
G02*
X200413027Y-117032145I-1350000J-2150000D01*
G01*
D10*
%TO.C,U7*%
X231606000Y-100250000D02*
X241606000Y-100250000D01*
X241606000Y-111250000D02*
X231606000Y-111250000D01*
X243606000Y-100250000D02*
X241606000Y-100250000D01*
X243606000Y-100250000D02*
X243606000Y-111250000D01*
X243606000Y-111250000D02*
X241606000Y-111250000D01*
%TD*%
M02*
