M48
; DRILL file {KiCad 8.0.3} date 2024-10-20T16:04:08+0300
; FORMAT={-:-/ absolute / inch / decimal}
; #@! TF.CreationDate,2024-10-20T16:04:08+03:00
; #@! TF.GenerationSoftware,Kicad,Pcbnew,8.0.3
; #@! TF.FileFunction,Plated,1,2,PTH
FMAT,2
INCH
; #@! TA.AperFunction,Plated,PTH,ViaDrill
T1C0.0118
; #@! TA.AperFunction,Plated,PTH,ComponentDrill
T2C0.0315
; #@! TA.AperFunction,Plated,PTH,ComponentDrill
T3C0.0354
; #@! TA.AperFunction,Plated,PTH,ComponentDrill
T4C0.0394
; #@! TA.AperFunction,Plated,PTH,ComponentDrill
T5C0.0512
; #@! TA.AperFunction,Plated,PTH,ComponentDrill
T6C0.0598
%
G90
G05
T1
X7.0994Y-3.5955
X7.1644Y-4.1624
X7.3002Y-4.0561
X7.4232Y-4.061
X7.437Y-3.7421
X7.5955Y-3.8002
X7.6978Y-3.8632
X7.7717Y-3.5866
X7.8324Y-4.2192
X7.8337Y-4.1447
X7.8809Y-4.3199
X7.9705Y-4.4163
X7.9754Y-4.4656
X8.0207Y-3.8159
X8.0492Y-3.6063
X8.0927Y-4.2468
X8.0945Y-4.1535
X8.1083Y-3.8622
X8.1277Y-3.9506
X8.198Y-3.871
X8.2028Y-3.9459
X8.2037Y-4.4685
X8.2083Y-4.0945
X8.2461Y-4.1028
X8.2692Y-3.9916
X8.3258Y-3.8051
X8.3465Y-4.3632
X8.3898Y-4.4055
X8.4144Y-4.3202
X8.4144Y-4.3614
X8.4399Y-4.2439
X8.4656Y-4.4016
X8.499Y-4.5581
X8.5812Y-3.8912
X8.6388Y-4.1526
X8.6762Y-4.5229
X8.7195Y-4.0236
X8.7411Y-4.5276
X8.751Y-4.6821
X9.1791Y-4.0778
X9.2244Y-4.7087
T2
X7.1244Y-4.5098
X7.1992Y-3.8858
X7.2244Y-4.5098
X7.2992Y-3.8858
X7.7868Y-4.5236
X7.8252Y-3.8917
X7.8868Y-4.5236
X7.9252Y-3.8917
T3
X8.5496Y-3.8228
X8.6496Y-3.8228
T4
X7.3575Y-4.4675
X7.4016Y-4.6171
X7.4575Y-4.4675
X7.5016Y-4.6171
X7.5575Y-4.4675
X7.6016Y-4.6171
X7.6575Y-4.4675
X8.6053Y-4.6142
X8.6549Y-4.7638
X8.7053Y-4.6142
X8.7549Y-4.7638
X8.8053Y-4.6142
X8.9114Y-3.6083
X8.9902Y-3.372
X8.9902Y-3.8445
X8.9951Y-4.2041
X8.9951Y-4.3041
X9.0002Y-4.4726
X9.0002Y-4.5726
X9.0002Y-4.6726
X9.0002Y-4.7726
X9.0002Y-4.8726
X9.1183Y-4.0059
X9.1183Y-4.1059
X9.1183Y-4.2059
X9.1183Y-4.3059
X9.4705Y-3.8445
T5
X6.8465Y-3.9783
X6.8465Y-4.1752
X6.8465Y-4.372
X6.8465Y-4.5689
T6
X9.7913Y-3.611
X9.7913Y-3.811
X9.7923Y-4.0482
X9.7923Y-4.2482
T4
G00X6.9665Y-3.501
M15
G01X6.9665Y-3.5797
M16
G05
G00X7.0453Y-3.7254
M15
G01X7.124Y-3.7254
M16
G05
G00X7.2106Y-3.4911
M15
G01X7.2106Y-3.5896
M16
G05
M30
