%TF.GenerationSoftware,KiCad,Pcbnew,8.0.3*%
%TF.CreationDate,2024-10-20T16:03:45+03:00*%
%TF.ProjectId,SmartPot,536d6172-7450-46f7-942e-6b696361645f,rev?*%
%TF.SameCoordinates,Original*%
%TF.FileFunction,AssemblyDrawing,Bot*%
%FSLAX46Y46*%
G04 Gerber Fmt 4.6, Leading zero omitted, Abs format (unit mm)*
G04 Created by KiCad (PCBNEW 8.0.3) date 2024-10-20 16:03:45*
%MOMM*%
%LPD*%
G01*
G04 APERTURE LIST*
%ADD10C,0.150000*%
%ADD11C,0.120000*%
%ADD12C,0.100000*%
G04 APERTURE END LIST*
D10*
X209000595Y-100534819D02*
X209572023Y-100534819D01*
X209286309Y-100534819D02*
X209286309Y-99534819D01*
X209286309Y-99534819D02*
X209381547Y-99677676D01*
X209381547Y-99677676D02*
X209476785Y-99772914D01*
X209476785Y-99772914D02*
X209572023Y-99820533D01*
X208381547Y-99534819D02*
X208286309Y-99534819D01*
X208286309Y-99534819D02*
X208191071Y-99582438D01*
X208191071Y-99582438D02*
X208143452Y-99630057D01*
X208143452Y-99630057D02*
X208095833Y-99725295D01*
X208095833Y-99725295D02*
X208048214Y-99915771D01*
X208048214Y-99915771D02*
X208048214Y-100153866D01*
X208048214Y-100153866D02*
X208095833Y-100344342D01*
X208095833Y-100344342D02*
X208143452Y-100439580D01*
X208143452Y-100439580D02*
X208191071Y-100487200D01*
X208191071Y-100487200D02*
X208286309Y-100534819D01*
X208286309Y-100534819D02*
X208381547Y-100534819D01*
X208381547Y-100534819D02*
X208476785Y-100487200D01*
X208476785Y-100487200D02*
X208524404Y-100439580D01*
X208524404Y-100439580D02*
X208572023Y-100344342D01*
X208572023Y-100344342D02*
X208619642Y-100153866D01*
X208619642Y-100153866D02*
X208619642Y-99915771D01*
X208619642Y-99915771D02*
X208572023Y-99725295D01*
X208572023Y-99725295D02*
X208524404Y-99630057D01*
X208524404Y-99630057D02*
X208476785Y-99582438D01*
X208476785Y-99582438D02*
X208381547Y-99534819D01*
X207619642Y-100534819D02*
X207619642Y-99534819D01*
X207524404Y-100153866D02*
X207238690Y-100534819D01*
X207238690Y-99868152D02*
X207619642Y-100249104D01*
X206619642Y-99534819D02*
X206429166Y-99534819D01*
X206429166Y-99534819D02*
X206333928Y-99582438D01*
X206333928Y-99582438D02*
X206238690Y-99677676D01*
X206238690Y-99677676D02*
X206191071Y-99868152D01*
X206191071Y-99868152D02*
X206191071Y-100201485D01*
X206191071Y-100201485D02*
X206238690Y-100391961D01*
X206238690Y-100391961D02*
X206333928Y-100487200D01*
X206333928Y-100487200D02*
X206429166Y-100534819D01*
X206429166Y-100534819D02*
X206619642Y-100534819D01*
X206619642Y-100534819D02*
X206714880Y-100487200D01*
X206714880Y-100487200D02*
X206810118Y-100391961D01*
X206810118Y-100391961D02*
X206857737Y-100201485D01*
X206857737Y-100201485D02*
X206857737Y-99868152D01*
X206857737Y-99868152D02*
X206810118Y-99677676D01*
X206810118Y-99677676D02*
X206714880Y-99582438D01*
X206714880Y-99582438D02*
X206619642Y-99534819D01*
X205762499Y-100534819D02*
X205762499Y-99534819D01*
X205333928Y-100534819D02*
X205333928Y-100011009D01*
X205333928Y-100011009D02*
X205381547Y-99915771D01*
X205381547Y-99915771D02*
X205476785Y-99868152D01*
X205476785Y-99868152D02*
X205619642Y-99868152D01*
X205619642Y-99868152D02*
X205714880Y-99915771D01*
X205714880Y-99915771D02*
X205762499Y-99963390D01*
X204857737Y-100534819D02*
X204857737Y-99868152D01*
X204857737Y-99963390D02*
X204810118Y-99915771D01*
X204810118Y-99915771D02*
X204714880Y-99868152D01*
X204714880Y-99868152D02*
X204572023Y-99868152D01*
X204572023Y-99868152D02*
X204476785Y-99915771D01*
X204476785Y-99915771D02*
X204429166Y-100011009D01*
X204429166Y-100011009D02*
X204429166Y-100534819D01*
X204429166Y-100011009D02*
X204381547Y-99915771D01*
X204381547Y-99915771D02*
X204286309Y-99868152D01*
X204286309Y-99868152D02*
X204143452Y-99868152D01*
X204143452Y-99868152D02*
X204048213Y-99915771D01*
X204048213Y-99915771D02*
X204000594Y-100011009D01*
X204000594Y-100011009D02*
X204000594Y-100534819D01*
D11*
X206895832Y-102263855D02*
X207162499Y-101882902D01*
X207352975Y-102263855D02*
X207352975Y-101463855D01*
X207352975Y-101463855D02*
X207048213Y-101463855D01*
X207048213Y-101463855D02*
X206972023Y-101501950D01*
X206972023Y-101501950D02*
X206933928Y-101540045D01*
X206933928Y-101540045D02*
X206895832Y-101616236D01*
X206895832Y-101616236D02*
X206895832Y-101730521D01*
X206895832Y-101730521D02*
X206933928Y-101806712D01*
X206933928Y-101806712D02*
X206972023Y-101844807D01*
X206972023Y-101844807D02*
X207048213Y-101882902D01*
X207048213Y-101882902D02*
X207352975Y-101882902D01*
X206133928Y-102263855D02*
X206591071Y-102263855D01*
X206362499Y-102263855D02*
X206362499Y-101463855D01*
X206362499Y-101463855D02*
X206438690Y-101578140D01*
X206438690Y-101578140D02*
X206514880Y-101654331D01*
X206514880Y-101654331D02*
X206591071Y-101692426D01*
D10*
X187119104Y-62601191D02*
X187119104Y-63077381D01*
X187404819Y-62505953D02*
X186404819Y-62839286D01*
X186404819Y-62839286D02*
X187404819Y-63172619D01*
X187404819Y-63505953D02*
X186404819Y-63505953D01*
X186404819Y-63505953D02*
X186404819Y-63744048D01*
X186404819Y-63744048D02*
X186452438Y-63886905D01*
X186452438Y-63886905D02*
X186547676Y-63982143D01*
X186547676Y-63982143D02*
X186642914Y-64029762D01*
X186642914Y-64029762D02*
X186833390Y-64077381D01*
X186833390Y-64077381D02*
X186976247Y-64077381D01*
X186976247Y-64077381D02*
X187166723Y-64029762D01*
X187166723Y-64029762D02*
X187261961Y-63982143D01*
X187261961Y-63982143D02*
X187357200Y-63886905D01*
X187357200Y-63886905D02*
X187404819Y-63744048D01*
X187404819Y-63744048D02*
X187404819Y-63505953D01*
X187309580Y-65077381D02*
X187357200Y-65029762D01*
X187357200Y-65029762D02*
X187404819Y-64886905D01*
X187404819Y-64886905D02*
X187404819Y-64791667D01*
X187404819Y-64791667D02*
X187357200Y-64648810D01*
X187357200Y-64648810D02*
X187261961Y-64553572D01*
X187261961Y-64553572D02*
X187166723Y-64505953D01*
X187166723Y-64505953D02*
X186976247Y-64458334D01*
X186976247Y-64458334D02*
X186833390Y-64458334D01*
X186833390Y-64458334D02*
X186642914Y-64505953D01*
X186642914Y-64505953D02*
X186547676Y-64553572D01*
X186547676Y-64553572D02*
X186452438Y-64648810D01*
X186452438Y-64648810D02*
X186404819Y-64791667D01*
X186404819Y-64791667D02*
X186404819Y-64886905D01*
X186404819Y-64886905D02*
X186452438Y-65029762D01*
X186452438Y-65029762D02*
X186500057Y-65077381D01*
X186404819Y-65696429D02*
X186404819Y-65791667D01*
X186404819Y-65791667D02*
X186452438Y-65886905D01*
X186452438Y-65886905D02*
X186500057Y-65934524D01*
X186500057Y-65934524D02*
X186595295Y-65982143D01*
X186595295Y-65982143D02*
X186785771Y-66029762D01*
X186785771Y-66029762D02*
X187023866Y-66029762D01*
X187023866Y-66029762D02*
X187214342Y-65982143D01*
X187214342Y-65982143D02*
X187309580Y-65934524D01*
X187309580Y-65934524D02*
X187357200Y-65886905D01*
X187357200Y-65886905D02*
X187404819Y-65791667D01*
X187404819Y-65791667D02*
X187404819Y-65696429D01*
X187404819Y-65696429D02*
X187357200Y-65601191D01*
X187357200Y-65601191D02*
X187309580Y-65553572D01*
X187309580Y-65553572D02*
X187214342Y-65505953D01*
X187214342Y-65505953D02*
X187023866Y-65458334D01*
X187023866Y-65458334D02*
X186785771Y-65458334D01*
X186785771Y-65458334D02*
X186595295Y-65505953D01*
X186595295Y-65505953D02*
X186500057Y-65553572D01*
X186500057Y-65553572D02*
X186452438Y-65601191D01*
X186452438Y-65601191D02*
X186404819Y-65696429D01*
X186833390Y-66601191D02*
X186785771Y-66505953D01*
X186785771Y-66505953D02*
X186738152Y-66458334D01*
X186738152Y-66458334D02*
X186642914Y-66410715D01*
X186642914Y-66410715D02*
X186595295Y-66410715D01*
X186595295Y-66410715D02*
X186500057Y-66458334D01*
X186500057Y-66458334D02*
X186452438Y-66505953D01*
X186452438Y-66505953D02*
X186404819Y-66601191D01*
X186404819Y-66601191D02*
X186404819Y-66791667D01*
X186404819Y-66791667D02*
X186452438Y-66886905D01*
X186452438Y-66886905D02*
X186500057Y-66934524D01*
X186500057Y-66934524D02*
X186595295Y-66982143D01*
X186595295Y-66982143D02*
X186642914Y-66982143D01*
X186642914Y-66982143D02*
X186738152Y-66934524D01*
X186738152Y-66934524D02*
X186785771Y-66886905D01*
X186785771Y-66886905D02*
X186833390Y-66791667D01*
X186833390Y-66791667D02*
X186833390Y-66601191D01*
X186833390Y-66601191D02*
X186881009Y-66505953D01*
X186881009Y-66505953D02*
X186928628Y-66458334D01*
X186928628Y-66458334D02*
X187023866Y-66410715D01*
X187023866Y-66410715D02*
X187214342Y-66410715D01*
X187214342Y-66410715D02*
X187309580Y-66458334D01*
X187309580Y-66458334D02*
X187357200Y-66505953D01*
X187357200Y-66505953D02*
X187404819Y-66601191D01*
X187404819Y-66601191D02*
X187404819Y-66791667D01*
X187404819Y-66791667D02*
X187357200Y-66886905D01*
X187357200Y-66886905D02*
X187309580Y-66934524D01*
X187309580Y-66934524D02*
X187214342Y-66982143D01*
X187214342Y-66982143D02*
X187023866Y-66982143D01*
X187023866Y-66982143D02*
X186928628Y-66934524D01*
X186928628Y-66934524D02*
X186881009Y-66886905D01*
X186881009Y-66886905D02*
X186833390Y-66791667D01*
X186738152Y-67839286D02*
X187404819Y-67839286D01*
X186357200Y-67601191D02*
X187071485Y-67363096D01*
X187071485Y-67363096D02*
X187071485Y-67982143D01*
X187357200Y-68315477D02*
X187404819Y-68458334D01*
X187404819Y-68458334D02*
X187404819Y-68696429D01*
X187404819Y-68696429D02*
X187357200Y-68791667D01*
X187357200Y-68791667D02*
X187309580Y-68839286D01*
X187309580Y-68839286D02*
X187214342Y-68886905D01*
X187214342Y-68886905D02*
X187119104Y-68886905D01*
X187119104Y-68886905D02*
X187023866Y-68839286D01*
X187023866Y-68839286D02*
X186976247Y-68791667D01*
X186976247Y-68791667D02*
X186928628Y-68696429D01*
X186928628Y-68696429D02*
X186881009Y-68505953D01*
X186881009Y-68505953D02*
X186833390Y-68410715D01*
X186833390Y-68410715D02*
X186785771Y-68363096D01*
X186785771Y-68363096D02*
X186690533Y-68315477D01*
X186690533Y-68315477D02*
X186595295Y-68315477D01*
X186595295Y-68315477D02*
X186500057Y-68363096D01*
X186500057Y-68363096D02*
X186452438Y-68410715D01*
X186452438Y-68410715D02*
X186404819Y-68505953D01*
X186404819Y-68505953D02*
X186404819Y-68744048D01*
X186404819Y-68744048D02*
X186452438Y-68886905D01*
X186404819Y-69505953D02*
X186404819Y-69601191D01*
X186404819Y-69601191D02*
X186452438Y-69696429D01*
X186452438Y-69696429D02*
X186500057Y-69744048D01*
X186500057Y-69744048D02*
X186595295Y-69791667D01*
X186595295Y-69791667D02*
X186785771Y-69839286D01*
X186785771Y-69839286D02*
X187023866Y-69839286D01*
X187023866Y-69839286D02*
X187214342Y-69791667D01*
X187214342Y-69791667D02*
X187309580Y-69744048D01*
X187309580Y-69744048D02*
X187357200Y-69696429D01*
X187357200Y-69696429D02*
X187404819Y-69601191D01*
X187404819Y-69601191D02*
X187404819Y-69505953D01*
X187404819Y-69505953D02*
X187357200Y-69410715D01*
X187357200Y-69410715D02*
X187309580Y-69363096D01*
X187309580Y-69363096D02*
X187214342Y-69315477D01*
X187214342Y-69315477D02*
X187023866Y-69267858D01*
X187023866Y-69267858D02*
X186785771Y-69267858D01*
X186785771Y-69267858D02*
X186595295Y-69315477D01*
X186595295Y-69315477D02*
X186500057Y-69363096D01*
X186500057Y-69363096D02*
X186452438Y-69410715D01*
X186452438Y-69410715D02*
X186404819Y-69505953D01*
X186500057Y-70220239D02*
X186452438Y-70267858D01*
X186452438Y-70267858D02*
X186404819Y-70363096D01*
X186404819Y-70363096D02*
X186404819Y-70601191D01*
X186404819Y-70601191D02*
X186452438Y-70696429D01*
X186452438Y-70696429D02*
X186500057Y-70744048D01*
X186500057Y-70744048D02*
X186595295Y-70791667D01*
X186595295Y-70791667D02*
X186690533Y-70791667D01*
X186690533Y-70791667D02*
X186833390Y-70744048D01*
X186833390Y-70744048D02*
X187404819Y-70172620D01*
X187404819Y-70172620D02*
X187404819Y-70791667D01*
X187404819Y-71744048D02*
X187404819Y-71172620D01*
X187404819Y-71458334D02*
X186404819Y-71458334D01*
X186404819Y-71458334D02*
X186547676Y-71363096D01*
X186547676Y-71363096D02*
X186642914Y-71267858D01*
X186642914Y-71267858D02*
X186690533Y-71172620D01*
X187309580Y-72744048D02*
X187357200Y-72696429D01*
X187357200Y-72696429D02*
X187404819Y-72553572D01*
X187404819Y-72553572D02*
X187404819Y-72458334D01*
X187404819Y-72458334D02*
X187357200Y-72315477D01*
X187357200Y-72315477D02*
X187261961Y-72220239D01*
X187261961Y-72220239D02*
X187166723Y-72172620D01*
X187166723Y-72172620D02*
X186976247Y-72125001D01*
X186976247Y-72125001D02*
X186833390Y-72125001D01*
X186833390Y-72125001D02*
X186642914Y-72172620D01*
X186642914Y-72172620D02*
X186547676Y-72220239D01*
X186547676Y-72220239D02*
X186452438Y-72315477D01*
X186452438Y-72315477D02*
X186404819Y-72458334D01*
X186404819Y-72458334D02*
X186404819Y-72553572D01*
X186404819Y-72553572D02*
X186452438Y-72696429D01*
X186452438Y-72696429D02*
X186500057Y-72744048D01*
X187404819Y-73172620D02*
X186404819Y-73172620D01*
X187404819Y-73648810D02*
X186404819Y-73648810D01*
X186404819Y-73648810D02*
X187119104Y-73982143D01*
X187119104Y-73982143D02*
X186404819Y-74315476D01*
X186404819Y-74315476D02*
X187404819Y-74315476D01*
X187404819Y-74791667D02*
X186404819Y-74791667D01*
X186404819Y-74791667D02*
X187119104Y-75125000D01*
X187119104Y-75125000D02*
X186404819Y-75458333D01*
X186404819Y-75458333D02*
X187404819Y-75458333D01*
X186357200Y-76648809D02*
X187642914Y-75791667D01*
X187404819Y-76982143D02*
X186404819Y-76982143D01*
X186404819Y-76982143D02*
X187404819Y-77553571D01*
X187404819Y-77553571D02*
X186404819Y-77553571D01*
X186404819Y-78220238D02*
X186404819Y-78410714D01*
X186404819Y-78410714D02*
X186452438Y-78505952D01*
X186452438Y-78505952D02*
X186547676Y-78601190D01*
X186547676Y-78601190D02*
X186738152Y-78648809D01*
X186738152Y-78648809D02*
X187071485Y-78648809D01*
X187071485Y-78648809D02*
X187261961Y-78601190D01*
X187261961Y-78601190D02*
X187357200Y-78505952D01*
X187357200Y-78505952D02*
X187404819Y-78410714D01*
X187404819Y-78410714D02*
X187404819Y-78220238D01*
X187404819Y-78220238D02*
X187357200Y-78125000D01*
X187357200Y-78125000D02*
X187261961Y-78029762D01*
X187261961Y-78029762D02*
X187071485Y-77982143D01*
X187071485Y-77982143D02*
X186738152Y-77982143D01*
X186738152Y-77982143D02*
X186547676Y-78029762D01*
X186547676Y-78029762D02*
X186452438Y-78125000D01*
X186452438Y-78125000D02*
X186404819Y-78220238D01*
X187404819Y-79077381D02*
X186404819Y-79077381D01*
X186404819Y-79077381D02*
X186404819Y-79458333D01*
X186404819Y-79458333D02*
X186452438Y-79553571D01*
X186452438Y-79553571D02*
X186500057Y-79601190D01*
X186500057Y-79601190D02*
X186595295Y-79648809D01*
X186595295Y-79648809D02*
X186738152Y-79648809D01*
X186738152Y-79648809D02*
X186833390Y-79601190D01*
X186833390Y-79601190D02*
X186881009Y-79553571D01*
X186881009Y-79553571D02*
X186928628Y-79458333D01*
X186928628Y-79458333D02*
X186928628Y-79077381D01*
X186881009Y-80410714D02*
X186928628Y-80553571D01*
X186928628Y-80553571D02*
X186976247Y-80601190D01*
X186976247Y-80601190D02*
X187071485Y-80648809D01*
X187071485Y-80648809D02*
X187214342Y-80648809D01*
X187214342Y-80648809D02*
X187309580Y-80601190D01*
X187309580Y-80601190D02*
X187357200Y-80553571D01*
X187357200Y-80553571D02*
X187404819Y-80458333D01*
X187404819Y-80458333D02*
X187404819Y-80077381D01*
X187404819Y-80077381D02*
X186404819Y-80077381D01*
X186404819Y-80077381D02*
X186404819Y-80410714D01*
X186404819Y-80410714D02*
X186452438Y-80505952D01*
X186452438Y-80505952D02*
X186500057Y-80553571D01*
X186500057Y-80553571D02*
X186595295Y-80601190D01*
X186595295Y-80601190D02*
X186690533Y-80601190D01*
X186690533Y-80601190D02*
X186785771Y-80553571D01*
X186785771Y-80553571D02*
X186833390Y-80505952D01*
X186833390Y-80505952D02*
X186881009Y-80410714D01*
X186881009Y-80410714D02*
X186881009Y-80077381D01*
X195584819Y-102934523D02*
X195108628Y-102601190D01*
X195584819Y-102363095D02*
X194584819Y-102363095D01*
X194584819Y-102363095D02*
X194584819Y-102744047D01*
X194584819Y-102744047D02*
X194632438Y-102839285D01*
X194632438Y-102839285D02*
X194680057Y-102886904D01*
X194680057Y-102886904D02*
X194775295Y-102934523D01*
X194775295Y-102934523D02*
X194918152Y-102934523D01*
X194918152Y-102934523D02*
X195013390Y-102886904D01*
X195013390Y-102886904D02*
X195061009Y-102839285D01*
X195061009Y-102839285D02*
X195108628Y-102744047D01*
X195108628Y-102744047D02*
X195108628Y-102363095D01*
D11*
X197313855Y-102110714D02*
X196932902Y-101844047D01*
X197313855Y-101653571D02*
X196513855Y-101653571D01*
X196513855Y-101653571D02*
X196513855Y-101958333D01*
X196513855Y-101958333D02*
X196551950Y-102034523D01*
X196551950Y-102034523D02*
X196590045Y-102072618D01*
X196590045Y-102072618D02*
X196666236Y-102110714D01*
X196666236Y-102110714D02*
X196780521Y-102110714D01*
X196780521Y-102110714D02*
X196856712Y-102072618D01*
X196856712Y-102072618D02*
X196894807Y-102034523D01*
X196894807Y-102034523D02*
X196932902Y-101958333D01*
X196932902Y-101958333D02*
X196932902Y-101653571D01*
X197313855Y-102872618D02*
X197313855Y-102415475D01*
X197313855Y-102644047D02*
X196513855Y-102644047D01*
X196513855Y-102644047D02*
X196628140Y-102567856D01*
X196628140Y-102567856D02*
X196704331Y-102491666D01*
X196704331Y-102491666D02*
X196742426Y-102415475D01*
X196590045Y-103177380D02*
X196551950Y-103215476D01*
X196551950Y-103215476D02*
X196513855Y-103291666D01*
X196513855Y-103291666D02*
X196513855Y-103482142D01*
X196513855Y-103482142D02*
X196551950Y-103558333D01*
X196551950Y-103558333D02*
X196590045Y-103596428D01*
X196590045Y-103596428D02*
X196666236Y-103634523D01*
X196666236Y-103634523D02*
X196742426Y-103634523D01*
X196742426Y-103634523D02*
X196856712Y-103596428D01*
X196856712Y-103596428D02*
X197313855Y-103139285D01*
X197313855Y-103139285D02*
X197313855Y-103634523D01*
D10*
X210717856Y-109769819D02*
X210146428Y-109769819D01*
X210432142Y-110769819D02*
X210432142Y-109769819D01*
X209813094Y-110769819D02*
X209813094Y-109769819D01*
X209813094Y-110246009D02*
X209241666Y-110246009D01*
X209241666Y-110769819D02*
X209241666Y-109769819D01*
X208908332Y-109769819D02*
X208574999Y-110769819D01*
X208574999Y-110769819D02*
X208241666Y-109769819D01*
X207908332Y-110769819D02*
X207908332Y-109769819D01*
X207908332Y-109769819D02*
X207670237Y-109769819D01*
X207670237Y-109769819D02*
X207527380Y-109817438D01*
X207527380Y-109817438D02*
X207432142Y-109912676D01*
X207432142Y-109912676D02*
X207384523Y-110007914D01*
X207384523Y-110007914D02*
X207336904Y-110198390D01*
X207336904Y-110198390D02*
X207336904Y-110341247D01*
X207336904Y-110341247D02*
X207384523Y-110531723D01*
X207384523Y-110531723D02*
X207432142Y-110626961D01*
X207432142Y-110626961D02*
X207527380Y-110722200D01*
X207527380Y-110722200D02*
X207670237Y-110769819D01*
X207670237Y-110769819D02*
X207908332Y-110769819D01*
X206384523Y-110769819D02*
X206955951Y-110769819D01*
X206670237Y-110769819D02*
X206670237Y-109769819D01*
X206670237Y-109769819D02*
X206765475Y-109912676D01*
X206765475Y-109912676D02*
X206860713Y-110007914D01*
X206860713Y-110007914D02*
X206955951Y-110055533D01*
X205527380Y-110103152D02*
X205527380Y-110769819D01*
X205765475Y-109722200D02*
X206003570Y-110436485D01*
X206003570Y-110436485D02*
X205384523Y-110436485D01*
X204813094Y-109769819D02*
X204717856Y-109769819D01*
X204717856Y-109769819D02*
X204622618Y-109817438D01*
X204622618Y-109817438D02*
X204574999Y-109865057D01*
X204574999Y-109865057D02*
X204527380Y-109960295D01*
X204527380Y-109960295D02*
X204479761Y-110150771D01*
X204479761Y-110150771D02*
X204479761Y-110388866D01*
X204479761Y-110388866D02*
X204527380Y-110579342D01*
X204527380Y-110579342D02*
X204574999Y-110674580D01*
X204574999Y-110674580D02*
X204622618Y-110722200D01*
X204622618Y-110722200D02*
X204717856Y-110769819D01*
X204717856Y-110769819D02*
X204813094Y-110769819D01*
X204813094Y-110769819D02*
X204908332Y-110722200D01*
X204908332Y-110722200D02*
X204955951Y-110674580D01*
X204955951Y-110674580D02*
X205003570Y-110579342D01*
X205003570Y-110579342D02*
X205051189Y-110388866D01*
X205051189Y-110388866D02*
X205051189Y-110150771D01*
X205051189Y-110150771D02*
X205003570Y-109960295D01*
X205003570Y-109960295D02*
X204955951Y-109865057D01*
X204955951Y-109865057D02*
X204908332Y-109817438D01*
X204908332Y-109817438D02*
X204813094Y-109769819D01*
X203860713Y-109769819D02*
X203765475Y-109769819D01*
X203765475Y-109769819D02*
X203670237Y-109817438D01*
X203670237Y-109817438D02*
X203622618Y-109865057D01*
X203622618Y-109865057D02*
X203574999Y-109960295D01*
X203574999Y-109960295D02*
X203527380Y-110150771D01*
X203527380Y-110150771D02*
X203527380Y-110388866D01*
X203527380Y-110388866D02*
X203574999Y-110579342D01*
X203574999Y-110579342D02*
X203622618Y-110674580D01*
X203622618Y-110674580D02*
X203670237Y-110722200D01*
X203670237Y-110722200D02*
X203765475Y-110769819D01*
X203765475Y-110769819D02*
X203860713Y-110769819D01*
X203860713Y-110769819D02*
X203955951Y-110722200D01*
X203955951Y-110722200D02*
X204003570Y-110674580D01*
X204003570Y-110674580D02*
X204051189Y-110579342D01*
X204051189Y-110579342D02*
X204098808Y-110388866D01*
X204098808Y-110388866D02*
X204098808Y-110150771D01*
X204098808Y-110150771D02*
X204051189Y-109960295D01*
X204051189Y-109960295D02*
X204003570Y-109865057D01*
X204003570Y-109865057D02*
X203955951Y-109817438D01*
X203955951Y-109817438D02*
X203860713Y-109769819D01*
X203098808Y-110769819D02*
X203098808Y-109769819D01*
X203098808Y-109769819D02*
X202860713Y-109769819D01*
X202860713Y-109769819D02*
X202717856Y-109817438D01*
X202717856Y-109817438D02*
X202622618Y-109912676D01*
X202622618Y-109912676D02*
X202574999Y-110007914D01*
X202574999Y-110007914D02*
X202527380Y-110198390D01*
X202527380Y-110198390D02*
X202527380Y-110341247D01*
X202527380Y-110341247D02*
X202574999Y-110531723D01*
X202574999Y-110531723D02*
X202622618Y-110626961D01*
X202622618Y-110626961D02*
X202717856Y-110722200D01*
X202717856Y-110722200D02*
X202860713Y-110769819D01*
X202860713Y-110769819D02*
X203098808Y-110769819D01*
X207321666Y-106380566D02*
X207321666Y-107173900D01*
X207321666Y-107173900D02*
X207275000Y-107267233D01*
X207275000Y-107267233D02*
X207228333Y-107313900D01*
X207228333Y-107313900D02*
X207135000Y-107360566D01*
X207135000Y-107360566D02*
X206948333Y-107360566D01*
X206948333Y-107360566D02*
X206855000Y-107313900D01*
X206855000Y-107313900D02*
X206808333Y-107267233D01*
X206808333Y-107267233D02*
X206761666Y-107173900D01*
X206761666Y-107173900D02*
X206761666Y-106380566D01*
X205874999Y-106707233D02*
X205874999Y-107360566D01*
X206108333Y-106333900D02*
X206341666Y-107033900D01*
X206341666Y-107033900D02*
X205734999Y-107033900D01*
X203454819Y-105327380D02*
X203454819Y-104755952D01*
X203454819Y-105041666D02*
X202454819Y-105041666D01*
X202454819Y-105041666D02*
X202597676Y-104946428D01*
X202597676Y-104946428D02*
X202692914Y-104851190D01*
X202692914Y-104851190D02*
X202740533Y-104755952D01*
X202454819Y-105946428D02*
X202454819Y-106041666D01*
X202454819Y-106041666D02*
X202502438Y-106136904D01*
X202502438Y-106136904D02*
X202550057Y-106184523D01*
X202550057Y-106184523D02*
X202645295Y-106232142D01*
X202645295Y-106232142D02*
X202835771Y-106279761D01*
X202835771Y-106279761D02*
X203073866Y-106279761D01*
X203073866Y-106279761D02*
X203264342Y-106232142D01*
X203264342Y-106232142D02*
X203359580Y-106184523D01*
X203359580Y-106184523D02*
X203407200Y-106136904D01*
X203407200Y-106136904D02*
X203454819Y-106041666D01*
X203454819Y-106041666D02*
X203454819Y-105946428D01*
X203454819Y-105946428D02*
X203407200Y-105851190D01*
X203407200Y-105851190D02*
X203359580Y-105803571D01*
X203359580Y-105803571D02*
X203264342Y-105755952D01*
X203264342Y-105755952D02*
X203073866Y-105708333D01*
X203073866Y-105708333D02*
X202835771Y-105708333D01*
X202835771Y-105708333D02*
X202645295Y-105755952D01*
X202645295Y-105755952D02*
X202550057Y-105803571D01*
X202550057Y-105803571D02*
X202502438Y-105851190D01*
X202502438Y-105851190D02*
X202454819Y-105946428D01*
X202454819Y-106898809D02*
X202454819Y-106994047D01*
X202454819Y-106994047D02*
X202502438Y-107089285D01*
X202502438Y-107089285D02*
X202550057Y-107136904D01*
X202550057Y-107136904D02*
X202645295Y-107184523D01*
X202645295Y-107184523D02*
X202835771Y-107232142D01*
X202835771Y-107232142D02*
X203073866Y-107232142D01*
X203073866Y-107232142D02*
X203264342Y-107184523D01*
X203264342Y-107184523D02*
X203359580Y-107136904D01*
X203359580Y-107136904D02*
X203407200Y-107089285D01*
X203407200Y-107089285D02*
X203454819Y-106994047D01*
X203454819Y-106994047D02*
X203454819Y-106898809D01*
X203454819Y-106898809D02*
X203407200Y-106803571D01*
X203407200Y-106803571D02*
X203359580Y-106755952D01*
X203359580Y-106755952D02*
X203264342Y-106708333D01*
X203264342Y-106708333D02*
X203073866Y-106660714D01*
X203073866Y-106660714D02*
X202835771Y-106660714D01*
X202835771Y-106660714D02*
X202645295Y-106708333D01*
X202645295Y-106708333D02*
X202550057Y-106755952D01*
X202550057Y-106755952D02*
X202502438Y-106803571D01*
X202502438Y-106803571D02*
X202454819Y-106898809D01*
X202788152Y-107660714D02*
X203454819Y-107660714D01*
X202883390Y-107660714D02*
X202835771Y-107708333D01*
X202835771Y-107708333D02*
X202788152Y-107803571D01*
X202788152Y-107803571D02*
X202788152Y-107946428D01*
X202788152Y-107946428D02*
X202835771Y-108041666D01*
X202835771Y-108041666D02*
X202931009Y-108089285D01*
X202931009Y-108089285D02*
X203454819Y-108089285D01*
X202931009Y-108898809D02*
X202931009Y-108565476D01*
X203454819Y-108565476D02*
X202454819Y-108565476D01*
X202454819Y-108565476D02*
X202454819Y-109041666D01*
D11*
X201437664Y-106741667D02*
X201475760Y-106703571D01*
X201475760Y-106703571D02*
X201513855Y-106589286D01*
X201513855Y-106589286D02*
X201513855Y-106513095D01*
X201513855Y-106513095D02*
X201475760Y-106398809D01*
X201475760Y-106398809D02*
X201399569Y-106322619D01*
X201399569Y-106322619D02*
X201323379Y-106284524D01*
X201323379Y-106284524D02*
X201170998Y-106246428D01*
X201170998Y-106246428D02*
X201056712Y-106246428D01*
X201056712Y-106246428D02*
X200904331Y-106284524D01*
X200904331Y-106284524D02*
X200828140Y-106322619D01*
X200828140Y-106322619D02*
X200751950Y-106398809D01*
X200751950Y-106398809D02*
X200713855Y-106513095D01*
X200713855Y-106513095D02*
X200713855Y-106589286D01*
X200713855Y-106589286D02*
X200751950Y-106703571D01*
X200751950Y-106703571D02*
X200790045Y-106741667D01*
X201513855Y-107503571D02*
X201513855Y-107046428D01*
X201513855Y-107275000D02*
X200713855Y-107275000D01*
X200713855Y-107275000D02*
X200828140Y-107198809D01*
X200828140Y-107198809D02*
X200904331Y-107122619D01*
X200904331Y-107122619D02*
X200942426Y-107046428D01*
D10*
X208688095Y-113924819D02*
X209259523Y-113924819D01*
X208973809Y-113924819D02*
X208973809Y-112924819D01*
X208973809Y-112924819D02*
X209069047Y-113067676D01*
X209069047Y-113067676D02*
X209164285Y-113162914D01*
X209164285Y-113162914D02*
X209259523Y-113210533D01*
X208069047Y-112924819D02*
X207973809Y-112924819D01*
X207973809Y-112924819D02*
X207878571Y-112972438D01*
X207878571Y-112972438D02*
X207830952Y-113020057D01*
X207830952Y-113020057D02*
X207783333Y-113115295D01*
X207783333Y-113115295D02*
X207735714Y-113305771D01*
X207735714Y-113305771D02*
X207735714Y-113543866D01*
X207735714Y-113543866D02*
X207783333Y-113734342D01*
X207783333Y-113734342D02*
X207830952Y-113829580D01*
X207830952Y-113829580D02*
X207878571Y-113877200D01*
X207878571Y-113877200D02*
X207973809Y-113924819D01*
X207973809Y-113924819D02*
X208069047Y-113924819D01*
X208069047Y-113924819D02*
X208164285Y-113877200D01*
X208164285Y-113877200D02*
X208211904Y-113829580D01*
X208211904Y-113829580D02*
X208259523Y-113734342D01*
X208259523Y-113734342D02*
X208307142Y-113543866D01*
X208307142Y-113543866D02*
X208307142Y-113305771D01*
X208307142Y-113305771D02*
X208259523Y-113115295D01*
X208259523Y-113115295D02*
X208211904Y-113020057D01*
X208211904Y-113020057D02*
X208164285Y-112972438D01*
X208164285Y-112972438D02*
X208069047Y-112924819D01*
X207307142Y-113924819D02*
X207307142Y-112924819D01*
X207211904Y-113543866D02*
X206926190Y-113924819D01*
X206926190Y-113258152D02*
X207307142Y-113639104D01*
X206307142Y-112924819D02*
X206116666Y-112924819D01*
X206116666Y-112924819D02*
X206021428Y-112972438D01*
X206021428Y-112972438D02*
X205926190Y-113067676D01*
X205926190Y-113067676D02*
X205878571Y-113258152D01*
X205878571Y-113258152D02*
X205878571Y-113591485D01*
X205878571Y-113591485D02*
X205926190Y-113781961D01*
X205926190Y-113781961D02*
X206021428Y-113877200D01*
X206021428Y-113877200D02*
X206116666Y-113924819D01*
X206116666Y-113924819D02*
X206307142Y-113924819D01*
X206307142Y-113924819D02*
X206402380Y-113877200D01*
X206402380Y-113877200D02*
X206497618Y-113781961D01*
X206497618Y-113781961D02*
X206545237Y-113591485D01*
X206545237Y-113591485D02*
X206545237Y-113258152D01*
X206545237Y-113258152D02*
X206497618Y-113067676D01*
X206497618Y-113067676D02*
X206402380Y-112972438D01*
X206402380Y-112972438D02*
X206307142Y-112924819D01*
X205449999Y-113924819D02*
X205449999Y-112924819D01*
X205021428Y-113924819D02*
X205021428Y-113401009D01*
X205021428Y-113401009D02*
X205069047Y-113305771D01*
X205069047Y-113305771D02*
X205164285Y-113258152D01*
X205164285Y-113258152D02*
X205307142Y-113258152D01*
X205307142Y-113258152D02*
X205402380Y-113305771D01*
X205402380Y-113305771D02*
X205449999Y-113353390D01*
X204545237Y-113924819D02*
X204545237Y-113258152D01*
X204545237Y-113353390D02*
X204497618Y-113305771D01*
X204497618Y-113305771D02*
X204402380Y-113258152D01*
X204402380Y-113258152D02*
X204259523Y-113258152D01*
X204259523Y-113258152D02*
X204164285Y-113305771D01*
X204164285Y-113305771D02*
X204116666Y-113401009D01*
X204116666Y-113401009D02*
X204116666Y-113924819D01*
X204116666Y-113401009D02*
X204069047Y-113305771D01*
X204069047Y-113305771D02*
X203973809Y-113258152D01*
X203973809Y-113258152D02*
X203830952Y-113258152D01*
X203830952Y-113258152D02*
X203735713Y-113305771D01*
X203735713Y-113305771D02*
X203688094Y-113401009D01*
X203688094Y-113401009D02*
X203688094Y-113924819D01*
D11*
X206583332Y-112013855D02*
X206849999Y-111632902D01*
X207040475Y-112013855D02*
X207040475Y-111213855D01*
X207040475Y-111213855D02*
X206735713Y-111213855D01*
X206735713Y-111213855D02*
X206659523Y-111251950D01*
X206659523Y-111251950D02*
X206621428Y-111290045D01*
X206621428Y-111290045D02*
X206583332Y-111366236D01*
X206583332Y-111366236D02*
X206583332Y-111480521D01*
X206583332Y-111480521D02*
X206621428Y-111556712D01*
X206621428Y-111556712D02*
X206659523Y-111594807D01*
X206659523Y-111594807D02*
X206735713Y-111632902D01*
X206735713Y-111632902D02*
X207040475Y-111632902D01*
X206278571Y-111290045D02*
X206240475Y-111251950D01*
X206240475Y-111251950D02*
X206164285Y-111213855D01*
X206164285Y-111213855D02*
X205973809Y-111213855D01*
X205973809Y-111213855D02*
X205897618Y-111251950D01*
X205897618Y-111251950D02*
X205859523Y-111290045D01*
X205859523Y-111290045D02*
X205821428Y-111366236D01*
X205821428Y-111366236D02*
X205821428Y-111442426D01*
X205821428Y-111442426D02*
X205859523Y-111556712D01*
X205859523Y-111556712D02*
X206316666Y-112013855D01*
X206316666Y-112013855D02*
X205821428Y-112013855D01*
D10*
X182409819Y-100733333D02*
X182409819Y-100161905D01*
X182409819Y-100447619D02*
X181409819Y-100447619D01*
X181409819Y-100447619D02*
X181552676Y-100352381D01*
X181552676Y-100352381D02*
X181647914Y-100257143D01*
X181647914Y-100257143D02*
X181695533Y-100161905D01*
X181409819Y-101352381D02*
X181409819Y-101447619D01*
X181409819Y-101447619D02*
X181457438Y-101542857D01*
X181457438Y-101542857D02*
X181505057Y-101590476D01*
X181505057Y-101590476D02*
X181600295Y-101638095D01*
X181600295Y-101638095D02*
X181790771Y-101685714D01*
X181790771Y-101685714D02*
X182028866Y-101685714D01*
X182028866Y-101685714D02*
X182219342Y-101638095D01*
X182219342Y-101638095D02*
X182314580Y-101590476D01*
X182314580Y-101590476D02*
X182362200Y-101542857D01*
X182362200Y-101542857D02*
X182409819Y-101447619D01*
X182409819Y-101447619D02*
X182409819Y-101352381D01*
X182409819Y-101352381D02*
X182362200Y-101257143D01*
X182362200Y-101257143D02*
X182314580Y-101209524D01*
X182314580Y-101209524D02*
X182219342Y-101161905D01*
X182219342Y-101161905D02*
X182028866Y-101114286D01*
X182028866Y-101114286D02*
X181790771Y-101114286D01*
X181790771Y-101114286D02*
X181600295Y-101161905D01*
X181600295Y-101161905D02*
X181505057Y-101209524D01*
X181505057Y-101209524D02*
X181457438Y-101257143D01*
X181457438Y-101257143D02*
X181409819Y-101352381D01*
X182409819Y-102114286D02*
X181409819Y-102114286D01*
X182028866Y-102209524D02*
X182409819Y-102495238D01*
X181743152Y-102495238D02*
X182124104Y-102114286D01*
X182409819Y-103066667D02*
X182362200Y-102971429D01*
X182362200Y-102971429D02*
X182314580Y-102923810D01*
X182314580Y-102923810D02*
X182219342Y-102876191D01*
X182219342Y-102876191D02*
X181933628Y-102876191D01*
X181933628Y-102876191D02*
X181838390Y-102923810D01*
X181838390Y-102923810D02*
X181790771Y-102971429D01*
X181790771Y-102971429D02*
X181743152Y-103066667D01*
X181743152Y-103066667D02*
X181743152Y-103209524D01*
X181743152Y-103209524D02*
X181790771Y-103304762D01*
X181790771Y-103304762D02*
X181838390Y-103352381D01*
X181838390Y-103352381D02*
X181933628Y-103400000D01*
X181933628Y-103400000D02*
X182219342Y-103400000D01*
X182219342Y-103400000D02*
X182314580Y-103352381D01*
X182314580Y-103352381D02*
X182362200Y-103304762D01*
X182362200Y-103304762D02*
X182409819Y-103209524D01*
X182409819Y-103209524D02*
X182409819Y-103066667D01*
X182409819Y-103828572D02*
X181409819Y-103828572D01*
X182409819Y-104257143D02*
X181886009Y-104257143D01*
X181886009Y-104257143D02*
X181790771Y-104209524D01*
X181790771Y-104209524D02*
X181743152Y-104114286D01*
X181743152Y-104114286D02*
X181743152Y-103971429D01*
X181743152Y-103971429D02*
X181790771Y-103876191D01*
X181790771Y-103876191D02*
X181838390Y-103828572D01*
X182409819Y-104733334D02*
X181743152Y-104733334D01*
X181838390Y-104733334D02*
X181790771Y-104780953D01*
X181790771Y-104780953D02*
X181743152Y-104876191D01*
X181743152Y-104876191D02*
X181743152Y-105019048D01*
X181743152Y-105019048D02*
X181790771Y-105114286D01*
X181790771Y-105114286D02*
X181886009Y-105161905D01*
X181886009Y-105161905D02*
X182409819Y-105161905D01*
X181886009Y-105161905D02*
X181790771Y-105209524D01*
X181790771Y-105209524D02*
X181743152Y-105304762D01*
X181743152Y-105304762D02*
X181743152Y-105447619D01*
X181743152Y-105447619D02*
X181790771Y-105542858D01*
X181790771Y-105542858D02*
X181886009Y-105590477D01*
X181886009Y-105590477D02*
X182409819Y-105590477D01*
D11*
X184138855Y-102385714D02*
X183757902Y-102119047D01*
X184138855Y-101928571D02*
X183338855Y-101928571D01*
X183338855Y-101928571D02*
X183338855Y-102233333D01*
X183338855Y-102233333D02*
X183376950Y-102309523D01*
X183376950Y-102309523D02*
X183415045Y-102347618D01*
X183415045Y-102347618D02*
X183491236Y-102385714D01*
X183491236Y-102385714D02*
X183605521Y-102385714D01*
X183605521Y-102385714D02*
X183681712Y-102347618D01*
X183681712Y-102347618D02*
X183719807Y-102309523D01*
X183719807Y-102309523D02*
X183757902Y-102233333D01*
X183757902Y-102233333D02*
X183757902Y-101928571D01*
X184138855Y-103147618D02*
X184138855Y-102690475D01*
X184138855Y-102919047D02*
X183338855Y-102919047D01*
X183338855Y-102919047D02*
X183453140Y-102842856D01*
X183453140Y-102842856D02*
X183529331Y-102766666D01*
X183529331Y-102766666D02*
X183567426Y-102690475D01*
X183338855Y-103642857D02*
X183338855Y-103719047D01*
X183338855Y-103719047D02*
X183376950Y-103795238D01*
X183376950Y-103795238D02*
X183415045Y-103833333D01*
X183415045Y-103833333D02*
X183491236Y-103871428D01*
X183491236Y-103871428D02*
X183643617Y-103909523D01*
X183643617Y-103909523D02*
X183834093Y-103909523D01*
X183834093Y-103909523D02*
X183986474Y-103871428D01*
X183986474Y-103871428D02*
X184062664Y-103833333D01*
X184062664Y-103833333D02*
X184100760Y-103795238D01*
X184100760Y-103795238D02*
X184138855Y-103719047D01*
X184138855Y-103719047D02*
X184138855Y-103642857D01*
X184138855Y-103642857D02*
X184100760Y-103566666D01*
X184100760Y-103566666D02*
X184062664Y-103528571D01*
X184062664Y-103528571D02*
X183986474Y-103490476D01*
X183986474Y-103490476D02*
X183834093Y-103452380D01*
X183834093Y-103452380D02*
X183643617Y-103452380D01*
X183643617Y-103452380D02*
X183491236Y-103490476D01*
X183491236Y-103490476D02*
X183415045Y-103528571D01*
X183415045Y-103528571D02*
X183376950Y-103566666D01*
X183376950Y-103566666D02*
X183338855Y-103642857D01*
D10*
X194117856Y-99554819D02*
X194022618Y-99554819D01*
X194022618Y-99554819D02*
X193927380Y-99602438D01*
X193927380Y-99602438D02*
X193879761Y-99650057D01*
X193879761Y-99650057D02*
X193832142Y-99745295D01*
X193832142Y-99745295D02*
X193784523Y-99935771D01*
X193784523Y-99935771D02*
X193784523Y-100173866D01*
X193784523Y-100173866D02*
X193832142Y-100364342D01*
X193832142Y-100364342D02*
X193879761Y-100459580D01*
X193879761Y-100459580D02*
X193927380Y-100507200D01*
X193927380Y-100507200D02*
X194022618Y-100554819D01*
X194022618Y-100554819D02*
X194117856Y-100554819D01*
X194117856Y-100554819D02*
X194213094Y-100507200D01*
X194213094Y-100507200D02*
X194260713Y-100459580D01*
X194260713Y-100459580D02*
X194308332Y-100364342D01*
X194308332Y-100364342D02*
X194355951Y-100173866D01*
X194355951Y-100173866D02*
X194355951Y-99935771D01*
X194355951Y-99935771D02*
X194308332Y-99745295D01*
X194308332Y-99745295D02*
X194260713Y-99650057D01*
X194260713Y-99650057D02*
X194213094Y-99602438D01*
X194213094Y-99602438D02*
X194117856Y-99554819D01*
X193355951Y-100459580D02*
X193308332Y-100507200D01*
X193308332Y-100507200D02*
X193355951Y-100554819D01*
X193355951Y-100554819D02*
X193403570Y-100507200D01*
X193403570Y-100507200D02*
X193355951Y-100459580D01*
X193355951Y-100459580D02*
X193355951Y-100554819D01*
X192355952Y-100554819D02*
X192927380Y-100554819D01*
X192641666Y-100554819D02*
X192641666Y-99554819D01*
X192641666Y-99554819D02*
X192736904Y-99697676D01*
X192736904Y-99697676D02*
X192832142Y-99792914D01*
X192832142Y-99792914D02*
X192927380Y-99840533D01*
X191498809Y-99888152D02*
X191498809Y-100554819D01*
X191927380Y-99888152D02*
X191927380Y-100411961D01*
X191927380Y-100411961D02*
X191879761Y-100507200D01*
X191879761Y-100507200D02*
X191784523Y-100554819D01*
X191784523Y-100554819D02*
X191641666Y-100554819D01*
X191641666Y-100554819D02*
X191546428Y-100507200D01*
X191546428Y-100507200D02*
X191498809Y-100459580D01*
X190689285Y-100031009D02*
X191022618Y-100031009D01*
X191022618Y-100554819D02*
X191022618Y-99554819D01*
X191022618Y-99554819D02*
X190546428Y-99554819D01*
D11*
X192608332Y-102237664D02*
X192646428Y-102275760D01*
X192646428Y-102275760D02*
X192760713Y-102313855D01*
X192760713Y-102313855D02*
X192836904Y-102313855D01*
X192836904Y-102313855D02*
X192951190Y-102275760D01*
X192951190Y-102275760D02*
X193027380Y-102199569D01*
X193027380Y-102199569D02*
X193065475Y-102123379D01*
X193065475Y-102123379D02*
X193103571Y-101970998D01*
X193103571Y-101970998D02*
X193103571Y-101856712D01*
X193103571Y-101856712D02*
X193065475Y-101704331D01*
X193065475Y-101704331D02*
X193027380Y-101628140D01*
X193027380Y-101628140D02*
X192951190Y-101551950D01*
X192951190Y-101551950D02*
X192836904Y-101513855D01*
X192836904Y-101513855D02*
X192760713Y-101513855D01*
X192760713Y-101513855D02*
X192646428Y-101551950D01*
X192646428Y-101551950D02*
X192608332Y-101590045D01*
X192303571Y-101590045D02*
X192265475Y-101551950D01*
X192265475Y-101551950D02*
X192189285Y-101513855D01*
X192189285Y-101513855D02*
X191998809Y-101513855D01*
X191998809Y-101513855D02*
X191922618Y-101551950D01*
X191922618Y-101551950D02*
X191884523Y-101590045D01*
X191884523Y-101590045D02*
X191846428Y-101666236D01*
X191846428Y-101666236D02*
X191846428Y-101742426D01*
X191846428Y-101742426D02*
X191884523Y-101856712D01*
X191884523Y-101856712D02*
X192341666Y-102313855D01*
X192341666Y-102313855D02*
X191846428Y-102313855D01*
D10*
X199199819Y-109334523D02*
X198723628Y-109001190D01*
X199199819Y-108763095D02*
X198199819Y-108763095D01*
X198199819Y-108763095D02*
X198199819Y-109144047D01*
X198199819Y-109144047D02*
X198247438Y-109239285D01*
X198247438Y-109239285D02*
X198295057Y-109286904D01*
X198295057Y-109286904D02*
X198390295Y-109334523D01*
X198390295Y-109334523D02*
X198533152Y-109334523D01*
X198533152Y-109334523D02*
X198628390Y-109286904D01*
X198628390Y-109286904D02*
X198676009Y-109239285D01*
X198676009Y-109239285D02*
X198723628Y-109144047D01*
X198723628Y-109144047D02*
X198723628Y-108763095D01*
D11*
X197288855Y-108510714D02*
X196907902Y-108244047D01*
X197288855Y-108053571D02*
X196488855Y-108053571D01*
X196488855Y-108053571D02*
X196488855Y-108358333D01*
X196488855Y-108358333D02*
X196526950Y-108434523D01*
X196526950Y-108434523D02*
X196565045Y-108472618D01*
X196565045Y-108472618D02*
X196641236Y-108510714D01*
X196641236Y-108510714D02*
X196755521Y-108510714D01*
X196755521Y-108510714D02*
X196831712Y-108472618D01*
X196831712Y-108472618D02*
X196869807Y-108434523D01*
X196869807Y-108434523D02*
X196907902Y-108358333D01*
X196907902Y-108358333D02*
X196907902Y-108053571D01*
X197288855Y-109272618D02*
X197288855Y-108815475D01*
X197288855Y-109044047D02*
X196488855Y-109044047D01*
X196488855Y-109044047D02*
X196603140Y-108967856D01*
X196603140Y-108967856D02*
X196679331Y-108891666D01*
X196679331Y-108891666D02*
X196717426Y-108815475D01*
X197288855Y-110034523D02*
X197288855Y-109577380D01*
X197288855Y-109805952D02*
X196488855Y-109805952D01*
X196488855Y-109805952D02*
X196603140Y-109729761D01*
X196603140Y-109729761D02*
X196679331Y-109653571D01*
X196679331Y-109653571D02*
X196717426Y-109577380D01*
D10*
X193596428Y-97829819D02*
X194167856Y-97829819D01*
X193882142Y-97829819D02*
X193882142Y-96829819D01*
X193882142Y-96829819D02*
X193977380Y-96972676D01*
X193977380Y-96972676D02*
X194072618Y-97067914D01*
X194072618Y-97067914D02*
X194167856Y-97115533D01*
X192977380Y-96829819D02*
X192882142Y-96829819D01*
X192882142Y-96829819D02*
X192786904Y-96877438D01*
X192786904Y-96877438D02*
X192739285Y-96925057D01*
X192739285Y-96925057D02*
X192691666Y-97020295D01*
X192691666Y-97020295D02*
X192644047Y-97210771D01*
X192644047Y-97210771D02*
X192644047Y-97448866D01*
X192644047Y-97448866D02*
X192691666Y-97639342D01*
X192691666Y-97639342D02*
X192739285Y-97734580D01*
X192739285Y-97734580D02*
X192786904Y-97782200D01*
X192786904Y-97782200D02*
X192882142Y-97829819D01*
X192882142Y-97829819D02*
X192977380Y-97829819D01*
X192977380Y-97829819D02*
X193072618Y-97782200D01*
X193072618Y-97782200D02*
X193120237Y-97734580D01*
X193120237Y-97734580D02*
X193167856Y-97639342D01*
X193167856Y-97639342D02*
X193215475Y-97448866D01*
X193215475Y-97448866D02*
X193215475Y-97210771D01*
X193215475Y-97210771D02*
X193167856Y-97020295D01*
X193167856Y-97020295D02*
X193120237Y-96925057D01*
X193120237Y-96925057D02*
X193072618Y-96877438D01*
X193072618Y-96877438D02*
X192977380Y-96829819D01*
X191786904Y-97163152D02*
X191786904Y-97829819D01*
X192215475Y-97163152D02*
X192215475Y-97686961D01*
X192215475Y-97686961D02*
X192167856Y-97782200D01*
X192167856Y-97782200D02*
X192072618Y-97829819D01*
X192072618Y-97829819D02*
X191929761Y-97829819D01*
X191929761Y-97829819D02*
X191834523Y-97782200D01*
X191834523Y-97782200D02*
X191786904Y-97734580D01*
X190977380Y-97306009D02*
X191310713Y-97306009D01*
X191310713Y-97829819D02*
X191310713Y-96829819D01*
X191310713Y-96829819D02*
X190834523Y-96829819D01*
D11*
X192658332Y-99512664D02*
X192696428Y-99550760D01*
X192696428Y-99550760D02*
X192810713Y-99588855D01*
X192810713Y-99588855D02*
X192886904Y-99588855D01*
X192886904Y-99588855D02*
X193001190Y-99550760D01*
X193001190Y-99550760D02*
X193077380Y-99474569D01*
X193077380Y-99474569D02*
X193115475Y-99398379D01*
X193115475Y-99398379D02*
X193153571Y-99245998D01*
X193153571Y-99245998D02*
X193153571Y-99131712D01*
X193153571Y-99131712D02*
X193115475Y-98979331D01*
X193115475Y-98979331D02*
X193077380Y-98903140D01*
X193077380Y-98903140D02*
X193001190Y-98826950D01*
X193001190Y-98826950D02*
X192886904Y-98788855D01*
X192886904Y-98788855D02*
X192810713Y-98788855D01*
X192810713Y-98788855D02*
X192696428Y-98826950D01*
X192696428Y-98826950D02*
X192658332Y-98865045D01*
X192391666Y-98788855D02*
X191896428Y-98788855D01*
X191896428Y-98788855D02*
X192163094Y-99093617D01*
X192163094Y-99093617D02*
X192048809Y-99093617D01*
X192048809Y-99093617D02*
X191972618Y-99131712D01*
X191972618Y-99131712D02*
X191934523Y-99169807D01*
X191934523Y-99169807D02*
X191896428Y-99245998D01*
X191896428Y-99245998D02*
X191896428Y-99436474D01*
X191896428Y-99436474D02*
X191934523Y-99512664D01*
X191934523Y-99512664D02*
X191972618Y-99550760D01*
X191972618Y-99550760D02*
X192048809Y-99588855D01*
X192048809Y-99588855D02*
X192277380Y-99588855D01*
X192277380Y-99588855D02*
X192353571Y-99550760D01*
X192353571Y-99550760D02*
X192391666Y-99512664D01*
D10*
X182174819Y-107575000D02*
X182174819Y-107098810D01*
X182174819Y-107098810D02*
X182651009Y-107051191D01*
X182651009Y-107051191D02*
X182603390Y-107098810D01*
X182603390Y-107098810D02*
X182555771Y-107194048D01*
X182555771Y-107194048D02*
X182555771Y-107432143D01*
X182555771Y-107432143D02*
X182603390Y-107527381D01*
X182603390Y-107527381D02*
X182651009Y-107575000D01*
X182651009Y-107575000D02*
X182746247Y-107622619D01*
X182746247Y-107622619D02*
X182984342Y-107622619D01*
X182984342Y-107622619D02*
X183079580Y-107575000D01*
X183079580Y-107575000D02*
X183127200Y-107527381D01*
X183127200Y-107527381D02*
X183174819Y-107432143D01*
X183174819Y-107432143D02*
X183174819Y-107194048D01*
X183174819Y-107194048D02*
X183127200Y-107098810D01*
X183127200Y-107098810D02*
X183079580Y-107051191D01*
X182174819Y-108479762D02*
X182174819Y-108289286D01*
X182174819Y-108289286D02*
X182222438Y-108194048D01*
X182222438Y-108194048D02*
X182270057Y-108146429D01*
X182270057Y-108146429D02*
X182412914Y-108051191D01*
X182412914Y-108051191D02*
X182603390Y-108003572D01*
X182603390Y-108003572D02*
X182984342Y-108003572D01*
X182984342Y-108003572D02*
X183079580Y-108051191D01*
X183079580Y-108051191D02*
X183127200Y-108098810D01*
X183127200Y-108098810D02*
X183174819Y-108194048D01*
X183174819Y-108194048D02*
X183174819Y-108384524D01*
X183174819Y-108384524D02*
X183127200Y-108479762D01*
X183127200Y-108479762D02*
X183079580Y-108527381D01*
X183079580Y-108527381D02*
X182984342Y-108575000D01*
X182984342Y-108575000D02*
X182746247Y-108575000D01*
X182746247Y-108575000D02*
X182651009Y-108527381D01*
X182651009Y-108527381D02*
X182603390Y-108479762D01*
X182603390Y-108479762D02*
X182555771Y-108384524D01*
X182555771Y-108384524D02*
X182555771Y-108194048D01*
X182555771Y-108194048D02*
X182603390Y-108098810D01*
X182603390Y-108098810D02*
X182651009Y-108051191D01*
X182651009Y-108051191D02*
X182746247Y-108003572D01*
X183079580Y-109003572D02*
X183127200Y-109051191D01*
X183127200Y-109051191D02*
X183174819Y-109003572D01*
X183174819Y-109003572D02*
X183127200Y-108955953D01*
X183127200Y-108955953D02*
X183079580Y-109003572D01*
X183079580Y-109003572D02*
X183174819Y-109003572D01*
X182270057Y-109432143D02*
X182222438Y-109479762D01*
X182222438Y-109479762D02*
X182174819Y-109575000D01*
X182174819Y-109575000D02*
X182174819Y-109813095D01*
X182174819Y-109813095D02*
X182222438Y-109908333D01*
X182222438Y-109908333D02*
X182270057Y-109955952D01*
X182270057Y-109955952D02*
X182365295Y-110003571D01*
X182365295Y-110003571D02*
X182460533Y-110003571D01*
X182460533Y-110003571D02*
X182603390Y-109955952D01*
X182603390Y-109955952D02*
X183174819Y-109384524D01*
X183174819Y-109384524D02*
X183174819Y-110003571D01*
X183174819Y-110432143D02*
X182174819Y-110432143D01*
X182793866Y-110527381D02*
X183174819Y-110813095D01*
X182508152Y-110813095D02*
X182889104Y-110432143D01*
X182174819Y-111432143D02*
X182174819Y-111622619D01*
X182174819Y-111622619D02*
X182222438Y-111717857D01*
X182222438Y-111717857D02*
X182317676Y-111813095D01*
X182317676Y-111813095D02*
X182508152Y-111860714D01*
X182508152Y-111860714D02*
X182841485Y-111860714D01*
X182841485Y-111860714D02*
X183031961Y-111813095D01*
X183031961Y-111813095D02*
X183127200Y-111717857D01*
X183127200Y-111717857D02*
X183174819Y-111622619D01*
X183174819Y-111622619D02*
X183174819Y-111432143D01*
X183174819Y-111432143D02*
X183127200Y-111336905D01*
X183127200Y-111336905D02*
X183031961Y-111241667D01*
X183031961Y-111241667D02*
X182841485Y-111194048D01*
X182841485Y-111194048D02*
X182508152Y-111194048D01*
X182508152Y-111194048D02*
X182317676Y-111241667D01*
X182317676Y-111241667D02*
X182222438Y-111336905D01*
X182222438Y-111336905D02*
X182174819Y-111432143D01*
X183174819Y-112289286D02*
X182174819Y-112289286D01*
X183174819Y-112717857D02*
X182651009Y-112717857D01*
X182651009Y-112717857D02*
X182555771Y-112670238D01*
X182555771Y-112670238D02*
X182508152Y-112575000D01*
X182508152Y-112575000D02*
X182508152Y-112432143D01*
X182508152Y-112432143D02*
X182555771Y-112336905D01*
X182555771Y-112336905D02*
X182603390Y-112289286D01*
X183174819Y-113194048D02*
X182508152Y-113194048D01*
X182603390Y-113194048D02*
X182555771Y-113241667D01*
X182555771Y-113241667D02*
X182508152Y-113336905D01*
X182508152Y-113336905D02*
X182508152Y-113479762D01*
X182508152Y-113479762D02*
X182555771Y-113575000D01*
X182555771Y-113575000D02*
X182651009Y-113622619D01*
X182651009Y-113622619D02*
X183174819Y-113622619D01*
X182651009Y-113622619D02*
X182555771Y-113670238D01*
X182555771Y-113670238D02*
X182508152Y-113765476D01*
X182508152Y-113765476D02*
X182508152Y-113908333D01*
X182508152Y-113908333D02*
X182555771Y-114003572D01*
X182555771Y-114003572D02*
X182651009Y-114051191D01*
X182651009Y-114051191D02*
X183174819Y-114051191D01*
D11*
X181263855Y-110060714D02*
X180882902Y-109794047D01*
X181263855Y-109603571D02*
X180463855Y-109603571D01*
X180463855Y-109603571D02*
X180463855Y-109908333D01*
X180463855Y-109908333D02*
X180501950Y-109984523D01*
X180501950Y-109984523D02*
X180540045Y-110022618D01*
X180540045Y-110022618D02*
X180616236Y-110060714D01*
X180616236Y-110060714D02*
X180730521Y-110060714D01*
X180730521Y-110060714D02*
X180806712Y-110022618D01*
X180806712Y-110022618D02*
X180844807Y-109984523D01*
X180844807Y-109984523D02*
X180882902Y-109908333D01*
X180882902Y-109908333D02*
X180882902Y-109603571D01*
X181263855Y-110822618D02*
X181263855Y-110365475D01*
X181263855Y-110594047D02*
X180463855Y-110594047D01*
X180463855Y-110594047D02*
X180578140Y-110517856D01*
X180578140Y-110517856D02*
X180654331Y-110441666D01*
X180654331Y-110441666D02*
X180692426Y-110365475D01*
X180463855Y-111089285D02*
X180463855Y-111584523D01*
X180463855Y-111584523D02*
X180768617Y-111317857D01*
X180768617Y-111317857D02*
X180768617Y-111432142D01*
X180768617Y-111432142D02*
X180806712Y-111508333D01*
X180806712Y-111508333D02*
X180844807Y-111546428D01*
X180844807Y-111546428D02*
X180920998Y-111584523D01*
X180920998Y-111584523D02*
X181111474Y-111584523D01*
X181111474Y-111584523D02*
X181187664Y-111546428D01*
X181187664Y-111546428D02*
X181225760Y-111508333D01*
X181225760Y-111508333D02*
X181263855Y-111432142D01*
X181263855Y-111432142D02*
X181263855Y-111203571D01*
X181263855Y-111203571D02*
X181225760Y-111127380D01*
X181225760Y-111127380D02*
X181187664Y-111089285D01*
D12*
%TO.C,R1*%
X205162500Y-101100000D02*
X208362500Y-101100000D01*
X205162500Y-102700000D02*
X205162500Y-101100000D01*
X208362500Y-101100000D02*
X208362500Y-102700000D01*
X208362500Y-102700000D02*
X205162500Y-102700000D01*
%TO.C,U2*%
X188400000Y-105050000D02*
X190650000Y-105050000D01*
X188400000Y-108050000D02*
X188400000Y-105050000D01*
X190650000Y-105050000D02*
X191400000Y-105800000D01*
X191400000Y-105800000D02*
X191400000Y-108050000D01*
X191400000Y-108050000D02*
X188400000Y-108050000D01*
%TO.C,R12*%
X196150000Y-101025000D02*
X197750000Y-101025000D01*
X196150000Y-104225000D02*
X196150000Y-101025000D01*
X197750000Y-101025000D02*
X197750000Y-104225000D01*
X197750000Y-104225000D02*
X196150000Y-104225000D01*
%TO.C,U4*%
X204625000Y-104465000D02*
X207550000Y-104465000D01*
X204625000Y-109365000D02*
X204625000Y-104465000D01*
X207550000Y-104465000D02*
X208525000Y-105440000D01*
X208525000Y-105440000D02*
X208525000Y-109365000D01*
X208525000Y-109365000D02*
X204625000Y-109365000D01*
%TO.C,C1*%
X200350000Y-105275000D02*
X201950000Y-105275000D01*
X200350000Y-108475000D02*
X200350000Y-105275000D01*
X201950000Y-105275000D02*
X201950000Y-108475000D01*
X201950000Y-108475000D02*
X200350000Y-108475000D01*
%TO.C,R2*%
X204850000Y-110850000D02*
X208050000Y-110850000D01*
X204850000Y-112450000D02*
X204850000Y-110850000D01*
X208050000Y-110850000D02*
X208050000Y-112450000D01*
X208050000Y-112450000D02*
X204850000Y-112450000D01*
%TO.C,R10*%
X182975000Y-101300000D02*
X184575000Y-101300000D01*
X182975000Y-104500000D02*
X182975000Y-101300000D01*
X184575000Y-101300000D02*
X184575000Y-104500000D01*
X184575000Y-104500000D02*
X182975000Y-104500000D01*
%TO.C,C2*%
X190875000Y-101150000D02*
X194075000Y-101150000D01*
X190875000Y-102750000D02*
X190875000Y-101150000D01*
X194075000Y-101150000D02*
X194075000Y-102750000D01*
X194075000Y-102750000D02*
X190875000Y-102750000D01*
%TO.C,R11*%
X196125000Y-107425000D02*
X197725000Y-107425000D01*
X196125000Y-110625000D02*
X196125000Y-107425000D01*
X197725000Y-107425000D02*
X197725000Y-110625000D01*
X197725000Y-110625000D02*
X196125000Y-110625000D01*
%TO.C,C3*%
X190925000Y-98425000D02*
X194125000Y-98425000D01*
X190925000Y-100025000D02*
X190925000Y-98425000D01*
X194125000Y-98425000D02*
X194125000Y-100025000D01*
X194125000Y-100025000D02*
X190925000Y-100025000D01*
%TO.C,R13*%
X180100000Y-108975000D02*
X181700000Y-108975000D01*
X180100000Y-112175000D02*
X180100000Y-108975000D01*
X181700000Y-108975000D02*
X181700000Y-112175000D01*
X181700000Y-112175000D02*
X180100000Y-112175000D01*
%TD*%
M02*
