%TF.GenerationSoftware,KiCad,Pcbnew,8.0.3*%
%TF.CreationDate,2024-10-20T16:04:08+03:00*%
%TF.ProjectId,SmartPot,536d6172-7450-46f7-942e-6b696361645f,rev?*%
%TF.SameCoordinates,Original*%
%TF.FileFunction,Drillmap*%
%TF.FilePolarity,Positive*%
%FSLAX45Y45*%
G04 Gerber Fmt 4.5, Leading zero omitted, Abs format (unit mm)*
G04 Created by KiCad (PCBNEW 8.0.3) date 2024-10-20 16:04:08*
%MOMM*%
%LPD*%
G01*
G04 APERTURE LIST*
%ADD10C,0.050000*%
%ADD11C,0.200000*%
%ADD12C,0.100000*%
%ADD13C,0.130000*%
%ADD14C,0.152000*%
G04 APERTURE END LIST*
D10*
X16773750Y-8342500D02*
X25456250Y-8342500D01*
X25456250Y-12602500D01*
X16773750Y-12602500D01*
X16773750Y-8342500D01*
D11*
D12*
X18017500Y-9117500D02*
X18047500Y-9147500D01*
X18047500Y-9117500D02*
X18017500Y-9147500D01*
X18182500Y-10557500D02*
X18212500Y-10587500D01*
X18212500Y-10557500D02*
X18182500Y-10587500D01*
X18527500Y-10287500D02*
X18557500Y-10317500D01*
X18557500Y-10287500D02*
X18527500Y-10317500D01*
X18840000Y-10300000D02*
X18870000Y-10330000D01*
X18870000Y-10300000D02*
X18840000Y-10330000D01*
X18875000Y-9490000D02*
X18905000Y-9520000D01*
X18905000Y-9490000D02*
X18875000Y-9520000D01*
X19277500Y-9637500D02*
X19307500Y-9667500D01*
X19307500Y-9637500D02*
X19277500Y-9667500D01*
X19537500Y-9797500D02*
X19567500Y-9827500D01*
X19567500Y-9797500D02*
X19537500Y-9827500D01*
X19725000Y-9095000D02*
X19755000Y-9125000D01*
X19755000Y-9095000D02*
X19725000Y-9125000D01*
X19879214Y-10701714D02*
X19909214Y-10731714D01*
X19909214Y-10701714D02*
X19879214Y-10731714D01*
X19882500Y-10512500D02*
X19912500Y-10542500D01*
X19912500Y-10512500D02*
X19882500Y-10542500D01*
X20002500Y-10957500D02*
X20032500Y-10987500D01*
X20032500Y-10957500D02*
X20002500Y-10987500D01*
X20230000Y-11202500D02*
X20260000Y-11232500D01*
X20260000Y-11202500D02*
X20230000Y-11232500D01*
X20242500Y-11327500D02*
X20272500Y-11357500D01*
X20272500Y-11327500D02*
X20242500Y-11357500D01*
X20357500Y-9677500D02*
X20387500Y-9707500D01*
X20387500Y-9677500D02*
X20357500Y-9707500D01*
X20430000Y-9145000D02*
X20460000Y-9175000D01*
X20460000Y-9145000D02*
X20430000Y-9175000D01*
X20540402Y-10771864D02*
X20570402Y-10801864D01*
X20570402Y-10771864D02*
X20540402Y-10801864D01*
X20545000Y-10535000D02*
X20575000Y-10565000D01*
X20575000Y-10535000D02*
X20545000Y-10565000D01*
X20580000Y-9795000D02*
X20610000Y-9825000D01*
X20610000Y-9795000D02*
X20580000Y-9825000D01*
X20629236Y-10019436D02*
X20659236Y-10049436D01*
X20659236Y-10019436D02*
X20629236Y-10049436D01*
X20807975Y-9817300D02*
X20837975Y-9847300D01*
X20837975Y-9817300D02*
X20807975Y-9847300D01*
X20820000Y-10007700D02*
X20850000Y-10037700D01*
X20850000Y-10007700D02*
X20820000Y-10037700D01*
X20822500Y-11335000D02*
X20852500Y-11365000D01*
X20852500Y-11335000D02*
X20822500Y-11365000D01*
X20834202Y-10385000D02*
X20864202Y-10415000D01*
X20864202Y-10385000D02*
X20834202Y-10415000D01*
X20930000Y-10406000D02*
X20960000Y-10436000D01*
X20960000Y-10406000D02*
X20930000Y-10436000D01*
X20988750Y-10123750D02*
X21018750Y-10153750D01*
X21018750Y-10123750D02*
X20988750Y-10153750D01*
X21132500Y-9650000D02*
X21162500Y-9680000D01*
X21162500Y-9650000D02*
X21132500Y-9680000D01*
X21185000Y-11067500D02*
X21215000Y-11097500D01*
X21215000Y-11067500D02*
X21185000Y-11097500D01*
X21295000Y-11175000D02*
X21325000Y-11205000D01*
X21325000Y-11175000D02*
X21295000Y-11205000D01*
X21357700Y-10958235D02*
X21387700Y-10988235D01*
X21387700Y-10958235D02*
X21357700Y-10988235D01*
X21357700Y-11062841D02*
X21387700Y-11092841D01*
X21387700Y-11062841D02*
X21357700Y-11092841D01*
X21422300Y-10764612D02*
X21452300Y-10794612D01*
X21452300Y-10764612D02*
X21422300Y-10794612D01*
X21487700Y-11165000D02*
X21517700Y-11195000D01*
X21517700Y-11165000D02*
X21487700Y-11195000D01*
X21572500Y-11562500D02*
X21602500Y-11592500D01*
X21602500Y-11562500D02*
X21572500Y-11592500D01*
X21781250Y-9868750D02*
X21811250Y-9898750D01*
X21811250Y-9868750D02*
X21781250Y-9898750D01*
X21927500Y-10532500D02*
X21957500Y-10562500D01*
X21957500Y-10532500D02*
X21927500Y-10562500D01*
X22022500Y-11473100D02*
X22052500Y-11503100D01*
X22052500Y-11473100D02*
X22022500Y-11503100D01*
X22132500Y-10205000D02*
X22162500Y-10235000D01*
X22162500Y-10205000D02*
X22132500Y-10235000D01*
X22187500Y-11485000D02*
X22217500Y-11515000D01*
X22217500Y-11485000D02*
X22187500Y-11515000D01*
X22212500Y-11877500D02*
X22242500Y-11907500D01*
X22242500Y-11877500D02*
X22212500Y-11907500D01*
X23300000Y-10342500D02*
X23330000Y-10372500D01*
X23330000Y-10342500D02*
X23300000Y-10372500D01*
X23415000Y-11945000D02*
X23445000Y-11975000D01*
X23445000Y-11945000D02*
X23415000Y-11975000D01*
X18136000Y-11455000D02*
G75*
G02*
X18056000Y-11455000I-40000J0D01*
G01*
X18056000Y-11455000D02*
G75*
G02*
X18136000Y-11455000I40000J0D01*
G01*
X18326000Y-9870000D02*
G75*
G02*
X18246000Y-9870000I-40000J0D01*
G01*
X18246000Y-9870000D02*
G75*
G02*
X18326000Y-9870000I40000J0D01*
G01*
X18390000Y-11455000D02*
G75*
G02*
X18310000Y-11455000I-40000J0D01*
G01*
X18310000Y-11455000D02*
G75*
G02*
X18390000Y-11455000I40000J0D01*
G01*
X18580000Y-9870000D02*
G75*
G02*
X18500000Y-9870000I-40000J0D01*
G01*
X18500000Y-9870000D02*
G75*
G02*
X18580000Y-9870000I40000J0D01*
G01*
X19818500Y-11490000D02*
G75*
G02*
X19738500Y-11490000I-40000J0D01*
G01*
X19738500Y-11490000D02*
G75*
G02*
X19818500Y-11490000I40000J0D01*
G01*
X19916000Y-9885000D02*
G75*
G02*
X19836000Y-9885000I-40000J0D01*
G01*
X19836000Y-9885000D02*
G75*
G02*
X19916000Y-9885000I40000J0D01*
G01*
X20072500Y-11490000D02*
G75*
G02*
X19992500Y-11490000I-40000J0D01*
G01*
X19992500Y-11490000D02*
G75*
G02*
X20072500Y-11490000I40000J0D01*
G01*
X20170000Y-9885000D02*
G75*
G02*
X20090000Y-9885000I-40000J0D01*
G01*
X20090000Y-9885000D02*
G75*
G02*
X20170000Y-9885000I40000J0D01*
G01*
X21716000Y-9665000D02*
X21716000Y-9755000D01*
X21671000Y-9710000D02*
X21761000Y-9710000D01*
X21970000Y-9665000D02*
X21970000Y-9755000D01*
X21925000Y-9710000D02*
X22015000Y-9710000D01*
X17730356Y-9027856D02*
X17730356Y-8957144D01*
X17659644Y-8957144D01*
X17659644Y-9027856D01*
X17730356Y-9027856D01*
X17645000Y-8892500D02*
X17645000Y-9092500D01*
X17745000Y-9092500D02*
G75*
G02*
X17645000Y-9092500I-50000J0D01*
G01*
X17745000Y-9092500D02*
X17745000Y-8892500D01*
X17745000Y-8892500D02*
G75*
G03*
X17645000Y-8892500I-50000J0D01*
G01*
X18030356Y-9497856D02*
X18030356Y-9427144D01*
X17959644Y-9427144D01*
X17959644Y-9497856D01*
X18030356Y-9497856D01*
X17895000Y-9512500D02*
X18095000Y-9512500D01*
X18095000Y-9412500D02*
G75*
G02*
X18095000Y-9512500I0J-50000D01*
G01*
X18095000Y-9412500D02*
X17895000Y-9412500D01*
X17895000Y-9412500D02*
G75*
G03*
X17895000Y-9512500I0J-50000D01*
G01*
X18350356Y-9027856D02*
X18350356Y-8957144D01*
X18279644Y-8957144D01*
X18279644Y-9027856D01*
X18350356Y-9027856D01*
X18265000Y-8867500D02*
X18265000Y-9117500D01*
X18365000Y-9117500D02*
G75*
G02*
X18265000Y-9117500I-50000J0D01*
G01*
X18365000Y-9117500D02*
X18365000Y-8867500D01*
X18365000Y-8867500D02*
G75*
G03*
X18265000Y-8867500I-50000J0D01*
G01*
X18723356Y-11382856D02*
X18723356Y-11312144D01*
X18652644Y-11312144D01*
X18652644Y-11382856D01*
X18723356Y-11382856D01*
X18835356Y-11762856D02*
X18835356Y-11692144D01*
X18764644Y-11692144D01*
X18764644Y-11762856D01*
X18835356Y-11762856D01*
X18977356Y-11382856D02*
X18977356Y-11312144D01*
X18906644Y-11312144D01*
X18906644Y-11382856D01*
X18977356Y-11382856D01*
X19089356Y-11762856D02*
X19089356Y-11692144D01*
X19018644Y-11692144D01*
X19018644Y-11762856D01*
X19089356Y-11762856D01*
X19231356Y-11382856D02*
X19231356Y-11312144D01*
X19160644Y-11312144D01*
X19160644Y-11382856D01*
X19231356Y-11382856D01*
X19343356Y-11762856D02*
X19343356Y-11692144D01*
X19272644Y-11692144D01*
X19272644Y-11762856D01*
X19343356Y-11762856D01*
X19485356Y-11382856D02*
X19485356Y-11312144D01*
X19414644Y-11312144D01*
X19414644Y-11382856D01*
X19485356Y-11382856D01*
X21892856Y-11755356D02*
X21892856Y-11684644D01*
X21822144Y-11684644D01*
X21822144Y-11755356D01*
X21892856Y-11755356D01*
X22018856Y-12135356D02*
X22018856Y-12064644D01*
X21948144Y-12064644D01*
X21948144Y-12135356D01*
X22018856Y-12135356D01*
X22146856Y-11755356D02*
X22146856Y-11684644D01*
X22076144Y-11684644D01*
X22076144Y-11755356D01*
X22146856Y-11755356D01*
X22272856Y-12135356D02*
X22272856Y-12064644D01*
X22202144Y-12064644D01*
X22202144Y-12135356D01*
X22272856Y-12135356D01*
X22400856Y-11755356D02*
X22400856Y-11684644D01*
X22330144Y-11684644D01*
X22330144Y-11755356D01*
X22400856Y-11755356D01*
X22670356Y-9200356D02*
X22670356Y-9129644D01*
X22599644Y-9129644D01*
X22599644Y-9200356D01*
X22670356Y-9200356D01*
X22870356Y-8600356D02*
X22870356Y-8529644D01*
X22799644Y-8529644D01*
X22799644Y-8600356D01*
X22870356Y-8600356D01*
X22870356Y-9800356D02*
X22870356Y-9729644D01*
X22799644Y-9729644D01*
X22799644Y-9800356D01*
X22870356Y-9800356D01*
X22882856Y-10713856D02*
X22882856Y-10643144D01*
X22812144Y-10643144D01*
X22812144Y-10713856D01*
X22882856Y-10713856D01*
X22882856Y-10967856D02*
X22882856Y-10897144D01*
X22812144Y-10897144D01*
X22812144Y-10967856D01*
X22882856Y-10967856D01*
X22895956Y-11395856D02*
X22895956Y-11325144D01*
X22825244Y-11325144D01*
X22825244Y-11395856D01*
X22895956Y-11395856D01*
X22895956Y-11649856D02*
X22895956Y-11579144D01*
X22825244Y-11579144D01*
X22825244Y-11649856D01*
X22895956Y-11649856D01*
X22895956Y-11903856D02*
X22895956Y-11833144D01*
X22825244Y-11833144D01*
X22825244Y-11903856D01*
X22895956Y-11903856D01*
X22895956Y-12157856D02*
X22895956Y-12087144D01*
X22825244Y-12087144D01*
X22825244Y-12157856D01*
X22895956Y-12157856D01*
X22895956Y-12411856D02*
X22895956Y-12341144D01*
X22825244Y-12341144D01*
X22825244Y-12411856D01*
X22895956Y-12411856D01*
X23195956Y-10210356D02*
X23195956Y-10139644D01*
X23125244Y-10139644D01*
X23125244Y-10210356D01*
X23195956Y-10210356D01*
X23195956Y-10464356D02*
X23195956Y-10393644D01*
X23125244Y-10393644D01*
X23125244Y-10464356D01*
X23195956Y-10464356D01*
X23195956Y-10718356D02*
X23195956Y-10647644D01*
X23125244Y-10647644D01*
X23125244Y-10718356D01*
X23195956Y-10718356D01*
X23195956Y-10972356D02*
X23195956Y-10901644D01*
X23125244Y-10901644D01*
X23125244Y-10972356D01*
X23195956Y-10972356D01*
X24090356Y-9800356D02*
X24090356Y-9729644D01*
X24019644Y-9729644D01*
X24019644Y-9800356D01*
X24090356Y-9800356D01*
D13*
X17390000Y-10170000D02*
X17455000Y-10105000D01*
X17390000Y-10040000D01*
X17325000Y-10105000D01*
X17390000Y-10170000D01*
X17390000Y-10670000D02*
X17455000Y-10605000D01*
X17390000Y-10540000D01*
X17325000Y-10605000D01*
X17390000Y-10670000D01*
X17390000Y-11170000D02*
X17455000Y-11105000D01*
X17390000Y-11040000D01*
X17325000Y-11105000D01*
X17390000Y-11170000D01*
X17390000Y-11670000D02*
X17455000Y-11605000D01*
X17390000Y-11540000D01*
X17325000Y-11605000D01*
X17390000Y-11670000D01*
D14*
X24794000Y-9096000D02*
X24946000Y-9248000D01*
X24946000Y-9096000D02*
X24794000Y-9248000D01*
X24946000Y-9172000D02*
G75*
G02*
X24794000Y-9172000I-76000J0D01*
G01*
X24794000Y-9172000D02*
G75*
G02*
X24946000Y-9172000I76000J0D01*
G01*
X24794000Y-9604000D02*
X24946000Y-9756000D01*
X24946000Y-9604000D02*
X24794000Y-9756000D01*
X24946000Y-9680000D02*
G75*
G02*
X24794000Y-9680000I-76000J0D01*
G01*
X24794000Y-9680000D02*
G75*
G02*
X24946000Y-9680000I76000J0D01*
G01*
X24796500Y-10206500D02*
X24948500Y-10358500D01*
X24948500Y-10206500D02*
X24796500Y-10358500D01*
X24948500Y-10282500D02*
G75*
G02*
X24796500Y-10282500I-76000J0D01*
G01*
X24796500Y-10282500D02*
G75*
G02*
X24948500Y-10282500I76000J0D01*
G01*
X24796500Y-10714500D02*
X24948500Y-10866500D01*
X24948500Y-10714500D02*
X24796500Y-10866500D01*
X24948500Y-10790500D02*
G75*
G02*
X24796500Y-10790500I-76000J0D01*
G01*
X24796500Y-10790500D02*
G75*
G02*
X24948500Y-10790500I76000J0D01*
G01*
D11*
X17032027Y-12916484D02*
X17032027Y-12716484D01*
X17032027Y-12716484D02*
X17079646Y-12716484D01*
X17079646Y-12716484D02*
X17108217Y-12726008D01*
X17108217Y-12726008D02*
X17127265Y-12745055D01*
X17127265Y-12745055D02*
X17136789Y-12764103D01*
X17136789Y-12764103D02*
X17146313Y-12802198D01*
X17146313Y-12802198D02*
X17146313Y-12830769D01*
X17146313Y-12830769D02*
X17136789Y-12868865D01*
X17136789Y-12868865D02*
X17127265Y-12887912D01*
X17127265Y-12887912D02*
X17108217Y-12906960D01*
X17108217Y-12906960D02*
X17079646Y-12916484D01*
X17079646Y-12916484D02*
X17032027Y-12916484D01*
X17232027Y-12916484D02*
X17232027Y-12783150D01*
X17232027Y-12821246D02*
X17241551Y-12802198D01*
X17241551Y-12802198D02*
X17251074Y-12792674D01*
X17251074Y-12792674D02*
X17270122Y-12783150D01*
X17270122Y-12783150D02*
X17289170Y-12783150D01*
X17355836Y-12916484D02*
X17355836Y-12783150D01*
X17355836Y-12716484D02*
X17346313Y-12726008D01*
X17346313Y-12726008D02*
X17355836Y-12735531D01*
X17355836Y-12735531D02*
X17365360Y-12726008D01*
X17365360Y-12726008D02*
X17355836Y-12716484D01*
X17355836Y-12716484D02*
X17355836Y-12735531D01*
X17479646Y-12916484D02*
X17460598Y-12906960D01*
X17460598Y-12906960D02*
X17451074Y-12887912D01*
X17451074Y-12887912D02*
X17451074Y-12716484D01*
X17584408Y-12916484D02*
X17565360Y-12906960D01*
X17565360Y-12906960D02*
X17555836Y-12887912D01*
X17555836Y-12887912D02*
X17555836Y-12716484D01*
X17812979Y-12916484D02*
X17812979Y-12716484D01*
X17812979Y-12716484D02*
X17879646Y-12859341D01*
X17879646Y-12859341D02*
X17946313Y-12716484D01*
X17946313Y-12716484D02*
X17946313Y-12916484D01*
X18127265Y-12916484D02*
X18127265Y-12811722D01*
X18127265Y-12811722D02*
X18117741Y-12792674D01*
X18117741Y-12792674D02*
X18098694Y-12783150D01*
X18098694Y-12783150D02*
X18060598Y-12783150D01*
X18060598Y-12783150D02*
X18041551Y-12792674D01*
X18127265Y-12906960D02*
X18108217Y-12916484D01*
X18108217Y-12916484D02*
X18060598Y-12916484D01*
X18060598Y-12916484D02*
X18041551Y-12906960D01*
X18041551Y-12906960D02*
X18032027Y-12887912D01*
X18032027Y-12887912D02*
X18032027Y-12868865D01*
X18032027Y-12868865D02*
X18041551Y-12849817D01*
X18041551Y-12849817D02*
X18060598Y-12840293D01*
X18060598Y-12840293D02*
X18108217Y-12840293D01*
X18108217Y-12840293D02*
X18127265Y-12830769D01*
X18222503Y-12783150D02*
X18222503Y-12983150D01*
X18222503Y-12792674D02*
X18241551Y-12783150D01*
X18241551Y-12783150D02*
X18279646Y-12783150D01*
X18279646Y-12783150D02*
X18298694Y-12792674D01*
X18298694Y-12792674D02*
X18308217Y-12802198D01*
X18308217Y-12802198D02*
X18317741Y-12821246D01*
X18317741Y-12821246D02*
X18317741Y-12878388D01*
X18317741Y-12878388D02*
X18308217Y-12897436D01*
X18308217Y-12897436D02*
X18298694Y-12906960D01*
X18298694Y-12906960D02*
X18279646Y-12916484D01*
X18279646Y-12916484D02*
X18241551Y-12916484D01*
X18241551Y-12916484D02*
X18222503Y-12906960D01*
X18403455Y-12897436D02*
X18412979Y-12906960D01*
X18412979Y-12906960D02*
X18403455Y-12916484D01*
X18403455Y-12916484D02*
X18393932Y-12906960D01*
X18393932Y-12906960D02*
X18403455Y-12897436D01*
X18403455Y-12897436D02*
X18403455Y-12916484D01*
X18403455Y-12792674D02*
X18412979Y-12802198D01*
X18412979Y-12802198D02*
X18403455Y-12811722D01*
X18403455Y-12811722D02*
X18393932Y-12802198D01*
X18393932Y-12802198D02*
X18403455Y-12792674D01*
X18403455Y-12792674D02*
X18403455Y-12811722D01*
D12*
X16741250Y-13230000D02*
X16771250Y-13260000D01*
X16771250Y-13230000D02*
X16741250Y-13260000D01*
D11*
X17070122Y-13136484D02*
X17089170Y-13136484D01*
X17089170Y-13136484D02*
X17108217Y-13146008D01*
X17108217Y-13146008D02*
X17117741Y-13155531D01*
X17117741Y-13155531D02*
X17127265Y-13174579D01*
X17127265Y-13174579D02*
X17136789Y-13212674D01*
X17136789Y-13212674D02*
X17136789Y-13260293D01*
X17136789Y-13260293D02*
X17127265Y-13298388D01*
X17127265Y-13298388D02*
X17117741Y-13317436D01*
X17117741Y-13317436D02*
X17108217Y-13326960D01*
X17108217Y-13326960D02*
X17089170Y-13336484D01*
X17089170Y-13336484D02*
X17070122Y-13336484D01*
X17070122Y-13336484D02*
X17051074Y-13326960D01*
X17051074Y-13326960D02*
X17041551Y-13317436D01*
X17041551Y-13317436D02*
X17032027Y-13298388D01*
X17032027Y-13298388D02*
X17022503Y-13260293D01*
X17022503Y-13260293D02*
X17022503Y-13212674D01*
X17022503Y-13212674D02*
X17032027Y-13174579D01*
X17032027Y-13174579D02*
X17041551Y-13155531D01*
X17041551Y-13155531D02*
X17051074Y-13146008D01*
X17051074Y-13146008D02*
X17070122Y-13136484D01*
X17222503Y-13317436D02*
X17232027Y-13326960D01*
X17232027Y-13326960D02*
X17222503Y-13336484D01*
X17222503Y-13336484D02*
X17212979Y-13326960D01*
X17212979Y-13326960D02*
X17222503Y-13317436D01*
X17222503Y-13317436D02*
X17222503Y-13336484D01*
X17298694Y-13136484D02*
X17422503Y-13136484D01*
X17422503Y-13136484D02*
X17355836Y-13212674D01*
X17355836Y-13212674D02*
X17384408Y-13212674D01*
X17384408Y-13212674D02*
X17403455Y-13222198D01*
X17403455Y-13222198D02*
X17412979Y-13231722D01*
X17412979Y-13231722D02*
X17422503Y-13250769D01*
X17422503Y-13250769D02*
X17422503Y-13298388D01*
X17422503Y-13298388D02*
X17412979Y-13317436D01*
X17412979Y-13317436D02*
X17403455Y-13326960D01*
X17403455Y-13326960D02*
X17384408Y-13336484D01*
X17384408Y-13336484D02*
X17327265Y-13336484D01*
X17327265Y-13336484D02*
X17308217Y-13326960D01*
X17308217Y-13326960D02*
X17298694Y-13317436D01*
X17546313Y-13136484D02*
X17565360Y-13136484D01*
X17565360Y-13136484D02*
X17584408Y-13146008D01*
X17584408Y-13146008D02*
X17593932Y-13155531D01*
X17593932Y-13155531D02*
X17603455Y-13174579D01*
X17603455Y-13174579D02*
X17612979Y-13212674D01*
X17612979Y-13212674D02*
X17612979Y-13260293D01*
X17612979Y-13260293D02*
X17603455Y-13298388D01*
X17603455Y-13298388D02*
X17593932Y-13317436D01*
X17593932Y-13317436D02*
X17584408Y-13326960D01*
X17584408Y-13326960D02*
X17565360Y-13336484D01*
X17565360Y-13336484D02*
X17546313Y-13336484D01*
X17546313Y-13336484D02*
X17527265Y-13326960D01*
X17527265Y-13326960D02*
X17517741Y-13317436D01*
X17517741Y-13317436D02*
X17508217Y-13298388D01*
X17508217Y-13298388D02*
X17498694Y-13260293D01*
X17498694Y-13260293D02*
X17498694Y-13212674D01*
X17498694Y-13212674D02*
X17508217Y-13174579D01*
X17508217Y-13174579D02*
X17517741Y-13155531D01*
X17517741Y-13155531D02*
X17527265Y-13146008D01*
X17527265Y-13146008D02*
X17546313Y-13136484D01*
X17736789Y-13136484D02*
X17755836Y-13136484D01*
X17755836Y-13136484D02*
X17774884Y-13146008D01*
X17774884Y-13146008D02*
X17784408Y-13155531D01*
X17784408Y-13155531D02*
X17793932Y-13174579D01*
X17793932Y-13174579D02*
X17803455Y-13212674D01*
X17803455Y-13212674D02*
X17803455Y-13260293D01*
X17803455Y-13260293D02*
X17793932Y-13298388D01*
X17793932Y-13298388D02*
X17784408Y-13317436D01*
X17784408Y-13317436D02*
X17774884Y-13326960D01*
X17774884Y-13326960D02*
X17755836Y-13336484D01*
X17755836Y-13336484D02*
X17736789Y-13336484D01*
X17736789Y-13336484D02*
X17717741Y-13326960D01*
X17717741Y-13326960D02*
X17708217Y-13317436D01*
X17708217Y-13317436D02*
X17698694Y-13298388D01*
X17698694Y-13298388D02*
X17689170Y-13260293D01*
X17689170Y-13260293D02*
X17689170Y-13212674D01*
X17689170Y-13212674D02*
X17698694Y-13174579D01*
X17698694Y-13174579D02*
X17708217Y-13155531D01*
X17708217Y-13155531D02*
X17717741Y-13146008D01*
X17717741Y-13146008D02*
X17736789Y-13136484D01*
X17889170Y-13336484D02*
X17889170Y-13203150D01*
X17889170Y-13222198D02*
X17898694Y-13212674D01*
X17898694Y-13212674D02*
X17917741Y-13203150D01*
X17917741Y-13203150D02*
X17946313Y-13203150D01*
X17946313Y-13203150D02*
X17965360Y-13212674D01*
X17965360Y-13212674D02*
X17974884Y-13231722D01*
X17974884Y-13231722D02*
X17974884Y-13336484D01*
X17974884Y-13231722D02*
X17984408Y-13212674D01*
X17984408Y-13212674D02*
X18003455Y-13203150D01*
X18003455Y-13203150D02*
X18032027Y-13203150D01*
X18032027Y-13203150D02*
X18051075Y-13212674D01*
X18051075Y-13212674D02*
X18060598Y-13231722D01*
X18060598Y-13231722D02*
X18060598Y-13336484D01*
X18155836Y-13336484D02*
X18155836Y-13203150D01*
X18155836Y-13222198D02*
X18165360Y-13212674D01*
X18165360Y-13212674D02*
X18184408Y-13203150D01*
X18184408Y-13203150D02*
X18212979Y-13203150D01*
X18212979Y-13203150D02*
X18232027Y-13212674D01*
X18232027Y-13212674D02*
X18241551Y-13231722D01*
X18241551Y-13231722D02*
X18241551Y-13336484D01*
X18241551Y-13231722D02*
X18251075Y-13212674D01*
X18251075Y-13212674D02*
X18270122Y-13203150D01*
X18270122Y-13203150D02*
X18298694Y-13203150D01*
X18298694Y-13203150D02*
X18317741Y-13212674D01*
X18317741Y-13212674D02*
X18327265Y-13231722D01*
X18327265Y-13231722D02*
X18327265Y-13336484D01*
X18717741Y-13126960D02*
X18546313Y-13384103D01*
X18974884Y-13136484D02*
X18993932Y-13136484D01*
X18993932Y-13136484D02*
X19012979Y-13146008D01*
X19012979Y-13146008D02*
X19022503Y-13155531D01*
X19022503Y-13155531D02*
X19032027Y-13174579D01*
X19032027Y-13174579D02*
X19041551Y-13212674D01*
X19041551Y-13212674D02*
X19041551Y-13260293D01*
X19041551Y-13260293D02*
X19032027Y-13298388D01*
X19032027Y-13298388D02*
X19022503Y-13317436D01*
X19022503Y-13317436D02*
X19012979Y-13326960D01*
X19012979Y-13326960D02*
X18993932Y-13336484D01*
X18993932Y-13336484D02*
X18974884Y-13336484D01*
X18974884Y-13336484D02*
X18955837Y-13326960D01*
X18955837Y-13326960D02*
X18946313Y-13317436D01*
X18946313Y-13317436D02*
X18936789Y-13298388D01*
X18936789Y-13298388D02*
X18927265Y-13260293D01*
X18927265Y-13260293D02*
X18927265Y-13212674D01*
X18927265Y-13212674D02*
X18936789Y-13174579D01*
X18936789Y-13174579D02*
X18946313Y-13155531D01*
X18946313Y-13155531D02*
X18955837Y-13146008D01*
X18955837Y-13146008D02*
X18974884Y-13136484D01*
X19127265Y-13317436D02*
X19136789Y-13326960D01*
X19136789Y-13326960D02*
X19127265Y-13336484D01*
X19127265Y-13336484D02*
X19117741Y-13326960D01*
X19117741Y-13326960D02*
X19127265Y-13317436D01*
X19127265Y-13317436D02*
X19127265Y-13336484D01*
X19260598Y-13136484D02*
X19279646Y-13136484D01*
X19279646Y-13136484D02*
X19298694Y-13146008D01*
X19298694Y-13146008D02*
X19308218Y-13155531D01*
X19308218Y-13155531D02*
X19317741Y-13174579D01*
X19317741Y-13174579D02*
X19327265Y-13212674D01*
X19327265Y-13212674D02*
X19327265Y-13260293D01*
X19327265Y-13260293D02*
X19317741Y-13298388D01*
X19317741Y-13298388D02*
X19308218Y-13317436D01*
X19308218Y-13317436D02*
X19298694Y-13326960D01*
X19298694Y-13326960D02*
X19279646Y-13336484D01*
X19279646Y-13336484D02*
X19260598Y-13336484D01*
X19260598Y-13336484D02*
X19241551Y-13326960D01*
X19241551Y-13326960D02*
X19232027Y-13317436D01*
X19232027Y-13317436D02*
X19222503Y-13298388D01*
X19222503Y-13298388D02*
X19212979Y-13260293D01*
X19212979Y-13260293D02*
X19212979Y-13212674D01*
X19212979Y-13212674D02*
X19222503Y-13174579D01*
X19222503Y-13174579D02*
X19232027Y-13155531D01*
X19232027Y-13155531D02*
X19241551Y-13146008D01*
X19241551Y-13146008D02*
X19260598Y-13136484D01*
X19517741Y-13336484D02*
X19403456Y-13336484D01*
X19460598Y-13336484D02*
X19460598Y-13136484D01*
X19460598Y-13136484D02*
X19441551Y-13165055D01*
X19441551Y-13165055D02*
X19422503Y-13184103D01*
X19422503Y-13184103D02*
X19403456Y-13193627D01*
X19708218Y-13336484D02*
X19593932Y-13336484D01*
X19651075Y-13336484D02*
X19651075Y-13136484D01*
X19651075Y-13136484D02*
X19632027Y-13165055D01*
X19632027Y-13165055D02*
X19612979Y-13184103D01*
X19612979Y-13184103D02*
X19593932Y-13193627D01*
X19822503Y-13222198D02*
X19803456Y-13212674D01*
X19803456Y-13212674D02*
X19793932Y-13203150D01*
X19793932Y-13203150D02*
X19784408Y-13184103D01*
X19784408Y-13184103D02*
X19784408Y-13174579D01*
X19784408Y-13174579D02*
X19793932Y-13155531D01*
X19793932Y-13155531D02*
X19803456Y-13146008D01*
X19803456Y-13146008D02*
X19822503Y-13136484D01*
X19822503Y-13136484D02*
X19860599Y-13136484D01*
X19860599Y-13136484D02*
X19879646Y-13146008D01*
X19879646Y-13146008D02*
X19889170Y-13155531D01*
X19889170Y-13155531D02*
X19898694Y-13174579D01*
X19898694Y-13174579D02*
X19898694Y-13184103D01*
X19898694Y-13184103D02*
X19889170Y-13203150D01*
X19889170Y-13203150D02*
X19879646Y-13212674D01*
X19879646Y-13212674D02*
X19860599Y-13222198D01*
X19860599Y-13222198D02*
X19822503Y-13222198D01*
X19822503Y-13222198D02*
X19803456Y-13231722D01*
X19803456Y-13231722D02*
X19793932Y-13241246D01*
X19793932Y-13241246D02*
X19784408Y-13260293D01*
X19784408Y-13260293D02*
X19784408Y-13298388D01*
X19784408Y-13298388D02*
X19793932Y-13317436D01*
X19793932Y-13317436D02*
X19803456Y-13326960D01*
X19803456Y-13326960D02*
X19822503Y-13336484D01*
X19822503Y-13336484D02*
X19860599Y-13336484D01*
X19860599Y-13336484D02*
X19879646Y-13326960D01*
X19879646Y-13326960D02*
X19889170Y-13317436D01*
X19889170Y-13317436D02*
X19898694Y-13298388D01*
X19898694Y-13298388D02*
X19898694Y-13260293D01*
X19898694Y-13260293D02*
X19889170Y-13241246D01*
X19889170Y-13241246D02*
X19879646Y-13231722D01*
X19879646Y-13231722D02*
X19860599Y-13222198D01*
X19974884Y-13136484D02*
X19974884Y-13174579D01*
X20051075Y-13136484D02*
X20051075Y-13174579D01*
X20346313Y-13412674D02*
X20336789Y-13403150D01*
X20336789Y-13403150D02*
X20317741Y-13374579D01*
X20317741Y-13374579D02*
X20308218Y-13355531D01*
X20308218Y-13355531D02*
X20298694Y-13326960D01*
X20298694Y-13326960D02*
X20289170Y-13279341D01*
X20289170Y-13279341D02*
X20289170Y-13241246D01*
X20289170Y-13241246D02*
X20298694Y-13193627D01*
X20298694Y-13193627D02*
X20308218Y-13165055D01*
X20308218Y-13165055D02*
X20317741Y-13146008D01*
X20317741Y-13146008D02*
X20336789Y-13117436D01*
X20336789Y-13117436D02*
X20346313Y-13107912D01*
X20508218Y-13203150D02*
X20508218Y-13336484D01*
X20460599Y-13126960D02*
X20412980Y-13269817D01*
X20412980Y-13269817D02*
X20536789Y-13269817D01*
X20717741Y-13336484D02*
X20603456Y-13336484D01*
X20660599Y-13336484D02*
X20660599Y-13136484D01*
X20660599Y-13136484D02*
X20641551Y-13165055D01*
X20641551Y-13165055D02*
X20622503Y-13184103D01*
X20622503Y-13184103D02*
X20603456Y-13193627D01*
X20955837Y-13336484D02*
X20955837Y-13136484D01*
X21041551Y-13336484D02*
X21041551Y-13231722D01*
X21041551Y-13231722D02*
X21032027Y-13212674D01*
X21032027Y-13212674D02*
X21012980Y-13203150D01*
X21012980Y-13203150D02*
X20984408Y-13203150D01*
X20984408Y-13203150D02*
X20965361Y-13212674D01*
X20965361Y-13212674D02*
X20955837Y-13222198D01*
X21165361Y-13336484D02*
X21146313Y-13326960D01*
X21146313Y-13326960D02*
X21136789Y-13317436D01*
X21136789Y-13317436D02*
X21127265Y-13298388D01*
X21127265Y-13298388D02*
X21127265Y-13241246D01*
X21127265Y-13241246D02*
X21136789Y-13222198D01*
X21136789Y-13222198D02*
X21146313Y-13212674D01*
X21146313Y-13212674D02*
X21165361Y-13203150D01*
X21165361Y-13203150D02*
X21193932Y-13203150D01*
X21193932Y-13203150D02*
X21212980Y-13212674D01*
X21212980Y-13212674D02*
X21222503Y-13222198D01*
X21222503Y-13222198D02*
X21232027Y-13241246D01*
X21232027Y-13241246D02*
X21232027Y-13298388D01*
X21232027Y-13298388D02*
X21222503Y-13317436D01*
X21222503Y-13317436D02*
X21212980Y-13326960D01*
X21212980Y-13326960D02*
X21193932Y-13336484D01*
X21193932Y-13336484D02*
X21165361Y-13336484D01*
X21346313Y-13336484D02*
X21327265Y-13326960D01*
X21327265Y-13326960D02*
X21317742Y-13307912D01*
X21317742Y-13307912D02*
X21317742Y-13136484D01*
X21498694Y-13326960D02*
X21479646Y-13336484D01*
X21479646Y-13336484D02*
X21441551Y-13336484D01*
X21441551Y-13336484D02*
X21422503Y-13326960D01*
X21422503Y-13326960D02*
X21412980Y-13307912D01*
X21412980Y-13307912D02*
X21412980Y-13231722D01*
X21412980Y-13231722D02*
X21422503Y-13212674D01*
X21422503Y-13212674D02*
X21441551Y-13203150D01*
X21441551Y-13203150D02*
X21479646Y-13203150D01*
X21479646Y-13203150D02*
X21498694Y-13212674D01*
X21498694Y-13212674D02*
X21508218Y-13231722D01*
X21508218Y-13231722D02*
X21508218Y-13250769D01*
X21508218Y-13250769D02*
X21412980Y-13269817D01*
X21584408Y-13326960D02*
X21603456Y-13336484D01*
X21603456Y-13336484D02*
X21641551Y-13336484D01*
X21641551Y-13336484D02*
X21660599Y-13326960D01*
X21660599Y-13326960D02*
X21670123Y-13307912D01*
X21670123Y-13307912D02*
X21670123Y-13298388D01*
X21670123Y-13298388D02*
X21660599Y-13279341D01*
X21660599Y-13279341D02*
X21641551Y-13269817D01*
X21641551Y-13269817D02*
X21612980Y-13269817D01*
X21612980Y-13269817D02*
X21593932Y-13260293D01*
X21593932Y-13260293D02*
X21584408Y-13241246D01*
X21584408Y-13241246D02*
X21584408Y-13231722D01*
X21584408Y-13231722D02*
X21593932Y-13212674D01*
X21593932Y-13212674D02*
X21612980Y-13203150D01*
X21612980Y-13203150D02*
X21641551Y-13203150D01*
X21641551Y-13203150D02*
X21660599Y-13212674D01*
X21736789Y-13412674D02*
X21746313Y-13403150D01*
X21746313Y-13403150D02*
X21765361Y-13374579D01*
X21765361Y-13374579D02*
X21774884Y-13355531D01*
X21774884Y-13355531D02*
X21784408Y-13326960D01*
X21784408Y-13326960D02*
X21793932Y-13279341D01*
X21793932Y-13279341D02*
X21793932Y-13241246D01*
X21793932Y-13241246D02*
X21784408Y-13193627D01*
X21784408Y-13193627D02*
X21774884Y-13165055D01*
X21774884Y-13165055D02*
X21765361Y-13146008D01*
X21765361Y-13146008D02*
X21746313Y-13117436D01*
X21746313Y-13117436D02*
X21736789Y-13107912D01*
D12*
X16771250Y-13509000D02*
G75*
G02*
X16691250Y-13509000I-40000J0D01*
G01*
X16691250Y-13509000D02*
G75*
G02*
X16771250Y-13509000I40000J0D01*
G01*
D11*
X17070122Y-13400484D02*
X17089170Y-13400484D01*
X17089170Y-13400484D02*
X17108217Y-13410008D01*
X17108217Y-13410008D02*
X17117741Y-13419531D01*
X17117741Y-13419531D02*
X17127265Y-13438579D01*
X17127265Y-13438579D02*
X17136789Y-13476674D01*
X17136789Y-13476674D02*
X17136789Y-13524293D01*
X17136789Y-13524293D02*
X17127265Y-13562388D01*
X17127265Y-13562388D02*
X17117741Y-13581436D01*
X17117741Y-13581436D02*
X17108217Y-13590960D01*
X17108217Y-13590960D02*
X17089170Y-13600484D01*
X17089170Y-13600484D02*
X17070122Y-13600484D01*
X17070122Y-13600484D02*
X17051074Y-13590960D01*
X17051074Y-13590960D02*
X17041551Y-13581436D01*
X17041551Y-13581436D02*
X17032027Y-13562388D01*
X17032027Y-13562388D02*
X17022503Y-13524293D01*
X17022503Y-13524293D02*
X17022503Y-13476674D01*
X17022503Y-13476674D02*
X17032027Y-13438579D01*
X17032027Y-13438579D02*
X17041551Y-13419531D01*
X17041551Y-13419531D02*
X17051074Y-13410008D01*
X17051074Y-13410008D02*
X17070122Y-13400484D01*
X17222503Y-13581436D02*
X17232027Y-13590960D01*
X17232027Y-13590960D02*
X17222503Y-13600484D01*
X17222503Y-13600484D02*
X17212979Y-13590960D01*
X17212979Y-13590960D02*
X17222503Y-13581436D01*
X17222503Y-13581436D02*
X17222503Y-13600484D01*
X17346313Y-13486198D02*
X17327265Y-13476674D01*
X17327265Y-13476674D02*
X17317741Y-13467150D01*
X17317741Y-13467150D02*
X17308217Y-13448103D01*
X17308217Y-13448103D02*
X17308217Y-13438579D01*
X17308217Y-13438579D02*
X17317741Y-13419531D01*
X17317741Y-13419531D02*
X17327265Y-13410008D01*
X17327265Y-13410008D02*
X17346313Y-13400484D01*
X17346313Y-13400484D02*
X17384408Y-13400484D01*
X17384408Y-13400484D02*
X17403455Y-13410008D01*
X17403455Y-13410008D02*
X17412979Y-13419531D01*
X17412979Y-13419531D02*
X17422503Y-13438579D01*
X17422503Y-13438579D02*
X17422503Y-13448103D01*
X17422503Y-13448103D02*
X17412979Y-13467150D01*
X17412979Y-13467150D02*
X17403455Y-13476674D01*
X17403455Y-13476674D02*
X17384408Y-13486198D01*
X17384408Y-13486198D02*
X17346313Y-13486198D01*
X17346313Y-13486198D02*
X17327265Y-13495722D01*
X17327265Y-13495722D02*
X17317741Y-13505246D01*
X17317741Y-13505246D02*
X17308217Y-13524293D01*
X17308217Y-13524293D02*
X17308217Y-13562388D01*
X17308217Y-13562388D02*
X17317741Y-13581436D01*
X17317741Y-13581436D02*
X17327265Y-13590960D01*
X17327265Y-13590960D02*
X17346313Y-13600484D01*
X17346313Y-13600484D02*
X17384408Y-13600484D01*
X17384408Y-13600484D02*
X17403455Y-13590960D01*
X17403455Y-13590960D02*
X17412979Y-13581436D01*
X17412979Y-13581436D02*
X17422503Y-13562388D01*
X17422503Y-13562388D02*
X17422503Y-13524293D01*
X17422503Y-13524293D02*
X17412979Y-13505246D01*
X17412979Y-13505246D02*
X17403455Y-13495722D01*
X17403455Y-13495722D02*
X17384408Y-13486198D01*
X17546313Y-13400484D02*
X17565360Y-13400484D01*
X17565360Y-13400484D02*
X17584408Y-13410008D01*
X17584408Y-13410008D02*
X17593932Y-13419531D01*
X17593932Y-13419531D02*
X17603455Y-13438579D01*
X17603455Y-13438579D02*
X17612979Y-13476674D01*
X17612979Y-13476674D02*
X17612979Y-13524293D01*
X17612979Y-13524293D02*
X17603455Y-13562388D01*
X17603455Y-13562388D02*
X17593932Y-13581436D01*
X17593932Y-13581436D02*
X17584408Y-13590960D01*
X17584408Y-13590960D02*
X17565360Y-13600484D01*
X17565360Y-13600484D02*
X17546313Y-13600484D01*
X17546313Y-13600484D02*
X17527265Y-13590960D01*
X17527265Y-13590960D02*
X17517741Y-13581436D01*
X17517741Y-13581436D02*
X17508217Y-13562388D01*
X17508217Y-13562388D02*
X17498694Y-13524293D01*
X17498694Y-13524293D02*
X17498694Y-13476674D01*
X17498694Y-13476674D02*
X17508217Y-13438579D01*
X17508217Y-13438579D02*
X17517741Y-13419531D01*
X17517741Y-13419531D02*
X17527265Y-13410008D01*
X17527265Y-13410008D02*
X17546313Y-13400484D01*
X17736789Y-13400484D02*
X17755836Y-13400484D01*
X17755836Y-13400484D02*
X17774884Y-13410008D01*
X17774884Y-13410008D02*
X17784408Y-13419531D01*
X17784408Y-13419531D02*
X17793932Y-13438579D01*
X17793932Y-13438579D02*
X17803455Y-13476674D01*
X17803455Y-13476674D02*
X17803455Y-13524293D01*
X17803455Y-13524293D02*
X17793932Y-13562388D01*
X17793932Y-13562388D02*
X17784408Y-13581436D01*
X17784408Y-13581436D02*
X17774884Y-13590960D01*
X17774884Y-13590960D02*
X17755836Y-13600484D01*
X17755836Y-13600484D02*
X17736789Y-13600484D01*
X17736789Y-13600484D02*
X17717741Y-13590960D01*
X17717741Y-13590960D02*
X17708217Y-13581436D01*
X17708217Y-13581436D02*
X17698694Y-13562388D01*
X17698694Y-13562388D02*
X17689170Y-13524293D01*
X17689170Y-13524293D02*
X17689170Y-13476674D01*
X17689170Y-13476674D02*
X17698694Y-13438579D01*
X17698694Y-13438579D02*
X17708217Y-13419531D01*
X17708217Y-13419531D02*
X17717741Y-13410008D01*
X17717741Y-13410008D02*
X17736789Y-13400484D01*
X17889170Y-13600484D02*
X17889170Y-13467150D01*
X17889170Y-13486198D02*
X17898694Y-13476674D01*
X17898694Y-13476674D02*
X17917741Y-13467150D01*
X17917741Y-13467150D02*
X17946313Y-13467150D01*
X17946313Y-13467150D02*
X17965360Y-13476674D01*
X17965360Y-13476674D02*
X17974884Y-13495722D01*
X17974884Y-13495722D02*
X17974884Y-13600484D01*
X17974884Y-13495722D02*
X17984408Y-13476674D01*
X17984408Y-13476674D02*
X18003455Y-13467150D01*
X18003455Y-13467150D02*
X18032027Y-13467150D01*
X18032027Y-13467150D02*
X18051075Y-13476674D01*
X18051075Y-13476674D02*
X18060598Y-13495722D01*
X18060598Y-13495722D02*
X18060598Y-13600484D01*
X18155836Y-13600484D02*
X18155836Y-13467150D01*
X18155836Y-13486198D02*
X18165360Y-13476674D01*
X18165360Y-13476674D02*
X18184408Y-13467150D01*
X18184408Y-13467150D02*
X18212979Y-13467150D01*
X18212979Y-13467150D02*
X18232027Y-13476674D01*
X18232027Y-13476674D02*
X18241551Y-13495722D01*
X18241551Y-13495722D02*
X18241551Y-13600484D01*
X18241551Y-13495722D02*
X18251075Y-13476674D01*
X18251075Y-13476674D02*
X18270122Y-13467150D01*
X18270122Y-13467150D02*
X18298694Y-13467150D01*
X18298694Y-13467150D02*
X18317741Y-13476674D01*
X18317741Y-13476674D02*
X18327265Y-13495722D01*
X18327265Y-13495722D02*
X18327265Y-13600484D01*
X18717741Y-13390960D02*
X18546313Y-13648103D01*
X18974884Y-13400484D02*
X18993932Y-13400484D01*
X18993932Y-13400484D02*
X19012979Y-13410008D01*
X19012979Y-13410008D02*
X19022503Y-13419531D01*
X19022503Y-13419531D02*
X19032027Y-13438579D01*
X19032027Y-13438579D02*
X19041551Y-13476674D01*
X19041551Y-13476674D02*
X19041551Y-13524293D01*
X19041551Y-13524293D02*
X19032027Y-13562388D01*
X19032027Y-13562388D02*
X19022503Y-13581436D01*
X19022503Y-13581436D02*
X19012979Y-13590960D01*
X19012979Y-13590960D02*
X18993932Y-13600484D01*
X18993932Y-13600484D02*
X18974884Y-13600484D01*
X18974884Y-13600484D02*
X18955837Y-13590960D01*
X18955837Y-13590960D02*
X18946313Y-13581436D01*
X18946313Y-13581436D02*
X18936789Y-13562388D01*
X18936789Y-13562388D02*
X18927265Y-13524293D01*
X18927265Y-13524293D02*
X18927265Y-13476674D01*
X18927265Y-13476674D02*
X18936789Y-13438579D01*
X18936789Y-13438579D02*
X18946313Y-13419531D01*
X18946313Y-13419531D02*
X18955837Y-13410008D01*
X18955837Y-13410008D02*
X18974884Y-13400484D01*
X19127265Y-13581436D02*
X19136789Y-13590960D01*
X19136789Y-13590960D02*
X19127265Y-13600484D01*
X19127265Y-13600484D02*
X19117741Y-13590960D01*
X19117741Y-13590960D02*
X19127265Y-13581436D01*
X19127265Y-13581436D02*
X19127265Y-13600484D01*
X19260598Y-13400484D02*
X19279646Y-13400484D01*
X19279646Y-13400484D02*
X19298694Y-13410008D01*
X19298694Y-13410008D02*
X19308218Y-13419531D01*
X19308218Y-13419531D02*
X19317741Y-13438579D01*
X19317741Y-13438579D02*
X19327265Y-13476674D01*
X19327265Y-13476674D02*
X19327265Y-13524293D01*
X19327265Y-13524293D02*
X19317741Y-13562388D01*
X19317741Y-13562388D02*
X19308218Y-13581436D01*
X19308218Y-13581436D02*
X19298694Y-13590960D01*
X19298694Y-13590960D02*
X19279646Y-13600484D01*
X19279646Y-13600484D02*
X19260598Y-13600484D01*
X19260598Y-13600484D02*
X19241551Y-13590960D01*
X19241551Y-13590960D02*
X19232027Y-13581436D01*
X19232027Y-13581436D02*
X19222503Y-13562388D01*
X19222503Y-13562388D02*
X19212979Y-13524293D01*
X19212979Y-13524293D02*
X19212979Y-13476674D01*
X19212979Y-13476674D02*
X19222503Y-13438579D01*
X19222503Y-13438579D02*
X19232027Y-13419531D01*
X19232027Y-13419531D02*
X19241551Y-13410008D01*
X19241551Y-13410008D02*
X19260598Y-13400484D01*
X19393932Y-13400484D02*
X19517741Y-13400484D01*
X19517741Y-13400484D02*
X19451075Y-13476674D01*
X19451075Y-13476674D02*
X19479646Y-13476674D01*
X19479646Y-13476674D02*
X19498694Y-13486198D01*
X19498694Y-13486198D02*
X19508218Y-13495722D01*
X19508218Y-13495722D02*
X19517741Y-13514769D01*
X19517741Y-13514769D02*
X19517741Y-13562388D01*
X19517741Y-13562388D02*
X19508218Y-13581436D01*
X19508218Y-13581436D02*
X19498694Y-13590960D01*
X19498694Y-13590960D02*
X19479646Y-13600484D01*
X19479646Y-13600484D02*
X19422503Y-13600484D01*
X19422503Y-13600484D02*
X19403456Y-13590960D01*
X19403456Y-13590960D02*
X19393932Y-13581436D01*
X19708218Y-13600484D02*
X19593932Y-13600484D01*
X19651075Y-13600484D02*
X19651075Y-13400484D01*
X19651075Y-13400484D02*
X19632027Y-13429055D01*
X19632027Y-13429055D02*
X19612979Y-13448103D01*
X19612979Y-13448103D02*
X19593932Y-13457627D01*
X19889170Y-13400484D02*
X19793932Y-13400484D01*
X19793932Y-13400484D02*
X19784408Y-13495722D01*
X19784408Y-13495722D02*
X19793932Y-13486198D01*
X19793932Y-13486198D02*
X19812979Y-13476674D01*
X19812979Y-13476674D02*
X19860599Y-13476674D01*
X19860599Y-13476674D02*
X19879646Y-13486198D01*
X19879646Y-13486198D02*
X19889170Y-13495722D01*
X19889170Y-13495722D02*
X19898694Y-13514769D01*
X19898694Y-13514769D02*
X19898694Y-13562388D01*
X19898694Y-13562388D02*
X19889170Y-13581436D01*
X19889170Y-13581436D02*
X19879646Y-13590960D01*
X19879646Y-13590960D02*
X19860599Y-13600484D01*
X19860599Y-13600484D02*
X19812979Y-13600484D01*
X19812979Y-13600484D02*
X19793932Y-13590960D01*
X19793932Y-13590960D02*
X19784408Y-13581436D01*
X19974884Y-13400484D02*
X19974884Y-13438579D01*
X20051075Y-13400484D02*
X20051075Y-13438579D01*
X20346313Y-13676674D02*
X20336789Y-13667150D01*
X20336789Y-13667150D02*
X20317741Y-13638579D01*
X20317741Y-13638579D02*
X20308218Y-13619531D01*
X20308218Y-13619531D02*
X20298694Y-13590960D01*
X20298694Y-13590960D02*
X20289170Y-13543341D01*
X20289170Y-13543341D02*
X20289170Y-13505246D01*
X20289170Y-13505246D02*
X20298694Y-13457627D01*
X20298694Y-13457627D02*
X20308218Y-13429055D01*
X20308218Y-13429055D02*
X20317741Y-13410008D01*
X20317741Y-13410008D02*
X20336789Y-13381436D01*
X20336789Y-13381436D02*
X20346313Y-13371912D01*
X20451075Y-13486198D02*
X20432027Y-13476674D01*
X20432027Y-13476674D02*
X20422503Y-13467150D01*
X20422503Y-13467150D02*
X20412980Y-13448103D01*
X20412980Y-13448103D02*
X20412980Y-13438579D01*
X20412980Y-13438579D02*
X20422503Y-13419531D01*
X20422503Y-13419531D02*
X20432027Y-13410008D01*
X20432027Y-13410008D02*
X20451075Y-13400484D01*
X20451075Y-13400484D02*
X20489170Y-13400484D01*
X20489170Y-13400484D02*
X20508218Y-13410008D01*
X20508218Y-13410008D02*
X20517741Y-13419531D01*
X20517741Y-13419531D02*
X20527265Y-13438579D01*
X20527265Y-13438579D02*
X20527265Y-13448103D01*
X20527265Y-13448103D02*
X20517741Y-13467150D01*
X20517741Y-13467150D02*
X20508218Y-13476674D01*
X20508218Y-13476674D02*
X20489170Y-13486198D01*
X20489170Y-13486198D02*
X20451075Y-13486198D01*
X20451075Y-13486198D02*
X20432027Y-13495722D01*
X20432027Y-13495722D02*
X20422503Y-13505246D01*
X20422503Y-13505246D02*
X20412980Y-13524293D01*
X20412980Y-13524293D02*
X20412980Y-13562388D01*
X20412980Y-13562388D02*
X20422503Y-13581436D01*
X20422503Y-13581436D02*
X20432027Y-13590960D01*
X20432027Y-13590960D02*
X20451075Y-13600484D01*
X20451075Y-13600484D02*
X20489170Y-13600484D01*
X20489170Y-13600484D02*
X20508218Y-13590960D01*
X20508218Y-13590960D02*
X20517741Y-13581436D01*
X20517741Y-13581436D02*
X20527265Y-13562388D01*
X20527265Y-13562388D02*
X20527265Y-13524293D01*
X20527265Y-13524293D02*
X20517741Y-13505246D01*
X20517741Y-13505246D02*
X20508218Y-13495722D01*
X20508218Y-13495722D02*
X20489170Y-13486198D01*
X20765361Y-13600484D02*
X20765361Y-13400484D01*
X20851075Y-13600484D02*
X20851075Y-13495722D01*
X20851075Y-13495722D02*
X20841551Y-13476674D01*
X20841551Y-13476674D02*
X20822503Y-13467150D01*
X20822503Y-13467150D02*
X20793932Y-13467150D01*
X20793932Y-13467150D02*
X20774884Y-13476674D01*
X20774884Y-13476674D02*
X20765361Y-13486198D01*
X20974884Y-13600484D02*
X20955837Y-13590960D01*
X20955837Y-13590960D02*
X20946313Y-13581436D01*
X20946313Y-13581436D02*
X20936789Y-13562388D01*
X20936789Y-13562388D02*
X20936789Y-13505246D01*
X20936789Y-13505246D02*
X20946313Y-13486198D01*
X20946313Y-13486198D02*
X20955837Y-13476674D01*
X20955837Y-13476674D02*
X20974884Y-13467150D01*
X20974884Y-13467150D02*
X21003456Y-13467150D01*
X21003456Y-13467150D02*
X21022503Y-13476674D01*
X21022503Y-13476674D02*
X21032027Y-13486198D01*
X21032027Y-13486198D02*
X21041551Y-13505246D01*
X21041551Y-13505246D02*
X21041551Y-13562388D01*
X21041551Y-13562388D02*
X21032027Y-13581436D01*
X21032027Y-13581436D02*
X21022503Y-13590960D01*
X21022503Y-13590960D02*
X21003456Y-13600484D01*
X21003456Y-13600484D02*
X20974884Y-13600484D01*
X21155837Y-13600484D02*
X21136789Y-13590960D01*
X21136789Y-13590960D02*
X21127265Y-13571912D01*
X21127265Y-13571912D02*
X21127265Y-13400484D01*
X21308218Y-13590960D02*
X21289170Y-13600484D01*
X21289170Y-13600484D02*
X21251075Y-13600484D01*
X21251075Y-13600484D02*
X21232027Y-13590960D01*
X21232027Y-13590960D02*
X21222503Y-13571912D01*
X21222503Y-13571912D02*
X21222503Y-13495722D01*
X21222503Y-13495722D02*
X21232027Y-13476674D01*
X21232027Y-13476674D02*
X21251075Y-13467150D01*
X21251075Y-13467150D02*
X21289170Y-13467150D01*
X21289170Y-13467150D02*
X21308218Y-13476674D01*
X21308218Y-13476674D02*
X21317742Y-13495722D01*
X21317742Y-13495722D02*
X21317742Y-13514769D01*
X21317742Y-13514769D02*
X21222503Y-13533817D01*
X21393932Y-13590960D02*
X21412980Y-13600484D01*
X21412980Y-13600484D02*
X21451075Y-13600484D01*
X21451075Y-13600484D02*
X21470123Y-13590960D01*
X21470123Y-13590960D02*
X21479646Y-13571912D01*
X21479646Y-13571912D02*
X21479646Y-13562388D01*
X21479646Y-13562388D02*
X21470123Y-13543341D01*
X21470123Y-13543341D02*
X21451075Y-13533817D01*
X21451075Y-13533817D02*
X21422503Y-13533817D01*
X21422503Y-13533817D02*
X21403456Y-13524293D01*
X21403456Y-13524293D02*
X21393932Y-13505246D01*
X21393932Y-13505246D02*
X21393932Y-13495722D01*
X21393932Y-13495722D02*
X21403456Y-13476674D01*
X21403456Y-13476674D02*
X21422503Y-13467150D01*
X21422503Y-13467150D02*
X21451075Y-13467150D01*
X21451075Y-13467150D02*
X21470123Y-13476674D01*
X21546313Y-13676674D02*
X21555837Y-13667150D01*
X21555837Y-13667150D02*
X21574884Y-13638579D01*
X21574884Y-13638579D02*
X21584408Y-13619531D01*
X21584408Y-13619531D02*
X21593932Y-13590960D01*
X21593932Y-13590960D02*
X21603456Y-13543341D01*
X21603456Y-13543341D02*
X21603456Y-13505246D01*
X21603456Y-13505246D02*
X21593932Y-13457627D01*
X21593932Y-13457627D02*
X21584408Y-13429055D01*
X21584408Y-13429055D02*
X21574884Y-13410008D01*
X21574884Y-13410008D02*
X21555837Y-13381436D01*
X21555837Y-13381436D02*
X21546313Y-13371912D01*
D12*
X16726250Y-13728000D02*
X16726250Y-13818000D01*
X16681250Y-13773000D02*
X16771250Y-13773000D01*
D11*
X17070122Y-13664484D02*
X17089170Y-13664484D01*
X17089170Y-13664484D02*
X17108217Y-13674008D01*
X17108217Y-13674008D02*
X17117741Y-13683531D01*
X17117741Y-13683531D02*
X17127265Y-13702579D01*
X17127265Y-13702579D02*
X17136789Y-13740674D01*
X17136789Y-13740674D02*
X17136789Y-13788293D01*
X17136789Y-13788293D02*
X17127265Y-13826388D01*
X17127265Y-13826388D02*
X17117741Y-13845436D01*
X17117741Y-13845436D02*
X17108217Y-13854960D01*
X17108217Y-13854960D02*
X17089170Y-13864484D01*
X17089170Y-13864484D02*
X17070122Y-13864484D01*
X17070122Y-13864484D02*
X17051074Y-13854960D01*
X17051074Y-13854960D02*
X17041551Y-13845436D01*
X17041551Y-13845436D02*
X17032027Y-13826388D01*
X17032027Y-13826388D02*
X17022503Y-13788293D01*
X17022503Y-13788293D02*
X17022503Y-13740674D01*
X17022503Y-13740674D02*
X17032027Y-13702579D01*
X17032027Y-13702579D02*
X17041551Y-13683531D01*
X17041551Y-13683531D02*
X17051074Y-13674008D01*
X17051074Y-13674008D02*
X17070122Y-13664484D01*
X17222503Y-13845436D02*
X17232027Y-13854960D01*
X17232027Y-13854960D02*
X17222503Y-13864484D01*
X17222503Y-13864484D02*
X17212979Y-13854960D01*
X17212979Y-13854960D02*
X17222503Y-13845436D01*
X17222503Y-13845436D02*
X17222503Y-13864484D01*
X17327265Y-13864484D02*
X17365360Y-13864484D01*
X17365360Y-13864484D02*
X17384408Y-13854960D01*
X17384408Y-13854960D02*
X17393932Y-13845436D01*
X17393932Y-13845436D02*
X17412979Y-13816865D01*
X17412979Y-13816865D02*
X17422503Y-13778769D01*
X17422503Y-13778769D02*
X17422503Y-13702579D01*
X17422503Y-13702579D02*
X17412979Y-13683531D01*
X17412979Y-13683531D02*
X17403455Y-13674008D01*
X17403455Y-13674008D02*
X17384408Y-13664484D01*
X17384408Y-13664484D02*
X17346313Y-13664484D01*
X17346313Y-13664484D02*
X17327265Y-13674008D01*
X17327265Y-13674008D02*
X17317741Y-13683531D01*
X17317741Y-13683531D02*
X17308217Y-13702579D01*
X17308217Y-13702579D02*
X17308217Y-13750198D01*
X17308217Y-13750198D02*
X17317741Y-13769246D01*
X17317741Y-13769246D02*
X17327265Y-13778769D01*
X17327265Y-13778769D02*
X17346313Y-13788293D01*
X17346313Y-13788293D02*
X17384408Y-13788293D01*
X17384408Y-13788293D02*
X17403455Y-13778769D01*
X17403455Y-13778769D02*
X17412979Y-13769246D01*
X17412979Y-13769246D02*
X17422503Y-13750198D01*
X17546313Y-13664484D02*
X17565360Y-13664484D01*
X17565360Y-13664484D02*
X17584408Y-13674008D01*
X17584408Y-13674008D02*
X17593932Y-13683531D01*
X17593932Y-13683531D02*
X17603455Y-13702579D01*
X17603455Y-13702579D02*
X17612979Y-13740674D01*
X17612979Y-13740674D02*
X17612979Y-13788293D01*
X17612979Y-13788293D02*
X17603455Y-13826388D01*
X17603455Y-13826388D02*
X17593932Y-13845436D01*
X17593932Y-13845436D02*
X17584408Y-13854960D01*
X17584408Y-13854960D02*
X17565360Y-13864484D01*
X17565360Y-13864484D02*
X17546313Y-13864484D01*
X17546313Y-13864484D02*
X17527265Y-13854960D01*
X17527265Y-13854960D02*
X17517741Y-13845436D01*
X17517741Y-13845436D02*
X17508217Y-13826388D01*
X17508217Y-13826388D02*
X17498694Y-13788293D01*
X17498694Y-13788293D02*
X17498694Y-13740674D01*
X17498694Y-13740674D02*
X17508217Y-13702579D01*
X17508217Y-13702579D02*
X17517741Y-13683531D01*
X17517741Y-13683531D02*
X17527265Y-13674008D01*
X17527265Y-13674008D02*
X17546313Y-13664484D01*
X17736789Y-13664484D02*
X17755836Y-13664484D01*
X17755836Y-13664484D02*
X17774884Y-13674008D01*
X17774884Y-13674008D02*
X17784408Y-13683531D01*
X17784408Y-13683531D02*
X17793932Y-13702579D01*
X17793932Y-13702579D02*
X17803455Y-13740674D01*
X17803455Y-13740674D02*
X17803455Y-13788293D01*
X17803455Y-13788293D02*
X17793932Y-13826388D01*
X17793932Y-13826388D02*
X17784408Y-13845436D01*
X17784408Y-13845436D02*
X17774884Y-13854960D01*
X17774884Y-13854960D02*
X17755836Y-13864484D01*
X17755836Y-13864484D02*
X17736789Y-13864484D01*
X17736789Y-13864484D02*
X17717741Y-13854960D01*
X17717741Y-13854960D02*
X17708217Y-13845436D01*
X17708217Y-13845436D02*
X17698694Y-13826388D01*
X17698694Y-13826388D02*
X17689170Y-13788293D01*
X17689170Y-13788293D02*
X17689170Y-13740674D01*
X17689170Y-13740674D02*
X17698694Y-13702579D01*
X17698694Y-13702579D02*
X17708217Y-13683531D01*
X17708217Y-13683531D02*
X17717741Y-13674008D01*
X17717741Y-13674008D02*
X17736789Y-13664484D01*
X17889170Y-13864484D02*
X17889170Y-13731150D01*
X17889170Y-13750198D02*
X17898694Y-13740674D01*
X17898694Y-13740674D02*
X17917741Y-13731150D01*
X17917741Y-13731150D02*
X17946313Y-13731150D01*
X17946313Y-13731150D02*
X17965360Y-13740674D01*
X17965360Y-13740674D02*
X17974884Y-13759722D01*
X17974884Y-13759722D02*
X17974884Y-13864484D01*
X17974884Y-13759722D02*
X17984408Y-13740674D01*
X17984408Y-13740674D02*
X18003455Y-13731150D01*
X18003455Y-13731150D02*
X18032027Y-13731150D01*
X18032027Y-13731150D02*
X18051075Y-13740674D01*
X18051075Y-13740674D02*
X18060598Y-13759722D01*
X18060598Y-13759722D02*
X18060598Y-13864484D01*
X18155836Y-13864484D02*
X18155836Y-13731150D01*
X18155836Y-13750198D02*
X18165360Y-13740674D01*
X18165360Y-13740674D02*
X18184408Y-13731150D01*
X18184408Y-13731150D02*
X18212979Y-13731150D01*
X18212979Y-13731150D02*
X18232027Y-13740674D01*
X18232027Y-13740674D02*
X18241551Y-13759722D01*
X18241551Y-13759722D02*
X18241551Y-13864484D01*
X18241551Y-13759722D02*
X18251075Y-13740674D01*
X18251075Y-13740674D02*
X18270122Y-13731150D01*
X18270122Y-13731150D02*
X18298694Y-13731150D01*
X18298694Y-13731150D02*
X18317741Y-13740674D01*
X18317741Y-13740674D02*
X18327265Y-13759722D01*
X18327265Y-13759722D02*
X18327265Y-13864484D01*
X18717741Y-13654960D02*
X18546313Y-13912103D01*
X18974884Y-13664484D02*
X18993932Y-13664484D01*
X18993932Y-13664484D02*
X19012979Y-13674008D01*
X19012979Y-13674008D02*
X19022503Y-13683531D01*
X19022503Y-13683531D02*
X19032027Y-13702579D01*
X19032027Y-13702579D02*
X19041551Y-13740674D01*
X19041551Y-13740674D02*
X19041551Y-13788293D01*
X19041551Y-13788293D02*
X19032027Y-13826388D01*
X19032027Y-13826388D02*
X19022503Y-13845436D01*
X19022503Y-13845436D02*
X19012979Y-13854960D01*
X19012979Y-13854960D02*
X18993932Y-13864484D01*
X18993932Y-13864484D02*
X18974884Y-13864484D01*
X18974884Y-13864484D02*
X18955837Y-13854960D01*
X18955837Y-13854960D02*
X18946313Y-13845436D01*
X18946313Y-13845436D02*
X18936789Y-13826388D01*
X18936789Y-13826388D02*
X18927265Y-13788293D01*
X18927265Y-13788293D02*
X18927265Y-13740674D01*
X18927265Y-13740674D02*
X18936789Y-13702579D01*
X18936789Y-13702579D02*
X18946313Y-13683531D01*
X18946313Y-13683531D02*
X18955837Y-13674008D01*
X18955837Y-13674008D02*
X18974884Y-13664484D01*
X19127265Y-13845436D02*
X19136789Y-13854960D01*
X19136789Y-13854960D02*
X19127265Y-13864484D01*
X19127265Y-13864484D02*
X19117741Y-13854960D01*
X19117741Y-13854960D02*
X19127265Y-13845436D01*
X19127265Y-13845436D02*
X19127265Y-13864484D01*
X19260598Y-13664484D02*
X19279646Y-13664484D01*
X19279646Y-13664484D02*
X19298694Y-13674008D01*
X19298694Y-13674008D02*
X19308218Y-13683531D01*
X19308218Y-13683531D02*
X19317741Y-13702579D01*
X19317741Y-13702579D02*
X19327265Y-13740674D01*
X19327265Y-13740674D02*
X19327265Y-13788293D01*
X19327265Y-13788293D02*
X19317741Y-13826388D01*
X19317741Y-13826388D02*
X19308218Y-13845436D01*
X19308218Y-13845436D02*
X19298694Y-13854960D01*
X19298694Y-13854960D02*
X19279646Y-13864484D01*
X19279646Y-13864484D02*
X19260598Y-13864484D01*
X19260598Y-13864484D02*
X19241551Y-13854960D01*
X19241551Y-13854960D02*
X19232027Y-13845436D01*
X19232027Y-13845436D02*
X19222503Y-13826388D01*
X19222503Y-13826388D02*
X19212979Y-13788293D01*
X19212979Y-13788293D02*
X19212979Y-13740674D01*
X19212979Y-13740674D02*
X19222503Y-13702579D01*
X19222503Y-13702579D02*
X19232027Y-13683531D01*
X19232027Y-13683531D02*
X19241551Y-13674008D01*
X19241551Y-13674008D02*
X19260598Y-13664484D01*
X19393932Y-13664484D02*
X19517741Y-13664484D01*
X19517741Y-13664484D02*
X19451075Y-13740674D01*
X19451075Y-13740674D02*
X19479646Y-13740674D01*
X19479646Y-13740674D02*
X19498694Y-13750198D01*
X19498694Y-13750198D02*
X19508218Y-13759722D01*
X19508218Y-13759722D02*
X19517741Y-13778769D01*
X19517741Y-13778769D02*
X19517741Y-13826388D01*
X19517741Y-13826388D02*
X19508218Y-13845436D01*
X19508218Y-13845436D02*
X19498694Y-13854960D01*
X19498694Y-13854960D02*
X19479646Y-13864484D01*
X19479646Y-13864484D02*
X19422503Y-13864484D01*
X19422503Y-13864484D02*
X19403456Y-13854960D01*
X19403456Y-13854960D02*
X19393932Y-13845436D01*
X19698694Y-13664484D02*
X19603456Y-13664484D01*
X19603456Y-13664484D02*
X19593932Y-13759722D01*
X19593932Y-13759722D02*
X19603456Y-13750198D01*
X19603456Y-13750198D02*
X19622503Y-13740674D01*
X19622503Y-13740674D02*
X19670122Y-13740674D01*
X19670122Y-13740674D02*
X19689170Y-13750198D01*
X19689170Y-13750198D02*
X19698694Y-13759722D01*
X19698694Y-13759722D02*
X19708218Y-13778769D01*
X19708218Y-13778769D02*
X19708218Y-13826388D01*
X19708218Y-13826388D02*
X19698694Y-13845436D01*
X19698694Y-13845436D02*
X19689170Y-13854960D01*
X19689170Y-13854960D02*
X19670122Y-13864484D01*
X19670122Y-13864484D02*
X19622503Y-13864484D01*
X19622503Y-13864484D02*
X19603456Y-13854960D01*
X19603456Y-13854960D02*
X19593932Y-13845436D01*
X19879646Y-13731150D02*
X19879646Y-13864484D01*
X19832027Y-13654960D02*
X19784408Y-13797817D01*
X19784408Y-13797817D02*
X19908218Y-13797817D01*
X19974884Y-13664484D02*
X19974884Y-13702579D01*
X20051075Y-13664484D02*
X20051075Y-13702579D01*
X20346313Y-13940674D02*
X20336789Y-13931150D01*
X20336789Y-13931150D02*
X20317741Y-13902579D01*
X20317741Y-13902579D02*
X20308218Y-13883531D01*
X20308218Y-13883531D02*
X20298694Y-13854960D01*
X20298694Y-13854960D02*
X20289170Y-13807341D01*
X20289170Y-13807341D02*
X20289170Y-13769246D01*
X20289170Y-13769246D02*
X20298694Y-13721627D01*
X20298694Y-13721627D02*
X20308218Y-13693055D01*
X20308218Y-13693055D02*
X20317741Y-13674008D01*
X20317741Y-13674008D02*
X20336789Y-13645436D01*
X20336789Y-13645436D02*
X20346313Y-13635912D01*
X20412980Y-13683531D02*
X20422503Y-13674008D01*
X20422503Y-13674008D02*
X20441551Y-13664484D01*
X20441551Y-13664484D02*
X20489170Y-13664484D01*
X20489170Y-13664484D02*
X20508218Y-13674008D01*
X20508218Y-13674008D02*
X20517741Y-13683531D01*
X20517741Y-13683531D02*
X20527265Y-13702579D01*
X20527265Y-13702579D02*
X20527265Y-13721627D01*
X20527265Y-13721627D02*
X20517741Y-13750198D01*
X20517741Y-13750198D02*
X20403456Y-13864484D01*
X20403456Y-13864484D02*
X20527265Y-13864484D01*
X20765361Y-13864484D02*
X20765361Y-13664484D01*
X20851075Y-13864484D02*
X20851075Y-13759722D01*
X20851075Y-13759722D02*
X20841551Y-13740674D01*
X20841551Y-13740674D02*
X20822503Y-13731150D01*
X20822503Y-13731150D02*
X20793932Y-13731150D01*
X20793932Y-13731150D02*
X20774884Y-13740674D01*
X20774884Y-13740674D02*
X20765361Y-13750198D01*
X20974884Y-13864484D02*
X20955837Y-13854960D01*
X20955837Y-13854960D02*
X20946313Y-13845436D01*
X20946313Y-13845436D02*
X20936789Y-13826388D01*
X20936789Y-13826388D02*
X20936789Y-13769246D01*
X20936789Y-13769246D02*
X20946313Y-13750198D01*
X20946313Y-13750198D02*
X20955837Y-13740674D01*
X20955837Y-13740674D02*
X20974884Y-13731150D01*
X20974884Y-13731150D02*
X21003456Y-13731150D01*
X21003456Y-13731150D02*
X21022503Y-13740674D01*
X21022503Y-13740674D02*
X21032027Y-13750198D01*
X21032027Y-13750198D02*
X21041551Y-13769246D01*
X21041551Y-13769246D02*
X21041551Y-13826388D01*
X21041551Y-13826388D02*
X21032027Y-13845436D01*
X21032027Y-13845436D02*
X21022503Y-13854960D01*
X21022503Y-13854960D02*
X21003456Y-13864484D01*
X21003456Y-13864484D02*
X20974884Y-13864484D01*
X21155837Y-13864484D02*
X21136789Y-13854960D01*
X21136789Y-13854960D02*
X21127265Y-13835912D01*
X21127265Y-13835912D02*
X21127265Y-13664484D01*
X21308218Y-13854960D02*
X21289170Y-13864484D01*
X21289170Y-13864484D02*
X21251075Y-13864484D01*
X21251075Y-13864484D02*
X21232027Y-13854960D01*
X21232027Y-13854960D02*
X21222503Y-13835912D01*
X21222503Y-13835912D02*
X21222503Y-13759722D01*
X21222503Y-13759722D02*
X21232027Y-13740674D01*
X21232027Y-13740674D02*
X21251075Y-13731150D01*
X21251075Y-13731150D02*
X21289170Y-13731150D01*
X21289170Y-13731150D02*
X21308218Y-13740674D01*
X21308218Y-13740674D02*
X21317742Y-13759722D01*
X21317742Y-13759722D02*
X21317742Y-13778769D01*
X21317742Y-13778769D02*
X21222503Y-13797817D01*
X21393932Y-13854960D02*
X21412980Y-13864484D01*
X21412980Y-13864484D02*
X21451075Y-13864484D01*
X21451075Y-13864484D02*
X21470123Y-13854960D01*
X21470123Y-13854960D02*
X21479646Y-13835912D01*
X21479646Y-13835912D02*
X21479646Y-13826388D01*
X21479646Y-13826388D02*
X21470123Y-13807341D01*
X21470123Y-13807341D02*
X21451075Y-13797817D01*
X21451075Y-13797817D02*
X21422503Y-13797817D01*
X21422503Y-13797817D02*
X21403456Y-13788293D01*
X21403456Y-13788293D02*
X21393932Y-13769246D01*
X21393932Y-13769246D02*
X21393932Y-13759722D01*
X21393932Y-13759722D02*
X21403456Y-13740674D01*
X21403456Y-13740674D02*
X21422503Y-13731150D01*
X21422503Y-13731150D02*
X21451075Y-13731150D01*
X21451075Y-13731150D02*
X21470123Y-13740674D01*
X21546313Y-13940674D02*
X21555837Y-13931150D01*
X21555837Y-13931150D02*
X21574884Y-13902579D01*
X21574884Y-13902579D02*
X21584408Y-13883531D01*
X21584408Y-13883531D02*
X21593932Y-13854960D01*
X21593932Y-13854960D02*
X21603456Y-13807341D01*
X21603456Y-13807341D02*
X21603456Y-13769246D01*
X21603456Y-13769246D02*
X21593932Y-13721627D01*
X21593932Y-13721627D02*
X21584408Y-13693055D01*
X21584408Y-13693055D02*
X21574884Y-13674008D01*
X21574884Y-13674008D02*
X21555837Y-13645436D01*
X21555837Y-13645436D02*
X21546313Y-13635912D01*
D12*
X16756606Y-14072356D02*
X16756606Y-14001644D01*
X16685894Y-14001644D01*
X16685894Y-14072356D01*
X16756606Y-14072356D01*
D11*
X17136789Y-14128484D02*
X17022503Y-14128484D01*
X17079646Y-14128484D02*
X17079646Y-13928484D01*
X17079646Y-13928484D02*
X17060598Y-13957055D01*
X17060598Y-13957055D02*
X17041551Y-13976103D01*
X17041551Y-13976103D02*
X17022503Y-13985627D01*
X17222503Y-14109436D02*
X17232027Y-14118960D01*
X17232027Y-14118960D02*
X17222503Y-14128484D01*
X17222503Y-14128484D02*
X17212979Y-14118960D01*
X17212979Y-14118960D02*
X17222503Y-14109436D01*
X17222503Y-14109436D02*
X17222503Y-14128484D01*
X17355836Y-13928484D02*
X17374884Y-13928484D01*
X17374884Y-13928484D02*
X17393932Y-13938008D01*
X17393932Y-13938008D02*
X17403455Y-13947531D01*
X17403455Y-13947531D02*
X17412979Y-13966579D01*
X17412979Y-13966579D02*
X17422503Y-14004674D01*
X17422503Y-14004674D02*
X17422503Y-14052293D01*
X17422503Y-14052293D02*
X17412979Y-14090388D01*
X17412979Y-14090388D02*
X17403455Y-14109436D01*
X17403455Y-14109436D02*
X17393932Y-14118960D01*
X17393932Y-14118960D02*
X17374884Y-14128484D01*
X17374884Y-14128484D02*
X17355836Y-14128484D01*
X17355836Y-14128484D02*
X17336789Y-14118960D01*
X17336789Y-14118960D02*
X17327265Y-14109436D01*
X17327265Y-14109436D02*
X17317741Y-14090388D01*
X17317741Y-14090388D02*
X17308217Y-14052293D01*
X17308217Y-14052293D02*
X17308217Y-14004674D01*
X17308217Y-14004674D02*
X17317741Y-13966579D01*
X17317741Y-13966579D02*
X17327265Y-13947531D01*
X17327265Y-13947531D02*
X17336789Y-13938008D01*
X17336789Y-13938008D02*
X17355836Y-13928484D01*
X17546313Y-13928484D02*
X17565360Y-13928484D01*
X17565360Y-13928484D02*
X17584408Y-13938008D01*
X17584408Y-13938008D02*
X17593932Y-13947531D01*
X17593932Y-13947531D02*
X17603455Y-13966579D01*
X17603455Y-13966579D02*
X17612979Y-14004674D01*
X17612979Y-14004674D02*
X17612979Y-14052293D01*
X17612979Y-14052293D02*
X17603455Y-14090388D01*
X17603455Y-14090388D02*
X17593932Y-14109436D01*
X17593932Y-14109436D02*
X17584408Y-14118960D01*
X17584408Y-14118960D02*
X17565360Y-14128484D01*
X17565360Y-14128484D02*
X17546313Y-14128484D01*
X17546313Y-14128484D02*
X17527265Y-14118960D01*
X17527265Y-14118960D02*
X17517741Y-14109436D01*
X17517741Y-14109436D02*
X17508217Y-14090388D01*
X17508217Y-14090388D02*
X17498694Y-14052293D01*
X17498694Y-14052293D02*
X17498694Y-14004674D01*
X17498694Y-14004674D02*
X17508217Y-13966579D01*
X17508217Y-13966579D02*
X17517741Y-13947531D01*
X17517741Y-13947531D02*
X17527265Y-13938008D01*
X17527265Y-13938008D02*
X17546313Y-13928484D01*
X17736789Y-13928484D02*
X17755836Y-13928484D01*
X17755836Y-13928484D02*
X17774884Y-13938008D01*
X17774884Y-13938008D02*
X17784408Y-13947531D01*
X17784408Y-13947531D02*
X17793932Y-13966579D01*
X17793932Y-13966579D02*
X17803455Y-14004674D01*
X17803455Y-14004674D02*
X17803455Y-14052293D01*
X17803455Y-14052293D02*
X17793932Y-14090388D01*
X17793932Y-14090388D02*
X17784408Y-14109436D01*
X17784408Y-14109436D02*
X17774884Y-14118960D01*
X17774884Y-14118960D02*
X17755836Y-14128484D01*
X17755836Y-14128484D02*
X17736789Y-14128484D01*
X17736789Y-14128484D02*
X17717741Y-14118960D01*
X17717741Y-14118960D02*
X17708217Y-14109436D01*
X17708217Y-14109436D02*
X17698694Y-14090388D01*
X17698694Y-14090388D02*
X17689170Y-14052293D01*
X17689170Y-14052293D02*
X17689170Y-14004674D01*
X17689170Y-14004674D02*
X17698694Y-13966579D01*
X17698694Y-13966579D02*
X17708217Y-13947531D01*
X17708217Y-13947531D02*
X17717741Y-13938008D01*
X17717741Y-13938008D02*
X17736789Y-13928484D01*
X17889170Y-14128484D02*
X17889170Y-13995150D01*
X17889170Y-14014198D02*
X17898694Y-14004674D01*
X17898694Y-14004674D02*
X17917741Y-13995150D01*
X17917741Y-13995150D02*
X17946313Y-13995150D01*
X17946313Y-13995150D02*
X17965360Y-14004674D01*
X17965360Y-14004674D02*
X17974884Y-14023722D01*
X17974884Y-14023722D02*
X17974884Y-14128484D01*
X17974884Y-14023722D02*
X17984408Y-14004674D01*
X17984408Y-14004674D02*
X18003455Y-13995150D01*
X18003455Y-13995150D02*
X18032027Y-13995150D01*
X18032027Y-13995150D02*
X18051075Y-14004674D01*
X18051075Y-14004674D02*
X18060598Y-14023722D01*
X18060598Y-14023722D02*
X18060598Y-14128484D01*
X18155836Y-14128484D02*
X18155836Y-13995150D01*
X18155836Y-14014198D02*
X18165360Y-14004674D01*
X18165360Y-14004674D02*
X18184408Y-13995150D01*
X18184408Y-13995150D02*
X18212979Y-13995150D01*
X18212979Y-13995150D02*
X18232027Y-14004674D01*
X18232027Y-14004674D02*
X18241551Y-14023722D01*
X18241551Y-14023722D02*
X18241551Y-14128484D01*
X18241551Y-14023722D02*
X18251075Y-14004674D01*
X18251075Y-14004674D02*
X18270122Y-13995150D01*
X18270122Y-13995150D02*
X18298694Y-13995150D01*
X18298694Y-13995150D02*
X18317741Y-14004674D01*
X18317741Y-14004674D02*
X18327265Y-14023722D01*
X18327265Y-14023722D02*
X18327265Y-14128484D01*
X18717741Y-13918960D02*
X18546313Y-14176103D01*
X18974884Y-13928484D02*
X18993932Y-13928484D01*
X18993932Y-13928484D02*
X19012979Y-13938008D01*
X19012979Y-13938008D02*
X19022503Y-13947531D01*
X19022503Y-13947531D02*
X19032027Y-13966579D01*
X19032027Y-13966579D02*
X19041551Y-14004674D01*
X19041551Y-14004674D02*
X19041551Y-14052293D01*
X19041551Y-14052293D02*
X19032027Y-14090388D01*
X19032027Y-14090388D02*
X19022503Y-14109436D01*
X19022503Y-14109436D02*
X19012979Y-14118960D01*
X19012979Y-14118960D02*
X18993932Y-14128484D01*
X18993932Y-14128484D02*
X18974884Y-14128484D01*
X18974884Y-14128484D02*
X18955837Y-14118960D01*
X18955837Y-14118960D02*
X18946313Y-14109436D01*
X18946313Y-14109436D02*
X18936789Y-14090388D01*
X18936789Y-14090388D02*
X18927265Y-14052293D01*
X18927265Y-14052293D02*
X18927265Y-14004674D01*
X18927265Y-14004674D02*
X18936789Y-13966579D01*
X18936789Y-13966579D02*
X18946313Y-13947531D01*
X18946313Y-13947531D02*
X18955837Y-13938008D01*
X18955837Y-13938008D02*
X18974884Y-13928484D01*
X19127265Y-14109436D02*
X19136789Y-14118960D01*
X19136789Y-14118960D02*
X19127265Y-14128484D01*
X19127265Y-14128484D02*
X19117741Y-14118960D01*
X19117741Y-14118960D02*
X19127265Y-14109436D01*
X19127265Y-14109436D02*
X19127265Y-14128484D01*
X19260598Y-13928484D02*
X19279646Y-13928484D01*
X19279646Y-13928484D02*
X19298694Y-13938008D01*
X19298694Y-13938008D02*
X19308218Y-13947531D01*
X19308218Y-13947531D02*
X19317741Y-13966579D01*
X19317741Y-13966579D02*
X19327265Y-14004674D01*
X19327265Y-14004674D02*
X19327265Y-14052293D01*
X19327265Y-14052293D02*
X19317741Y-14090388D01*
X19317741Y-14090388D02*
X19308218Y-14109436D01*
X19308218Y-14109436D02*
X19298694Y-14118960D01*
X19298694Y-14118960D02*
X19279646Y-14128484D01*
X19279646Y-14128484D02*
X19260598Y-14128484D01*
X19260598Y-14128484D02*
X19241551Y-14118960D01*
X19241551Y-14118960D02*
X19232027Y-14109436D01*
X19232027Y-14109436D02*
X19222503Y-14090388D01*
X19222503Y-14090388D02*
X19212979Y-14052293D01*
X19212979Y-14052293D02*
X19212979Y-14004674D01*
X19212979Y-14004674D02*
X19222503Y-13966579D01*
X19222503Y-13966579D02*
X19232027Y-13947531D01*
X19232027Y-13947531D02*
X19241551Y-13938008D01*
X19241551Y-13938008D02*
X19260598Y-13928484D01*
X19393932Y-13928484D02*
X19517741Y-13928484D01*
X19517741Y-13928484D02*
X19451075Y-14004674D01*
X19451075Y-14004674D02*
X19479646Y-14004674D01*
X19479646Y-14004674D02*
X19498694Y-14014198D01*
X19498694Y-14014198D02*
X19508218Y-14023722D01*
X19508218Y-14023722D02*
X19517741Y-14042769D01*
X19517741Y-14042769D02*
X19517741Y-14090388D01*
X19517741Y-14090388D02*
X19508218Y-14109436D01*
X19508218Y-14109436D02*
X19498694Y-14118960D01*
X19498694Y-14118960D02*
X19479646Y-14128484D01*
X19479646Y-14128484D02*
X19422503Y-14128484D01*
X19422503Y-14128484D02*
X19403456Y-14118960D01*
X19403456Y-14118960D02*
X19393932Y-14109436D01*
X19612979Y-14128484D02*
X19651075Y-14128484D01*
X19651075Y-14128484D02*
X19670122Y-14118960D01*
X19670122Y-14118960D02*
X19679646Y-14109436D01*
X19679646Y-14109436D02*
X19698694Y-14080865D01*
X19698694Y-14080865D02*
X19708218Y-14042769D01*
X19708218Y-14042769D02*
X19708218Y-13966579D01*
X19708218Y-13966579D02*
X19698694Y-13947531D01*
X19698694Y-13947531D02*
X19689170Y-13938008D01*
X19689170Y-13938008D02*
X19670122Y-13928484D01*
X19670122Y-13928484D02*
X19632027Y-13928484D01*
X19632027Y-13928484D02*
X19612979Y-13938008D01*
X19612979Y-13938008D02*
X19603456Y-13947531D01*
X19603456Y-13947531D02*
X19593932Y-13966579D01*
X19593932Y-13966579D02*
X19593932Y-14014198D01*
X19593932Y-14014198D02*
X19603456Y-14033246D01*
X19603456Y-14033246D02*
X19612979Y-14042769D01*
X19612979Y-14042769D02*
X19632027Y-14052293D01*
X19632027Y-14052293D02*
X19670122Y-14052293D01*
X19670122Y-14052293D02*
X19689170Y-14042769D01*
X19689170Y-14042769D02*
X19698694Y-14033246D01*
X19698694Y-14033246D02*
X19708218Y-14014198D01*
X19879646Y-13995150D02*
X19879646Y-14128484D01*
X19832027Y-13918960D02*
X19784408Y-14061817D01*
X19784408Y-14061817D02*
X19908218Y-14061817D01*
X19974884Y-13928484D02*
X19974884Y-13966579D01*
X20051075Y-13928484D02*
X20051075Y-13966579D01*
X20346313Y-14204674D02*
X20336789Y-14195150D01*
X20336789Y-14195150D02*
X20317741Y-14166579D01*
X20317741Y-14166579D02*
X20308218Y-14147531D01*
X20308218Y-14147531D02*
X20298694Y-14118960D01*
X20298694Y-14118960D02*
X20289170Y-14071341D01*
X20289170Y-14071341D02*
X20289170Y-14033246D01*
X20289170Y-14033246D02*
X20298694Y-13985627D01*
X20298694Y-13985627D02*
X20308218Y-13957055D01*
X20308218Y-13957055D02*
X20317741Y-13938008D01*
X20317741Y-13938008D02*
X20336789Y-13909436D01*
X20336789Y-13909436D02*
X20346313Y-13899912D01*
X20412980Y-13947531D02*
X20422503Y-13938008D01*
X20422503Y-13938008D02*
X20441551Y-13928484D01*
X20441551Y-13928484D02*
X20489170Y-13928484D01*
X20489170Y-13928484D02*
X20508218Y-13938008D01*
X20508218Y-13938008D02*
X20517741Y-13947531D01*
X20517741Y-13947531D02*
X20527265Y-13966579D01*
X20527265Y-13966579D02*
X20527265Y-13985627D01*
X20527265Y-13985627D02*
X20517741Y-14014198D01*
X20517741Y-14014198D02*
X20403456Y-14128484D01*
X20403456Y-14128484D02*
X20527265Y-14128484D01*
X20593932Y-13928484D02*
X20727265Y-13928484D01*
X20727265Y-13928484D02*
X20641551Y-14128484D01*
X20955837Y-14128484D02*
X20955837Y-13928484D01*
X21041551Y-14128484D02*
X21041551Y-14023722D01*
X21041551Y-14023722D02*
X21032027Y-14004674D01*
X21032027Y-14004674D02*
X21012980Y-13995150D01*
X21012980Y-13995150D02*
X20984408Y-13995150D01*
X20984408Y-13995150D02*
X20965361Y-14004674D01*
X20965361Y-14004674D02*
X20955837Y-14014198D01*
X21165361Y-14128484D02*
X21146313Y-14118960D01*
X21146313Y-14118960D02*
X21136789Y-14109436D01*
X21136789Y-14109436D02*
X21127265Y-14090388D01*
X21127265Y-14090388D02*
X21127265Y-14033246D01*
X21127265Y-14033246D02*
X21136789Y-14014198D01*
X21136789Y-14014198D02*
X21146313Y-14004674D01*
X21146313Y-14004674D02*
X21165361Y-13995150D01*
X21165361Y-13995150D02*
X21193932Y-13995150D01*
X21193932Y-13995150D02*
X21212980Y-14004674D01*
X21212980Y-14004674D02*
X21222503Y-14014198D01*
X21222503Y-14014198D02*
X21232027Y-14033246D01*
X21232027Y-14033246D02*
X21232027Y-14090388D01*
X21232027Y-14090388D02*
X21222503Y-14109436D01*
X21222503Y-14109436D02*
X21212980Y-14118960D01*
X21212980Y-14118960D02*
X21193932Y-14128484D01*
X21193932Y-14128484D02*
X21165361Y-14128484D01*
X21346313Y-14128484D02*
X21327265Y-14118960D01*
X21327265Y-14118960D02*
X21317742Y-14099912D01*
X21317742Y-14099912D02*
X21317742Y-13928484D01*
X21498694Y-14118960D02*
X21479646Y-14128484D01*
X21479646Y-14128484D02*
X21441551Y-14128484D01*
X21441551Y-14128484D02*
X21422503Y-14118960D01*
X21422503Y-14118960D02*
X21412980Y-14099912D01*
X21412980Y-14099912D02*
X21412980Y-14023722D01*
X21412980Y-14023722D02*
X21422503Y-14004674D01*
X21422503Y-14004674D02*
X21441551Y-13995150D01*
X21441551Y-13995150D02*
X21479646Y-13995150D01*
X21479646Y-13995150D02*
X21498694Y-14004674D01*
X21498694Y-14004674D02*
X21508218Y-14023722D01*
X21508218Y-14023722D02*
X21508218Y-14042769D01*
X21508218Y-14042769D02*
X21412980Y-14061817D01*
X21584408Y-14118960D02*
X21603456Y-14128484D01*
X21603456Y-14128484D02*
X21641551Y-14128484D01*
X21641551Y-14128484D02*
X21660599Y-14118960D01*
X21660599Y-14118960D02*
X21670123Y-14099912D01*
X21670123Y-14099912D02*
X21670123Y-14090388D01*
X21670123Y-14090388D02*
X21660599Y-14071341D01*
X21660599Y-14071341D02*
X21641551Y-14061817D01*
X21641551Y-14061817D02*
X21612980Y-14061817D01*
X21612980Y-14061817D02*
X21593932Y-14052293D01*
X21593932Y-14052293D02*
X21584408Y-14033246D01*
X21584408Y-14033246D02*
X21584408Y-14023722D01*
X21584408Y-14023722D02*
X21593932Y-14004674D01*
X21593932Y-14004674D02*
X21612980Y-13995150D01*
X21612980Y-13995150D02*
X21641551Y-13995150D01*
X21641551Y-13995150D02*
X21660599Y-14004674D01*
X21908218Y-14052293D02*
X22060599Y-14052293D01*
X21984408Y-14128484D02*
X21984408Y-13976103D01*
X22289170Y-13928484D02*
X22412980Y-13928484D01*
X22412980Y-13928484D02*
X22346313Y-14004674D01*
X22346313Y-14004674D02*
X22374884Y-14004674D01*
X22374884Y-14004674D02*
X22393932Y-14014198D01*
X22393932Y-14014198D02*
X22403456Y-14023722D01*
X22403456Y-14023722D02*
X22412980Y-14042769D01*
X22412980Y-14042769D02*
X22412980Y-14090388D01*
X22412980Y-14090388D02*
X22403456Y-14109436D01*
X22403456Y-14109436D02*
X22393932Y-14118960D01*
X22393932Y-14118960D02*
X22374884Y-14128484D01*
X22374884Y-14128484D02*
X22317742Y-14128484D01*
X22317742Y-14128484D02*
X22298694Y-14118960D01*
X22298694Y-14118960D02*
X22289170Y-14109436D01*
X22641551Y-14118960D02*
X22660599Y-14128484D01*
X22660599Y-14128484D02*
X22698694Y-14128484D01*
X22698694Y-14128484D02*
X22717742Y-14118960D01*
X22717742Y-14118960D02*
X22727265Y-14099912D01*
X22727265Y-14099912D02*
X22727265Y-14090388D01*
X22727265Y-14090388D02*
X22717742Y-14071341D01*
X22717742Y-14071341D02*
X22698694Y-14061817D01*
X22698694Y-14061817D02*
X22670123Y-14061817D01*
X22670123Y-14061817D02*
X22651075Y-14052293D01*
X22651075Y-14052293D02*
X22641551Y-14033246D01*
X22641551Y-14033246D02*
X22641551Y-14023722D01*
X22641551Y-14023722D02*
X22651075Y-14004674D01*
X22651075Y-14004674D02*
X22670123Y-13995150D01*
X22670123Y-13995150D02*
X22698694Y-13995150D01*
X22698694Y-13995150D02*
X22717742Y-14004674D01*
X22841551Y-14128484D02*
X22822504Y-14118960D01*
X22822504Y-14118960D02*
X22812980Y-14099912D01*
X22812980Y-14099912D02*
X22812980Y-13928484D01*
X22946313Y-14128484D02*
X22927265Y-14118960D01*
X22927265Y-14118960D02*
X22917742Y-14109436D01*
X22917742Y-14109436D02*
X22908218Y-14090388D01*
X22908218Y-14090388D02*
X22908218Y-14033246D01*
X22908218Y-14033246D02*
X22917742Y-14014198D01*
X22917742Y-14014198D02*
X22927265Y-14004674D01*
X22927265Y-14004674D02*
X22946313Y-13995150D01*
X22946313Y-13995150D02*
X22974885Y-13995150D01*
X22974885Y-13995150D02*
X22993932Y-14004674D01*
X22993932Y-14004674D02*
X23003456Y-14014198D01*
X23003456Y-14014198D02*
X23012980Y-14033246D01*
X23012980Y-14033246D02*
X23012980Y-14090388D01*
X23012980Y-14090388D02*
X23003456Y-14109436D01*
X23003456Y-14109436D02*
X22993932Y-14118960D01*
X22993932Y-14118960D02*
X22974885Y-14128484D01*
X22974885Y-14128484D02*
X22946313Y-14128484D01*
X23070123Y-13995150D02*
X23146313Y-13995150D01*
X23098694Y-13928484D02*
X23098694Y-14099912D01*
X23098694Y-14099912D02*
X23108218Y-14118960D01*
X23108218Y-14118960D02*
X23127265Y-14128484D01*
X23127265Y-14128484D02*
X23146313Y-14128484D01*
X23203456Y-14118960D02*
X23222504Y-14128484D01*
X23222504Y-14128484D02*
X23260599Y-14128484D01*
X23260599Y-14128484D02*
X23279646Y-14118960D01*
X23279646Y-14118960D02*
X23289170Y-14099912D01*
X23289170Y-14099912D02*
X23289170Y-14090388D01*
X23289170Y-14090388D02*
X23279646Y-14071341D01*
X23279646Y-14071341D02*
X23260599Y-14061817D01*
X23260599Y-14061817D02*
X23232027Y-14061817D01*
X23232027Y-14061817D02*
X23212980Y-14052293D01*
X23212980Y-14052293D02*
X23203456Y-14033246D01*
X23203456Y-14033246D02*
X23203456Y-14023722D01*
X23203456Y-14023722D02*
X23212980Y-14004674D01*
X23212980Y-14004674D02*
X23232027Y-13995150D01*
X23232027Y-13995150D02*
X23260599Y-13995150D01*
X23260599Y-13995150D02*
X23279646Y-14004674D01*
X23355837Y-14204674D02*
X23365361Y-14195150D01*
X23365361Y-14195150D02*
X23384408Y-14166579D01*
X23384408Y-14166579D02*
X23393932Y-14147531D01*
X23393932Y-14147531D02*
X23403456Y-14118960D01*
X23403456Y-14118960D02*
X23412980Y-14071341D01*
X23412980Y-14071341D02*
X23412980Y-14033246D01*
X23412980Y-14033246D02*
X23403456Y-13985627D01*
X23403456Y-13985627D02*
X23393932Y-13957055D01*
X23393932Y-13957055D02*
X23384408Y-13938008D01*
X23384408Y-13938008D02*
X23365361Y-13909436D01*
X23365361Y-13909436D02*
X23355837Y-13899912D01*
D13*
X16706250Y-14366000D02*
X16771250Y-14301000D01*
X16706250Y-14236000D01*
X16641250Y-14301000D01*
X16706250Y-14366000D01*
D11*
X17136789Y-14392484D02*
X17022503Y-14392484D01*
X17079646Y-14392484D02*
X17079646Y-14192484D01*
X17079646Y-14192484D02*
X17060598Y-14221055D01*
X17060598Y-14221055D02*
X17041551Y-14240103D01*
X17041551Y-14240103D02*
X17022503Y-14249627D01*
X17222503Y-14373436D02*
X17232027Y-14382960D01*
X17232027Y-14382960D02*
X17222503Y-14392484D01*
X17222503Y-14392484D02*
X17212979Y-14382960D01*
X17212979Y-14382960D02*
X17222503Y-14373436D01*
X17222503Y-14373436D02*
X17222503Y-14392484D01*
X17298694Y-14192484D02*
X17422503Y-14192484D01*
X17422503Y-14192484D02*
X17355836Y-14268674D01*
X17355836Y-14268674D02*
X17384408Y-14268674D01*
X17384408Y-14268674D02*
X17403455Y-14278198D01*
X17403455Y-14278198D02*
X17412979Y-14287722D01*
X17412979Y-14287722D02*
X17422503Y-14306769D01*
X17422503Y-14306769D02*
X17422503Y-14354388D01*
X17422503Y-14354388D02*
X17412979Y-14373436D01*
X17412979Y-14373436D02*
X17403455Y-14382960D01*
X17403455Y-14382960D02*
X17384408Y-14392484D01*
X17384408Y-14392484D02*
X17327265Y-14392484D01*
X17327265Y-14392484D02*
X17308217Y-14382960D01*
X17308217Y-14382960D02*
X17298694Y-14373436D01*
X17546313Y-14192484D02*
X17565360Y-14192484D01*
X17565360Y-14192484D02*
X17584408Y-14202008D01*
X17584408Y-14202008D02*
X17593932Y-14211531D01*
X17593932Y-14211531D02*
X17603455Y-14230579D01*
X17603455Y-14230579D02*
X17612979Y-14268674D01*
X17612979Y-14268674D02*
X17612979Y-14316293D01*
X17612979Y-14316293D02*
X17603455Y-14354388D01*
X17603455Y-14354388D02*
X17593932Y-14373436D01*
X17593932Y-14373436D02*
X17584408Y-14382960D01*
X17584408Y-14382960D02*
X17565360Y-14392484D01*
X17565360Y-14392484D02*
X17546313Y-14392484D01*
X17546313Y-14392484D02*
X17527265Y-14382960D01*
X17527265Y-14382960D02*
X17517741Y-14373436D01*
X17517741Y-14373436D02*
X17508217Y-14354388D01*
X17508217Y-14354388D02*
X17498694Y-14316293D01*
X17498694Y-14316293D02*
X17498694Y-14268674D01*
X17498694Y-14268674D02*
X17508217Y-14230579D01*
X17508217Y-14230579D02*
X17517741Y-14211531D01*
X17517741Y-14211531D02*
X17527265Y-14202008D01*
X17527265Y-14202008D02*
X17546313Y-14192484D01*
X17736789Y-14192484D02*
X17755836Y-14192484D01*
X17755836Y-14192484D02*
X17774884Y-14202008D01*
X17774884Y-14202008D02*
X17784408Y-14211531D01*
X17784408Y-14211531D02*
X17793932Y-14230579D01*
X17793932Y-14230579D02*
X17803455Y-14268674D01*
X17803455Y-14268674D02*
X17803455Y-14316293D01*
X17803455Y-14316293D02*
X17793932Y-14354388D01*
X17793932Y-14354388D02*
X17784408Y-14373436D01*
X17784408Y-14373436D02*
X17774884Y-14382960D01*
X17774884Y-14382960D02*
X17755836Y-14392484D01*
X17755836Y-14392484D02*
X17736789Y-14392484D01*
X17736789Y-14392484D02*
X17717741Y-14382960D01*
X17717741Y-14382960D02*
X17708217Y-14373436D01*
X17708217Y-14373436D02*
X17698694Y-14354388D01*
X17698694Y-14354388D02*
X17689170Y-14316293D01*
X17689170Y-14316293D02*
X17689170Y-14268674D01*
X17689170Y-14268674D02*
X17698694Y-14230579D01*
X17698694Y-14230579D02*
X17708217Y-14211531D01*
X17708217Y-14211531D02*
X17717741Y-14202008D01*
X17717741Y-14202008D02*
X17736789Y-14192484D01*
X17889170Y-14392484D02*
X17889170Y-14259150D01*
X17889170Y-14278198D02*
X17898694Y-14268674D01*
X17898694Y-14268674D02*
X17917741Y-14259150D01*
X17917741Y-14259150D02*
X17946313Y-14259150D01*
X17946313Y-14259150D02*
X17965360Y-14268674D01*
X17965360Y-14268674D02*
X17974884Y-14287722D01*
X17974884Y-14287722D02*
X17974884Y-14392484D01*
X17974884Y-14287722D02*
X17984408Y-14268674D01*
X17984408Y-14268674D02*
X18003455Y-14259150D01*
X18003455Y-14259150D02*
X18032027Y-14259150D01*
X18032027Y-14259150D02*
X18051075Y-14268674D01*
X18051075Y-14268674D02*
X18060598Y-14287722D01*
X18060598Y-14287722D02*
X18060598Y-14392484D01*
X18155836Y-14392484D02*
X18155836Y-14259150D01*
X18155836Y-14278198D02*
X18165360Y-14268674D01*
X18165360Y-14268674D02*
X18184408Y-14259150D01*
X18184408Y-14259150D02*
X18212979Y-14259150D01*
X18212979Y-14259150D02*
X18232027Y-14268674D01*
X18232027Y-14268674D02*
X18241551Y-14287722D01*
X18241551Y-14287722D02*
X18241551Y-14392484D01*
X18241551Y-14287722D02*
X18251075Y-14268674D01*
X18251075Y-14268674D02*
X18270122Y-14259150D01*
X18270122Y-14259150D02*
X18298694Y-14259150D01*
X18298694Y-14259150D02*
X18317741Y-14268674D01*
X18317741Y-14268674D02*
X18327265Y-14287722D01*
X18327265Y-14287722D02*
X18327265Y-14392484D01*
X18717741Y-14182960D02*
X18546313Y-14440103D01*
X18974884Y-14192484D02*
X18993932Y-14192484D01*
X18993932Y-14192484D02*
X19012979Y-14202008D01*
X19012979Y-14202008D02*
X19022503Y-14211531D01*
X19022503Y-14211531D02*
X19032027Y-14230579D01*
X19032027Y-14230579D02*
X19041551Y-14268674D01*
X19041551Y-14268674D02*
X19041551Y-14316293D01*
X19041551Y-14316293D02*
X19032027Y-14354388D01*
X19032027Y-14354388D02*
X19022503Y-14373436D01*
X19022503Y-14373436D02*
X19012979Y-14382960D01*
X19012979Y-14382960D02*
X18993932Y-14392484D01*
X18993932Y-14392484D02*
X18974884Y-14392484D01*
X18974884Y-14392484D02*
X18955837Y-14382960D01*
X18955837Y-14382960D02*
X18946313Y-14373436D01*
X18946313Y-14373436D02*
X18936789Y-14354388D01*
X18936789Y-14354388D02*
X18927265Y-14316293D01*
X18927265Y-14316293D02*
X18927265Y-14268674D01*
X18927265Y-14268674D02*
X18936789Y-14230579D01*
X18936789Y-14230579D02*
X18946313Y-14211531D01*
X18946313Y-14211531D02*
X18955837Y-14202008D01*
X18955837Y-14202008D02*
X18974884Y-14192484D01*
X19127265Y-14373436D02*
X19136789Y-14382960D01*
X19136789Y-14382960D02*
X19127265Y-14392484D01*
X19127265Y-14392484D02*
X19117741Y-14382960D01*
X19117741Y-14382960D02*
X19127265Y-14373436D01*
X19127265Y-14373436D02*
X19127265Y-14392484D01*
X19260598Y-14192484D02*
X19279646Y-14192484D01*
X19279646Y-14192484D02*
X19298694Y-14202008D01*
X19298694Y-14202008D02*
X19308218Y-14211531D01*
X19308218Y-14211531D02*
X19317741Y-14230579D01*
X19317741Y-14230579D02*
X19327265Y-14268674D01*
X19327265Y-14268674D02*
X19327265Y-14316293D01*
X19327265Y-14316293D02*
X19317741Y-14354388D01*
X19317741Y-14354388D02*
X19308218Y-14373436D01*
X19308218Y-14373436D02*
X19298694Y-14382960D01*
X19298694Y-14382960D02*
X19279646Y-14392484D01*
X19279646Y-14392484D02*
X19260598Y-14392484D01*
X19260598Y-14392484D02*
X19241551Y-14382960D01*
X19241551Y-14382960D02*
X19232027Y-14373436D01*
X19232027Y-14373436D02*
X19222503Y-14354388D01*
X19222503Y-14354388D02*
X19212979Y-14316293D01*
X19212979Y-14316293D02*
X19212979Y-14268674D01*
X19212979Y-14268674D02*
X19222503Y-14230579D01*
X19222503Y-14230579D02*
X19232027Y-14211531D01*
X19232027Y-14211531D02*
X19241551Y-14202008D01*
X19241551Y-14202008D02*
X19260598Y-14192484D01*
X19508218Y-14192484D02*
X19412979Y-14192484D01*
X19412979Y-14192484D02*
X19403456Y-14287722D01*
X19403456Y-14287722D02*
X19412979Y-14278198D01*
X19412979Y-14278198D02*
X19432027Y-14268674D01*
X19432027Y-14268674D02*
X19479646Y-14268674D01*
X19479646Y-14268674D02*
X19498694Y-14278198D01*
X19498694Y-14278198D02*
X19508218Y-14287722D01*
X19508218Y-14287722D02*
X19517741Y-14306769D01*
X19517741Y-14306769D02*
X19517741Y-14354388D01*
X19517741Y-14354388D02*
X19508218Y-14373436D01*
X19508218Y-14373436D02*
X19498694Y-14382960D01*
X19498694Y-14382960D02*
X19479646Y-14392484D01*
X19479646Y-14392484D02*
X19432027Y-14392484D01*
X19432027Y-14392484D02*
X19412979Y-14382960D01*
X19412979Y-14382960D02*
X19403456Y-14373436D01*
X19708218Y-14392484D02*
X19593932Y-14392484D01*
X19651075Y-14392484D02*
X19651075Y-14192484D01*
X19651075Y-14192484D02*
X19632027Y-14221055D01*
X19632027Y-14221055D02*
X19612979Y-14240103D01*
X19612979Y-14240103D02*
X19593932Y-14249627D01*
X19784408Y-14211531D02*
X19793932Y-14202008D01*
X19793932Y-14202008D02*
X19812979Y-14192484D01*
X19812979Y-14192484D02*
X19860599Y-14192484D01*
X19860599Y-14192484D02*
X19879646Y-14202008D01*
X19879646Y-14202008D02*
X19889170Y-14211531D01*
X19889170Y-14211531D02*
X19898694Y-14230579D01*
X19898694Y-14230579D02*
X19898694Y-14249627D01*
X19898694Y-14249627D02*
X19889170Y-14278198D01*
X19889170Y-14278198D02*
X19774884Y-14392484D01*
X19774884Y-14392484D02*
X19898694Y-14392484D01*
X19974884Y-14192484D02*
X19974884Y-14230579D01*
X20051075Y-14192484D02*
X20051075Y-14230579D01*
X20346313Y-14468674D02*
X20336789Y-14459150D01*
X20336789Y-14459150D02*
X20317741Y-14430579D01*
X20317741Y-14430579D02*
X20308218Y-14411531D01*
X20308218Y-14411531D02*
X20298694Y-14382960D01*
X20298694Y-14382960D02*
X20289170Y-14335341D01*
X20289170Y-14335341D02*
X20289170Y-14297246D01*
X20289170Y-14297246D02*
X20298694Y-14249627D01*
X20298694Y-14249627D02*
X20308218Y-14221055D01*
X20308218Y-14221055D02*
X20317741Y-14202008D01*
X20317741Y-14202008D02*
X20336789Y-14173436D01*
X20336789Y-14173436D02*
X20346313Y-14163912D01*
X20508218Y-14259150D02*
X20508218Y-14392484D01*
X20460599Y-14182960D02*
X20412980Y-14325817D01*
X20412980Y-14325817D02*
X20536789Y-14325817D01*
X20765361Y-14392484D02*
X20765361Y-14192484D01*
X20851075Y-14392484D02*
X20851075Y-14287722D01*
X20851075Y-14287722D02*
X20841551Y-14268674D01*
X20841551Y-14268674D02*
X20822503Y-14259150D01*
X20822503Y-14259150D02*
X20793932Y-14259150D01*
X20793932Y-14259150D02*
X20774884Y-14268674D01*
X20774884Y-14268674D02*
X20765361Y-14278198D01*
X20974884Y-14392484D02*
X20955837Y-14382960D01*
X20955837Y-14382960D02*
X20946313Y-14373436D01*
X20946313Y-14373436D02*
X20936789Y-14354388D01*
X20936789Y-14354388D02*
X20936789Y-14297246D01*
X20936789Y-14297246D02*
X20946313Y-14278198D01*
X20946313Y-14278198D02*
X20955837Y-14268674D01*
X20955837Y-14268674D02*
X20974884Y-14259150D01*
X20974884Y-14259150D02*
X21003456Y-14259150D01*
X21003456Y-14259150D02*
X21022503Y-14268674D01*
X21022503Y-14268674D02*
X21032027Y-14278198D01*
X21032027Y-14278198D02*
X21041551Y-14297246D01*
X21041551Y-14297246D02*
X21041551Y-14354388D01*
X21041551Y-14354388D02*
X21032027Y-14373436D01*
X21032027Y-14373436D02*
X21022503Y-14382960D01*
X21022503Y-14382960D02*
X21003456Y-14392484D01*
X21003456Y-14392484D02*
X20974884Y-14392484D01*
X21155837Y-14392484D02*
X21136789Y-14382960D01*
X21136789Y-14382960D02*
X21127265Y-14363912D01*
X21127265Y-14363912D02*
X21127265Y-14192484D01*
X21308218Y-14382960D02*
X21289170Y-14392484D01*
X21289170Y-14392484D02*
X21251075Y-14392484D01*
X21251075Y-14392484D02*
X21232027Y-14382960D01*
X21232027Y-14382960D02*
X21222503Y-14363912D01*
X21222503Y-14363912D02*
X21222503Y-14287722D01*
X21222503Y-14287722D02*
X21232027Y-14268674D01*
X21232027Y-14268674D02*
X21251075Y-14259150D01*
X21251075Y-14259150D02*
X21289170Y-14259150D01*
X21289170Y-14259150D02*
X21308218Y-14268674D01*
X21308218Y-14268674D02*
X21317742Y-14287722D01*
X21317742Y-14287722D02*
X21317742Y-14306769D01*
X21317742Y-14306769D02*
X21222503Y-14325817D01*
X21393932Y-14382960D02*
X21412980Y-14392484D01*
X21412980Y-14392484D02*
X21451075Y-14392484D01*
X21451075Y-14392484D02*
X21470123Y-14382960D01*
X21470123Y-14382960D02*
X21479646Y-14363912D01*
X21479646Y-14363912D02*
X21479646Y-14354388D01*
X21479646Y-14354388D02*
X21470123Y-14335341D01*
X21470123Y-14335341D02*
X21451075Y-14325817D01*
X21451075Y-14325817D02*
X21422503Y-14325817D01*
X21422503Y-14325817D02*
X21403456Y-14316293D01*
X21403456Y-14316293D02*
X21393932Y-14297246D01*
X21393932Y-14297246D02*
X21393932Y-14287722D01*
X21393932Y-14287722D02*
X21403456Y-14268674D01*
X21403456Y-14268674D02*
X21422503Y-14259150D01*
X21422503Y-14259150D02*
X21451075Y-14259150D01*
X21451075Y-14259150D02*
X21470123Y-14268674D01*
X21546313Y-14468674D02*
X21555837Y-14459150D01*
X21555837Y-14459150D02*
X21574884Y-14430579D01*
X21574884Y-14430579D02*
X21584408Y-14411531D01*
X21584408Y-14411531D02*
X21593932Y-14382960D01*
X21593932Y-14382960D02*
X21603456Y-14335341D01*
X21603456Y-14335341D02*
X21603456Y-14297246D01*
X21603456Y-14297246D02*
X21593932Y-14249627D01*
X21593932Y-14249627D02*
X21584408Y-14221055D01*
X21584408Y-14221055D02*
X21574884Y-14202008D01*
X21574884Y-14202008D02*
X21555837Y-14173436D01*
X21555837Y-14173436D02*
X21546313Y-14163912D01*
D14*
X16619250Y-14489000D02*
X16771250Y-14641000D01*
X16771250Y-14489000D02*
X16619250Y-14641000D01*
X16771250Y-14565000D02*
G75*
G02*
X16619250Y-14565000I-76000J0D01*
G01*
X16619250Y-14565000D02*
G75*
G02*
X16771250Y-14565000I76000J0D01*
G01*
D11*
X17136789Y-14656484D02*
X17022503Y-14656484D01*
X17079646Y-14656484D02*
X17079646Y-14456484D01*
X17079646Y-14456484D02*
X17060598Y-14485055D01*
X17060598Y-14485055D02*
X17041551Y-14504103D01*
X17041551Y-14504103D02*
X17022503Y-14513627D01*
X17222503Y-14637436D02*
X17232027Y-14646960D01*
X17232027Y-14646960D02*
X17222503Y-14656484D01*
X17222503Y-14656484D02*
X17212979Y-14646960D01*
X17212979Y-14646960D02*
X17222503Y-14637436D01*
X17222503Y-14637436D02*
X17222503Y-14656484D01*
X17412979Y-14456484D02*
X17317741Y-14456484D01*
X17317741Y-14456484D02*
X17308217Y-14551722D01*
X17308217Y-14551722D02*
X17317741Y-14542198D01*
X17317741Y-14542198D02*
X17336789Y-14532674D01*
X17336789Y-14532674D02*
X17384408Y-14532674D01*
X17384408Y-14532674D02*
X17403455Y-14542198D01*
X17403455Y-14542198D02*
X17412979Y-14551722D01*
X17412979Y-14551722D02*
X17422503Y-14570769D01*
X17422503Y-14570769D02*
X17422503Y-14618388D01*
X17422503Y-14618388D02*
X17412979Y-14637436D01*
X17412979Y-14637436D02*
X17403455Y-14646960D01*
X17403455Y-14646960D02*
X17384408Y-14656484D01*
X17384408Y-14656484D02*
X17336789Y-14656484D01*
X17336789Y-14656484D02*
X17317741Y-14646960D01*
X17317741Y-14646960D02*
X17308217Y-14637436D01*
X17498694Y-14475531D02*
X17508217Y-14466008D01*
X17508217Y-14466008D02*
X17527265Y-14456484D01*
X17527265Y-14456484D02*
X17574884Y-14456484D01*
X17574884Y-14456484D02*
X17593932Y-14466008D01*
X17593932Y-14466008D02*
X17603455Y-14475531D01*
X17603455Y-14475531D02*
X17612979Y-14494579D01*
X17612979Y-14494579D02*
X17612979Y-14513627D01*
X17612979Y-14513627D02*
X17603455Y-14542198D01*
X17603455Y-14542198D02*
X17489170Y-14656484D01*
X17489170Y-14656484D02*
X17612979Y-14656484D01*
X17736789Y-14456484D02*
X17755836Y-14456484D01*
X17755836Y-14456484D02*
X17774884Y-14466008D01*
X17774884Y-14466008D02*
X17784408Y-14475531D01*
X17784408Y-14475531D02*
X17793932Y-14494579D01*
X17793932Y-14494579D02*
X17803455Y-14532674D01*
X17803455Y-14532674D02*
X17803455Y-14580293D01*
X17803455Y-14580293D02*
X17793932Y-14618388D01*
X17793932Y-14618388D02*
X17784408Y-14637436D01*
X17784408Y-14637436D02*
X17774884Y-14646960D01*
X17774884Y-14646960D02*
X17755836Y-14656484D01*
X17755836Y-14656484D02*
X17736789Y-14656484D01*
X17736789Y-14656484D02*
X17717741Y-14646960D01*
X17717741Y-14646960D02*
X17708217Y-14637436D01*
X17708217Y-14637436D02*
X17698694Y-14618388D01*
X17698694Y-14618388D02*
X17689170Y-14580293D01*
X17689170Y-14580293D02*
X17689170Y-14532674D01*
X17689170Y-14532674D02*
X17698694Y-14494579D01*
X17698694Y-14494579D02*
X17708217Y-14475531D01*
X17708217Y-14475531D02*
X17717741Y-14466008D01*
X17717741Y-14466008D02*
X17736789Y-14456484D01*
X17889170Y-14656484D02*
X17889170Y-14523150D01*
X17889170Y-14542198D02*
X17898694Y-14532674D01*
X17898694Y-14532674D02*
X17917741Y-14523150D01*
X17917741Y-14523150D02*
X17946313Y-14523150D01*
X17946313Y-14523150D02*
X17965360Y-14532674D01*
X17965360Y-14532674D02*
X17974884Y-14551722D01*
X17974884Y-14551722D02*
X17974884Y-14656484D01*
X17974884Y-14551722D02*
X17984408Y-14532674D01*
X17984408Y-14532674D02*
X18003455Y-14523150D01*
X18003455Y-14523150D02*
X18032027Y-14523150D01*
X18032027Y-14523150D02*
X18051075Y-14532674D01*
X18051075Y-14532674D02*
X18060598Y-14551722D01*
X18060598Y-14551722D02*
X18060598Y-14656484D01*
X18155836Y-14656484D02*
X18155836Y-14523150D01*
X18155836Y-14542198D02*
X18165360Y-14532674D01*
X18165360Y-14532674D02*
X18184408Y-14523150D01*
X18184408Y-14523150D02*
X18212979Y-14523150D01*
X18212979Y-14523150D02*
X18232027Y-14532674D01*
X18232027Y-14532674D02*
X18241551Y-14551722D01*
X18241551Y-14551722D02*
X18241551Y-14656484D01*
X18241551Y-14551722D02*
X18251075Y-14532674D01*
X18251075Y-14532674D02*
X18270122Y-14523150D01*
X18270122Y-14523150D02*
X18298694Y-14523150D01*
X18298694Y-14523150D02*
X18317741Y-14532674D01*
X18317741Y-14532674D02*
X18327265Y-14551722D01*
X18327265Y-14551722D02*
X18327265Y-14656484D01*
X18717741Y-14446960D02*
X18546313Y-14704103D01*
X18974884Y-14456484D02*
X18993932Y-14456484D01*
X18993932Y-14456484D02*
X19012979Y-14466008D01*
X19012979Y-14466008D02*
X19022503Y-14475531D01*
X19022503Y-14475531D02*
X19032027Y-14494579D01*
X19032027Y-14494579D02*
X19041551Y-14532674D01*
X19041551Y-14532674D02*
X19041551Y-14580293D01*
X19041551Y-14580293D02*
X19032027Y-14618388D01*
X19032027Y-14618388D02*
X19022503Y-14637436D01*
X19022503Y-14637436D02*
X19012979Y-14646960D01*
X19012979Y-14646960D02*
X18993932Y-14656484D01*
X18993932Y-14656484D02*
X18974884Y-14656484D01*
X18974884Y-14656484D02*
X18955837Y-14646960D01*
X18955837Y-14646960D02*
X18946313Y-14637436D01*
X18946313Y-14637436D02*
X18936789Y-14618388D01*
X18936789Y-14618388D02*
X18927265Y-14580293D01*
X18927265Y-14580293D02*
X18927265Y-14532674D01*
X18927265Y-14532674D02*
X18936789Y-14494579D01*
X18936789Y-14494579D02*
X18946313Y-14475531D01*
X18946313Y-14475531D02*
X18955837Y-14466008D01*
X18955837Y-14466008D02*
X18974884Y-14456484D01*
X19127265Y-14637436D02*
X19136789Y-14646960D01*
X19136789Y-14646960D02*
X19127265Y-14656484D01*
X19127265Y-14656484D02*
X19117741Y-14646960D01*
X19117741Y-14646960D02*
X19127265Y-14637436D01*
X19127265Y-14637436D02*
X19127265Y-14656484D01*
X19260598Y-14456484D02*
X19279646Y-14456484D01*
X19279646Y-14456484D02*
X19298694Y-14466008D01*
X19298694Y-14466008D02*
X19308218Y-14475531D01*
X19308218Y-14475531D02*
X19317741Y-14494579D01*
X19317741Y-14494579D02*
X19327265Y-14532674D01*
X19327265Y-14532674D02*
X19327265Y-14580293D01*
X19327265Y-14580293D02*
X19317741Y-14618388D01*
X19317741Y-14618388D02*
X19308218Y-14637436D01*
X19308218Y-14637436D02*
X19298694Y-14646960D01*
X19298694Y-14646960D02*
X19279646Y-14656484D01*
X19279646Y-14656484D02*
X19260598Y-14656484D01*
X19260598Y-14656484D02*
X19241551Y-14646960D01*
X19241551Y-14646960D02*
X19232027Y-14637436D01*
X19232027Y-14637436D02*
X19222503Y-14618388D01*
X19222503Y-14618388D02*
X19212979Y-14580293D01*
X19212979Y-14580293D02*
X19212979Y-14532674D01*
X19212979Y-14532674D02*
X19222503Y-14494579D01*
X19222503Y-14494579D02*
X19232027Y-14475531D01*
X19232027Y-14475531D02*
X19241551Y-14466008D01*
X19241551Y-14466008D02*
X19260598Y-14456484D01*
X19508218Y-14456484D02*
X19412979Y-14456484D01*
X19412979Y-14456484D02*
X19403456Y-14551722D01*
X19403456Y-14551722D02*
X19412979Y-14542198D01*
X19412979Y-14542198D02*
X19432027Y-14532674D01*
X19432027Y-14532674D02*
X19479646Y-14532674D01*
X19479646Y-14532674D02*
X19498694Y-14542198D01*
X19498694Y-14542198D02*
X19508218Y-14551722D01*
X19508218Y-14551722D02*
X19517741Y-14570769D01*
X19517741Y-14570769D02*
X19517741Y-14618388D01*
X19517741Y-14618388D02*
X19508218Y-14637436D01*
X19508218Y-14637436D02*
X19498694Y-14646960D01*
X19498694Y-14646960D02*
X19479646Y-14656484D01*
X19479646Y-14656484D02*
X19432027Y-14656484D01*
X19432027Y-14656484D02*
X19412979Y-14646960D01*
X19412979Y-14646960D02*
X19403456Y-14637436D01*
X19612979Y-14656484D02*
X19651075Y-14656484D01*
X19651075Y-14656484D02*
X19670122Y-14646960D01*
X19670122Y-14646960D02*
X19679646Y-14637436D01*
X19679646Y-14637436D02*
X19698694Y-14608865D01*
X19698694Y-14608865D02*
X19708218Y-14570769D01*
X19708218Y-14570769D02*
X19708218Y-14494579D01*
X19708218Y-14494579D02*
X19698694Y-14475531D01*
X19698694Y-14475531D02*
X19689170Y-14466008D01*
X19689170Y-14466008D02*
X19670122Y-14456484D01*
X19670122Y-14456484D02*
X19632027Y-14456484D01*
X19632027Y-14456484D02*
X19612979Y-14466008D01*
X19612979Y-14466008D02*
X19603456Y-14475531D01*
X19603456Y-14475531D02*
X19593932Y-14494579D01*
X19593932Y-14494579D02*
X19593932Y-14542198D01*
X19593932Y-14542198D02*
X19603456Y-14561246D01*
X19603456Y-14561246D02*
X19612979Y-14570769D01*
X19612979Y-14570769D02*
X19632027Y-14580293D01*
X19632027Y-14580293D02*
X19670122Y-14580293D01*
X19670122Y-14580293D02*
X19689170Y-14570769D01*
X19689170Y-14570769D02*
X19698694Y-14561246D01*
X19698694Y-14561246D02*
X19708218Y-14542198D01*
X19822503Y-14542198D02*
X19803456Y-14532674D01*
X19803456Y-14532674D02*
X19793932Y-14523150D01*
X19793932Y-14523150D02*
X19784408Y-14504103D01*
X19784408Y-14504103D02*
X19784408Y-14494579D01*
X19784408Y-14494579D02*
X19793932Y-14475531D01*
X19793932Y-14475531D02*
X19803456Y-14466008D01*
X19803456Y-14466008D02*
X19822503Y-14456484D01*
X19822503Y-14456484D02*
X19860599Y-14456484D01*
X19860599Y-14456484D02*
X19879646Y-14466008D01*
X19879646Y-14466008D02*
X19889170Y-14475531D01*
X19889170Y-14475531D02*
X19898694Y-14494579D01*
X19898694Y-14494579D02*
X19898694Y-14504103D01*
X19898694Y-14504103D02*
X19889170Y-14523150D01*
X19889170Y-14523150D02*
X19879646Y-14532674D01*
X19879646Y-14532674D02*
X19860599Y-14542198D01*
X19860599Y-14542198D02*
X19822503Y-14542198D01*
X19822503Y-14542198D02*
X19803456Y-14551722D01*
X19803456Y-14551722D02*
X19793932Y-14561246D01*
X19793932Y-14561246D02*
X19784408Y-14580293D01*
X19784408Y-14580293D02*
X19784408Y-14618388D01*
X19784408Y-14618388D02*
X19793932Y-14637436D01*
X19793932Y-14637436D02*
X19803456Y-14646960D01*
X19803456Y-14646960D02*
X19822503Y-14656484D01*
X19822503Y-14656484D02*
X19860599Y-14656484D01*
X19860599Y-14656484D02*
X19879646Y-14646960D01*
X19879646Y-14646960D02*
X19889170Y-14637436D01*
X19889170Y-14637436D02*
X19898694Y-14618388D01*
X19898694Y-14618388D02*
X19898694Y-14580293D01*
X19898694Y-14580293D02*
X19889170Y-14561246D01*
X19889170Y-14561246D02*
X19879646Y-14551722D01*
X19879646Y-14551722D02*
X19860599Y-14542198D01*
X19974884Y-14456484D02*
X19974884Y-14494579D01*
X20051075Y-14456484D02*
X20051075Y-14494579D01*
X20346313Y-14732674D02*
X20336789Y-14723150D01*
X20336789Y-14723150D02*
X20317741Y-14694579D01*
X20317741Y-14694579D02*
X20308218Y-14675531D01*
X20308218Y-14675531D02*
X20298694Y-14646960D01*
X20298694Y-14646960D02*
X20289170Y-14599341D01*
X20289170Y-14599341D02*
X20289170Y-14561246D01*
X20289170Y-14561246D02*
X20298694Y-14513627D01*
X20298694Y-14513627D02*
X20308218Y-14485055D01*
X20308218Y-14485055D02*
X20317741Y-14466008D01*
X20317741Y-14466008D02*
X20336789Y-14437436D01*
X20336789Y-14437436D02*
X20346313Y-14427912D01*
X20508218Y-14523150D02*
X20508218Y-14656484D01*
X20460599Y-14446960D02*
X20412980Y-14589817D01*
X20412980Y-14589817D02*
X20536789Y-14589817D01*
X20765361Y-14656484D02*
X20765361Y-14456484D01*
X20851075Y-14656484D02*
X20851075Y-14551722D01*
X20851075Y-14551722D02*
X20841551Y-14532674D01*
X20841551Y-14532674D02*
X20822503Y-14523150D01*
X20822503Y-14523150D02*
X20793932Y-14523150D01*
X20793932Y-14523150D02*
X20774884Y-14532674D01*
X20774884Y-14532674D02*
X20765361Y-14542198D01*
X20974884Y-14656484D02*
X20955837Y-14646960D01*
X20955837Y-14646960D02*
X20946313Y-14637436D01*
X20946313Y-14637436D02*
X20936789Y-14618388D01*
X20936789Y-14618388D02*
X20936789Y-14561246D01*
X20936789Y-14561246D02*
X20946313Y-14542198D01*
X20946313Y-14542198D02*
X20955837Y-14532674D01*
X20955837Y-14532674D02*
X20974884Y-14523150D01*
X20974884Y-14523150D02*
X21003456Y-14523150D01*
X21003456Y-14523150D02*
X21022503Y-14532674D01*
X21022503Y-14532674D02*
X21032027Y-14542198D01*
X21032027Y-14542198D02*
X21041551Y-14561246D01*
X21041551Y-14561246D02*
X21041551Y-14618388D01*
X21041551Y-14618388D02*
X21032027Y-14637436D01*
X21032027Y-14637436D02*
X21022503Y-14646960D01*
X21022503Y-14646960D02*
X21003456Y-14656484D01*
X21003456Y-14656484D02*
X20974884Y-14656484D01*
X21155837Y-14656484D02*
X21136789Y-14646960D01*
X21136789Y-14646960D02*
X21127265Y-14627912D01*
X21127265Y-14627912D02*
X21127265Y-14456484D01*
X21308218Y-14646960D02*
X21289170Y-14656484D01*
X21289170Y-14656484D02*
X21251075Y-14656484D01*
X21251075Y-14656484D02*
X21232027Y-14646960D01*
X21232027Y-14646960D02*
X21222503Y-14627912D01*
X21222503Y-14627912D02*
X21222503Y-14551722D01*
X21222503Y-14551722D02*
X21232027Y-14532674D01*
X21232027Y-14532674D02*
X21251075Y-14523150D01*
X21251075Y-14523150D02*
X21289170Y-14523150D01*
X21289170Y-14523150D02*
X21308218Y-14532674D01*
X21308218Y-14532674D02*
X21317742Y-14551722D01*
X21317742Y-14551722D02*
X21317742Y-14570769D01*
X21317742Y-14570769D02*
X21222503Y-14589817D01*
X21393932Y-14646960D02*
X21412980Y-14656484D01*
X21412980Y-14656484D02*
X21451075Y-14656484D01*
X21451075Y-14656484D02*
X21470123Y-14646960D01*
X21470123Y-14646960D02*
X21479646Y-14627912D01*
X21479646Y-14627912D02*
X21479646Y-14618388D01*
X21479646Y-14618388D02*
X21470123Y-14599341D01*
X21470123Y-14599341D02*
X21451075Y-14589817D01*
X21451075Y-14589817D02*
X21422503Y-14589817D01*
X21422503Y-14589817D02*
X21403456Y-14580293D01*
X21403456Y-14580293D02*
X21393932Y-14561246D01*
X21393932Y-14561246D02*
X21393932Y-14551722D01*
X21393932Y-14551722D02*
X21403456Y-14532674D01*
X21403456Y-14532674D02*
X21422503Y-14523150D01*
X21422503Y-14523150D02*
X21451075Y-14523150D01*
X21451075Y-14523150D02*
X21470123Y-14532674D01*
X21546313Y-14732674D02*
X21555837Y-14723150D01*
X21555837Y-14723150D02*
X21574884Y-14694579D01*
X21574884Y-14694579D02*
X21584408Y-14675531D01*
X21584408Y-14675531D02*
X21593932Y-14646960D01*
X21593932Y-14646960D02*
X21603456Y-14599341D01*
X21603456Y-14599341D02*
X21603456Y-14561246D01*
X21603456Y-14561246D02*
X21593932Y-14513627D01*
X21593932Y-14513627D02*
X21584408Y-14485055D01*
X21584408Y-14485055D02*
X21574884Y-14466008D01*
X21574884Y-14466008D02*
X21555837Y-14437436D01*
X21555837Y-14437436D02*
X21546313Y-14427912D01*
M02*
